<?xml version="1.0" encoding="UTF-8" standalone="no"?>
<!-- Created with Inkscape (http://www.inkscape.org/) -->

<svg
   xmlns:dc="http://purl.org/dc/elements/1.1/"
   xmlns:cc="http://creativecommons.org/ns#"
   xmlns:rdf="http://www.w3.org/1999/02/22-rdf-syntax-ns#"
   xmlns:svg="http://www.w3.org/2000/svg"
   xmlns="http://www.w3.org/2000/svg"
   xmlns:sodipodi="http://sodipodi.sourceforge.net/DTD/sodipodi-0.dtd"
   xmlns:inkscape="http://www.inkscape.org/namespaces/inkscape"
   id="svg2"
   version="1.1"
   inkscape:version="0.48.5 r10040"
   width="789"
   height="388"
   xml:space="preserve"
   sodipodi:docname="conv_sigma_re.pdf"><metadata
     id="metadata8"><rdf:RDF><cc:Work
         rdf:about=""><dc:format>image/svg+xml</dc:format><dc:type
           rdf:resource="http://purl.org/dc/dcmitype/StillImage" /><dc:title></dc:title></cc:Work></rdf:RDF></metadata><defs
     id="defs6"><clipPath
       clipPathUnits="userSpaceOnUse"
       id="clipPath18"><path
         d="m 0,5 2400,0 0,3345 L 0,3350 0,5 z"
         id="path20"
         inkscape:connector-curvature="0" /></clipPath><clipPath
       clipPathUnits="userSpaceOnUse"
       id="clipPath164"><path
         d="m 313.332,372.5 1866.67,0 0,2726.67 -1866.67,0 0,-2726.67 z"
         id="path166"
         inkscape:connector-curvature="0" /></clipPath><clipPath
       id="clipPath3334"
       clipPathUnits="userSpaceOnUse"><path
         id="path3336"
         d="m 313.332,372.5 1866.67,0 0,2726.67 -1866.67,0 0,-2726.67 z"
         inkscape:connector-curvature="0" /></clipPath><clipPath
       id="clipPath3188"
       clipPathUnits="userSpaceOnUse"><path
         id="path3190"
         d="m 0,5 2400,0 0,3345 L 0,3350 0,5 z"
         inkscape:connector-curvature="0" /></clipPath><clipPath
       id="clipPath4128"
       clipPathUnits="userSpaceOnUse"><path
         id="path4130"
         d="m 227.5,139.168 1359.17,0 0,1017.5 -1359.17,0 0,-1017.5 z"
         inkscape:connector-curvature="0" /></clipPath><clipPath
       id="clipPath4038"
       clipPathUnits="userSpaceOnUse"><path
         id="path4040"
         d="m 0,2 1750,0 0,1248 L 0,1250 0,2 z"
         inkscape:connector-curvature="0" /></clipPath><clipPath
       id="clipPath4315"
       clipPathUnits="userSpaceOnUse"><path
         id="path4317"
         d="m 226.668,135.832 1352.5,0 0,1010.84 -1352.5,0 0,-1010.84 z"
         inkscape:connector-curvature="0" /></clipPath><clipPath
       id="clipPath7043"
       clipPathUnits="userSpaceOnUse"><path
         id="path7045"
         d="m 313.332,378.332 1866.67,0 0,2740 -1866.67,0 0,-2740 z" /></clipPath><clipPath
       id="clipPath6889"
       clipPathUnits="userSpaceOnUse"><path
         id="path6891"
         d="m 0,9 2400,0 0,3361 L 0,3370 0,9 z" /></clipPath><clipPath
       id="clipPath3828"
       clipPathUnits="userSpaceOnUse"><path
         id="path3830"
         d="m 313.332,378.332 1866.67,0 0,2740 -1866.67,0 0,-2740 z" /></clipPath><clipPath
       id="clipPath3674"
       clipPathUnits="userSpaceOnUse"><path
         id="path3676"
         d="m 0,9 2400,0 0,3361 L 0,3370 0,9 z" /></clipPath><clipPath
       id="clipPath4452"
       clipPathUnits="userSpaceOnUse"><path
         id="path4454"
         d="m 319.168,378.332 1904.16,0 0,2740 -1904.16,0 0,-2740 z" /></clipPath><clipPath
       id="clipPath4298"
       clipPathUnits="userSpaceOnUse"><path
         id="path4300"
         d="m 0,9 2450,0 0,3361 L 0,3370 0,9 z" /></clipPath><clipPath
       id="clipPath6247"
       clipPathUnits="userSpaceOnUse"><path
         id="path6249"
         d="m 319.168,378.332 1904.16,0 0,2740 -1904.16,0 0,-2740 z" /></clipPath><clipPath
       id="clipPath6109"
       clipPathUnits="userSpaceOnUse"><path
         id="path6111"
         d="m 0,9 2450,0 0,3361 L 0,3370 0,9 z" /></clipPath><clipPath
       id="clipPath6471"
       clipPathUnits="userSpaceOnUse"><path
         id="path6473"
         d="m 227.5,139.168 1359.17,0 0,1017.5 -1359.17,0 0,-1017.5 z" /></clipPath><clipPath
       id="clipPath6373"
       clipPathUnits="userSpaceOnUse"><path
         id="path6375"
         d="m 0,2 1750,0 0,1248 L 0,1250 0,2 z" /></clipPath><clipPath
       id="clipPath6675"
       clipPathUnits="userSpaceOnUse"><path
         id="path6677"
         d="m 227.5,139.168 1359.17,0 0,1017.5 -1359.17,0 0,-1017.5 z" /></clipPath><clipPath
       id="clipPath6577"
       clipPathUnits="userSpaceOnUse"><path
         id="path6579"
         d="m 0,2 1750,0 0,1248 L 0,1250 0,2 z" /></clipPath></defs><sodipodi:namedview
     pagecolor="#ffffff"
     bordercolor="#666666"
     borderopacity="1"
     objecttolerance="10"
     gridtolerance="10"
     guidetolerance="10"
     inkscape:pageopacity="0"
     inkscape:pageshadow="2"
     inkscape:window-width="1920"
     inkscape:window-height="1025"
     id="namedview4"
     showgrid="false"
     fit-margin-top="0"
     fit-margin-left="0"
     fit-margin-right="0"
     fit-margin-bottom="0"
     inkscape:zoom="1.1271642"
     inkscape:cx="391.61797"
     inkscape:cy="115.49789"
     inkscape:window-x="-2"
     inkscape:window-y="-3"
     inkscape:window-maximized="1"
     inkscape:current-layer="g10" /><g
     id="g10"
     inkscape:groupmode="layer"
     inkscape:label="ink_ext_XXXXXX"
     transform="matrix(1.25,0,0,-1.25,23.042465,412.97232)"><path
       id="path4046"
       style="fill:none;stroke:#ffffff;stroke-width:0.5;stroke-linecap:butt;stroke-linejoin:round;stroke-miterlimit:10;stroke-opacity:1;stroke-dasharray:none"
       d="m 241.92753,141.43509 0,101.667 135.75,0 0,-101.667 -135.75,0"
       inkscape:connector-curvature="0" /><path
       style="opacity:0.8;fill:none;stroke:#000000;stroke-width:0.24000001;stroke-miterlimit:4;stroke-dasharray:0.96000004, 0.48000002;stroke-dashoffset:0"
       d="m 442.1877,313.06003 127.93269,0 0,-23.26651 -127.93269,0 z"
       id="rect4919"
       inkscape:connector-curvature="0"
       sodipodi:nodetypes="ccccc" /><path
       transform="scale(1,-1)"
       style="opacity:0.8;fill:none;stroke:#000000;stroke-width:0.24000001;stroke-miterlimit:4;stroke-dasharray:0.96000004, 0.48000002;stroke-dashoffset:0"
       d="m 50.186977,-313.06003 134.427093,0 0,23.26651 -134.427093,0 z"
       id="rect4913"
       inkscape:connector-curvature="0"
       sodipodi:nodetypes="ccccc" /><path
       style="opacity:0.8;fill:none;stroke:#000000;stroke-width:0.30000001;stroke-linecap:butt;stroke-linejoin:miter;stroke-miterlimit:4;stroke-opacity:1;stroke-dasharray:1.20000005, 0.60000002;stroke-dashoffset:0"
       d="M 258.98094,21.490214 510.90663,98.96447"
       id="path5802"
       inkscape:connector-curvature="0"
       transform="matrix(0.8,0,0,-0.8,-22.583972,330.22786)"
       sodipodi:nodetypes="cc" /><path
       style="opacity:0.8;fill:none;stroke:#000000;stroke-width:0.30000001;stroke-linecap:butt;stroke-linejoin:miter;stroke-miterlimit:4;stroke-opacity:1;stroke-dasharray:1.20000005, 0.60000002;stroke-dashoffset:0"
       d="M 580.97053,21.471764 295.27677,98.790355"
       id="path5806"
       inkscape:connector-curvature="0"
       transform="matrix(0.8,0,0,-0.8,-22.583972,330.22786)"
       sodipodi:nodetypes="cc" /><path
       style="opacity:0.8;fill:none;stroke:#000000;stroke-width:0.30000001;stroke-linecap:butt;stroke-linejoin:miter;stroke-miterlimit:4;stroke-opacity:1;stroke-dasharray:1.20000005, 0.60000002;stroke-dashoffset:0"
       d="M 294.75477,253.46064 90.977763,50.462258"
       id="path5804"
       inkscape:connector-curvature="0"
       transform="matrix(0.8,0,0,-0.8,-22.583972,330.22786)"
       sodipodi:nodetypes="cc" /><path
       style="opacity:0.8;fill:none;stroke:#000000;stroke-width:0.30000001;stroke-linecap:butt;stroke-linejoin:miter;stroke-miterlimit:4;stroke-opacity:1;stroke-dasharray:1.20000005, 0.60000002;stroke-dashoffset:0"
       d="M 510.91394,253.55251 740.84873,50.453151"
       id="path5808"
       inkscape:connector-curvature="0"
       transform="matrix(0.8,0,0,-0.8,-22.583972,330.22786)"
       sodipodi:nodetypes="cc" /><text
       xml:space="preserve"
       style="font-size:14.57562923px;font-style:normal;font-weight:normal;line-height:125%;letter-spacing:0px;word-spacing:0px;fill:#000000;fill-opacity:1;stroke:none;font-family:Sans"
       x="98.264053"
       y="-22.389605"
       id="text5812"
       sodipodi:linespacing="125%"
       transform="scale(1,-1)"><tspan
         sodipodi:role="line"
         id="tspan5814"
         x="98.264053"
         y="-22.389605">time</tspan></text>
<text
       transform="matrix(0,1,1,0,0,0)"
       sodipodi:linespacing="125%"
       id="text6097"
       y="400.74567"
       x="170.07625"
       style="font-size:14.57562828px;font-style:normal;font-weight:normal;line-height:125%;letter-spacing:0px;word-spacing:0px;fill:#000000;fill-opacity:1;stroke:none;font-family:Sans"
       xml:space="preserve"><tspan
         y="400.74567"
         x="170.07625"
         id="tspan6099"
         sodipodi:role="line">$\Sigma(t)$</tspan></text>
<text
       xml:space="preserve"
       style="font-size:14.57562828px;font-style:normal;font-weight:normal;line-height:125%;letter-spacing:0px;word-spacing:0px;fill:#000000;fill-opacity:1;stroke:none;font-family:Sans"
       x="170.07625"
       y="8.7456284"
       id="text5812-7"
       sodipodi:linespacing="125%"
       transform="matrix(0,1,1,0,0,0)"><tspan
         sodipodi:role="line"
         id="tspan5814-4"
         x="170.07625"
         y="8.7456284">$\Sigma(t)$</tspan></text>
<text
       transform="scale(1,-1)"
       sodipodi:linespacing="125%"
       id="text5875"
       y="-22.389605"
       x="491.86404"
       style="font-size:14.57562923px;font-style:normal;font-weight:normal;line-height:125%;letter-spacing:0px;word-spacing:0px;fill:#000000;fill-opacity:1;stroke:none;font-family:Sans"
       xml:space="preserve"><tspan
         y="-22.389605"
         x="491.86404"
         id="tspan5877"
         sodipodi:role="line">time</tspan></text>
<path
       style="fill:none;stroke:#000000;stroke-width:2;stroke-linecap:butt;stroke-linejoin:miter;stroke-miterlimit:4;stroke-opacity:1;stroke-dasharray:12, 2;stroke-dashoffset:0"
       d="m 224.1513,79.699914 19.57278,0"
       id="path6597"
       inkscape:connector-curvature="0" /><path
       inkscape:connector-curvature="0"
       id="path6599"
       d="m 224.1513,95.257763 19.57278,0"
       style="fill:#ff0000;stroke:#ff0000;stroke-width:2;stroke-linecap:butt;stroke-linejoin:miter;stroke-miterlimit:4;stroke-opacity:1;stroke-dasharray:none" /><path
       inkscape:connector-curvature="0"
       id="path6601"
       d="m 224.1513,64.142068 19.57278,0"
       style="fill:none;stroke:#000000;stroke-width:2;stroke-linecap:butt;stroke-linejoin:miter;stroke-miterlimit:4;stroke-opacity:1;stroke-dasharray:2, 2;stroke-dashoffset:0" /><text
       xml:space="preserve"
       style="font-size:11.25687885px;font-style:normal;font-weight:normal;line-height:125%;letter-spacing:0px;word-spacing:0px;fill:#000000;fill-opacity:1;stroke:none;font-family:Sans"
       x="248.98471"
       y="-91.946777"
       id="text6603"
       sodipodi:linespacing="125%"
       transform="scale(1,-1)"><tspan
         sodipodi:role="line"
         id="tspan6605"
         x="248.98471"
         y="-91.946777">analytic solution </tspan></text>
<text
       transform="scale(1,-1)"
       sodipodi:linespacing="125%"
       id="text6607"
       y="-75.946793"
       x="248.98471"
       style="font-size:11.25687885px;font-style:normal;font-weight:normal;line-height:125%;letter-spacing:0px;word-spacing:0px;fill:#000000;fill-opacity:1;stroke:none;font-family:Sans"
       xml:space="preserve"><tspan
         y="-75.946793"
         x="248.98471"
         id="tspan6609"
         sodipodi:role="line">num. solution, N=100</tspan></text>
<text
       xml:space="preserve"
       style="font-size:11.25687885px;font-style:normal;font-weight:normal;line-height:125%;letter-spacing:0px;word-spacing:0px;fill:#000000;fill-opacity:1;stroke:none;font-family:Sans"
       x="248.98471"
       y="-61.546806"
       id="text6611"
       sodipodi:linespacing="125%"
       transform="scale(1,-1)"><tspan
         sodipodi:role="line"
         id="tspan6613"
         x="248.98471"
         y="-61.546806">num. solution, N=450</tspan></text>
<path
       id="path6899"
       style="fill:none;stroke:#000000;stroke-width:0.5;stroke-linecap:butt;stroke-linejoin:round;stroke-miterlimit:10;stroke-opacity:1;stroke-dasharray:none"
       d="m 420.66049,45.80967 186.5838,0"
       inkscape:connector-curvature="0" /><path
       id="path6901"
       style="fill:none;stroke:#000000;stroke-width:0.5;stroke-linecap:butt;stroke-linejoin:round;stroke-miterlimit:10;stroke-opacity:1;stroke-dasharray:none"
       d="m 420.66049,45.80967 0,273.9162"
       inkscape:connector-curvature="0" /><path
       id="path6903"
       style="fill:none;stroke:#000000;stroke-width:0.5;stroke-linecap:butt;stroke-linejoin:round;stroke-miterlimit:10;stroke-opacity:1;stroke-dasharray:none"
       d="m 438.66049,45.80967 0,2.75"
       inkscape:connector-curvature="0" /><text
       transform="scale(1,-1)"
       id="text6907"
       x="428.99408"
       y="-33.72607"><tspan
         style="font-size:10px;font-variant:normal;font-weight:normal;writing-mode:lr-tb;fill:#000000;fill-opacity:1;fill-rule:nonzero;stroke:none;font-family:Helvetica;-inkscape-font-specification:Helvetica"
         x="428.99408 434.55408 437.33408 442.89407"
         y="-33.72607"
         sodipodi:role="line"
         id="tspan6909">0.25</tspan></text>
<path
       id="path6911"
       style="fill:none;stroke:#000000;stroke-width:0.5;stroke-linecap:butt;stroke-linejoin:round;stroke-miterlimit:10;stroke-opacity:1;stroke-dasharray:none"
       d="m 468.74409,45.80967 0,2.75"
       inkscape:connector-curvature="0" /><text
       transform="scale(1,-1)"
       id="text6915"
       x="461.82727"
       y="-33.72607"><tspan
         style="font-size:10px;font-variant:normal;font-weight:normal;writing-mode:lr-tb;fill:#000000;fill-opacity:1;fill-rule:nonzero;stroke:none;font-family:Helvetica;-inkscape-font-specification:Helvetica"
         x="461.82727 467.38727 470.16727"
         y="-33.72607"
         sodipodi:role="line"
         id="tspan6917">0.3</tspan></text>
<path
       id="path6919"
       style="fill:none;stroke:#000000;stroke-width:0.5;stroke-linecap:butt;stroke-linejoin:round;stroke-miterlimit:10;stroke-opacity:1;stroke-dasharray:none"
       d="m 498.82729,45.80967 0,2.75"
       inkscape:connector-curvature="0" /><text
       transform="scale(1,-1)"
       id="text6923"
       x="489.16049"
       y="-33.72607"><tspan
         style="font-size:10px;font-variant:normal;font-weight:normal;writing-mode:lr-tb;fill:#000000;fill-opacity:1;fill-rule:nonzero;stroke:none;font-family:Helvetica;-inkscape-font-specification:Helvetica"
         x="489.16049 494.72049 497.50049 503.06049"
         y="-33.72607"
         sodipodi:role="line"
         id="tspan6925">0.35</tspan></text>
<path
       id="path6927"
       style="fill:none;stroke:#000000;stroke-width:0.5;stroke-linecap:butt;stroke-linejoin:round;stroke-miterlimit:10;stroke-opacity:1;stroke-dasharray:none"
       d="m 528.99429,45.80967 0,2.75"
       inkscape:connector-curvature="0" /><text
       transform="scale(1,-1)"
       id="text6931"
       x="522.07733"
       y="-33.72607"><tspan
         style="font-size:10px;font-variant:normal;font-weight:normal;writing-mode:lr-tb;fill:#000000;fill-opacity:1;fill-rule:nonzero;stroke:none;font-family:Helvetica;-inkscape-font-specification:Helvetica"
         x="522.07733 527.63733 530.41736"
         y="-33.72607"
         sodipodi:role="line"
         id="tspan6933">0.4</tspan></text>
<path
       id="path6935"
       style="fill:none;stroke:#000000;stroke-width:0.5;stroke-linecap:butt;stroke-linejoin:round;stroke-miterlimit:10;stroke-opacity:1;stroke-dasharray:none"
       d="m 559.07729,45.80967 0,2.75"
       inkscape:connector-curvature="0" /><text
       transform="scale(1,-1)"
       id="text6939"
       x="549.41034"
       y="-33.72607"><tspan
         style="font-size:10px;font-variant:normal;font-weight:normal;writing-mode:lr-tb;fill:#000000;fill-opacity:1;fill-rule:nonzero;stroke:none;font-family:Helvetica;-inkscape-font-specification:Helvetica"
         x="549.41034 554.97034 557.75037 563.31036"
         y="-33.72607"
         sodipodi:role="line"
         id="tspan6941">0.45</tspan></text>
<path
       id="path6943"
       style="fill:none;stroke:#000000;stroke-width:0.5;stroke-linecap:butt;stroke-linejoin:round;stroke-miterlimit:10;stroke-opacity:1;stroke-dasharray:none"
       d="m 589.16029,45.80967 0,2.75"
       inkscape:connector-curvature="0" /><text
       transform="scale(1,-1)"
       id="text6947"
       x="582.24432"
       y="-33.72607"><tspan
         style="font-size:10px;font-variant:normal;font-weight:normal;writing-mode:lr-tb;fill:#000000;fill-opacity:1;fill-rule:nonzero;stroke:none;font-family:Helvetica;-inkscape-font-specification:Helvetica"
         x="582.24432 587.80432 590.58435"
         y="-33.72607"
         sodipodi:role="line"
         id="tspan6949">0.5</tspan></text>
<path
       id="path6951"
       style="fill:none;stroke:#000000;stroke-width:0.5;stroke-linecap:butt;stroke-linejoin:round;stroke-miterlimit:10;stroke-opacity:1;stroke-dasharray:none"
       d="m 420.66049,45.80967 2.6668,0"
       inkscape:connector-curvature="0" /><text
       transform="scale(1,-1)"
       id="text6955"
       x="399.11047"
       y="-42.142872"><tspan
         style="font-size:10px;font-variant:normal;font-weight:normal;writing-mode:lr-tb;fill:#000000;fill-opacity:1;fill-rule:nonzero;stroke:none;font-family:Helvetica;-inkscape-font-specification:Helvetica"
         x="399.11047 404.67047 407.45047"
         y="-42.142872"
         sodipodi:role="line"
         id="tspan6957">0.5</tspan></text>
<path
       id="path6967"
       style="fill:none;stroke:#000000;stroke-width:0.5;stroke-linecap:butt;stroke-linejoin:round;stroke-miterlimit:10;stroke-opacity:1;stroke-dasharray:none"
       d="m 420.66049,100.64287 2.6668,0"
       inkscape:connector-curvature="0" /><text
       transform="scale(1,-1)"
       id="text6971"
       x="399.11047"
       y="-96.976067"><tspan
         style="font-size:10px;font-variant:normal;font-weight:normal;writing-mode:lr-tb;fill:#000000;fill-opacity:1;fill-rule:nonzero;stroke:none;font-family:Helvetica;-inkscape-font-specification:Helvetica"
         x="399.11047 404.67047 407.45047"
         y="-96.976067"
         sodipodi:role="line"
         id="tspan6973">0.6</tspan></text>
<path
       id="path6983"
       style="fill:none;stroke:#000000;stroke-width:0.5;stroke-linecap:butt;stroke-linejoin:round;stroke-miterlimit:10;stroke-opacity:1;stroke-dasharray:none"
       d="m 420.66049,155.39287 2.6668,0"
       inkscape:connector-curvature="0" /><text
       transform="scale(1,-1)"
       id="text6987"
       x="399.11047"
       y="-151.72588"><tspan
         style="font-size:10px;font-variant:normal;font-weight:normal;writing-mode:lr-tb;fill:#000000;fill-opacity:1;fill-rule:nonzero;stroke:none;font-family:Helvetica;-inkscape-font-specification:Helvetica"
         x="399.11047 404.67047 407.45047"
         y="-151.72588"
         sodipodi:role="line"
         id="tspan6989">0.7</tspan></text>
<path
       id="path6999"
       style="fill:none;stroke:#000000;stroke-width:0.5;stroke-linecap:butt;stroke-linejoin:round;stroke-miterlimit:10;stroke-opacity:1;stroke-dasharray:none"
       d="m 420.66049,210.22587 2.6668,0"
       inkscape:connector-curvature="0" /><text
       transform="scale(1,-1)"
       id="text7003"
       x="399.11047"
       y="-206.55988"><tspan
         style="font-size:10px;font-variant:normal;font-weight:normal;writing-mode:lr-tb;fill:#000000;fill-opacity:1;fill-rule:nonzero;stroke:none;font-family:Helvetica;-inkscape-font-specification:Helvetica"
         x="399.11047 404.67047 407.45047"
         y="-206.55988"
         sodipodi:role="line"
         id="tspan7005">0.8</tspan></text>
<path
       id="path7015"
       style="fill:none;stroke:#000000;stroke-width:0.5;stroke-linecap:butt;stroke-linejoin:round;stroke-miterlimit:10;stroke-opacity:1;stroke-dasharray:none"
       d="m 420.66049,264.97587 2.6668,0"
       inkscape:connector-curvature="0" /><text
       transform="scale(1,-1)"
       id="text7019"
       x="399.11047"
       y="-261.30988"><tspan
         style="font-size:10px;font-variant:normal;font-weight:normal;writing-mode:lr-tb;fill:#000000;fill-opacity:1;fill-rule:nonzero;stroke:none;font-family:Helvetica;-inkscape-font-specification:Helvetica"
         x="399.11047 404.67047 407.45047"
         y="-261.30988"
         sodipodi:role="line"
         id="tspan7021">0.9</tspan></text>
<path
       id="path7031"
       style="fill:none;stroke:#000000;stroke-width:0.5;stroke-linecap:butt;stroke-linejoin:round;stroke-miterlimit:10;stroke-opacity:1;stroke-dasharray:none"
       d="m 420.66049,319.72587 2.6668,0"
       inkscape:connector-curvature="0" /><text
       transform="scale(1,-1)"
       id="text7035"
       x="407.44406"
       y="-316.05988"><tspan
         style="font-size:10px;font-variant:normal;font-weight:normal;writing-mode:lr-tb;fill:#000000;fill-opacity:1;fill-rule:nonzero;stroke:none;font-family:Helvetica;-inkscape-font-specification:Helvetica"
         x="407.44406"
         y="-316.05988"
         id="tspan7037">1</tspan></text>
<path
       id="path7049"
       style="fill:none;stroke:#000000;stroke-width:2;stroke-linecap:butt;stroke-linejoin:round;stroke-miterlimit:10;stroke-opacity:1;stroke-dasharray:2, 2;stroke-dashoffset:0"
       d="m 438.74409,45.80967 0.4164,186.0832 0.4168,24.417 0.4168,11 0.4164,7.333 0.4168,4.833 0.3332,3.667 0.4168,2.5 0.4168,2.417 0.4164,1.166 0.4168,2.5 0.4168,1.167 0.3332,1.25 0.4168,1.25 0.4164,0 0.4168,1.167 0.4168,1.25 0.4164,0 0.3336,1.25 0.4164,0 0.4168,1.166 0.8332,0 0.4168,1.25 0.75,0 0.4168,1.25 1.5832,0 0.4168,1.167 1.5832,0 0.4168,1.25 2.8332,0 0.4168,1.167 4.4164,0 0.4168,1.25 10.8332,0 0.4168,1.25 10.9168,0 0.3332,-1.25 3.25,0 m 0,0 12.917,0 0.416,-1.25 9.25,0 0.417,-1.167 7.167,0 0.416,-1.25 6.084,0 0.416,-1.167 5.167,0 0.417,-1.25 4.833,0 0.417,-1.25 4,0 0.416,-1.166 3.667,0 0.333,-1.25 3.25,0 0.417,-1.25 2.833,0 0.417,-1.167 2.75,0 0.417,-1.25 2,0 0.416,-1.25 2.417,0 0.417,-1.167 1.583,0 0.417,-1.25 1.666,0 0.334,-1.25 1.666,0 0.417,-1.166 1.167,0 0.416,-1.25 1.167,0 0.417,-1.167 1.25,0 0.416,-1.25 0.75,0 0.417,-1.25 0.833,0 0.334,-1.167 0.416,0 0.417,-1.25 0.833,0 0.417,-1.25 0.333,0 0.417,-1.166 0.417,0 0.416,-1.25 0.417,0 0.417,-1.25 0.333,0 0.417,-1.167 0.416,0 0.417,-1.25 0.417,-1.25 0.416,0 0.334,-1.167 0.416,-1.25 0.417,-1.166 0.417,-1.25 0.416,0 0.417,-1.25 0.333,-1.167 0.417,-2.5 0.417,-1.167 0.416,-1.25 0.417,-1.25 0.417,-2.416 0.333,-2.417 0.417,-1.25 0.416,-2.417 0.417,-3.666 0.417,-2.417 0.416,-3.667 0.334,-3.666 0.416,-4.917 0.417,-6.083 0.417,-7.334 0.416,-8.5 0.417,-11 0.333,-96.4162 0.417,-56.75"
       inkscape:connector-curvature="0" /><path
       style="fill:none;stroke:#ff0000;stroke-width:2;stroke-linecap:butt;stroke-linejoin:round;stroke-miterlimit:10;stroke-opacity:1;stroke-dasharray:none"
       d="m 438.74409,45.72607 c 0.24491,66.78546 -0.21123,133.5763 0.59703,200.35789 0.65886,15.19438 -0.18033,30.78636 3.90297,45.55891 1.57497,5.5703 5.53923,10.07316 10.8332,12.167 m 0,0 c 11.64356,4.43313 24.91496,3.39767 37.5,2.833 2.43169,-0.29279 4.99451,-0.35224 7.333,-0.75 m 0,0 c 15.359,-1.63923 30.48704,-4.36524 44.917,-9.167 m 0,0 c 13.03906,-4.21183 26.70673,-11.48279 32.917,-24.666 7.71827,-16.33186 8.24719,-34.96159 9.55676,-52.74087 2.44683,-51.84745 2.04599,-103.78011 2.37356,-155.6728 0.0232,-5.80671 0.0465,-11.61342 0.0697,-17.42013"
       id="path7057"
       inkscape:connector-curvature="0" /><path
       id="path4306"
       style="fill:none;stroke:#ffffff;stroke-width:0.5;stroke-linecap:butt;stroke-linejoin:round;stroke-miterlimit:10;stroke-opacity:1;stroke-dasharray:none"
       d="m 33.93941,45.788584 0,273.916196 190.3332,0 0,-273.916196 -190.3332,0"
       inkscape:connector-curvature="0" /><path
       id="path4308"
       style="fill:none;stroke:#000000;stroke-width:0.5;stroke-linecap:butt;stroke-linejoin:round;stroke-miterlimit:10;stroke-opacity:1;stroke-dasharray:none"
       d="m 33.93941,45.788584 190.3332,0"
       inkscape:connector-curvature="0" /><path
       id="path4310"
       style="fill:none;stroke:#000000;stroke-width:0.5;stroke-linecap:butt;stroke-linejoin:round;stroke-miterlimit:10;stroke-opacity:1;stroke-dasharray:none"
       d="m 33.93941,45.788584 0,273.916196"
       inkscape:connector-curvature="0" /><path
       id="path4312"
       style="fill:none;stroke:#000000;stroke-width:0.5;stroke-linecap:butt;stroke-linejoin:round;stroke-miterlimit:10;stroke-opacity:1;stroke-dasharray:none"
       d="m 52.35581,45.788584 0,2.75"
       inkscape:connector-curvature="0" /><g
       transform="translate(2.02261,7.871784)"
       id="g4314"><text
         id="text4316"
         transform="matrix(1,0,0,-1,40.6668,25.8332)"><tspan
           id="tspan4318"
           sodipodi:role="line"
           y="0"
           x="0 5.5599999 8.3400002 13.9"
           style="font-size:10px;font-variant:normal;font-weight:normal;writing-mode:lr-tb;fill:#000000;fill-opacity:1;fill-rule:nonzero;stroke:none;font-family:Helvetica;-inkscape-font-specification:Helvetica">0.25</tspan></text>
</g><path
       id="path4320"
       style="fill:none;stroke:#000000;stroke-width:0.5;stroke-linecap:butt;stroke-linejoin:round;stroke-miterlimit:10;stroke-opacity:1;stroke-dasharray:none"
       d="m 83.02261,45.788584 0,2.75"
       inkscape:connector-curvature="0" /><g
       transform="translate(2.02261,7.871784)"
       id="g4322"><text
         id="text4324"
         transform="matrix(1,0,0,-1,74.0832,25.8332)"><tspan
           id="tspan4326"
           sodipodi:role="line"
           y="0"
           x="0 5.5599999 8.3400002"
           style="font-size:10px;font-variant:normal;font-weight:normal;writing-mode:lr-tb;fill:#000000;fill-opacity:1;fill-rule:nonzero;stroke:none;font-family:Helvetica;-inkscape-font-specification:Helvetica">0.3</tspan></text>
</g><path
       id="path4328"
       style="fill:none;stroke:#000000;stroke-width:0.5;stroke-linecap:butt;stroke-linejoin:round;stroke-miterlimit:10;stroke-opacity:1;stroke-dasharray:none"
       d="m 113.68961,45.788584 0,2.75"
       inkscape:connector-curvature="0" /><g
       transform="translate(2.02261,7.871784)"
       id="g4330"><text
         id="text4332"
         transform="matrix(1,0,0,-1,102,25.8332)"><tspan
           id="tspan4334"
           sodipodi:role="line"
           y="0"
           x="0 5.5599999 8.3400002 13.9"
           style="font-size:10px;font-variant:normal;font-weight:normal;writing-mode:lr-tb;fill:#000000;fill-opacity:1;fill-rule:nonzero;stroke:none;font-family:Helvetica;-inkscape-font-specification:Helvetica">0.35</tspan></text>
</g><path
       id="path4336"
       style="fill:none;stroke:#000000;stroke-width:0.5;stroke-linecap:butt;stroke-linejoin:round;stroke-miterlimit:10;stroke-opacity:1;stroke-dasharray:none"
       d="m 144.43961,45.788584 0,2.75"
       inkscape:connector-curvature="0" /><g
       transform="translate(2.02261,7.871784)"
       id="g4338"><text
         id="text4340"
         transform="matrix(1,0,0,-1,135.5,25.8332)"><tspan
           id="tspan4342"
           sodipodi:role="line"
           y="0"
           x="0 5.5599999 8.3400002"
           style="font-size:10px;font-variant:normal;font-weight:normal;writing-mode:lr-tb;fill:#000000;fill-opacity:1;fill-rule:nonzero;stroke:none;font-family:Helvetica;-inkscape-font-specification:Helvetica">0.4</tspan></text>
</g><path
       id="path4344"
       style="fill:none;stroke:#000000;stroke-width:0.5;stroke-linecap:butt;stroke-linejoin:round;stroke-miterlimit:10;stroke-opacity:1;stroke-dasharray:none"
       d="m 175.10561,45.788584 0,2.75"
       inkscape:connector-curvature="0" /><g
       transform="translate(2.02261,7.871784)"
       id="g4346"><text
         id="text4348"
         transform="matrix(1,0,0,-1,163.417,25.8332)"><tspan
           id="tspan4350"
           sodipodi:role="line"
           y="0"
           x="0 5.5599999 8.3400002 13.9"
           style="font-size:10px;font-variant:normal;font-weight:normal;writing-mode:lr-tb;fill:#000000;fill-opacity:1;fill-rule:nonzero;stroke:none;font-family:Helvetica;-inkscape-font-specification:Helvetica">0.45</tspan></text>
</g><path
       id="path4352"
       style="fill:none;stroke:#000000;stroke-width:0.5;stroke-linecap:butt;stroke-linejoin:round;stroke-miterlimit:10;stroke-opacity:1;stroke-dasharray:none"
       d="m 205.77261,45.788584 0,2.75"
       inkscape:connector-curvature="0" /><g
       transform="translate(2.02261,7.871784)"
       id="g4354"><text
         id="text4356"
         transform="matrix(1,0,0,-1,196.833,25.8332)"><tspan
           id="tspan4358"
           sodipodi:role="line"
           y="0"
           x="0 5.5599999 8.3400002"
           style="font-size:10px;font-variant:normal;font-weight:normal;writing-mode:lr-tb;fill:#000000;fill-opacity:1;fill-rule:nonzero;stroke:none;font-family:Helvetica;-inkscape-font-specification:Helvetica">0.5</tspan></text>
</g><path
       id="path4360"
       style="fill:none;stroke:#000000;stroke-width:0.5;stroke-linecap:butt;stroke-linejoin:round;stroke-miterlimit:10;stroke-opacity:1;stroke-dasharray:none"
       d="m 33.93941,45.788584 2.6664,0"
       inkscape:connector-curvature="0" /><g
       transform="translate(-2.77739,7.871784)"
       id="g4362"><text
         id="text4364"
         transform="matrix(1,0,0,-1,15.1668,34.25)"><tspan
           id="tspan4366"
           sodipodi:role="line"
           y="0"
           x="0 5.5599999 8.3400002"
           style="font-size:10px;font-variant:normal;font-weight:normal;writing-mode:lr-tb;fill:#000000;fill-opacity:1;fill-rule:nonzero;stroke:none;font-family:Helvetica;-inkscape-font-specification:Helvetica">0.5</tspan></text>
</g><path
       id="path4376"
       style="fill:none;stroke:#000000;stroke-width:0.5;stroke-linecap:butt;stroke-linejoin:round;stroke-miterlimit:10;stroke-opacity:1;stroke-dasharray:none"
       d="m 33.93941,100.62179 2.6664,0"
       inkscape:connector-curvature="0" /><g
       transform="translate(-2.77739,7.871784)"
       id="g4378"><text
         id="text4380"
         transform="matrix(1,0,0,-1,15.1668,89.0832)"><tspan
           id="tspan4382"
           sodipodi:role="line"
           y="0"
           x="0 5.5599999 8.3400002"
           style="font-size:10px;font-variant:normal;font-weight:normal;writing-mode:lr-tb;fill:#000000;fill-opacity:1;fill-rule:nonzero;stroke:none;font-family:Helvetica;-inkscape-font-specification:Helvetica">0.6</tspan></text>
</g><path
       id="path4392"
       style="fill:none;stroke:#000000;stroke-width:0.5;stroke-linecap:butt;stroke-linejoin:round;stroke-miterlimit:10;stroke-opacity:1;stroke-dasharray:none"
       d="m 33.93941,155.37178 2.6664,0"
       inkscape:connector-curvature="0" /><g
       transform="translate(-2.77739,7.871784)"
       id="g4394"><text
         id="text4396"
         transform="matrix(1,0,0,-1,15.1668,143.833)"><tspan
           id="tspan4398"
           sodipodi:role="line"
           y="0"
           x="0 5.5599999 8.3400002"
           style="font-size:10px;font-variant:normal;font-weight:normal;writing-mode:lr-tb;fill:#000000;fill-opacity:1;fill-rule:nonzero;stroke:none;font-family:Helvetica;-inkscape-font-specification:Helvetica">0.7</tspan></text>
</g><path
       id="path4408"
       style="fill:none;stroke:#000000;stroke-width:0.5;stroke-linecap:butt;stroke-linejoin:round;stroke-miterlimit:10;stroke-opacity:1;stroke-dasharray:none"
       d="m 33.93941,210.20479 2.6664,0"
       inkscape:connector-curvature="0" /><g
       transform="translate(-2.77739,7.871784)"
       id="g4410"><text
         id="text4412"
         transform="matrix(1,0,0,-1,15.1668,198.667)"><tspan
           id="tspan4414"
           sodipodi:role="line"
           y="0"
           x="0 5.5599999 8.3400002"
           style="font-size:10px;font-variant:normal;font-weight:normal;writing-mode:lr-tb;fill:#000000;fill-opacity:1;fill-rule:nonzero;stroke:none;font-family:Helvetica;-inkscape-font-specification:Helvetica">0.8</tspan></text>
</g><path
       id="path4424"
       style="fill:none;stroke:#000000;stroke-width:0.5;stroke-linecap:butt;stroke-linejoin:round;stroke-miterlimit:10;stroke-opacity:1;stroke-dasharray:none"
       d="m 33.93941,264.95479 2.6664,0"
       inkscape:connector-curvature="0" /><g
       transform="translate(-2.77739,7.871784)"
       id="g4426"><text
         id="text4428"
         transform="matrix(1,0,0,-1,15.1668,253.417)"><tspan
           id="tspan4430"
           sodipodi:role="line"
           y="0"
           x="0 5.5599999 8.3400002"
           style="font-size:10px;font-variant:normal;font-weight:normal;writing-mode:lr-tb;fill:#000000;fill-opacity:1;fill-rule:nonzero;stroke:none;font-family:Helvetica;-inkscape-font-specification:Helvetica">0.9</tspan></text>
</g><path
       id="path4440"
       style="fill:none;stroke:#000000;stroke-width:0.5;stroke-linecap:butt;stroke-linejoin:round;stroke-miterlimit:10;stroke-opacity:1;stroke-dasharray:none"
       d="m 33.93941,319.70479 2.6664,0"
       inkscape:connector-curvature="0" /><g
       transform="translate(-2.77739,7.871784)"
       id="g4442"><text
         id="text4444"
         transform="matrix(1,0,0,-1,23.5,308.167)"><tspan
           id="tspan4446"
           y="0"
           x="0"
           style="font-size:10px;font-variant:normal;font-weight:normal;writing-mode:lr-tb;fill:#000000;fill-opacity:1;fill-rule:nonzero;stroke:none;font-family:Helvetica;-inkscape-font-specification:Helvetica">1</tspan></text>
</g><path
       id="path4456"
       style="fill:none;stroke:#000000;stroke-width:2;stroke-linecap:butt;stroke-linejoin:round;stroke-miterlimit:10;stroke-opacity:1;stroke-dasharray:12,2;stroke-dashoffset:0"
       d="m 51.85581,45.788584 1.8336,190.916196 1.9164,49.834 1.8336,5.5 1.9164,5.583 1.8336,5.5 3.75,0 1.8332,5.58301 70.917,0 1.833,-5.58301 20.583,0 1.834,-5.5 13.083,0 1.833,-5.583 5.667,0 1.833,-5.5 3.75,0 1.834,-5.5 1.916,0 1.834,-5.584 1.833,0 1.917,-5.5 1.833,-5.583 1.833,-11 1.917,-16.667 1.833,-33.166 1.917,-157.750196"
       inkscape:connector-curvature="0"
       sodipodi:nodetypes="ccccccccccccccccccccccccccc" /><path
       style="fill:none;stroke:#ff0000;stroke-width:2;stroke-linecap:butt;stroke-linejoin:round;stroke-miterlimit:10;stroke-opacity:1;stroke-dasharray:none"
       d="m 52.35581,45.704984 c 0.26946,69.841986 -0.30127,139.693276 0.82303,209.528136 0.80456,13.15506 -0.0437,26.99007 5.01057,39.38866 1.91717,4.34534 5.59564,7.45296 9.8332,9.167 m 0,0 c 12.79726,4.70561 27.60538,3.37899 41.333,2.583 1.45154,-0.22206 3.00467,-0.22002 4.417,-0.5 m 0,0 c 15.68021,-1.64294 31.01896,-4.35515 45.833,-9.16699 m 0,0 c 12.93928,-4.14743 26.68977,-11.08538 33.25,-24.08301 8.02632,-16.01145 8.58406,-34.524 10.01925,-52.11105 2.54225,-52.49525 2.06655,-105.07908 2.49801,-157.621189 0.0223,-5.561519 0.0445,-11.123038 0.0667,-16.684557"
       id="path4464"
       inkscape:connector-curvature="0" /><path
       id="path6381"
       style="fill:none;stroke:#ffffff;stroke-width:0.5;stroke-linecap:butt;stroke-linejoin:round;stroke-miterlimit:10;stroke-opacity:1;stroke-dasharray:none"
       d="m 243.48081,140.84502 0,101.66701 135.833,0 0,-101.66701 -135.833,0"
       inkscape:connector-curvature="0" /><path
       id="path6383"
       style="fill:none;stroke:#000000;stroke-width:0.5;stroke-linecap:butt;stroke-linejoin:round;stroke-miterlimit:10;stroke-opacity:1;stroke-dasharray:none"
       d="m 243.48081,140.84502 135.833,0"
       inkscape:connector-curvature="0" /><path
       id="path6385"
       style="fill:none;stroke:#000000;stroke-width:0.5;stroke-linecap:butt;stroke-linejoin:round;stroke-miterlimit:10;stroke-opacity:1;stroke-dasharray:none"
       d="m 243.48081,140.84502 0,101.66701"
       inkscape:connector-curvature="0" /><path
       id="path6387"
       style="fill:none;stroke:#000000;stroke-width:0.5;stroke-linecap:butt;stroke-linejoin:round;stroke-miterlimit:10;stroke-opacity:1;stroke-dasharray:none"
       d="m 243.48081,140.84502 0,1.41681"
       inkscape:connector-curvature="0" /><text
       transform="scale(1,-1)"
       id="text6391"
       x="233.814"
       y="-128.76181"><tspan
         style="font-size:10px;font-variant:normal;font-weight:normal;writing-mode:lr-tb;fill:#000000;fill-opacity:1;fill-rule:nonzero;stroke:none;font-family:Helvetica;-inkscape-font-specification:Helvetica"
         x="233.814 239.37401 242.15401 247.714"
         y="-128.76181"
         sodipodi:role="line"
         id="tspan6393">0.25</tspan></text>
<path
       id="path6403"
       style="fill:none;stroke:#000000;stroke-width:0.5;stroke-linecap:butt;stroke-linejoin:round;stroke-miterlimit:10;stroke-opacity:1;stroke-dasharray:none"
       d="m 297.73081,140.84502 0,1.41681"
       inkscape:connector-curvature="0" /><text
       transform="scale(1,-1)"
       id="text6407"
       x="288.06403"
       y="-128.76181"><tspan
         style="font-size:10px;font-variant:normal;font-weight:normal;writing-mode:lr-tb;fill:#000000;fill-opacity:1;fill-rule:nonzero;stroke:none;font-family:Helvetica;-inkscape-font-specification:Helvetica"
         x="288.06403 293.62402 296.40402 301.96402"
         y="-128.76181"
         sodipodi:role="line"
         id="tspan6409">0.35</tspan></text>
<path
       id="path6419"
       style="fill:none;stroke:#000000;stroke-width:0.5;stroke-linecap:butt;stroke-linejoin:round;stroke-miterlimit:10;stroke-opacity:1;stroke-dasharray:none"
       d="m 352.14781,140.84502 0,1.41681"
       inkscape:connector-curvature="0" /><text
       transform="scale(1,-1)"
       id="text6423"
       x="342.4808"
       y="-128.76181"><tspan
         style="font-size:10px;font-variant:normal;font-weight:normal;writing-mode:lr-tb;fill:#000000;fill-opacity:1;fill-rule:nonzero;stroke:none;font-family:Helvetica;-inkscape-font-specification:Helvetica"
         x="342.4808 348.0408 350.82083 356.38083"
         y="-128.76181"
         sodipodi:role="line"
         id="tspan6425">0.45</tspan></text>
<path
       id="path6427"
       style="fill:none;stroke:#000000;stroke-width:0.5;stroke-linecap:butt;stroke-linejoin:round;stroke-miterlimit:10;stroke-opacity:1;stroke-dasharray:none"
       d="m 243.48081,140.92822 1.3332,0"
       inkscape:connector-curvature="0" /><text
       transform="scale(1,-1)"
       id="text6431"
       x="214.74757"
       y="-137.26181"><tspan
         style="font-size:10px;font-variant:normal;font-weight:normal;writing-mode:lr-tb;fill:#000000;fill-opacity:1;fill-rule:nonzero;stroke:none;font-family:Helvetica;-inkscape-font-specification:Helvetica"
         x="214.74757 220.30757 223.08757 228.64758"
         y="-137.26181"
         sodipodi:role="line"
         id="tspan6433">0.94</tspan></text>
<path
       id="path6443"
       style="fill:none;stroke:#000000;stroke-width:0.5;stroke-linecap:butt;stroke-linejoin:round;stroke-miterlimit:10;stroke-opacity:1;stroke-dasharray:none"
       d="m 243.48081,191.59502 1.3332,0"
       inkscape:connector-curvature="0" /><text
       transform="scale(1,-1)"
       id="text6447"
       x="214.74757"
       y="-187.92822"><tspan
         style="font-size:10px;font-variant:normal;font-weight:normal;writing-mode:lr-tb;fill:#000000;fill-opacity:1;fill-rule:nonzero;stroke:none;font-family:Helvetica;-inkscape-font-specification:Helvetica"
         x="214.74757 220.30757 223.08757 228.64758"
         y="-187.92822"
         sodipodi:role="line"
         id="tspan6449">0.96</tspan></text>
<path
       id="path6459"
       style="fill:none;stroke:#000000;stroke-width:0.5;stroke-linecap:butt;stroke-linejoin:round;stroke-miterlimit:10;stroke-opacity:1;stroke-dasharray:none"
       d="m 243.48081,242.26203 1.3332,0"
       inkscape:connector-curvature="0" /><text
       transform="scale(1,-1)"
       id="text6463"
       x="214.74757"
       y="-238.59503"><tspan
         style="font-size:10px;font-variant:normal;font-weight:normal;writing-mode:lr-tb;fill:#000000;fill-opacity:1;fill-rule:nonzero;stroke:none;font-family:Helvetica;-inkscape-font-specification:Helvetica"
         x="214.74757 220.30757 223.08757 228.64758"
         y="-238.59503"
         sodipodi:role="line"
         id="tspan6465">0.98</tspan></text>
<path
       id="path6475"
       style="fill:none;stroke:#000000;stroke-width:2;stroke-linecap:butt;stroke-linejoin:round;stroke-miterlimit:10;stroke-opacity:1;stroke-dasharray:12,2;stroke-dashoffset:0"
       d="m 246.64761,140.76182 1.5832,49.8332 1.6668,0 1.6664,25.5832 3.3336,0 1.6664,25.5838 62.8336,0 1.6662,-25.5838 18.25,0 1.584,-25.5832 10,0 1.58301,-25.6668 6.66699,0 1.58301,-24.1664"
       inkscape:connector-curvature="0" /><path
       id="path6681"
       style="fill:none;stroke:#000000;stroke-width:2;stroke-linecap:butt;stroke-linejoin:round;stroke-miterlimit:10;stroke-opacity:1;stroke-dasharray:2,2;stroke-dashoffset:0"
       d="m 245.71238,141.28491 0.1668,5.4164 0.4164,5.66681 0.3336,11.25 0.4164,5.6668 0.3336,5.6664 0.3332,5.6668 0.4168,0 0.3332,5.6668 0.3332,5.5832 0.4168,0 0.3332,5.6668 m 0,0 0.3336,0 0.4164,5.6664 0.75,0 0.3336,5.6668 0.75,0 0.3332,5.5832 1.4168,0 0.4164,5.6668 1.4168,0 0.4168,5.6668 2.5,0 0.3332,5.6662 4,0 0.4168,5.584 9.8332,0 0.3332,5.666 9.8336,0 0.3332,-5.666 14.5,0 0.4168,-5.584 8.3332,0 0.4168,-5.6662 6.5,0 0.3332,-5.6668 5.5,0 0.3332,-5.6668 4.7498,0 0.334,-5.5832 4.416,0 0.334,-5.6668 3.666,0 0.334,-5.6664 3.25,0 0.416,-5.6668 2.834,0 0.416,-5.5832 2.5,0 0.417,-5.6668 2.5,0 0.417,-5.66681 1.75,0 0.416,-5.6664 2.167,0 0.333,-5.6668 1.5,0 0.334,-5.5832 1.416,0 0.417,-5.6668 1.417,0 0.416,-5.6668 1.084,0 0.333,-5.4164"
       inkscape:connector-curvature="0" /><path
       style="fill:none;stroke:#ff0000;stroke-width:2;stroke-linecap:butt;stroke-linejoin:round;stroke-miterlimit:10;stroke-opacity:1;stroke-dasharray:none"
       d="m 246.39761,140.76182 c 0.94278,19.35066 1.72809,38.80442 5.04467,57.90995 1.7868,9.26722 4.00092,18.75466 9.37173,26.59005 3.44719,4.897 8.73321,8.58219 14.6668,9.1662 l 0.1668,0.084 0.0832,0 m 0,0 c 6.26539,0.69313 12.221,-0.95235 17.6668,-3.334 5.33456,-2.33577 10.56543,-5.71257 15.1664,-9.333 2.68275,-2.09514 5.2788,-4.44244 7.75,-6.75 m 0,0 c 5.67471,-5.54634 10.93939,-11.80876 15.5838,-18.4168 4.81655,-7.05705 9.25293,-14.54127 12.82133,-22.45308 4.56226,-9.52212 8.03698,-19.56531 10.97705,-29.75475 0.32063,-1.24103 0.69588,-2.47675 1.03463,-3.70857"
       id="path6481"
       inkscape:connector-curvature="0" /><rect
       style="opacity:0.8;fill:none;stroke:#000000;stroke-width:0.23756924;stroke-miterlimit:10;stroke-opacity:1;stroke-dasharray:0.95027694, 0.23756924;stroke-dashoffset:0"
       id="rect7429"
       width="172.46823"
       height="123.7886"
       x="213.56418"
       y="-251.17754"
       transform="scale(1,-1)" /></g></svg>