<?xml version="1.0" encoding="UTF-8" standalone="no"?>
<!-- Created with Inkscape (http://www.inkscape.org/) -->

<svg
   xmlns:dc="http://purl.org/dc/elements/1.1/"
   xmlns:cc="http://creativecommons.org/ns#"
   xmlns:rdf="http://www.w3.org/1999/02/22-rdf-syntax-ns#"
   xmlns:svg="http://www.w3.org/2000/svg"
   xmlns="http://www.w3.org/2000/svg"
   xmlns:sodipodi="http://sodipodi.sourceforge.net/DTD/sodipodi-0.dtd"
   xmlns:inkscape="http://www.inkscape.org/namespaces/inkscape"
   id="svg2"
   version="1.1"
   inkscape:version="0.48.5 r10040"
   width="789"
   height="388"
   xml:space="preserve"
   sodipodi:docname="conv_sigma_ea.pdf"><metadata
     id="metadata8"><rdf:RDF><cc:Work
         rdf:about=""><dc:format>image/svg+xml</dc:format><dc:type
           rdf:resource="http://purl.org/dc/dcmitype/StillImage" /><dc:title></dc:title></cc:Work></rdf:RDF></metadata><defs
     id="defs6"><clipPath
       clipPathUnits="userSpaceOnUse"
       id="clipPath18"><path
         d="m 0,5 2400,0 0,3345 L 0,3350 0,5 z"
         id="path20"
         inkscape:connector-curvature="0" /></clipPath><clipPath
       clipPathUnits="userSpaceOnUse"
       id="clipPath164"><path
         d="m 313.332,372.5 1866.67,0 0,2726.67 -1866.67,0 0,-2726.67 z"
         id="path166"
         inkscape:connector-curvature="0" /></clipPath><clipPath
       id="clipPath3334"
       clipPathUnits="userSpaceOnUse"><path
         id="path3336"
         d="m 313.332,372.5 1866.67,0 0,2726.67 -1866.67,0 0,-2726.67 z"
         inkscape:connector-curvature="0" /></clipPath><clipPath
       id="clipPath3188"
       clipPathUnits="userSpaceOnUse"><path
         id="path3190"
         d="m 0,5 2400,0 0,3345 L 0,3350 0,5 z"
         inkscape:connector-curvature="0" /></clipPath><clipPath
       id="clipPath4128"
       clipPathUnits="userSpaceOnUse"><path
         id="path4130"
         d="m 227.5,139.168 1359.17,0 0,1017.5 -1359.17,0 0,-1017.5 z"
         inkscape:connector-curvature="0" /></clipPath><clipPath
       id="clipPath4038"
       clipPathUnits="userSpaceOnUse"><path
         id="path4040"
         d="m 0,2 1750,0 0,1248 L 0,1250 0,2 z"
         inkscape:connector-curvature="0" /></clipPath><clipPath
       id="clipPath4315"
       clipPathUnits="userSpaceOnUse"><path
         id="path4317"
         d="m 226.668,135.832 1352.5,0 0,1010.84 -1352.5,0 0,-1010.84 z"
         inkscape:connector-curvature="0" /></clipPath></defs><sodipodi:namedview
     pagecolor="#ffffff"
     bordercolor="#666666"
     borderopacity="1"
     objecttolerance="10"
     gridtolerance="10"
     guidetolerance="10"
     inkscape:pageopacity="0"
     inkscape:pageshadow="2"
     inkscape:window-width="1920"
     inkscape:window-height="1025"
     id="namedview4"
     showgrid="false"
     fit-margin-top="0"
     fit-margin-left="0"
     fit-margin-right="0"
     fit-margin-bottom="0"
     inkscape:zoom="1.1271642"
     inkscape:cx="269.14047"
     inkscape:cy="108.89077"
     inkscape:window-x="-2"
     inkscape:window-y="-3"
     inkscape:window-maximized="1"
     inkscape:current-layer="g10" /><g
     id="g10"
     inkscape:groupmode="layer"
     inkscape:label="ink_ext_XXXXXX"
     transform="matrix(1.25,0,0,-1.25,23.042465,412.97232)"><path
       inkscape:connector-curvature="0"
       id="path26"
       style="fill:none;stroke:#ffffff;stroke-width:0.5;stroke-linecap:butt;stroke-linejoin:round;stroke-miterlimit:10;stroke-opacity:1;stroke-dasharray:none"
       d="m 21.7332,48.5332 0,272.5838 186.5838,0 0,-272.5838 -186.5838,0" /><path
       inkscape:connector-curvature="0"
       id="path28"
       style="fill:none;stroke:#000000;stroke-width:0.5;stroke-linecap:butt;stroke-linejoin:round;stroke-miterlimit:10;stroke-opacity:1;stroke-dasharray:none"
       d="m 21.7332,48.5332 186.5838,0" /><path
       inkscape:connector-curvature="0"
       id="path30"
       style="fill:none;stroke:#000000;stroke-width:0.5;stroke-linecap:butt;stroke-linejoin:round;stroke-miterlimit:10;stroke-opacity:1;stroke-dasharray:none"
       d="m 21.7332,48.5332 0,272.5838" /><path
       inkscape:connector-curvature="0"
       id="path32"
       style="fill:none;stroke:#000000;stroke-width:0.5;stroke-linecap:butt;stroke-linejoin:round;stroke-miterlimit:10;stroke-opacity:1;stroke-dasharray:none"
       d="m 49.8168,48.5332 0,2.75" /><g
       transform="translate(-11.2,9.6)"
       id="g34"><text
         id="text36"
         transform="matrix(1,0,0,-1,52.5,25.25)"><tspan
           id="tspan38"
           sodipodi:role="line"
           y="0"
           x="0 5.5599999 8.3400002"
           style="font-size:10px;font-variant:normal;font-weight:normal;writing-mode:lr-tb;fill:#000000;fill-opacity:1;fill-rule:nonzero;stroke:none;font-family:Helvetica;-inkscape-font-specification:Helvetica">0.3</tspan></text>
</g><path
       inkscape:connector-curvature="0"
       id="path40"
       style="fill:none;stroke:#000000;stroke-width:0.5;stroke-linecap:butt;stroke-linejoin:round;stroke-miterlimit:10;stroke-opacity:1;stroke-dasharray:none"
       d="m 85.0668,48.5332 0,2.75" /><g
       transform="translate(-11.2,9.6)"
       id="g42"><text
         id="text44"
         transform="matrix(1,0,0,-1,87.75,25.25)"><tspan
           id="tspan46"
           sodipodi:role="line"
           y="0"
           x="0 5.5599999 8.3400002"
           style="font-size:10px;font-variant:normal;font-weight:normal;writing-mode:lr-tb;fill:#000000;fill-opacity:1;fill-rule:nonzero;stroke:none;font-family:Helvetica;-inkscape-font-specification:Helvetica">0.4</tspan></text>
</g><path
       inkscape:connector-curvature="0"
       id="path48"
       style="fill:none;stroke:#000000;stroke-width:0.5;stroke-linecap:butt;stroke-linejoin:round;stroke-miterlimit:10;stroke-opacity:1;stroke-dasharray:none"
       d="m 120.233,48.5332 0,2.75" /><g
       transform="translate(-11.2,9.6)"
       id="g50"><text
         id="text52"
         transform="matrix(1,0,0,-1,122.917,25.25)"><tspan
           id="tspan54"
           sodipodi:role="line"
           y="0"
           x="0 5.5599999 8.3400002"
           style="font-size:10px;font-variant:normal;font-weight:normal;writing-mode:lr-tb;fill:#000000;fill-opacity:1;fill-rule:nonzero;stroke:none;font-family:Helvetica;-inkscape-font-specification:Helvetica">0.5</tspan></text>
</g><path
       inkscape:connector-curvature="0"
       id="path56"
       style="fill:none;stroke:#000000;stroke-width:0.5;stroke-linecap:butt;stroke-linejoin:round;stroke-miterlimit:10;stroke-opacity:1;stroke-dasharray:none"
       d="m 155.483,48.5332 0,2.75" /><g
       transform="translate(-11.2,9.6)"
       id="g58"><text
         id="text60"
         transform="matrix(1,0,0,-1,158.167,25.25)"><tspan
           id="tspan62"
           sodipodi:role="line"
           y="0"
           x="0 5.5599999 8.3400002"
           style="font-size:10px;font-variant:normal;font-weight:normal;writing-mode:lr-tb;fill:#000000;fill-opacity:1;fill-rule:nonzero;stroke:none;font-family:Helvetica;-inkscape-font-specification:Helvetica">0.6</tspan></text>
</g><path
       inkscape:connector-curvature="0"
       id="path64"
       style="fill:none;stroke:#000000;stroke-width:0.5;stroke-linecap:butt;stroke-linejoin:round;stroke-miterlimit:10;stroke-opacity:1;stroke-dasharray:none"
       d="m 190.65,48.5332 0,2.75" /><g
       transform="translate(-11.2,9.6)"
       id="g66"><text
         id="text68"
         transform="matrix(1,0,0,-1,193.333,25.25)"><tspan
           id="tspan70"
           sodipodi:role="line"
           y="0"
           x="0 5.5599999 8.3400002"
           style="font-size:10px;font-variant:normal;font-weight:normal;writing-mode:lr-tb;fill:#000000;fill-opacity:1;fill-rule:nonzero;stroke:none;font-family:Helvetica;-inkscape-font-specification:Helvetica">0.7</tspan></text>
</g><path
       inkscape:connector-curvature="0"
       id="path72"
       style="fill:none;stroke:#000000;stroke-width:0.5;stroke-linecap:butt;stroke-linejoin:round;stroke-miterlimit:10;stroke-opacity:1;stroke-dasharray:none"
       d="m 21.7332,48.5332 2.6668,0" /><g
       transform="translate(-14.4,11.2)"
       id="g74"><text
         id="text76"
         transform="matrix(1,0,0,-1,14.5832,33.6668)"><tspan
           id="tspan78"
           sodipodi:role="line"
           y="0"
           x="0 5.5599999 8.3400002"
           style="font-size:10px;font-variant:normal;font-weight:normal;writing-mode:lr-tb;fill:#000000;fill-opacity:1;fill-rule:nonzero;stroke:none;font-family:Helvetica;-inkscape-font-specification:Helvetica">0.5</tspan></text>
</g><path
       inkscape:connector-curvature="0"
       id="path88"
       style="fill:none;stroke:#000000;stroke-width:0.5;stroke-linecap:butt;stroke-linejoin:round;stroke-miterlimit:10;stroke-opacity:1;stroke-dasharray:none"
       d="m 21.7332,103.1168 2.6668,0" /><g
       transform="translate(-14.4,11.2)"
       id="g90"><text
         id="text92"
         transform="matrix(1,0,0,-1,14.5832,88.25)"><tspan
           id="tspan94"
           sodipodi:role="line"
           y="0"
           x="0 5.5599999 8.3400002"
           style="font-size:10px;font-variant:normal;font-weight:normal;writing-mode:lr-tb;fill:#000000;fill-opacity:1;fill-rule:nonzero;stroke:none;font-family:Helvetica;-inkscape-font-specification:Helvetica">0.6</tspan></text>
</g><path
       inkscape:connector-curvature="0"
       id="path104"
       style="fill:none;stroke:#000000;stroke-width:0.5;stroke-linecap:butt;stroke-linejoin:round;stroke-miterlimit:10;stroke-opacity:1;stroke-dasharray:none"
       d="m 21.7332,157.617 2.6668,0" /><g
       transform="translate(-14.4,11.2)"
       id="g106"><text
         id="text108"
         transform="matrix(1,0,0,-1,14.5832,142.75)"><tspan
           id="tspan110"
           sodipodi:role="line"
           y="0"
           x="0 5.5599999 8.3400002"
           style="font-size:10px;font-variant:normal;font-weight:normal;writing-mode:lr-tb;fill:#000000;fill-opacity:1;fill-rule:nonzero;stroke:none;font-family:Helvetica;-inkscape-font-specification:Helvetica">0.7</tspan></text>
</g><path
       inkscape:connector-curvature="0"
       id="path120"
       style="fill:none;stroke:#000000;stroke-width:0.5;stroke-linecap:butt;stroke-linejoin:round;stroke-miterlimit:10;stroke-opacity:1;stroke-dasharray:none"
       d="m 21.7332,212.117 2.6668,0" /><g
       transform="translate(-14.4,11.2)"
       id="g122"><text
         id="text124"
         transform="matrix(1,0,0,-1,14.5832,197.25)"><tspan
           id="tspan126"
           sodipodi:role="line"
           y="0"
           x="0 5.5599999 8.3400002"
           style="font-size:10px;font-variant:normal;font-weight:normal;writing-mode:lr-tb;fill:#000000;fill-opacity:1;fill-rule:nonzero;stroke:none;font-family:Helvetica;-inkscape-font-specification:Helvetica">0.8</tspan></text>
</g><path
       inkscape:connector-curvature="0"
       id="path136"
       style="fill:none;stroke:#000000;stroke-width:0.5;stroke-linecap:butt;stroke-linejoin:round;stroke-miterlimit:10;stroke-opacity:1;stroke-dasharray:none"
       d="m 21.7332,266.617 2.6668,0" /><g
       transform="translate(-14.4,11.2)"
       id="g138"><text
         id="text140"
         transform="matrix(1,0,0,-1,14.5832,251.75)"><tspan
           id="tspan142"
           sodipodi:role="line"
           y="0"
           x="0 5.5599999 8.3400002"
           style="font-size:10px;font-variant:normal;font-weight:normal;writing-mode:lr-tb;fill:#000000;fill-opacity:1;fill-rule:nonzero;stroke:none;font-family:Helvetica;-inkscape-font-specification:Helvetica">0.9</tspan></text>
</g><path
       inkscape:connector-curvature="0"
       id="path152"
       style="fill:none;stroke:#000000;stroke-width:0.5;stroke-linecap:butt;stroke-linejoin:round;stroke-miterlimit:10;stroke-opacity:1;stroke-dasharray:none"
       d="m 21.7332,321.117 2.6668,0" /><g
       transform="translate(-14.4,11.2)"
       id="g154"><text
         id="text156"
         transform="matrix(1,0,0,-1,22.9168,306.25)"><tspan
           id="tspan158"
           y="0"
           x="0"
           style="font-size:10px;font-variant:normal;font-weight:normal;writing-mode:lr-tb;fill:#000000;fill-opacity:1;fill-rule:nonzero;stroke:none;font-family:Helvetica;-inkscape-font-specification:Helvetica">1</tspan></text>
</g><path
       inkscape:connector-curvature="0"
       id="path168"
       style="fill:none;stroke:#000000;stroke-width:2;stroke-linecap:butt;stroke-linejoin:round;stroke-miterlimit:10;stroke-opacity:1;stroke-dasharray:12,2;stroke-dashoffset:0;marker-start:none"
       d="m 33.4832,48.45 0.5,229.083 1.1668,16.334 1.25,0 1.1668,5.5 1.1664,0 1.1668,5.416 8.1668,0 1.1664,5.5 22.3336,0 1.1664,-5.5 35.2498,0 1.167,-5.416 21.083,0 1.167,-5.5 14.083,0 1.167,-5.417 10.583,0 1.167,-5.417 5.833,0 1.25,-5.5 4.667,0 1.167,-5.416 2.333,0 1.167,-5.5 2.333,0 1.167,-5.417 2.416,0 1.167,-5.5 1.167,0 1.166,-5.417 1.167,-5.416 1.167,0 1.166,-5.5 1.167,-5.417 1.167,-5.5 1.166,-5.417 1.167,-10.916 1.167,-5.417 1.25,-10.917 1.166,-10.916 1.167,-16.334 1.167,-16.416 1.166,-21.75 1.167,-32.7502 1.167,-38.1668 0.083,-11" /><path
       style="fill:none;stroke:#0000ff;stroke-width:2;stroke-linecap:butt;stroke-linejoin:round;stroke-miterlimit:10;stroke-opacity:1;stroke-dasharray:none"
       d="m 55.0668,308.617 c 19.966651,0.024 39.5625,-2.91624 58.9162,-7.25 m 0,0 c 18.51034,-4.4758 38.02183,-9.35984 52.5,-22.417 15.48229,-14.28703 20.82926,-35.88319 24.53979,-55.94769 6.89206,-41.48552 8.04708,-83.65233 9.71588,-125.602017 C 201.25246,81.085602 201.7331,64.769616 202.067,48.45 m -169.7502,0 c 0.140728,72.33143 -0.378134,144.68588 0.5832,217 0.247858,6.31704 0.301147,12.67415 0.9168,18.917 m 0,0 c 0.815522,7.77478 1.238415,16.18758 7.5,21 3.936728,2.64273 8.742854,3.19579 13.75,3.25"
       id="path176"
       inkscape:connector-curvature="0" /><path
       id="path3196"
       style="fill:none;stroke:#ffffff;stroke-width:0.5;stroke-linecap:butt;stroke-linejoin:round;stroke-miterlimit:10;stroke-opacity:1;stroke-dasharray:none"
       d="m 417.56011,48.463709 0,272.583801 186.5838,0 0,-272.583801 -186.5838,0"
       inkscape:connector-curvature="0" /><path
       id="path3198"
       style="fill:none;stroke:#000000;stroke-width:0.5;stroke-linecap:butt;stroke-linejoin:round;stroke-miterlimit:10;stroke-opacity:1;stroke-dasharray:none"
       d="m 417.56011,48.463709 186.5838,0"
       inkscape:connector-curvature="0" /><path
       id="path3200"
       style="fill:none;stroke:#000000;stroke-width:0.5;stroke-linecap:butt;stroke-linejoin:round;stroke-miterlimit:10;stroke-opacity:1;stroke-dasharray:none"
       d="m 417.56011,48.463709 0,272.583801"
       inkscape:connector-curvature="0" /><path
       id="path3202"
       style="fill:none;stroke:#000000;stroke-width:0.5;stroke-linecap:butt;stroke-linejoin:round;stroke-miterlimit:10;stroke-opacity:1;stroke-dasharray:none"
       d="m 445.64371,48.463709 0,2.75"
       inkscape:connector-curvature="0" /><g
       transform="translate(384.62691,9.530509)"
       id="g3204"><text
         id="text3206"
         transform="matrix(1,0,0,-1,52.5,25.25)"><tspan
           id="tspan3208"
           sodipodi:role="line"
           y="0"
           x="0 5.5599999 8.3400002"
           style="font-size:10px;font-variant:normal;font-weight:normal;writing-mode:lr-tb;fill:#000000;fill-opacity:1;fill-rule:nonzero;stroke:none;font-family:Helvetica;-inkscape-font-specification:Helvetica">0.3</tspan></text>
</g><path
       id="path3210"
       style="fill:none;stroke:#000000;stroke-width:0.5;stroke-linecap:butt;stroke-linejoin:round;stroke-miterlimit:10;stroke-opacity:1;stroke-dasharray:none"
       d="m 480.89371,48.463709 0,2.75"
       inkscape:connector-curvature="0" /><g
       transform="translate(384.62691,9.530509)"
       id="g3212"><text
         id="text3214"
         transform="matrix(1,0,0,-1,87.75,25.25)"><tspan
           id="tspan3216"
           sodipodi:role="line"
           y="0"
           x="0 5.5599999 8.3400002"
           style="font-size:10px;font-variant:normal;font-weight:normal;writing-mode:lr-tb;fill:#000000;fill-opacity:1;fill-rule:nonzero;stroke:none;font-family:Helvetica;-inkscape-font-specification:Helvetica">0.4</tspan></text>
</g><path
       id="path3218"
       style="fill:none;stroke:#000000;stroke-width:0.5;stroke-linecap:butt;stroke-linejoin:round;stroke-miterlimit:10;stroke-opacity:1;stroke-dasharray:none"
       d="m 516.05991,48.463709 0,2.75"
       inkscape:connector-curvature="0" /><g
       transform="translate(384.62691,9.530509)"
       id="g3220"><text
         id="text3222"
         transform="matrix(1,0,0,-1,122.917,25.25)"><tspan
           id="tspan3224"
           sodipodi:role="line"
           y="0"
           x="0 5.5599999 8.3400002"
           style="font-size:10px;font-variant:normal;font-weight:normal;writing-mode:lr-tb;fill:#000000;fill-opacity:1;fill-rule:nonzero;stroke:none;font-family:Helvetica;-inkscape-font-specification:Helvetica">0.5</tspan></text>
</g><path
       id="path3226"
       style="fill:none;stroke:#000000;stroke-width:0.5;stroke-linecap:butt;stroke-linejoin:round;stroke-miterlimit:10;stroke-opacity:1;stroke-dasharray:none"
       d="m 551.30991,48.463709 0,2.75"
       inkscape:connector-curvature="0" /><g
       transform="translate(384.62691,9.530509)"
       id="g3228"><text
         id="text3230"
         transform="matrix(1,0,0,-1,158.167,25.25)"><tspan
           id="tspan3232"
           sodipodi:role="line"
           y="0"
           x="0 5.5599999 8.3400002"
           style="font-size:10px;font-variant:normal;font-weight:normal;writing-mode:lr-tb;fill:#000000;fill-opacity:1;fill-rule:nonzero;stroke:none;font-family:Helvetica;-inkscape-font-specification:Helvetica">0.6</tspan></text>
</g><path
       id="path3234"
       style="fill:none;stroke:#000000;stroke-width:0.5;stroke-linecap:butt;stroke-linejoin:round;stroke-miterlimit:10;stroke-opacity:1;stroke-dasharray:none"
       d="m 586.47691,48.463709 0,2.75"
       inkscape:connector-curvature="0" /><g
       transform="translate(384.62691,9.530509)"
       id="g3236"><text
         id="text3238"
         transform="matrix(1,0,0,-1,193.333,25.25)"><tspan
           id="tspan3240"
           sodipodi:role="line"
           y="0"
           x="0 5.5599999 8.3400002"
           style="font-size:10px;font-variant:normal;font-weight:normal;writing-mode:lr-tb;fill:#000000;fill-opacity:1;fill-rule:nonzero;stroke:none;font-family:Helvetica;-inkscape-font-specification:Helvetica">0.7</tspan></text>
</g><path
       id="path3242"
       style="fill:none;stroke:#000000;stroke-width:0.5;stroke-linecap:butt;stroke-linejoin:round;stroke-miterlimit:10;stroke-opacity:1;stroke-dasharray:none"
       d="m 417.56011,48.463709 2.6668,0"
       inkscape:connector-curvature="0" /><g
       transform="translate(381.42691,11.130509)"
       id="g3244"><text
         id="text3246"
         transform="matrix(1,0,0,-1,14.5832,33.6668)"><tspan
           id="tspan3248"
           sodipodi:role="line"
           y="0"
           x="0 5.5599999 8.3400002"
           style="font-size:10px;font-variant:normal;font-weight:normal;writing-mode:lr-tb;fill:#000000;fill-opacity:1;fill-rule:nonzero;stroke:none;font-family:Helvetica;-inkscape-font-specification:Helvetica">0.5</tspan></text>
</g><path
       id="path3250"
       style="fill:none;stroke:#000000;stroke-width:0.5;stroke-linecap:butt;stroke-linejoin:round;stroke-miterlimit:10;stroke-opacity:1;stroke-dasharray:none"
       d="m 417.56011,75.797309 2.6668,0"
       inkscape:connector-curvature="0" /><path
       id="path3258"
       style="fill:none;stroke:#000000;stroke-width:0.5;stroke-linecap:butt;stroke-linejoin:round;stroke-miterlimit:10;stroke-opacity:1;stroke-dasharray:none"
       d="m 417.56011,103.04731 2.6668,0"
       inkscape:connector-curvature="0" /><g
       transform="translate(381.42691,11.130509)"
       id="g3260"><text
         id="text3262"
         transform="matrix(1,0,0,-1,14.5832,88.25)"><tspan
           id="tspan3264"
           sodipodi:role="line"
           y="0"
           x="0 5.5599999 8.3400002"
           style="font-size:10px;font-variant:normal;font-weight:normal;writing-mode:lr-tb;fill:#000000;fill-opacity:1;fill-rule:nonzero;stroke:none;font-family:Helvetica;-inkscape-font-specification:Helvetica">0.6</tspan></text>
</g><path
       id="path3266"
       style="fill:none;stroke:#000000;stroke-width:0.5;stroke-linecap:butt;stroke-linejoin:round;stroke-miterlimit:10;stroke-opacity:1;stroke-dasharray:none"
       d="m 417.56011,130.29751 2.6668,0"
       inkscape:connector-curvature="0" /><path
       id="path3274"
       style="fill:none;stroke:#000000;stroke-width:0.5;stroke-linecap:butt;stroke-linejoin:round;stroke-miterlimit:10;stroke-opacity:1;stroke-dasharray:none"
       d="m 417.56011,157.54751 2.6668,0"
       inkscape:connector-curvature="0" /><g
       transform="translate(381.42691,11.130509)"
       id="g3276"><text
         id="text3278"
         transform="matrix(1,0,0,-1,14.5832,142.75)"><tspan
           id="tspan3280"
           sodipodi:role="line"
           y="0"
           x="0 5.5599999 8.3400002"
           style="font-size:10px;font-variant:normal;font-weight:normal;writing-mode:lr-tb;fill:#000000;fill-opacity:1;fill-rule:nonzero;stroke:none;font-family:Helvetica;-inkscape-font-specification:Helvetica">0.7</tspan></text>
</g><path
       id="path3282"
       style="fill:none;stroke:#000000;stroke-width:0.5;stroke-linecap:butt;stroke-linejoin:round;stroke-miterlimit:10;stroke-opacity:1;stroke-dasharray:none"
       d="m 417.56011,184.79751 2.6668,0"
       inkscape:connector-curvature="0" /><path
       id="path3290"
       style="fill:none;stroke:#000000;stroke-width:0.5;stroke-linecap:butt;stroke-linejoin:round;stroke-miterlimit:10;stroke-opacity:1;stroke-dasharray:none"
       d="m 417.56011,212.04751 2.6668,0"
       inkscape:connector-curvature="0" /><g
       transform="translate(381.42691,11.130509)"
       id="g3292"><text
         id="text3294"
         transform="matrix(1,0,0,-1,14.5832,197.25)"><tspan
           id="tspan3296"
           sodipodi:role="line"
           y="0"
           x="0 5.5599999 8.3400002"
           style="font-size:10px;font-variant:normal;font-weight:normal;writing-mode:lr-tb;fill:#000000;fill-opacity:1;fill-rule:nonzero;stroke:none;font-family:Helvetica;-inkscape-font-specification:Helvetica">0.8</tspan></text>
</g><path
       id="path3298"
       style="fill:none;stroke:#000000;stroke-width:0.5;stroke-linecap:butt;stroke-linejoin:round;stroke-miterlimit:10;stroke-opacity:1;stroke-dasharray:none"
       d="m 417.56011,239.29751 2.6668,0"
       inkscape:connector-curvature="0" /><path
       id="path3306"
       style="fill:none;stroke:#000000;stroke-width:0.5;stroke-linecap:butt;stroke-linejoin:round;stroke-miterlimit:10;stroke-opacity:1;stroke-dasharray:none"
       d="m 417.56011,266.54751 2.6668,0"
       inkscape:connector-curvature="0" /><g
       transform="translate(381.42691,11.130509)"
       id="g3308"><text
         id="text3310"
         transform="matrix(1,0,0,-1,14.5832,251.75)"><tspan
           id="tspan3312"
           sodipodi:role="line"
           y="0"
           x="0 5.5599999 8.3400002"
           style="font-size:10px;font-variant:normal;font-weight:normal;writing-mode:lr-tb;fill:#000000;fill-opacity:1;fill-rule:nonzero;stroke:none;font-family:Helvetica;-inkscape-font-specification:Helvetica">0.9</tspan></text>
</g><path
       id="path3314"
       style="fill:none;stroke:#000000;stroke-width:0.5;stroke-linecap:butt;stroke-linejoin:round;stroke-miterlimit:10;stroke-opacity:1;stroke-dasharray:none"
       d="m 417.56011,293.79751 2.6668,0"
       inkscape:connector-curvature="0" /><path
       id="path3322"
       style="fill:none;stroke:#000000;stroke-width:0.5;stroke-linecap:butt;stroke-linejoin:round;stroke-miterlimit:10;stroke-opacity:1;stroke-dasharray:none"
       d="m 417.56011,321.04751 2.6668,0"
       inkscape:connector-curvature="0" /><g
       transform="translate(381.42691,11.130509)"
       id="g3324"><text
         id="text3326"
         transform="matrix(1,0,0,-1,22.9168,306.25)"><tspan
           id="tspan3328"
           y="0"
           x="0"
           style="font-size:10px;font-variant:normal;font-weight:normal;writing-mode:lr-tb;fill:#000000;fill-opacity:1;fill-rule:nonzero;stroke:none;font-family:Helvetica;-inkscape-font-specification:Helvetica">1</tspan></text>
</g><path
       id="path3342"
       style="fill:none;stroke:#000000;stroke-width:2;stroke-linecap:butt;stroke-linejoin:round;stroke-miterlimit:10;stroke-opacity:1;stroke-dasharray:2,2;stroke-dashoffset:0"
       d="m 428.31011,48.380509 0.0836,167.333001 0.25,37.5 0.25,13.334 0.3332,8.5 0.25,4.833 0.25,3.667 0.25,3.583 0.25,1.25 0.25,2.417 0.25,1.25 0.25,1.166 0.3332,1.25 0.25,1.167 0.25,1.25 0.25,1.167 0.25,0 0.25,1.25 0.25,0 0.25,1.166 0.3336,0 0.25,1.25 0.5,0 0.25,1.167 0.8332,0 0.25,1.25 1,0 0.25,1.25 1.5832,0 0.25,1.167 2.5836,0 0.3332,1.25 0.75,0 m 0,0 5.25,0 0.25,1.166 10.4168,0 0.25,-1.166 16.4164,0 0.25,-1.25 9.4168,0 0.25,-1.167 7.333,0 0.25,-1.25 6.5,0 0.25,-1.25 5.75,0 0.25,-1.167 5.25,0 0.25,-1.25 4.917,0 0.25,-1.166 4.5,0 m 0,0 0.25,-1.25 4.167,0 0.25,-1.167 3.666,0 0.25,-1.25 3.667,0 0.25,-1.167 3.083,0 0.334,-1.25 2.833,0 0.25,-1.166 2.917,0 0.25,-1.25 2.333,0 0.25,-1.167 2.333,0 0.25,-1.25 2.084,0 0.25,-1.25 1.833,0 0.25,-1.167 1.583,0 0.25,-1.25 1.834,0 0.25,-1.166 1.333,0 0.25,-1.25 1.333,0 0.25,-1.167 1.334,0 0.25,-1.25 1,0 0.25,-1.167 1.083,0 0.25,-1.25 1.083,0 0.25,-1.166 0.75,0 0.25,-1.25 1.084,0 0.25,-1.167 0.5,0 0.25,-1.25 0.833,0 0.25,-1.25 0.75,0 0.25,-1.167 0.5,0 0.333,-1.25 0.5,0 0.25,-1.166 0.5,0 0.25,-1.25 0.584,0 0.25,-1.167 0.5,0 0.25,-1.25 0.25,0 0.25,-1.167 0.583,0 0.25,-1.25 0.25,0 0.25,-1.166 0.5,0 0.25,-1.25 0.333,0 0.25,-1.167 0.25,0 0.25,-1.25 0.25,0 0.25,-1.25 0.25,0 0.25,-1.167 0.334,0 0.25,-1.25 0.25,-1.166 0.25,0 0.25,-1.25 0.25,0 0.25,-1.167 0.333,-1.25 0.25,0 0.25,-1.167 0.25,0 0.25,-1.25 0.25,-1.166 0.25,-1.25 0.25,0 0.333,-1.167 0.25,-1.25 0.25,-1.25 0.25,0 0.25,-1.167 0.25,-1.25 0.25,-1.166 0.25,-1.25 0.334,-1.167 0.25,-1.25 0.25,-1.167 0.25,-1.25 0.25,-1.166 0.25,-1.25 0.25,-1.167 0.25,-1.25 0.333,-1.25 0.25,-2.417 0.25,-1.166 0.25,-1.25 0.25,-1.167 0.25,-2.417 0.25,-1.25 0.333,-2.416 0.25,-1.167 0.25,-2.5 0.25,-1.167 0.25,-2.416 0.25,-2.417 0.25,-2.417 0.25,-1.25 0.334,-2.416 0.25,-2.417 0.25,-2.417 0.25,-3.666 0.25,-2.417 0.25,-2.417 0.25,-3.583 0.25,-2.417 0.333,-3.666 0.25,-3.667 0.25,-3.583 0.25,-3.667 0.25,-3.667 0.25,-4.833 0.25,-3.583 0.25,-4.834 0.333,-4.916 0.25,-6 0.25,-4.834 0.25,-6.083 0.25,-6.083 0.25,-7.2502 0.25,-6.0836 0.334,-8.5 0.25,-7.250001 0.25,-8.5 0.25,-9.6664 0.25,-10.9168 0.25,-10.9168 0,-0.0832"
       inkscape:connector-curvature="0" /><path
       style="fill:none;stroke:#0000ff;stroke-width:2;stroke-linecap:butt;stroke-linejoin:round;stroke-miterlimit:10;stroke-opacity:1;stroke-dasharray:none"
       d="m 450.89371,308.54751 c 19.96665,0.024 39.5625,-2.91624 58.9162,-7.25 m 0,0 c 18.51034,-4.4758 38.02183,-9.35984 52.5,-22.417 15.48229,-14.28703 20.82926,-35.88319 24.53979,-55.94769 6.89206,-41.48552 8.04708,-83.65233 9.71588,-125.602018 0.51379,-16.314691 0.99443,-32.630677 1.32833,-48.950293 m -169.7502,0 c 0.14073,72.331431 -0.37813,144.685881 0.5832,217.000001 0.24786,6.31704 0.30115,12.67415 0.9168,18.917 m 0,0 c 0.81552,7.77478 1.23842,16.18758 7.5,21 3.93673,2.64273 8.74285,3.19579 13.75,3.25"
       id="path3350"
       inkscape:connector-curvature="0" /><path
       id="path4321"
       style="fill:none;stroke:#000000;stroke-width:2;stroke-linecap:butt;stroke-linejoin:round;stroke-miterlimit:10;stroke-opacity:1;stroke-dasharray:2,2;stroke-dashoffset:0"
       d="m 244.53359,141.50478 0,0.0836 0.25,11.25 0.3332,5.5832 0.25,5.5832 0.3336,5.5836 0.25,5.5832 0.25,5.6668 0.3332,5.5832 0.25,0 0.3332,5.5832 0.25,0 0.3336,5.5836 0.25,0 0.25,5.5832 0.5832,0 0.3332,5.5832 0.8336,0 0.25,5.6668 1.1664,0 0.3336,5.5832 1.6664,0 0.3336,5.5836 2.8332,0 0.25,5.5832 6.5832,0 0.3336,5.583 11.4164,0 0.3336,-5.583 14.8332,0 m 0,0 3.1668,0 0.25,-5.5832 10.3332,0 0.25,-5.5836 8,0 0.3332,-5.5832 7.1668,0 0.25,-5.6668 6.333,0 0.25,-5.5832 5.75,0 0.25,-5.5832 5.417,0 0.333,-5.5836 4.834,0 0.333,-5.5832 4.5,0 0.333,-5.5832 4,0 0.25,-5.6668 4,0 0.334,-5.5832 3.416,0 0.334,-5.5836 3.083,0 0.333,-5.5832 3.084,0 0.333,-5.5832 2.583,0 0.25,-5.5836 2.584,0 0.333,-5.6664 2.25,0 0,-0.0836" /><path
       id="path4046"
       style="fill:none;stroke:#ffffff;stroke-width:0.5;stroke-linecap:butt;stroke-linejoin:round;stroke-miterlimit:10;stroke-opacity:1;stroke-dasharray:none"
       d="m 241.92753,141.43509 0,101.667 135.75,0 0,-101.667 -135.75,0"
       inkscape:connector-curvature="0" /><path
       id="path4048"
       style="fill:none;stroke:#000000;stroke-width:0.5;stroke-linecap:butt;stroke-linejoin:round;stroke-miterlimit:10;stroke-opacity:1;stroke-dasharray:none"
       d="m 241.92753,141.43509 135.75,0"
       inkscape:connector-curvature="0" /><path
       id="path4050"
       style="fill:none;stroke:#000000;stroke-width:0.5;stroke-linecap:butt;stroke-linejoin:round;stroke-miterlimit:10;stroke-opacity:1;stroke-dasharray:none"
       d="m 241.92753,141.43509 0,101.667"
       inkscape:connector-curvature="0" /><path
       id="path4052"
       style="fill:none;stroke:#000000;stroke-width:0.5;stroke-linecap:butt;stroke-linejoin:round;stroke-miterlimit:10;stroke-opacity:1;stroke-dasharray:none"
       d="m 261.26073,141.43509 0,1.4168"
       inkscape:connector-curvature="0" /><g
       transform="translate(217.57753,127.43509)"
       id="g4054"><text
         id="text4056"
         transform="matrix(1,0,0,-1,35.1668,1.9168)"><tspan
           id="tspan4058"
           sodipodi:role="line"
           y="0"
           x="0 5.5599999 8.3400002"
           style="font-size:10px;font-variant:normal;font-weight:normal;writing-mode:lr-tb;fill:#000000;fill-opacity:1;fill-rule:nonzero;stroke:none;font-family:Helvetica;-inkscape-font-specification:Helvetica">0.3</tspan></text>
</g><path
       id="path4076"
       style="fill:none;stroke:#000000;stroke-width:0.5;stroke-linecap:butt;stroke-linejoin:round;stroke-miterlimit:10;stroke-opacity:1;stroke-dasharray:none"
       d="m 377.76053,141.43509 0,1.4168"
       inkscape:connector-curvature="0" /><g
       transform="translate(214.37753,127.43509)"
       id="g4078"><text
         id="text4080"
         transform="matrix(1,0,0,-1,151.667,1.9168)"><tspan
           id="tspan4082"
           sodipodi:role="line"
           y="0"
           x="0 5.5599999 8.3400002"
           style="font-size:10px;font-variant:normal;font-weight:normal;writing-mode:lr-tb;fill:#000000;fill-opacity:1;fill-rule:nonzero;stroke:none;font-family:Helvetica;-inkscape-font-specification:Helvetica">0.6</tspan></text>
</g><path
       id="path4084"
       style="fill:none;stroke:#000000;stroke-width:0.5;stroke-linecap:butt;stroke-linejoin:round;stroke-miterlimit:10;stroke-opacity:1;stroke-dasharray:none"
       d="m 241.92753,141.51829 1.3332,0"
       inkscape:connector-curvature="0" /><g
       transform="translate(214.37753,127.43509)"
       id="g4086"><text
         id="text4088"
         transform="matrix(1,0,0,-1,0.416797,10.4168)"><tspan
           id="tspan4090"
           sodipodi:role="line"
           y="0"
           x="0 5.5599999 8.3400002 13.9"
           style="font-size:10px;font-variant:normal;font-weight:normal;writing-mode:lr-tb;fill:#000000;fill-opacity:1;fill-rule:nonzero;stroke:none;font-family:Helvetica;-inkscape-font-specification:Helvetica">0.94</tspan></text>
</g><path
       id="path4116"
       style="fill:none;stroke:#000000;stroke-width:0.5;stroke-linecap:butt;stroke-linejoin:round;stroke-miterlimit:10;stroke-opacity:1;stroke-dasharray:none"
       d="m 241.92753,242.85209 1.3332,0"
       inkscape:connector-curvature="0" /><g
       transform="translate(214.37753,127.43509)"
       id="g4118"><text
         id="text4120"
         transform="matrix(1,0,0,-1,0.416797,111.75)"><tspan
           id="tspan4122"
           sodipodi:role="line"
           y="0"
           x="0 5.5599999 8.3400002 13.9"
           style="font-size:10px;font-variant:normal;font-weight:normal;writing-mode:lr-tb;fill:#000000;fill-opacity:1;fill-rule:nonzero;stroke:none;font-family:Helvetica;-inkscape-font-specification:Helvetica">0.98</tspan></text>
</g><path
       id="path4132"
       style="fill:none;stroke:#000000;stroke-width:2;stroke-linecap:butt;stroke-linejoin:round;stroke-miterlimit:10;stroke-opacity:1;stroke-dasharray:12,2;stroke-dashoffset:0"
       d="m 244.67753,141.35189 0.4168,25.5 1.3332,0 1.25,25.3332 1.3332,0 1.25,25.3332 9.0836,0 1.3332,25.3338 24.5832,0 1.25,-25.3338 38.8338,0 1.25,-25.3332 23.333,0 1.25,-25.3332 15.583,0 1.25,-25.4168 9.834,0"
       inkscape:connector-curvature="0" /><path
       transform="scale(1,-1)"
       style="opacity:0.8;fill:none;stroke:#000000;stroke-width:0.24000001;stroke-miterlimit:4;stroke-opacity:1;stroke-dasharray:0.96000004, 0.48000002;stroke-dashoffset:0"
       d="m 213.30152,-251.05703 172.84638,0 0,123.69343 -172.84638,0 z"
       id="rect5032"
       inkscape:connector-curvature="0"
       sodipodi:nodetypes="ccccc" /><path
       style="fill:none;stroke:#0000ff;stroke-width:2;stroke-linecap:butt;stroke-linejoin:round;stroke-miterlimit:10;stroke-opacity:1;stroke-dasharray:none"
       d="m 267.01073,235.26809 c 3.61977,-0.009 7.21135,-0.33423 10.75,-1 m 0,0 c 10.1518,-1.97732 19.61219,-6.41909 28.25,-11.9998 10.01946,-6.33741 19.12407,-14.11295 27.6668,-22.3332 10.16717,-10.06311 19.43892,-21.06711 27.25,-33.0832 5.2342,-8.13486 9.93489,-16.64516 13.833,-25.5 m -130.7498,0 c 0.51784,16.66622 1.13225,33.36612 2.6668,49.8332 0.46524,4.49548 1.00924,8.98915 1.6668,13.4168 m 0,0 c 1.08841,6.35155 2.31118,12.51856 4.5832,18.1664 1.56249,3.84668 3.70508,7.86074 7.4168,10.4998 1.98127,1.28283 4.16145,1.97247 6.6664,2"
       id="path4140"
       inkscape:connector-curvature="0" /><rect
       transform="scale(1,-1)"
       y="-313.06003"
       x="445.3877"
       height="23.266508"
       width="105.53269"
       id="rect4919"
       style="opacity:0.8;fill:none;stroke:#000000;stroke-width:0.24000001;stroke-miterlimit:4;stroke-dasharray:0.96000004, 0.48000002;stroke-dashoffset:0" /><rect
       style="opacity:0.8;fill:none;stroke:#000000;stroke-width:0.24000001;stroke-miterlimit:4;stroke-dasharray:0.96000004, 0.48000002;stroke-dashoffset:0"
       id="rect4913"
       width="105.53269"
       height="23.266508"
       x="50.186977"
       y="-313.06003"
       transform="scale(1,-1)" /><path
       style="opacity:0.8;fill:none;stroke:#000000;stroke-width:0.30000001;stroke-linecap:butt;stroke-linejoin:miter;stroke-miterlimit:4;stroke-opacity:1;stroke-dasharray:1.20000005, 0.60000002;stroke-dashoffset:0"
       d="M 222.86294,21.490214 510.90663,98.96447"
       id="path5802"
       inkscape:connector-curvature="0"
       transform="matrix(0.8,0,0,-0.8,-22.583972,330.22786)"
       sodipodi:nodetypes="cc" /><path
       style="opacity:0.8;fill:none;stroke:#000000;stroke-width:0.30000001;stroke-linecap:butt;stroke-linejoin:miter;stroke-miterlimit:4;stroke-opacity:1;stroke-dasharray:1.20000005, 0.60000002;stroke-dashoffset:0"
       d="M 584.93513,21.388591 294.88469,98.90798"
       id="path5806"
       inkscape:connector-curvature="0"
       transform="matrix(0.8,0,0,-0.8,-22.583972,330.22786)"
       sodipodi:nodetypes="cc" /><path
       style="opacity:0.8;fill:none;stroke:#000000;stroke-width:0.30000001;stroke-linecap:butt;stroke-linejoin:miter;stroke-miterlimit:4;stroke-opacity:1;stroke-dasharray:1.20000005, 0.60000002;stroke-dashoffset:0"
       d="M 294.75477,253.46064 90.977763,50.462258"
       id="path5804"
       inkscape:connector-curvature="0"
       transform="matrix(0.8,0,0,-0.8,-22.583972,330.22786)"
       sodipodi:nodetypes="cc" /><path
       style="opacity:0.8;fill:none;stroke:#000000;stroke-width:0.30000001;stroke-linecap:butt;stroke-linejoin:miter;stroke-miterlimit:4;stroke-opacity:1;stroke-dasharray:1.20000005, 0.60000002;stroke-dashoffset:0"
       d="M 510.91394,253.55251 716.92639,50.531568"
       id="path5808"
       inkscape:connector-curvature="0"
       transform="matrix(0.8,0,0,-0.8,-22.583972,330.22786)"
       sodipodi:nodetypes="cc" /><text
       xml:space="preserve"
       style="font-size:14.57562923px;font-style:normal;font-weight:normal;line-height:125%;letter-spacing:0px;word-spacing:0px;fill:#000000;fill-opacity:1;stroke:none;font-family:Sans"
       x="98.264053"
       y="-22.389605"
       id="text5812"
       sodipodi:linespacing="125%"
       transform="scale(1,-1)"><tspan
         sodipodi:role="line"
         id="tspan5814"
         x="98.264053"
         y="-22.389605">time</tspan></text>
<text
       transform="matrix(0,1,1,0,0,0)"
       sodipodi:linespacing="125%"
       id="text6097"
       y="400.74567"
       x="170.07625"
       style="font-size:14.57562828px;font-style:normal;font-weight:normal;line-height:125%;letter-spacing:0px;word-spacing:0px;fill:#000000;fill-opacity:1;stroke:none;font-family:Sans"
       xml:space="preserve"><tspan
         y="400.74567"
         x="170.07625"
         id="tspan6099"
         sodipodi:role="line">$\Sigma(t)$</tspan></text>
<text
       xml:space="preserve"
       style="font-size:14.57562828px;font-style:normal;font-weight:normal;line-height:125%;letter-spacing:0px;word-spacing:0px;fill:#000000;fill-opacity:1;stroke:none;font-family:Sans"
       x="170.07625"
       y="3.9456284"
       id="text5812-7"
       sodipodi:linespacing="125%"
       transform="matrix(0,1,1,0,0,0)"><tspan
         sodipodi:role="line"
         id="tspan5814-4"
         x="170.07625"
         y="3.9456284">$\Sigma(t)$</tspan></text>
<text
       transform="scale(1,-1)"
       sodipodi:linespacing="125%"
       id="text5875"
       y="-22.389605"
       x="495.06406"
       style="font-size:14.57562923px;font-style:normal;font-weight:normal;line-height:125%;letter-spacing:0px;word-spacing:0px;fill:#000000;fill-opacity:1;stroke:none;font-family:Sans"
       xml:space="preserve"><tspan
         y="-22.389605"
         x="495.06406"
         id="tspan5877"
         sodipodi:role="line">time</tspan></text>
<path
       style="fill:none;stroke:#000000;stroke-width:2;stroke-linecap:butt;stroke-linejoin:miter;stroke-miterlimit:4;stroke-opacity:1;stroke-dasharray:12, 2;stroke-dashoffset:0"
       d="m 224.1513,79.699914 19.57278,0"
       id="path6597"
       inkscape:connector-curvature="0" /><path
       inkscape:connector-curvature="0"
       id="path6599"
       d="m 224.1513,95.257763 19.57278,0"
       style="fill:#0000ff;stroke:#0000ff;stroke-width:2;stroke-linecap:butt;stroke-linejoin:miter;stroke-miterlimit:4;stroke-opacity:1;stroke-dasharray:none" /><path
       inkscape:connector-curvature="0"
       id="path6601"
       d="m 224.1513,64.142068 19.57278,0"
       style="fill:none;stroke:#000000;stroke-width:2;stroke-linecap:butt;stroke-linejoin:miter;stroke-miterlimit:4;stroke-opacity:1;stroke-dasharray:2, 2;stroke-dashoffset:0" /><text
       xml:space="preserve"
       style="font-size:11.25687885px;font-style:normal;font-weight:normal;line-height:125%;letter-spacing:0px;word-spacing:0px;fill:#000000;fill-opacity:1;stroke:none;font-family:Sans"
       x="248.98471"
       y="-91.946777"
       id="text6603"
       sodipodi:linespacing="125%"
       transform="scale(1,-1)"><tspan
         sodipodi:role="line"
         id="tspan6605"
         x="248.98471"
         y="-91.946777">analytic solution </tspan></text>
<text
       transform="scale(1,-1)"
       sodipodi:linespacing="125%"
       id="text6607"
       y="-75.946793"
       x="248.98471"
       style="font-size:11.25687885px;font-style:normal;font-weight:normal;line-height:125%;letter-spacing:0px;word-spacing:0px;fill:#000000;fill-opacity:1;stroke:none;font-family:Sans"
       xml:space="preserve"><tspan
         y="-75.946793"
         x="248.98471"
         id="tspan6609"
         sodipodi:role="line">num. solution, N=100</tspan></text>
<text
       xml:space="preserve"
       style="font-size:11.25687885px;font-style:normal;font-weight:normal;line-height:125%;letter-spacing:0px;word-spacing:0px;fill:#000000;fill-opacity:1;stroke:none;font-family:Sans"
       x="248.98471"
       y="-61.546806"
       id="text6611"
       sodipodi:linespacing="125%"
       transform="scale(1,-1)"><tspan
         sodipodi:role="line"
         id="tspan6613"
         x="248.98471"
         y="-61.546806">num. solution, N=450</tspan></text>
</g></svg>