<?xml version="1.0" encoding="UTF-8" standalone="no"?>
<!-- Created with Inkscape (http://www.inkscape.org/) -->

<svg
   xmlns:dc="http://purl.org/dc/elements/1.1/"
   xmlns:cc="http://creativecommons.org/ns#"
   xmlns:rdf="http://www.w3.org/1999/02/22-rdf-syntax-ns#"
   xmlns:svg="http://www.w3.org/2000/svg"
   xmlns="http://www.w3.org/2000/svg"
   xmlns:sodipodi="http://sodipodi.sourceforge.net/DTD/sodipodi-0.dtd"
   xmlns:inkscape="http://www.inkscape.org/namespaces/inkscape"
   id="svg2"
   version="1.1"
   inkscape:version="0.48.5 r10040"
   width="1061.4375"
   height="410.6875"
   xml:space="preserve"
   sodipodi:docname="conv_p_pocket.pdf"><metadata
     id="metadata8"><rdf:RDF><cc:Work
         rdf:about=""><dc:format>image/svg+xml</dc:format><dc:type
           rdf:resource="http://purl.org/dc/dcmitype/StillImage" /><dc:title></dc:title></cc:Work></rdf:RDF></metadata><defs
     id="defs6"><clipPath
       clipPathUnits="userSpaceOnUse"
       id="clipPath18"><path
         d="m 6,0 3834,0 0,3010 L 6,3010 6,0 z"
         id="path20"
         inkscape:connector-curvature="0" /></clipPath><clipPath
       clipPathUnits="userSpaceOnUse"
       id="clipPath172"><path
         d="m 272.5,158.332 3472.5,0 0,2740 -3472.5,0 0,-2740 z"
         id="path174"
         inkscape:connector-curvature="0" /></clipPath><clipPath
       clipPathUnits="userSpaceOnUse"
       id="clipPath182"><path
         d="m 6,0 3834,0 0,3010 L 6,3010 6,0 z"
         id="path184"
         inkscape:connector-curvature="0" /></clipPath><clipPath
       clipPathUnits="userSpaceOnUse"
       id="clipPath202"><path
         d="m 272.5,158.332 3472.5,0 0,2740 -3472.5,0 0,-2740 z"
         id="path204"
         inkscape:connector-curvature="0" /></clipPath><clipPath
       clipPathUnits="userSpaceOnUse"
       id="clipPath212"><path
         d="m 6,0 3834,0 0,3010 L 6,3010 6,0 z"
         id="path214"
         inkscape:connector-curvature="0" /></clipPath><clipPath
       clipPathUnits="userSpaceOnUse"
       id="clipPath256"><path
         d="m 2815,2477.5 880.832,0 0,370.832 -880.832,0 0,-370.832 z"
         id="path258"
         inkscape:connector-curvature="0" /></clipPath><clipPath
       clipPathUnits="userSpaceOnUse"
       id="clipPath266"><path
         d="m 2968.33,2687.5 122.5,0 0,122.5 -122.5,0 0,-122.5 z"
         id="path268"
         inkscape:connector-curvature="0" /></clipPath><clipPath
       clipPathUnits="userSpaceOnUse"
       id="clipPath276"><path
         d="m 6,0 3834,0 0,3010 L 6,3010 6,0 z"
         id="path278"
         inkscape:connector-curvature="0" /></clipPath><clipPath
       clipPathUnits="userSpaceOnUse"
       id="clipPath290"><path
         d="m 2815,2477.5 880.832,0 0,370.832 -880.832,0 0,-370.832 z"
         id="path292"
         inkscape:connector-curvature="0" /></clipPath><clipPath
       id="clipPath4663"
       clipPathUnits="userSpaceOnUse"><path
         id="path4665"
         d="m 2855,2477.5 880.832,0 0,370.832 -880.832,0 0,-370.832 z"
         inkscape:connector-curvature="0" /></clipPath><clipPath
       id="clipPath4649"
       clipPathUnits="userSpaceOnUse"><path
         id="path4651"
         d="m 7,0 3873,0 0,3010 L 7,3010 7,0 z"
         inkscape:connector-curvature="0" /></clipPath><clipPath
       id="clipPath4639"
       clipPathUnits="userSpaceOnUse"><path
         id="path4641"
         d="m 3008.33,2687.5 122.5,0 0,122.5 -122.5,0 0,-122.5 z"
         inkscape:connector-curvature="0" /></clipPath><clipPath
       id="clipPath4629"
       clipPathUnits="userSpaceOnUse"><path
         id="path4631"
         d="m 2855,2477.5 880.832,0 0,370.832 -880.832,0 0,-370.832 z"
         inkscape:connector-curvature="0" /></clipPath><clipPath
       id="clipPath4585"
       clipPathUnits="userSpaceOnUse"><path
         id="path4587"
         d="m 7,0 3873,0 0,3010 L 7,3010 7,0 z"
         inkscape:connector-curvature="0" /></clipPath><clipPath
       id="clipPath4575"
       clipPathUnits="userSpaceOnUse"><path
         id="path4577"
         d="m 312.5,158.332 3472.5,0 0,2740 -3472.5,0 0,-2740 z"
         inkscape:connector-curvature="0" /></clipPath><clipPath
       id="clipPath4555"
       clipPathUnits="userSpaceOnUse"><path
         id="path4557"
         d="m 7,0 3873,0 0,3010 L 7,3010 7,0 z"
         inkscape:connector-curvature="0" /></clipPath><clipPath
       id="clipPath4545"
       clipPathUnits="userSpaceOnUse"><path
         id="path4547"
         d="m 312.5,158.332 3472.5,0 0,2740 -3472.5,0 0,-2740 z"
         inkscape:connector-curvature="0" /></clipPath><clipPath
       id="clipPath4361"
       clipPathUnits="userSpaceOnUse"><path
         id="path4363"
         d="m 7,0 3873,0 0,3010 L 7,3010 7,0 z"
         inkscape:connector-curvature="0" /></clipPath></defs><sodipodi:namedview
     pagecolor="#ffffff"
     bordercolor="#666666"
     borderopacity="1"
     objecttolerance="10"
     gridtolerance="10"
     guidetolerance="10"
     inkscape:pageopacity="0"
     inkscape:pageshadow="2"
     inkscape:window-width="1920"
     inkscape:window-height="1025"
     id="namedview4"
     showgrid="false"
     inkscape:zoom="1.7169216"
     inkscape:cx="407.59345"
     inkscape:cy="562.01008"
     inkscape:window-x="-2"
     inkscape:window-y="-3"
     inkscape:window-maximized="1"
     inkscape:current-layer="g10"
     fit-margin-top="0"
     fit-margin-left="0"
     fit-margin-right="0"
     fit-margin-bottom="0" /><g
     id="g10"
     inkscape:groupmode="layer"
     inkscape:label="ink_ext_XXXXXX"
     transform="matrix(1.25,0,0,-1.25,41.289062,381.282)"><path
       inkscape:connector-curvature="0"
       id="path5810"
       d="m 592.52558,181.95748 31.41198,0 0,-18.69039"
       style="fill:none;stroke:#000000;stroke-width:0.40000001;stroke-linecap:butt;stroke-linejoin:miter;stroke-opacity:1" /><text
       transform="scale(1,-1)"
       sodipodi:linespacing="125%"
       id="text5812"
       y="-187.10336"
       x="597.80664"
       style="font-size:14.0968256px;font-style:normal;font-weight:normal;line-height:125%;letter-spacing:0px;word-spacing:0px;fill:#000000;fill-opacity:1;stroke:none;font-family:Sans"
       xml:space="preserve"><tspan
         y="-187.10336"
         x="597.80664"
         id="tspan5814"
         sodipodi:role="line">$\delta_1$</tspan></text>
<text
       transform="scale(1,-1)"
       sodipodi:linespacing="125%"
       id="text5816"
       y="-167.54298"
       x="627.53949"
       style="font-size:14.09682655px;font-style:normal;font-weight:normal;line-height:125%;letter-spacing:0px;word-spacing:0px;fill:#000000;fill-opacity:1;stroke:none;font-family:Sans"
       xml:space="preserve"><tspan
         y="-167.54298"
         x="627.53949"
         id="tspan5818"
         sodipodi:role="line">$\delta_2$</tspan></text>
<path
       style="fill:none;stroke:#000000;stroke-width:0.40000001;stroke-linecap:butt;stroke-linejoin:miter;stroke-opacity:1"
       d="m 133.32558,185.50674 31.41198,0 0,-18.69039"
       id="path3613"
       inkscape:connector-curvature="0" /><path
       inkscape:connector-curvature="0"
       id="path26"
       style="fill:none;stroke:#ffffff;stroke-width:0.5;stroke-linecap:butt;stroke-linejoin:round;stroke-miterlimit:10;stroke-opacity:1;stroke-dasharray:none"
       d="m 27.25,15.9168 347.167,0 0,274 -347.167,0 0,-274 z" /><path
       inkscape:connector-curvature="0"
       id="path28"
       style="fill:none;stroke:#000000;stroke-width:0.5;stroke-linecap:butt;stroke-linejoin:round;stroke-miterlimit:10;stroke-opacity:1;stroke-dasharray:none"
       d="m 27.25,15.9168 347.167,0" /><path
       inkscape:connector-curvature="0"
       id="path30"
       style="fill:none;stroke:#000000;stroke-width:0.5;stroke-linecap:butt;stroke-linejoin:round;stroke-miterlimit:10;stroke-opacity:1;stroke-dasharray:none"
       d="m 27.25,289.917 347.167,0" /><path
       inkscape:connector-curvature="0"
       id="path32"
       style="fill:none;stroke:#000000;stroke-width:0.5;stroke-linecap:butt;stroke-linejoin:round;stroke-miterlimit:10;stroke-opacity:1;stroke-dasharray:none"
       d="m 27.25,15.9168 0,274.0002" /><path
       inkscape:connector-curvature="0"
       id="path34"
       style="fill:none;stroke:#000000;stroke-width:0.5;stroke-linecap:butt;stroke-linejoin:round;stroke-miterlimit:10;stroke-opacity:1;stroke-dasharray:none"
       d="m 374.417,15.9168 0,274.0002" /><path
       inkscape:connector-curvature="0"
       id="path36"
       style="fill:none;stroke:#000000;stroke-width:0.5;stroke-linecap:butt;stroke-linejoin:round;stroke-miterlimit:10;stroke-opacity:1;stroke-dasharray:none"
       d="m 27.25,15.9168 347.167,0" /><path
       inkscape:connector-curvature="0"
       id="path38"
       style="fill:none;stroke:#000000;stroke-width:0.5;stroke-linecap:butt;stroke-linejoin:round;stroke-miterlimit:10;stroke-opacity:1;stroke-dasharray:none"
       d="m 27.25,15.9168 0,274.0002" /><path
       inkscape:connector-curvature="0"
       id="path40"
       style="fill:none;stroke:#000000;stroke-width:0.5;stroke-linecap:butt;stroke-linejoin:round;stroke-miterlimit:10;stroke-opacity:1;stroke-dasharray:none"
       d="m 27.25,15.9168 0,3.5" /><path
       inkscape:connector-curvature="0"
       id="path42"
       style="fill:none;stroke:#000000;stroke-width:0.5;stroke-linecap:butt;stroke-linejoin:round;stroke-miterlimit:10;stroke-opacity:1;stroke-dasharray:none"
       d="m 27.25,289.833 0,-3.416" /><g
       id="g44"
       transform="translate(0,-4.8)"><text
         id="text46"
         transform="matrix(1,0,0,-1,23.4168,0.0832031)"><tspan
           id="tspan48"
           y="0"
           x="0"
           style="font-size:14px;font-variant:normal;font-weight:normal;writing-mode:lr-tb;fill:#000000;fill-opacity:1;fill-rule:nonzero;stroke:none;font-family:Helvetica;-inkscape-font-specification:Helvetica">6</tspan></text>
</g><path
       inkscape:connector-curvature="0"
       id="path60"
       style="fill:none;stroke:#000000;stroke-width:0.5;stroke-linecap:butt;stroke-linejoin:round;stroke-miterlimit:10;stroke-opacity:1;stroke-dasharray:none"
       d="m 114,15.9168 0,3.5" /><path
       inkscape:connector-curvature="0"
       id="path62"
       style="fill:none;stroke:#000000;stroke-width:0.5;stroke-linecap:butt;stroke-linejoin:round;stroke-miterlimit:10;stroke-opacity:1;stroke-dasharray:none"
       d="m 114,289.833 0,-3.416" /><g
       id="g64"
       transform="translate(0,-4.8)"><text
         id="text66"
         transform="matrix(1,0,0,-1,110.167,0.0832031)"><tspan
           id="tspan68"
           y="0"
           x="0"
           style="font-size:14px;font-variant:normal;font-weight:normal;writing-mode:lr-tb;fill:#000000;fill-opacity:1;fill-rule:nonzero;stroke:none;font-family:Helvetica;-inkscape-font-specification:Helvetica">7</tspan></text>
</g><path
       inkscape:connector-curvature="0"
       id="path80"
       style="fill:none;stroke:#000000;stroke-width:0.5;stroke-linecap:butt;stroke-linejoin:round;stroke-miterlimit:10;stroke-opacity:1;stroke-dasharray:none"
       d="m 200.833,15.9168 0,3.5" /><path
       inkscape:connector-curvature="0"
       id="path82"
       style="fill:none;stroke:#000000;stroke-width:0.5;stroke-linecap:butt;stroke-linejoin:round;stroke-miterlimit:10;stroke-opacity:1;stroke-dasharray:none"
       d="m 200.833,289.833 0,-3.416" /><g
       id="g84"
       transform="translate(0,-4.8)"><text
         id="text86"
         transform="matrix(1,0,0,-1,197,0.0832031)"><tspan
           id="tspan88"
           y="0"
           x="0"
           style="font-size:14px;font-variant:normal;font-weight:normal;writing-mode:lr-tb;fill:#000000;fill-opacity:1;fill-rule:nonzero;stroke:none;font-family:Helvetica;-inkscape-font-specification:Helvetica">8</tspan></text>
</g><path
       inkscape:connector-curvature="0"
       id="path100"
       style="fill:none;stroke:#000000;stroke-width:0.5;stroke-linecap:butt;stroke-linejoin:round;stroke-miterlimit:10;stroke-opacity:1;stroke-dasharray:none"
       d="m 287.583,15.9168 0,3.5" /><path
       inkscape:connector-curvature="0"
       id="path102"
       style="fill:none;stroke:#000000;stroke-width:0.5;stroke-linecap:butt;stroke-linejoin:round;stroke-miterlimit:10;stroke-opacity:1;stroke-dasharray:none"
       d="m 287.583,289.833 0,-3.416" /><g
       id="g104"
       transform="translate(0,-4.8)"><text
         id="text106"
         transform="matrix(1,0,0,-1,283.75,0.0832031)"><tspan
           id="tspan108"
           y="0"
           x="0"
           style="font-size:14px;font-variant:normal;font-weight:normal;writing-mode:lr-tb;fill:#000000;fill-opacity:1;fill-rule:nonzero;stroke:none;font-family:Helvetica;-inkscape-font-specification:Helvetica">9</tspan></text>
</g><path
       inkscape:connector-curvature="0"
       id="path120"
       style="fill:none;stroke:#000000;stroke-width:0.5;stroke-linecap:butt;stroke-linejoin:round;stroke-miterlimit:10;stroke-opacity:1;stroke-dasharray:none"
       d="m 374.417,15.9168 0,3.5" /><path
       inkscape:connector-curvature="0"
       id="path122"
       style="fill:none;stroke:#000000;stroke-width:0.5;stroke-linecap:butt;stroke-linejoin:round;stroke-miterlimit:10;stroke-opacity:1;stroke-dasharray:none"
       d="m 374.417,289.833 0,-3.416" /><g
       id="g124"
       transform="translate(-3.2,-4.8)"><text
         id="text126"
         transform="matrix(1,0,0,-1,370.583,0.0832031)"><tspan
           id="tspan128"
           y="0"
           x="0"
           style="font-size:14px;font-variant:normal;font-weight:normal;writing-mode:lr-tb;fill:#000000;fill-opacity:1;fill-rule:nonzero;stroke:none;font-family:Helvetica;-inkscape-font-specification:Helvetica">10</tspan></text>
</g><path
       inkscape:connector-curvature="0"
       id="path130"
       style="fill:none;stroke:#000000;stroke-width:0.5;stroke-linecap:butt;stroke-linejoin:round;stroke-miterlimit:10;stroke-opacity:1;stroke-dasharray:none"
       d="m 27.25,15.9168 3.4168,0" /><path
       inkscape:connector-curvature="0"
       id="path132"
       style="fill:none;stroke:#000000;stroke-width:0.5;stroke-linecap:butt;stroke-linejoin:round;stroke-miterlimit:10;stroke-opacity:1;stroke-dasharray:none"
       d="m 374.417,15.9168 -3.5,0" /><g
       id="g134"
       transform="translate(-4.8,0)"><text
         id="text136"
         transform="matrix(1,0,0,-1,0.666797,10.75)"><tspan
           id="tspan138"
           sodipodi:role="line"
           x="0"
           style="font-size:14px;font-variant:normal;font-weight:normal;writing-mode:lr-tb;fill:#000000;fill-opacity:1;fill-rule:nonzero;stroke:none;font-family:Helvetica;-inkscape-font-specification:Helvetica"
           y="0">-15</tspan></text>
</g><path
       inkscape:connector-curvature="0"
       id="path140"
       style="fill:none;stroke:#000000;stroke-width:0.5;stroke-linecap:butt;stroke-linejoin:round;stroke-miterlimit:10;stroke-opacity:1;stroke-dasharray:none"
       d="m 27.25,152.917 3.4168,0" /><path
       inkscape:connector-curvature="0"
       id="path142"
       style="fill:none;stroke:#000000;stroke-width:0.5;stroke-linecap:butt;stroke-linejoin:round;stroke-miterlimit:10;stroke-opacity:1;stroke-dasharray:none"
       d="m 374.417,152.917 -3.5,0" /><g
       id="g144"
       transform="translate(-4.8,0)"><text
         id="text146"
         transform="matrix(1,0,0,-1,0.666797,147.75)"><tspan
           id="tspan148"
           sodipodi:role="line"
           style="font-size:14px;font-variant:normal;font-weight:normal;writing-mode:lr-tb;fill:#000000;fill-opacity:1;fill-rule:nonzero;stroke:none;font-family:Helvetica;-inkscape-font-specification:Helvetica"
           x="0"
           y="0">-10</tspan></text>
</g><path
       inkscape:connector-curvature="0"
       id="path150"
       style="fill:none;stroke:#000000;stroke-width:0.5;stroke-linecap:butt;stroke-linejoin:round;stroke-miterlimit:10;stroke-opacity:1;stroke-dasharray:none"
       d="m 27.25,289.833 3.4168,0" /><path
       inkscape:connector-curvature="0"
       id="path152"
       style="fill:none;stroke:#000000;stroke-width:0.5;stroke-linecap:butt;stroke-linejoin:round;stroke-miterlimit:10;stroke-opacity:1;stroke-dasharray:none"
       d="m 374.417,289.833 -3.5,0" /><g
       id="g154"
       transform="translate(-4.8,0)"><text
         id="text156"
         transform="matrix(1,0,0,-1,8.4168,284.667)"><tspan
           id="tspan158"
           sodipodi:role="line"
           y="0"
           x="0"
           style="font-size:14px;font-variant:normal;font-weight:normal;writing-mode:lr-tb;fill:#000000;fill-opacity:1;fill-rule:nonzero;stroke:none;font-family:Helvetica;-inkscape-font-specification:Helvetica">-5</tspan></text>
</g><path
       inkscape:connector-curvature="0"
       id="path160"
       style="fill:none;stroke:#000000;stroke-width:0.5;stroke-linecap:butt;stroke-linejoin:round;stroke-miterlimit:10;stroke-opacity:1;stroke-dasharray:none"
       d="m 27.25,15.9168 347.167,0" /><path
       inkscape:connector-curvature="0"
       id="path162"
       style="fill:none;stroke:#000000;stroke-width:0.5;stroke-linecap:butt;stroke-linejoin:round;stroke-miterlimit:10;stroke-opacity:1;stroke-dasharray:none"
       d="m 27.25,289.917 347.167,0" /><path
       inkscape:connector-curvature="0"
       id="path164"
       style="fill:none;stroke:#000000;stroke-width:0.5;stroke-linecap:butt;stroke-linejoin:round;stroke-miterlimit:10;stroke-opacity:1;stroke-dasharray:none"
       d="m 27.25,15.9168 0,274.0002" /><path
       inkscape:connector-curvature="0"
       id="path166"
       style="fill:none;stroke:#000000;stroke-width:0.5;stroke-linecap:butt;stroke-linejoin:round;stroke-miterlimit:10;stroke-opacity:1;stroke-dasharray:none"
       d="m 374.417,15.9168 0,274.0002" /><path
       inkscape:connector-curvature="0"
       id="path176"
       style="fill:none;stroke:#0000ff;stroke-width:1.2;stroke-linecap:butt;stroke-linejoin:round;stroke-miterlimit:10;stroke-opacity:1;stroke-dasharray:none"
       d="M 27.25,268.833 114,173 200.833,142.167 287.583,92.5 374.417,47.8332" /><path
       inkscape:connector-curvature="0"
       id="path186"
       style="fill:none;stroke:#0000ff;stroke-width:1.2;stroke-linecap:butt;stroke-linejoin:round;stroke-miterlimit:10;stroke-opacity:1;stroke-dasharray:none"
       d="m 30.25,268.833 c 0,-1.656 -1.3434,-3 -3,-3 -1.6566,0 -3,1.344 -3,3 0,1.657 1.3434,3 3,3 1.6566,0 3,-1.343 3,-3" /><path
       inkscape:connector-curvature="0"
       id="path188"
       style="fill:none;stroke:#0000ff;stroke-width:1.2;stroke-linecap:butt;stroke-linejoin:round;stroke-miterlimit:10;stroke-opacity:1;stroke-dasharray:none"
       d="m 117,173 c 0,-1.657 -1.343,-3 -3,-3 -1.657,0 -3,1.343 -3,3 0,1.657 1.343,3 3,3 1.657,0 3,-1.343 3,-3" /><path
       inkscape:connector-curvature="0"
       id="path190"
       style="fill:none;stroke:#0000ff;stroke-width:1.2;stroke-linecap:butt;stroke-linejoin:round;stroke-miterlimit:10;stroke-opacity:1;stroke-dasharray:none"
       d="m 203.833,142.167 c 0,-1.657 -1.343,-3 -3,-3 -1.656,0 -3,1.343 -3,3 0,1.656 1.344,3 3,3 1.657,0 3,-1.344 3,-3" /><path
       inkscape:connector-curvature="0"
       id="path192"
       style="fill:none;stroke:#0000ff;stroke-width:1.2;stroke-linecap:butt;stroke-linejoin:round;stroke-miterlimit:10;stroke-opacity:1;stroke-dasharray:none"
       d="m 290.583,92.5 c 0,-1.6566 -1.343,-3 -3,-3 -1.656,0 -3,1.3434 -3,3 0,1.6566 1.344,3 3,3 1.657,0 3,-1.3434 3,-3" /><path
       inkscape:connector-curvature="0"
       id="path194"
       style="fill:none;stroke:#0000ff;stroke-width:1.2;stroke-linecap:butt;stroke-linejoin:round;stroke-miterlimit:10;stroke-opacity:1;stroke-dasharray:none"
       d="m 377.417,47.8332 c 0,-1.6566 -1.344,-3 -3,-3 -1.657,0 -3,1.3434 -3,3 0,1.6566 1.343,3 3,3 1.656,0 3,-1.3434 3,-3" /><g
       id="g196" /><path
       inkscape:connector-curvature="0"
       id="path206"
       style="fill:none;stroke:#ff0000;stroke-width:1.2;stroke-linecap:butt;stroke-linejoin:round;stroke-miterlimit:10;stroke-opacity:1;stroke-dasharray:none"
       d="m 374.417,40.3332 -1.167,0.75 -1.167,0.6668 -1.166,0.6668 -1.167,0.75 -1.167,0.6664 -1.166,0.75 -1.167,0.6668 -1.167,0.6668 -1.166,0.75 -1.167,0.6664 -1.167,0.75 -1.166,0.6668 -1.167,0.6668 -1.167,0.75 -1.083,0.6664 -1.167,0.6668 -1.166,0.75 -1.167,0.6668 -1.167,0.75 -1.166,0.6664 L 350,55 l -1.167,0.75 -1.166,0.6668 -1.167,0.75 -1.167,0.6664 -1.166,0.6668 -1.167,0.75 -1.167,0.6668 -1.166,0.75 -1.084,0.6664 -1.166,0.6668 -1.167,0.75 -1.167,0.6668 -1.166,0.6664 -1.167,0.75 -1.167,0.6668 -1.166,0.75 -1.167,0.6668 -1.167,0.6664 -1.166,0.75 -1.167,0.6668 -1.167,0.75 -1.166,0.6668 -1.167,0.6664 -1.083,0.75 L 321,72.5 l -1.167,0.75 -1.166,0.6668 -1.167,0.6664 -1.167,0.75 L 315.167,76 314,76.6668 l -1.167,0.75 -1.166,0.6664 -1.167,0.75 -1.167,0.6668 -1.166,0.6668 -1.167,0.75 -1.167,0.6664 -1.083,0.75 -1.167,0.6668 -1.166,0.6668 -1.167,0.75 -1.167,0.6664 -1.166,0.6668 -1.167,0.75 -1.167,0.6668 -1.166,0.75 -1.167,0.6664 -1.167,0.6668 -1.166,0.75 -1.167,0.6668 -1.167,0.75 -1.166,0.6664 -1.084,0.6668 -1.166,0.75 -1.167,0.6668 -1.167,0.75 -1.166,0.6664 -1.167,0.6668 -1.167,0.75 -1.166,0.6668 -1.167,0.6664 -1.167,0.75 -1.166,0.6668 -1.167,0.75 -1.167,0.667 -1.166,0.666 -1.167,0.75 -1.083,0.667 -1.167,0.75 -1.167,0.667 -1.166,0.666 -1.167,0.75 -1.167,0.667 -1.166,0.75 -1.167,0.667 -1.167,0.666 -1.166,0.75 -1.167,0.667 -1.167,0.667 -1.166,0.75 -1.167,0.666 -1.167,0.75 -1.083,0.667 -1.167,0.667 -1.166,0.75 -1.167,0.666 -1.167,0.75 -1.166,0.667 -1.167,0.667 -1.167,0.75 -1.166,0.666 L 242,120 l -1.167,0.75 -1.166,0.667 -1.167,0.75 -1.167,0.666 -1.166,0.667 -1.084,0.75 -1.166,0.667 -1.167,0.75 -1.167,0.666 -1.166,0.667 -1.167,0.75 -1.167,0.667 -1.166,0.75 -1.167,0.666 -1.167,0.667 -1.166,0.75 -1.167,0.667 -1.167,0.666 -1.166,0.75 -1.167,0.667 -1.083,0.75 -1.167,0.667 -1.167,0.666 -1.166,0.75 -1.167,0.667 -1.167,0.75 -1.166,0.667 -1.167,0.666 -1.167,0.75 -1.166,0.667 -1.167,0.75 -1.167,0.667 -1.166,0.666 -1.167,0.75 -1.167,0.667 -1.083,0.667 -1.167,0.75 -1.166,0.666 -1.167,0.75 -1.167,0.667 -1.166,0.667 -1.167,0.75 -1.167,0.666 -1.166,0.75 -1.167,0.667 -1.167,0.667 -1.166,0.75 -1.167,0.666 -1.167,0.75 -1.166,0.667 -1.084,0.667 -1.166,0.75 -1.167,0.666 -1.167,0.667 -1.166,0.75 -1.167,0.667 -1.167,0.75 -1.166,0.666 -1.167,0.667 -1.167,0.75 -1.166,0.667 -1.167,0.75 -1.167,0.666 -1.166,0.667 -1.167,0.75 -1.083,0.667 -1.167,0.666 -1.167,0.75 -1.166,0.667 -1.167,0.75 -1.167,0.667 -1.166,0.666 -1.167,0.75 -1.167,0.667 -1.166,0.75 -1.167,0.667 -1.167,0.666 -1.166,0.75 -1.167,0.667 -1.167,0.75 -1.083,0.667 -1.167,0.666 -1.166,0.75 -1.167,0.667 -1.167,0.667 -1.166,0.75 -1.167,0.666 -1.167,0.75 -1.166,0.667 -1.167,0.667 -1.167,0.75 -1.166,0.666 -1.167,0.75 -1.167,0.667 -1.166,0.667 -1.084,0.75 -1.166,0.666 -1.167,0.75 -1.167,0.667 -1.166,0.667 -1.167,0.75 -1.167,0.666 -1.166,0.667 -1.167,0.75 -1.167,0.667 -1.166,0.75 -1.167,0.666 -1.167,0.667 -1.166,0.75 -1.167,0.667 -1.083,0.75 -1.167,0.666 -1.167,0.667 -1.166,0.75 -1.167,0.667 -1.167,0.666 -1.166,0.75 -1.167,0.667 -1.167,0.75 -1.166,0.667 -1.167,0.666 -1.167,0.75 L 99.1668,206 98,206.75 l -1.1668,0.667 -1.0832,0.666 -1.1668,0.75 -1.1664,0.667 -1.1668,0.75 -1.1668,0.667 -1.1664,0.666 -1.1668,0.75 -1.1668,0.667 -1.1664,0.667 -1.1668,0.75 -1.1668,0.666 -1.1664,0.75 -1.1668,0.667 -1.1668,0.667 -1.1664,0.75 -1.0836,0.666 -1.1664,0.75 L 76,220 l -1.1668,0.667 -1.1664,0.75 -1.1668,0.666 -1.1668,0.75 -1.1664,0.667 -1.1668,0.667 -1.1668,0.75 -1.1664,0.666 -1.1668,0.667 -1.1668,0.75 -1.1664,0.667 -1.1668,0.75 -1.0832,0.666 -1.1668,0.667 -1.1668,0.75 -1.1664,0.667 -1.1668,0.75 -1.1668,0.666 -1.1664,0.667 -1.1668,0.75 -1.1668,0.667 -1.1664,0.666 -1.1668,0.75 -1.1668,0.667 -1.1664,0.75 -1.1668,0.667 -1.1668,0.666 -1.0832,0.75 -1.1668,0.667 -1.1664,0.75 -1.1668,0.667 -1.1668,0.666 -1.1664,0.75 -1.1668,0.667 -1.1668,0.75 -1.1664,0.667 -1.1668,0.666 -1.1668,0.75 -1.1664,0.667 -1.1668,0.667 -1.1668,0.75 -1.0832,0.666" /><path
       inkscape:connector-curvature="0"
       id="path224"
       style="fill:none;stroke:#ffffff;stroke-width:0.5;stroke-linecap:butt;stroke-linejoin:round;stroke-miterlimit:10;stroke-opacity:1;stroke-dasharray:none"
       d="m 281.5,247.833 88,0 0,37 -88,0 0,-37 z" /><g
       id="g246"
       transform="translate(-25.556513,-6.4070807)"><text
         id="text248"
         transform="scale(1,-1)"
         x="262.21677"
         y="-269.83301"><tspan
           id="tspan250"
           sodipodi:role="line"
           style="font-size:14px;font-variant:normal;font-weight:normal;writing-mode:lr-tb;fill:#000000;fill-opacity:1;fill-rule:nonzero;stroke:none;font-family:Helvetica;-inkscape-font-specification:Helvetica"
           x="262.21677"
           y="-269.83301">pressure error</tspan></text>
</g><g
       id="g5572"
       transform="translate(-91.658959,-9.2440729)"
       style="stroke-width:1.20000005"><path
         d="m 287.583,274.917 30.75,0"
         style="fill:none;stroke:#0000ff;stroke-width:1.20000005;stroke-linecap:butt;stroke-linejoin:round;stroke-miterlimit:10;stroke-opacity:1;stroke-dasharray:none"
         id="path260"
         inkscape:connector-curvature="0" /><path
         d="m 305.917,274.917 c 0,-1.657 -1.344,-3 -3,-3 -1.657,0 -3,1.343 -3,3 0,1.656 1.343,3 3,3 1.656,0 3,-1.344 3,-3"
         style="fill:none;stroke:#0000ff;stroke-width:1.20000005;stroke-linecap:butt;stroke-linejoin:round;stroke-miterlimit:10;stroke-opacity:1;stroke-dasharray:none"
         id="path270"
         inkscape:connector-curvature="0" /></g><text
       xml:space="preserve"
       style="font-size:14.0968256px;font-style:normal;font-weight:normal;line-height:125%;letter-spacing:0px;word-spacing:0px;fill:#000000;fill-opacity:1;stroke:none;font-family:Sans"
       x="138.60672"
       y="-190.65262"
       id="text3615"
       sodipodi:linespacing="125%"
       transform="scale(1,-1)"><tspan
         sodipodi:role="line"
         id="tspan3617"
         x="138.60672"
         y="-190.65262">$\delta_1$</tspan></text>
<path
       id="path4369"
       style="fill:none;stroke:#ffffff;stroke-width:0.5;stroke-linecap:butt;stroke-linejoin:round;stroke-miterlimit:10;stroke-opacity:1;stroke-dasharray:none"
       d="m 459.87968,16.11765 347.167,0 0,274 -347.167,0 0,-274 z"
       inkscape:connector-curvature="0" /><path
       id="path4371"
       style="fill:none;stroke:#000000;stroke-width:0.5;stroke-linecap:butt;stroke-linejoin:round;stroke-miterlimit:10;stroke-opacity:1;stroke-dasharray:none"
       d="m 459.87968,16.11765 347.167,0"
       inkscape:connector-curvature="0" /><path
       id="path4373"
       style="fill:none;stroke:#000000;stroke-width:0.5;stroke-linecap:butt;stroke-linejoin:round;stroke-miterlimit:10;stroke-opacity:1;stroke-dasharray:none"
       d="m 459.87968,290.11785 347.167,0"
       inkscape:connector-curvature="0" /><path
       id="path4375"
       style="fill:none;stroke:#000000;stroke-width:0.5;stroke-linecap:butt;stroke-linejoin:round;stroke-miterlimit:10;stroke-opacity:1;stroke-dasharray:none"
       d="m 459.87968,16.11765 0,274.0002"
       inkscape:connector-curvature="0" /><path
       id="path4377"
       style="fill:none;stroke:#000000;stroke-width:0.5;stroke-linecap:butt;stroke-linejoin:round;stroke-miterlimit:10;stroke-opacity:1;stroke-dasharray:none"
       d="m 807.04668,16.11765 0,274.0002"
       inkscape:connector-curvature="0" /><path
       id="path4379"
       style="fill:none;stroke:#000000;stroke-width:0.5;stroke-linecap:butt;stroke-linejoin:round;stroke-miterlimit:10;stroke-opacity:1;stroke-dasharray:none"
       d="m 459.87968,16.11765 347.167,0"
       inkscape:connector-curvature="0" /><path
       id="path4381"
       style="fill:none;stroke:#000000;stroke-width:0.5;stroke-linecap:butt;stroke-linejoin:round;stroke-miterlimit:10;stroke-opacity:1;stroke-dasharray:none"
       d="m 459.87968,16.11765 0,274.0002"
       inkscape:connector-curvature="0" /><path
       id="path4383"
       style="fill:none;stroke:#000000;stroke-width:0.5;stroke-linecap:butt;stroke-linejoin:round;stroke-miterlimit:10;stroke-opacity:1;stroke-dasharray:none"
       d="m 459.87968,16.11765 0,3.5"
       inkscape:connector-curvature="0" /><path
       id="path4385"
       style="fill:none;stroke:#000000;stroke-width:0.5;stroke-linecap:butt;stroke-linejoin:round;stroke-miterlimit:10;stroke-opacity:1;stroke-dasharray:none"
       d="m 459.87968,290.03385 0,-3.416"
       inkscape:connector-curvature="0" /><g
       transform="translate(428.62968,-4.5991498)"
       id="g4387"><text
         id="text4389"
         transform="matrix(1,0,0,-1,27.4168,0.0832031)"><tspan
           id="tspan4391"
           y="0"
           x="0"
           style="font-size:14px;font-variant:normal;font-weight:normal;writing-mode:lr-tb;fill:#000000;fill-opacity:1;fill-rule:nonzero;stroke:none;font-family:Helvetica;-inkscape-font-specification:Helvetica">6</tspan></text>
</g><path
       id="path4403"
       style="fill:none;stroke:#000000;stroke-width:0.5;stroke-linecap:butt;stroke-linejoin:round;stroke-miterlimit:10;stroke-opacity:1;stroke-dasharray:none"
       d="m 546.62968,16.11765 0,3.5"
       inkscape:connector-curvature="0" /><path
       id="path4405"
       style="fill:none;stroke:#000000;stroke-width:0.5;stroke-linecap:butt;stroke-linejoin:round;stroke-miterlimit:10;stroke-opacity:1;stroke-dasharray:none"
       d="m 546.62968,290.03385 0,-3.416"
       inkscape:connector-curvature="0" /><g
       transform="translate(428.62968,-4.5991498)"
       id="g4407"><text
         id="text4409"
         transform="matrix(1,0,0,-1,114.167,0.0832031)"><tspan
           id="tspan4411"
           y="0"
           x="0"
           style="font-size:14px;font-variant:normal;font-weight:normal;writing-mode:lr-tb;fill:#000000;fill-opacity:1;fill-rule:nonzero;stroke:none;font-family:Helvetica;-inkscape-font-specification:Helvetica">7</tspan></text>
</g><path
       id="path4423"
       style="fill:none;stroke:#000000;stroke-width:0.5;stroke-linecap:butt;stroke-linejoin:round;stroke-miterlimit:10;stroke-opacity:1;stroke-dasharray:none"
       d="m 633.46268,16.11765 0,3.5"
       inkscape:connector-curvature="0" /><path
       id="path4425"
       style="fill:none;stroke:#000000;stroke-width:0.5;stroke-linecap:butt;stroke-linejoin:round;stroke-miterlimit:10;stroke-opacity:1;stroke-dasharray:none"
       d="m 633.46268,290.03385 0,-3.416"
       inkscape:connector-curvature="0" /><g
       transform="translate(428.62968,-4.5991498)"
       id="g4427"><text
         id="text4429"
         transform="matrix(1,0,0,-1,201,0.0832031)"><tspan
           id="tspan4431"
           y="0"
           x="0"
           style="font-size:14px;font-variant:normal;font-weight:normal;writing-mode:lr-tb;fill:#000000;fill-opacity:1;fill-rule:nonzero;stroke:none;font-family:Helvetica;-inkscape-font-specification:Helvetica">8</tspan></text>
</g><path
       id="path4443"
       style="fill:none;stroke:#000000;stroke-width:0.5;stroke-linecap:butt;stroke-linejoin:round;stroke-miterlimit:10;stroke-opacity:1;stroke-dasharray:none"
       d="m 720.21268,16.11765 0,3.5"
       inkscape:connector-curvature="0" /><path
       id="path4445"
       style="fill:none;stroke:#000000;stroke-width:0.5;stroke-linecap:butt;stroke-linejoin:round;stroke-miterlimit:10;stroke-opacity:1;stroke-dasharray:none"
       d="m 720.21268,290.03385 0,-3.416"
       inkscape:connector-curvature="0" /><g
       transform="translate(428.62968,-4.5991498)"
       id="g4447"><text
         id="text4449"
         transform="matrix(1,0,0,-1,287.75,0.0832031)"><tspan
           id="tspan4451"
           y="0"
           x="0"
           style="font-size:14px;font-variant:normal;font-weight:normal;writing-mode:lr-tb;fill:#000000;fill-opacity:1;fill-rule:nonzero;stroke:none;font-family:Helvetica;-inkscape-font-specification:Helvetica">9</tspan></text>
</g><path
       id="path4463"
       style="fill:none;stroke:#000000;stroke-width:0.5;stroke-linecap:butt;stroke-linejoin:round;stroke-miterlimit:10;stroke-opacity:1;stroke-dasharray:none"
       d="m 807.04668,16.11765 0,3.5"
       inkscape:connector-curvature="0" /><path
       id="path4465"
       style="fill:none;stroke:#000000;stroke-width:0.5;stroke-linecap:butt;stroke-linejoin:round;stroke-miterlimit:10;stroke-opacity:1;stroke-dasharray:none"
       d="m 807.04668,290.03385 0,-3.416"
       inkscape:connector-curvature="0" /><g
       transform="translate(425.42968,-4.5991498)"
       id="g4467"><text
         id="text4469"
         transform="matrix(1,0,0,-1,374.583,0.0832031)"><tspan
           id="tspan4471"
           y="0"
           x="0"
           style="font-size:14px;font-variant:normal;font-weight:normal;writing-mode:lr-tb;fill:#000000;fill-opacity:1;fill-rule:nonzero;stroke:none;font-family:Helvetica;-inkscape-font-specification:Helvetica">10</tspan></text>
</g><path
       id="path4473"
       style="fill:none;stroke:#000000;stroke-width:0.5;stroke-linecap:butt;stroke-linejoin:round;stroke-miterlimit:10;stroke-opacity:1;stroke-dasharray:none"
       d="m 459.87968,16.11765 3.4168,0"
       inkscape:connector-curvature="0" /><path
       id="path4475"
       style="fill:none;stroke:#000000;stroke-width:0.5;stroke-linecap:butt;stroke-linejoin:round;stroke-miterlimit:10;stroke-opacity:1;stroke-dasharray:none"
       d="m 807.04668,16.11765 -3.5,0"
       inkscape:connector-curvature="0" /><g
       transform="translate(425.42968,19.40085)"
       id="g4477"><text
         id="text4479"
         transform="matrix(1,0,0,-1,12.4168,10.75)"><tspan
           id="tspan4481"
           sodipodi:role="line"
           y="0"
           x="0"
           style="font-size:14px;font-variant:normal;font-weight:normal;writing-mode:lr-tb;fill:#000000;fill-opacity:1;fill-rule:nonzero;stroke:none;font-family:Helvetica;-inkscape-font-specification:Helvetica">-7</tspan></text>
</g><path
       id="path4493"
       style="fill:none;stroke:#000000;stroke-width:0.5;stroke-linecap:butt;stroke-linejoin:round;stroke-miterlimit:10;stroke-opacity:1;stroke-dasharray:none"
       d="m 459.87968,144.90085 3.4168,0"
       inkscape:connector-curvature="0" /><path
       id="path4495"
       style="fill:none;stroke:#000000;stroke-width:0.5;stroke-linecap:butt;stroke-linejoin:round;stroke-miterlimit:10;stroke-opacity:1;stroke-dasharray:none"
       d="m 807.04668,144.90085 -3.5,0"
       inkscape:connector-curvature="0" /><g
       transform="translate(425.42968,19.40085)"
       id="g4497"><text
         id="text4499"
         transform="matrix(1,0,0,-1,12.4168,120.333)"><tspan
           id="tspan4501"
           sodipodi:role="line"
           y="0"
           x="0"
           style="font-size:14px;font-variant:normal;font-weight:normal;writing-mode:lr-tb;fill:#000000;fill-opacity:1;fill-rule:nonzero;stroke:none;font-family:Helvetica;-inkscape-font-specification:Helvetica">-6</tspan></text>
</g><path
       id="path4513"
       style="fill:none;stroke:#000000;stroke-width:0.5;stroke-linecap:butt;stroke-linejoin:round;stroke-miterlimit:10;stroke-opacity:1;stroke-dasharray:none"
       d="m 459.87968,254.48385 3.4168,0"
       inkscape:connector-curvature="0" /><path
       id="path4515"
       style="fill:none;stroke:#000000;stroke-width:0.5;stroke-linecap:butt;stroke-linejoin:round;stroke-miterlimit:10;stroke-opacity:1;stroke-dasharray:none"
       d="m 807.04668,254.48385 -3.5,0"
       inkscape:connector-curvature="0" /><g
       transform="translate(425.42968,19.40085)"
       id="g4517"><text
         id="text4519"
         transform="matrix(1,0,0,-1,12.4168,229.917)"><tspan
           id="tspan4521"
           sodipodi:role="line"
           y="0"
           x="0"
           style="font-size:14px;font-variant:normal;font-weight:normal;writing-mode:lr-tb;fill:#000000;fill-opacity:1;fill-rule:nonzero;stroke:none;font-family:Helvetica;-inkscape-font-specification:Helvetica">-5</tspan></text>
</g><path
       id="path4523"
       style="fill:none;stroke:#000000;stroke-width:0.5;stroke-linecap:butt;stroke-linejoin:round;stroke-miterlimit:10;stroke-opacity:1;stroke-dasharray:none"
       d="m 459.87968,290.03385 3.4168,0"
       inkscape:connector-curvature="0" /><path
       id="path4525"
       style="fill:none;stroke:#000000;stroke-width:0.5;stroke-linecap:butt;stroke-linejoin:round;stroke-miterlimit:10;stroke-opacity:1;stroke-dasharray:none"
       d="m 807.04668,290.03385 -3.5,0"
       inkscape:connector-curvature="0" /><path
       id="path4533"
       style="fill:none;stroke:#000000;stroke-width:0.5;stroke-linecap:butt;stroke-linejoin:round;stroke-miterlimit:10;stroke-opacity:1;stroke-dasharray:none"
       d="m 459.87968,16.11765 347.167,0"
       inkscape:connector-curvature="0" /><path
       id="path4535"
       style="fill:none;stroke:#000000;stroke-width:0.5;stroke-linecap:butt;stroke-linejoin:round;stroke-miterlimit:10;stroke-opacity:1;stroke-dasharray:none"
       d="m 459.87968,290.11785 347.167,0"
       inkscape:connector-curvature="0" /><path
       id="path4537"
       style="fill:none;stroke:#000000;stroke-width:0.5;stroke-linecap:butt;stroke-linejoin:round;stroke-miterlimit:10;stroke-opacity:1;stroke-dasharray:none"
       d="m 459.87968,16.11765 0,274.0002"
       inkscape:connector-curvature="0" /><path
       id="path4539"
       style="fill:none;stroke:#000000;stroke-width:0.5;stroke-linecap:butt;stroke-linejoin:round;stroke-miterlimit:10;stroke-opacity:1;stroke-dasharray:none"
       d="m 807.04668,16.11765 0,274.0002"
       inkscape:connector-curvature="0" /><path
       id="path4549"
       style="fill:none;stroke:#0000ff;stroke-width:1.2;stroke-linecap:butt;stroke-linejoin:round;stroke-miterlimit:10;stroke-opacity:1;stroke-dasharray:none"
       d="m 459.87968,259.48385 86.75,-56.75 86.833,-57.333 86.75,-3.583 86.834,-101.7502"
       inkscape:connector-curvature="0" /><path
       id="path4559"
       style="fill:none;stroke:#0000ff;stroke-width:1.2;stroke-linecap:butt;stroke-linejoin:round;stroke-miterlimit:10;stroke-opacity:1;stroke-dasharray:none"
       d="m 462.87968,259.48385 c 0,-1.656 -1.3434,-3 -3,-3 -1.6566,0 -3,1.344 -3,3 0,1.657 1.3434,3 3,3 1.6566,0 3,-1.343 3,-3"
       inkscape:connector-curvature="0" /><path
       id="path4561"
       style="fill:none;stroke:#0000ff;stroke-width:1.2;stroke-linecap:butt;stroke-linejoin:round;stroke-miterlimit:10;stroke-opacity:1;stroke-dasharray:none"
       d="m 549.62968,202.73385 c 0,-1.656 -1.343,-3 -3,-3 -1.657,0 -3,1.344 -3,3 0,1.657 1.343,3 3,3 1.657,0 3,-1.343 3,-3"
       inkscape:connector-curvature="0" /><path
       id="path4563"
       style="fill:none;stroke:#0000ff;stroke-width:1.2;stroke-linecap:butt;stroke-linejoin:round;stroke-miterlimit:10;stroke-opacity:1;stroke-dasharray:none"
       d="m 636.46268,145.40085 c 0,-1.657 -1.343,-3 -3,-3 -1.656,0 -3,1.343 -3,3 0,1.657 1.344,3 3,3 1.657,0 3,-1.343 3,-3"
       inkscape:connector-curvature="0" /><path
       id="path4565"
       style="fill:none;stroke:#0000ff;stroke-width:1.2;stroke-linecap:butt;stroke-linejoin:round;stroke-miterlimit:10;stroke-opacity:1;stroke-dasharray:none"
       d="m 723.21268,141.81785 c 0,-1.657 -1.343,-3 -3,-3 -1.656,0 -3,1.343 -3,3 0,1.656 1.344,3 3,3 1.657,0 3,-1.344 3,-3"
       inkscape:connector-curvature="0" /><path
       id="path4567"
       style="fill:none;stroke:#0000ff;stroke-width:1.2;stroke-linecap:butt;stroke-linejoin:round;stroke-miterlimit:10;stroke-opacity:1;stroke-dasharray:none"
       d="m 810.04668,40.06765 c 0,-1.6566 -1.344,-3 -3,-3 -1.657,0 -3,1.3434 -3,3 0,1.6566 1.343,3 3,3 1.656,0 3,-1.3434 3,-3"
       inkscape:connector-curvature="0" /><g
       transform="translate(417.42968,0.86894971)"
       id="g4569" /><path
       id="path4579"
       style="fill:none;stroke:#ff0000;stroke-width:1.2;stroke-linecap:butt;stroke-linejoin:round;stroke-miterlimit:10;stroke-opacity:1;stroke-dasharray:none"
       d="m 807.04668,57.98405 -1.167,0.6668 -1.167,0.6668 -1.166,0.6664 -1.167,0.6668 -1.167,0.6668 -1.166,0.6664 -1.167,0.6668 -1.167,0.6668 -1.166,0.6664 -1.167,0.6668 -1.167,0.6668 -1.166,0.6664 -1.167,0.6668 -1.167,0.6668 -1.083,0.6664 -1.167,0.6668 -1.166,0.6668 -1.167,0.6664 -1.167,0.6668 -1.166,0.6668 -1.167,0.6664 -1.167,0.6668 -1.166,0.6668 -1.167,0.6664 -1.167,0.75 -1.166,0.6668 -1.167,0.6668 -1.167,0.6664 -1.166,0.6668 -1.084,0.6668 -1.166,0.6664 -1.167,0.6668 -1.167,0.6668 -1.166,0.6664 -1.167,0.6668 -1.167,0.6668 -1.166,0.6664 -1.167,0.6668 -1.167,0.6668 -1.166,0.6664 -1.167,0.6668 -1.167,0.6668 -1.166,0.6664 -1.167,0.6668 -1.083,0.6668 -1.167,0.6664 -1.167,0.6668 -1.166,0.6668 -1.167,0.6664 -1.167,0.6668 -1.166,0.6668 -1.167,0.6664 -1.167,0.6668 -1.166,0.6668 -1.167,0.6664 -1.167,0.6668 -1.166,0.6668 -1.167,0.6664 -1.167,0.6668 -1.083,0.6668 -1.167,0.6664 -1.166,0.6668 -1.167,0.6668 -1.167,0.6664 -1.166,0.6668 -1.167,0.6668 -1.167,0.6664 -1.166,0.6668 -1.167,0.6668 -1.167,0.6664 -1.166,0.6668 -1.167,0.6668 -1.167,0.75 -1.166,0.6664 -1.084,0.6668 -1.166,0.6668 -1.167,0.6664 -1.167,0.6668 -1.166,0.6668 -1.167,0.6664 -1.167,0.6668 -1.166,0.6668 -1.167,0.6664 -1.167,0.6668 -1.166,0.6668 -1.167,0.6664 -1.167,0.6668 -1.166,0.6668 -1.167,0.6664 -1.083,0.6668 -1.167,0.6668 -1.167,0.6662 -1.166,0.667 -1.167,0.667 -1.167,0.666 -1.166,0.667 -1.167,0.667 -1.167,0.666 -1.166,0.667 -1.167,0.667 -1.167,0.666 -1.166,0.667 -1.167,0.667 -1.167,0.666 -1.083,0.667 -1.167,0.667 -1.166,0.666 -1.167,0.667 -1.167,0.667 -1.166,0.666 -1.167,0.667 -1.167,0.667 -1.166,0.666 -1.167,0.667 -1.167,0.667 -1.166,0.666 -1.167,0.667 -1.167,0.667 -1.166,0.666 -1.084,0.667 -1.166,0.667 -1.167,0.75 -1.167,0.666 -1.166,0.667 -1.167,0.667 -1.167,0.666 -1.166,0.667 -1.167,0.667 -1.167,0.666 -1.166,0.667 -1.167,0.667 -1.167,0.666 -1.166,0.667 -1.167,0.667 -1.083,0.666 -1.167,0.667 -1.167,0.667 -1.166,0.666 -1.167,0.667 -1.167,0.667 -1.166,0.666 -1.167,0.667 -1.167,0.667 -1.166,0.666 -1.167,0.667 -1.167,0.667 -1.166,0.666 -1.167,0.667 -1.167,0.667 -1.083,0.666 -1.167,0.667 -1.166,0.667 -1.167,0.666 -1.167,0.667 -1.166,0.667 -1.167,0.666 -1.167,0.667 -1.166,0.667 -1.167,0.666 -1.167,0.667 -1.166,0.667 -1.167,0.666 -1.167,0.667 -1.166,0.667 -1.084,0.666 -1.166,0.667 -1.167,0.667 -1.167,0.666 -1.166,0.667 -1.167,0.667 -1.167,0.75 -1.166,0.666 -1.167,0.667 -1.167,0.667 -1.166,0.666 -1.167,0.667 -1.167,0.667 -1.166,0.666 -1.167,0.667 -1.083,0.667 -1.167,0.666 -1.167,0.667 -1.166,0.667 -1.167,0.666 -1.167,0.667 -1.166,0.667 -1.167,0.666 -1.167,0.667 -1.166,0.667 -1.167,0.666 -1.167,0.667 -1.166,0.667 -1.167,0.666 -1.167,0.667 -1.083,0.667 -1.167,0.666 -1.166,0.667 -1.167,0.667 -1.167,0.666 -1.166,0.667 -1.167,0.667 -1.167,0.666 -1.166,0.667 -1.167,0.667 -1.167,0.666 -1.166,0.667 -1.167,0.667 -1.167,0.666 -1.166,0.667 -1.084,0.667 -1.166,0.666 -1.167,0.667 -1.167,0.667 -1.166,0.666 -1.167,0.667 -1.167,0.667 -1.166,0.666 -1.167,0.667 -1.167,0.75 -1.166,0.667 -1.167,0.666 -1.167,0.667 -1.166,0.667 -1.167,0.666 -1.083,0.667 -1.167,0.667 -1.167,0.666 -1.166,0.667 -1.167,0.667 -1.167,0.666 -1.166,0.667 -1.167,0.667 -1.167,0.666 -1.166,0.667 -1.167,0.667 -1.167,0.666 -1.166,0.667 -1.167,0.667 -1.167,0.666 -1.083,0.667 -1.1668,0.667 -1.1664,0.666 -1.1668,0.667 -1.1668,0.667 -1.1664,0.666 -1.1668,0.667 -1.1668,0.667 -1.1664,0.666 -1.1668,0.667 -1.1668,0.667 -1.1664,0.666 -1.1668,0.667 -1.1668,0.667 -1.1664,0.666 -1.0836,0.667 -1.1664,0.667 -1.1668,0.666 -1.1668,0.667 -1.1664,0.667 -1.1668,0.666 -1.1668,0.667 -1.1664,0.667 -1.1668,0.666 -1.1668,0.667 -1.1664,0.667 -1.1668,0.666 -1.1668,0.667 -1.1664,0.75 -1.1668,0.667 -1.0832,0.666 -1.1668,0.667 -1.1668,0.667 -1.1664,0.666 -1.1668,0.667 -1.1668,0.667 -1.1664,0.666 -1.1668,0.667 -1.1668,0.667 -1.1664,0.666 -1.1668,0.667 -1.1668,0.667 -1.1664,0.666 -1.1668,0.667 -1.1668,0.667 -1.0832,0.666 -1.1668,0.667 -1.1664,0.667 -1.1668,0.666 -1.1668,0.667 -1.1664,0.667 -1.1668,0.666 -1.1668,0.667 -1.1664,0.667 -1.1668,0.666 -1.1668,0.667 -1.1664,0.667 -1.1668,0.666 -1.1668,0.667 -1.0832,0.667"
       inkscape:connector-curvature="0" /><path
       id="path4595"
       style="fill:#ffffff;fill-opacity:1;fill-rule:evenodd;stroke:none"
       d="m 714.12968,248.03385 88,0 0,37 -88,0 0,-37 z"
       inkscape:connector-curvature="0" /><text
       transform="scale(1,-1)"
       id="text4621"
       x="712.44714"
       y="-261.16492"><tspan
         style="font-size:14px;font-variant:normal;font-weight:normal;writing-mode:lr-tb;fill:#000000;fill-opacity:1;fill-rule:nonzero;stroke:none;font-family:Helvetica;-inkscape-font-specification:Helvetica"
         sodipodi:role="line"
         x="712.44714"
         y="-261.16492"
         id="tspan6162">$\theta$ error</tspan></text>
<g
       id="g5766"
       transform="translate(-30.4,-10.113023)"
       style="stroke-width:1.2"><g
         transform="matrix(0.1,0,0,0.1,417.42968,0.86894971)"
         clip-path="url(#clipPath4629)"
         id="g4627"
         style="stroke-width:12"><path
           id="path4633"
           style="fill:none;stroke:#0000ff;stroke-width:12;stroke-linecap:butt;stroke-linejoin:round;stroke-miterlimit:10;stroke-opacity:1;stroke-dasharray:none"
           d="m 2915.83,2749.17 307.5,0"
           inkscape:connector-curvature="0" /></g><g
         transform="matrix(0.1,0,0,0.1,417.42968,0.86894971)"
         clip-path="url(#clipPath4639)"
         id="g4637"
         style="stroke-width:12"><path
           id="path4643"
           style="fill:none;stroke:#0000ff;stroke-width:12;stroke-linecap:butt;stroke-linejoin:round;stroke-miterlimit:10;stroke-opacity:1;stroke-dasharray:none"
           d="m 3099.17,2749.17 c 0,-16.57 -13.44,-30 -30,-30 -16.57,0 -30,13.43 -30,30 0,16.56 13.43,30 30,30 16.56,0 30,-13.44 30,-30"
           inkscape:connector-curvature="0" /></g></g><text
       xml:space="preserve"
       style="font-size:14.09682655px;font-style:normal;font-weight:normal;line-height:125%;letter-spacing:0px;word-spacing:0px;fill:#000000;fill-opacity:1;stroke:none;font-family:Sans"
       x="168.33957"
       y="-171.09224"
       id="text3615-7"
       sodipodi:linespacing="125%"
       transform="scale(1,-1)"><tspan
         sodipodi:role="line"
         id="tspan3617-3"
         x="168.33957"
         y="-171.09224">$\delta_2$</tspan></text>
<path
       inkscape:connector-curvature="0"
       d="m 459.87968,35.3177 3.4168,0"
       style="fill:none;stroke:#000000;stroke-width:0.5;stroke-linecap:butt;stroke-linejoin:round;stroke-miterlimit:10;stroke-opacity:1;stroke-dasharray:none"
       id="path5503" /><path
       id="path5509"
       style="fill:none;stroke:#000000;stroke-width:0.5;stroke-linecap:butt;stroke-linejoin:round;stroke-miterlimit:10;stroke-opacity:1;stroke-dasharray:none"
       d="m 803.87968,35.3177 3.4168,0"
       inkscape:connector-curvature="0" /><text
       xml:space="preserve"
       style="font-size:12.07148647px;font-style:normal;font-weight:normal;line-height:125%;letter-spacing:0px;word-spacing:0px;fill:#000000;fill-opacity:1;stroke:none;font-family:Sans"
       x="250.38556"
       y="-219.47002"
       id="text5530"
       sodipodi:linespacing="125%"
       transform="scale(1,-1)"><tspan
         sodipodi:role="line"
         id="tspan5532"
         x="250.38556"
         y="-219.47002">$|\delta_1/\delta_2|=1.9$</tspan></text>
<text
       transform="scale(1,-1)"
       sodipodi:linespacing="125%"
       id="text5851"
       y="-219.47002"
       x="683.98547"
       style="font-size:12.07148647px;font-style:normal;font-weight:normal;line-height:125%;letter-spacing:0px;word-spacing:0px;fill:#000000;fill-opacity:1;stroke:none;font-family:Sans"
       xml:space="preserve"><tspan
         y="-219.47002"
         x="683.98547"
         id="tspan5853"
         sodipodi:role="line">$|\delta_1/\delta_2|=0.5$</tspan></text>
<text
       xml:space="preserve"
       style="font-size:17.02377892px;font-style:normal;font-weight:normal;line-height:125%;letter-spacing:0px;word-spacing:0px;fill:#000000;fill-opacity:1;stroke:none;font-family:Sans"
       x="91.064125"
       y="-16.025629"
       id="text5931"
       sodipodi:linespacing="125%"
       transform="matrix(0,1,1,0,0,0)"><tspan
         sodipodi:role="line"
         id="tspan5933"
         x="91.064125"
         y="-16.025629">$\log_2\left(\left\Vert e_p\right\Vert_{H^1_0(0,1)}\right)$ </tspan></text>
<text
       transform="matrix(0,1,1,0,0,0)"
       sodipodi:linespacing="125%"
       id="text6139"
       y="422.37445"
       x="90.396027"
       style="font-size:17.02377892px;font-style:normal;font-weight:normal;line-height:125%;letter-spacing:0px;word-spacing:0px;fill:#000000;fill-opacity:1;stroke:none;font-family:Sans"
       xml:space="preserve"><tspan
         y="422.37445"
         x="90.396027"
         id="tspan6141"
         sodipodi:role="line">$\log_2\left(\left\Vert e_\theta\right\Vert_{L^2(0,1)}\right)$ </tspan></text>
<text
       xml:space="preserve"
       style="font-size:12.34370995px;font-style:normal;font-weight:normal;line-height:125%;letter-spacing:0px;word-spacing:0px;fill:#000000;fill-opacity:1;stroke:none;font-family:Sans"
       x="181.20084"
       y="19.48209"
       id="text6244"
       sodipodi:linespacing="125%"
       transform="scale(1,-1)"><tspan
         sodipodi:role="line"
         id="tspan6246"
         x="181.20084"
         y="19.48209">$log_2(N)$</tspan></text>
<text
       transform="scale(1,-1)"
       sodipodi:linespacing="125%"
       id="text6248"
       y="19.48209"
       x="614.80078"
       style="font-size:12.34370995px;font-style:normal;font-weight:normal;line-height:125%;letter-spacing:0px;word-spacing:0px;fill:#000000;fill-opacity:1;stroke:none;font-family:Sans"
       xml:space="preserve"><tspan
         y="19.48209"
         x="614.80078"
         id="tspan6250"
         sodipodi:role="line">$log_2(N)$</tspan></text>
</g></svg>