<?xml version="1.0" encoding="UTF-8" standalone="no"?>
<!-- Created with Inkscape (http://www.inkscape.org/) -->

<svg
   xmlns:dc="http://purl.org/dc/elements/1.1/"
   xmlns:cc="http://creativecommons.org/ns#"
   xmlns:rdf="http://www.w3.org/1999/02/22-rdf-syntax-ns#"
   xmlns:svg="http://www.w3.org/2000/svg"
   xmlns="http://www.w3.org/2000/svg"
   xmlns:sodipodi="http://sodipodi.sourceforge.net/DTD/sodipodi-0.dtd"
   xmlns:inkscape="http://www.inkscape.org/namespaces/inkscape"
   id="svg2"
   version="1.1"
   inkscape:version="0.48.5 r10040"
   width="684.84375"
   height="395.74219"
   xml:space="preserve"
   sodipodi:docname="disc_sol_ex1_nocav.pdf"><metadata
     id="metadata8"><rdf:RDF><cc:Work
         rdf:about=""><dc:format>image/svg+xml</dc:format><dc:type
           rdf:resource="http://purl.org/dc/dcmitype/StillImage" /><dc:title></dc:title></cc:Work></rdf:RDF></metadata><defs
     id="defs6"><clipPath
       clipPathUnits="userSpaceOnUse"
       id="clipPath18"><path
         d="m 0,2 4260,0 0,3097 L 0,3099 0,2 z"
         id="path20"
         inkscape:connector-curvature="0" /></clipPath><clipPath
       clipPathUnits="userSpaceOnUse"
       id="clipPath206"><path
         d="m 464,283.199 3438,0 0,2721.6 -3438,0 0,-2721.6 z"
         id="path208"
         inkscape:connector-curvature="0" /></clipPath><clipPath
       clipPathUnits="userSpaceOnUse"
       id="clipPath218"><path
         d="m 0,2 4260,0 0,3097 L 0,3099 0,2 z"
         id="path220"
         inkscape:connector-curvature="0" /></clipPath><clipPath
       clipPathUnits="userSpaceOnUse"
       id="clipPath362"><path
         d="m 464,283.199 3438,0 0,2721.6 -3438,0 0,-2721.6 z"
         id="path364"
         inkscape:connector-curvature="0" /></clipPath><clipPath
       clipPathUnits="userSpaceOnUse"
       id="clipPath374"><path
         d="m 0,2 4260,0 0,3097 L 0,3099 0,2 z"
         id="path376"
         inkscape:connector-curvature="0" /></clipPath></defs><sodipodi:namedview
     pagecolor="#ffffff"
     bordercolor="#666666"
     borderopacity="1"
     objecttolerance="10"
     gridtolerance="10"
     guidetolerance="10"
     inkscape:pageopacity="0"
     inkscape:pageshadow="2"
     inkscape:window-width="1920"
     inkscape:window-height="1033"
     id="namedview4"
     showgrid="false"
     inkscape:zoom="1.7226034"
     inkscape:cx="486.07467"
     inkscape:cy="165.87042"
     inkscape:window-x="-2"
     inkscape:window-y="-3"
     inkscape:window-maximized="1"
     inkscape:current-layer="g10"
     fit-margin-top="0"
     fit-margin-left="0"
     fit-margin-right="0"
     fit-margin-bottom="0" /><g
     id="g10"
     inkscape:groupmode="layer"
     inkscape:label="ink_ext_XXXXXX"
     transform="matrix(1.25,0,0,-1.25,71.25,391.75781)"><path
       inkscape:connector-curvature="0"
       id="path26"
       style="fill:none;stroke:#ffffff;stroke-width:0.5;stroke-linecap:butt;stroke-linejoin:round;stroke-miterlimit:10;stroke-opacity:1;stroke-dasharray:none"
       d="m 46.4,28.6797 343.439,0 0,271.8 -343.439,0 0,-271.8 z" /><path
       inkscape:connector-curvature="0"
       id="path28"
       style="fill:none;stroke:#000000;stroke-width:0.33333299;stroke-linecap:round;stroke-linejoin:round;stroke-miterlimit:10;stroke-opacity:1;stroke-dasharray:0, 4;stroke-dashoffset:0"
       d="m 46.4,28.6797 0,271.8003" /><path
       inkscape:connector-curvature="0"
       id="path30"
       style="fill:none;stroke:#000000;stroke-width:0.33333299;stroke-linecap:round;stroke-linejoin:round;stroke-miterlimit:10;stroke-opacity:1;stroke-dasharray:0, 4;stroke-dashoffset:0"
       d="m 46.4,300.48 0,0" /><path
       inkscape:connector-curvature="0"
       id="path32"
       style="fill:none;stroke:#000000;stroke-width:0.80000001;stroke-linecap:round;stroke-linejoin:round;stroke-miterlimit:10;stroke-opacity:1;stroke-dasharray:0, 4;stroke-dashoffset:0"
       d="m 114.8,28.6797 0,271.8003" /><path
       inkscape:connector-curvature="0"
       id="path34"
       style="fill:none;stroke:#000000;stroke-width:0.33333299;stroke-linecap:round;stroke-linejoin:round;stroke-miterlimit:10;stroke-opacity:1;stroke-dasharray:0, 4;stroke-dashoffset:0"
       d="m 114.8,300.48 0,0" /><path
       inkscape:connector-curvature="0"
       id="path36"
       style="fill:none;stroke:#000000;stroke-width:0.80000001;stroke-linecap:round;stroke-linejoin:round;stroke-miterlimit:10;stroke-opacity:1;stroke-dasharray:0, 4;stroke-dashoffset:0"
       d="m 183.56,28.6797 0,271.8003" /><path
       inkscape:connector-curvature="0"
       id="path38"
       style="fill:none;stroke:#000000;stroke-width:0.33333299;stroke-linecap:round;stroke-linejoin:round;stroke-miterlimit:10;stroke-opacity:1;stroke-dasharray:0, 4;stroke-dashoffset:0"
       d="m 183.56,300.48 0,0" /><path
       inkscape:connector-curvature="0"
       id="path40"
       style="fill:none;stroke:#000000;stroke-width:0.80000001;stroke-linecap:round;stroke-linejoin:round;stroke-miterlimit:10;stroke-opacity:1;stroke-dasharray:0, 4;stroke-dashoffset:0"
       d="m 252.32,28.6797 0,271.8003" /><path
       inkscape:connector-curvature="0"
       id="path42"
       style="fill:none;stroke:#000000;stroke-width:0.33333299;stroke-linecap:round;stroke-linejoin:round;stroke-miterlimit:10;stroke-opacity:1;stroke-dasharray:0, 4;stroke-dashoffset:0"
       d="m 252.32,300.48 0,0" /><path
       inkscape:connector-curvature="0"
       id="path44"
       style="fill:none;stroke:#000000;stroke-width:0.80000001;stroke-linecap:round;stroke-linejoin:round;stroke-miterlimit:10;stroke-opacity:1;stroke-dasharray:0, 4;stroke-dashoffset:0"
       d="m 321.08,28.6797 0,271.8003" /><path
       inkscape:connector-curvature="0"
       id="path46"
       style="fill:none;stroke:#000000;stroke-width:0.33333299;stroke-linecap:round;stroke-linejoin:round;stroke-miterlimit:10;stroke-opacity:1;stroke-dasharray:0, 4;stroke-dashoffset:0"
       d="m 321.08,300.48 0,0" /><path
       inkscape:connector-curvature="0"
       id="path48"
       style="fill:none;stroke:#000000;stroke-width:0.33333299;stroke-linecap:round;stroke-linejoin:round;stroke-miterlimit:10;stroke-opacity:1;stroke-dasharray:0, 4;stroke-dashoffset:0"
       d="m 389.839,28.6797 0,271.8003" /><path
       inkscape:connector-curvature="0"
       id="path50"
       style="fill:none;stroke:#000000;stroke-width:0.33333299;stroke-linecap:round;stroke-linejoin:round;stroke-miterlimit:10;stroke-opacity:1;stroke-dasharray:0, 4;stroke-dashoffset:0"
       d="m 389.839,300.48 0,0" /><path
       inkscape:connector-curvature="0"
       id="path52"
       style="fill:none;stroke:#0000ff;stroke-width:0.33333299;stroke-linecap:round;stroke-linejoin:round;stroke-miterlimit:10;stroke-opacity:1;stroke-dasharray:0, 4;stroke-dashoffset:0"
       d="m 46.4,28.6797 343.439,0" /><path
       inkscape:connector-curvature="0"
       id="path54"
       style="fill:none;stroke:#0000ff;stroke-width:0.33333299;stroke-linecap:round;stroke-linejoin:round;stroke-miterlimit:10;stroke-opacity:1;stroke-dasharray:0, 4;stroke-dashoffset:0"
       d="m 389.839,28.6797 0,0" /><path
       inkscape:connector-curvature="0"
       id="path56"
       style="fill:#000000;stroke:#000000;stroke-width:0.80000001;stroke-linecap:round;stroke-linejoin:round;stroke-miterlimit:10;stroke-opacity:1;stroke-dasharray:0, 4;stroke-dashoffset:0"
       d="m 46.4,96.7199 343.439,0" /><path
       inkscape:connector-curvature="0"
       id="path58"
       style="fill:none;stroke:#0000ff;stroke-width:0.33333299;stroke-linecap:round;stroke-linejoin:round;stroke-miterlimit:10;stroke-opacity:1;stroke-dasharray:0, 4;stroke-dashoffset:0"
       d="m 389.839,96.7199 0,0" /><path
       inkscape:connector-curvature="0"
       id="path60"
       style="fill:#000000;stroke:#000000;stroke-width:0.80000001;stroke-linecap:round;stroke-linejoin:round;stroke-miterlimit:10;stroke-opacity:1;stroke-dasharray:0, 4;stroke-dashoffset:0"
       d="m 46.4,164.76 343.439,0" /><path
       inkscape:connector-curvature="0"
       id="path62"
       style="fill:none;stroke:#0000ff;stroke-width:0.33333299;stroke-linecap:round;stroke-linejoin:round;stroke-miterlimit:10;stroke-opacity:1;stroke-dasharray:0, 4;stroke-dashoffset:0"
       d="m 389.839,164.76 0,0" /><path
       inkscape:connector-curvature="0"
       id="path64"
       style="fill:#000000;stroke:#000000;stroke-width:0.80000001;stroke-linecap:round;stroke-linejoin:round;stroke-miterlimit:10;stroke-opacity:1;stroke-dasharray:0, 4;stroke-dashoffset:0"
       d="m 46.4,232.8 343.439,0" /><path
       inkscape:connector-curvature="0"
       id="path66"
       style="fill:none;stroke:#0000ff;stroke-width:0.33333299;stroke-linecap:round;stroke-linejoin:round;stroke-miterlimit:10;stroke-opacity:1;stroke-dasharray:0, 4;stroke-dashoffset:0"
       d="m 389.839,232.8 0,0" /><path
       inkscape:connector-curvature="0"
       id="path68"
       style="fill:none;stroke:#0000ff;stroke-width:0.33333299;stroke-linecap:round;stroke-linejoin:round;stroke-miterlimit:10;stroke-opacity:1;stroke-dasharray:0, 4;stroke-dashoffset:0"
       d="m 46.4,300.48 343.439,0" /><path
       inkscape:connector-curvature="0"
       id="path70"
       style="fill:none;stroke:#0000ff;stroke-width:0.33333299;stroke-linecap:round;stroke-linejoin:round;stroke-miterlimit:10;stroke-opacity:1;stroke-dasharray:0, 4;stroke-dashoffset:0"
       d="m 389.839,300.48 0,0" /><path
       inkscape:connector-curvature="0"
       id="path72"
       style="fill:none;stroke:#000000;stroke-width:0.5;stroke-linecap:butt;stroke-linejoin:round;stroke-miterlimit:10;stroke-opacity:1;stroke-dasharray:none"
       d="m 46.4,28.6797 343.439,0" /><path
       inkscape:connector-curvature="0"
       id="path74"
       style="fill:none;stroke:#000000;stroke-width:0.5;stroke-linecap:butt;stroke-linejoin:round;stroke-miterlimit:10;stroke-opacity:1;stroke-dasharray:none"
       d="m 46.4,300.48 343.439,0" /><path
       inkscape:connector-curvature="0"
       id="path76"
       style="fill:none;stroke:#0000ff;stroke-width:0.5;stroke-linecap:butt;stroke-linejoin:round;stroke-miterlimit:10;stroke-opacity:1;stroke-dasharray:none"
       d="m 46.4,28.6797 0,271.8003" /><path
       inkscape:connector-curvature="0"
       id="path78"
       style="fill:none;stroke:#0000ff;stroke-width:0.5;stroke-linecap:butt;stroke-linejoin:round;stroke-miterlimit:10;stroke-opacity:1;stroke-dasharray:none"
       d="m 389.839,28.6797 0,271.8003" /><path
       inkscape:connector-curvature="0"
       id="path80"
       style="fill:none;stroke:#000000;stroke-width:0.5;stroke-linecap:butt;stroke-linejoin:round;stroke-miterlimit:10;stroke-opacity:1;stroke-dasharray:none"
       d="m 46.4,28.6797 343.439,0" /><path
       inkscape:connector-curvature="0"
       id="path82"
       style="fill:none;stroke:#0000ff;stroke-width:0.5;stroke-linecap:butt;stroke-linejoin:round;stroke-miterlimit:10;stroke-opacity:1;stroke-dasharray:none"
       d="m 46.4,28.6797 0,271.8003" /><path
       inkscape:connector-curvature="0"
       id="path84"
       style="fill:none;stroke:#000000;stroke-width:0.5;stroke-linecap:butt;stroke-linejoin:round;stroke-miterlimit:10;stroke-opacity:1;stroke-dasharray:none"
       d="m 46.4,28.6797 0,3.6" /><path
       inkscape:connector-curvature="0"
       id="path86"
       style="fill:none;stroke:#000000;stroke-width:0.5;stroke-linecap:butt;stroke-linejoin:round;stroke-miterlimit:10;stroke-opacity:1;stroke-dasharray:none"
       d="m 46.4,300.48 0,-3.241" /><text
       transform="scale(1,-1)"
       id="text90"
       x="33.799999"
       y="-15.199999"><tspan
         style="font-size:10px;font-variant:normal;font-weight:normal;writing-mode:lr-tb;fill:#000000;fill-opacity:1;fill-rule:nonzero;stroke:none;font-family:Helvetica;-inkscape-font-specification:Helvetica"
         sodipodi:role="line"
         id="tspan92"
         x="33.799999"
         y="-15.199999">-0.5</tspan></text>
<path
       inkscape:connector-curvature="0"
       id="path94"
       style="fill:none;stroke:#000000;stroke-width:0.5;stroke-linecap:butt;stroke-linejoin:round;stroke-miterlimit:10;stroke-opacity:1;stroke-dasharray:none"
       d="m 114.8,28.6797 0,3.6" /><path
       inkscape:connector-curvature="0"
       id="path96"
       style="fill:none;stroke:#000000;stroke-width:0.5;stroke-linecap:butt;stroke-linejoin:round;stroke-miterlimit:10;stroke-opacity:1;stroke-dasharray:none"
       d="m 114.8,300.48 0,-3.241" /><text
       transform="scale(1,-1)"
       id="text100"
       x="102.2"
       y="-15.199999"><tspan
         style="font-size:10px;font-variant:normal;font-weight:normal;writing-mode:lr-tb;fill:#000000;fill-opacity:1;fill-rule:nonzero;stroke:none;font-family:Helvetica;-inkscape-font-specification:Helvetica"
         sodipodi:role="line"
         id="tspan102"
         x="102.2"
         y="-15.199999">-0.3</tspan></text>
<path
       inkscape:connector-curvature="0"
       id="path104"
       style="fill:none;stroke:#000000;stroke-width:0.5;stroke-linecap:butt;stroke-linejoin:round;stroke-miterlimit:10;stroke-opacity:1;stroke-dasharray:none"
       d="m 183.56,28.6797 0,3.6" /><path
       inkscape:connector-curvature="0"
       id="path106"
       style="fill:none;stroke:#000000;stroke-width:0.5;stroke-linecap:butt;stroke-linejoin:round;stroke-miterlimit:10;stroke-opacity:1;stroke-dasharray:none"
       d="m 183.56,300.48 0,-3.241" /><text
       transform="scale(1,-1)"
       id="text110"
       x="170.96001"
       y="-15.199999"><tspan
         style="font-size:10px;font-variant:normal;font-weight:normal;writing-mode:lr-tb;fill:#000000;fill-opacity:1;fill-rule:nonzero;stroke:none;font-family:Helvetica;-inkscape-font-specification:Helvetica"
         sodipodi:role="line"
         id="tspan112"
         x="170.96001"
         y="-15.199999">-0.1</tspan></text>
<path
       inkscape:connector-curvature="0"
       id="path114"
       style="fill:none;stroke:#000000;stroke-width:0.5;stroke-linecap:butt;stroke-linejoin:round;stroke-miterlimit:10;stroke-opacity:1;stroke-dasharray:none"
       d="m 252.32,28.6797 0,3.6" /><path
       inkscape:connector-curvature="0"
       id="path116"
       style="fill:none;stroke:#000000;stroke-width:0.5;stroke-linecap:butt;stroke-linejoin:round;stroke-miterlimit:10;stroke-opacity:1;stroke-dasharray:none"
       d="m 252.32,300.48 0,-3.241" /><text
       transform="scale(1,-1)"
       id="text120"
       x="245.48"
       y="-15.199999"><tspan
         style="font-size:10px;font-variant:normal;font-weight:normal;writing-mode:lr-tb;fill:#000000;fill-opacity:1;fill-rule:nonzero;stroke:none;font-family:Helvetica;-inkscape-font-specification:Helvetica"
         x="245.48 251.03999 253.82001"
         y="-15.199999"
         sodipodi:role="line"
         id="tspan122">0.1</tspan></text>
<path
       inkscape:connector-curvature="0"
       id="path124"
       style="fill:none;stroke:#000000;stroke-width:0.5;stroke-linecap:butt;stroke-linejoin:round;stroke-miterlimit:10;stroke-opacity:1;stroke-dasharray:none"
       d="m 321.08,28.6797 0,3.6" /><path
       inkscape:connector-curvature="0"
       id="path126"
       style="fill:none;stroke:#000000;stroke-width:0.5;stroke-linecap:butt;stroke-linejoin:round;stroke-miterlimit:10;stroke-opacity:1;stroke-dasharray:none"
       d="m 321.08,300.48 0,-3.241" /><text
       transform="scale(1,-1)"
       id="text130"
       x="314.23999"
       y="-15.199999"><tspan
         style="font-size:10px;font-variant:normal;font-weight:normal;writing-mode:lr-tb;fill:#000000;fill-opacity:1;fill-rule:nonzero;stroke:none;font-family:Helvetica;-inkscape-font-specification:Helvetica"
         x="314.23999 319.79999 322.57999"
         y="-15.199999"
         sodipodi:role="line"
         id="tspan132">0.3</tspan></text>
<path
       inkscape:connector-curvature="0"
       id="path134"
       style="fill:none;stroke:#000000;stroke-width:0.5;stroke-linecap:butt;stroke-linejoin:round;stroke-miterlimit:10;stroke-opacity:1;stroke-dasharray:none"
       d="m 389.839,28.6797 0,3.6" /><path
       inkscape:connector-curvature="0"
       id="path136"
       style="fill:none;stroke:#000000;stroke-width:0.5;stroke-linecap:butt;stroke-linejoin:round;stroke-miterlimit:10;stroke-opacity:1;stroke-dasharray:none"
       d="m 389.839,300.48 0,-3.241" /><text
       transform="scale(1,-1)"
       id="text140"
       x="383"
       y="-15.199999"><tspan
         style="font-size:10px;font-variant:normal;font-weight:normal;writing-mode:lr-tb;fill:#000000;fill-opacity:1;fill-rule:nonzero;stroke:none;font-family:Helvetica;-inkscape-font-specification:Helvetica"
         x="383 388.56 391.34"
         y="-15.199999"
         sodipodi:role="line"
         id="tspan142">0.5</tspan></text>
<path
       inkscape:connector-curvature="0"
       id="path144"
       style="fill:none;stroke:#0000ff;stroke-width:0.5;stroke-linecap:butt;stroke-linejoin:round;stroke-miterlimit:10;stroke-opacity:1;stroke-dasharray:none"
       d="m 46.4,28.6797 3.2398,0" /><path
       inkscape:connector-curvature="0"
       id="path146"
       style="fill:none;stroke:#0000ff;stroke-width:0.5;stroke-linecap:butt;stroke-linejoin:round;stroke-miterlimit:10;stroke-opacity:1;stroke-dasharray:none"
       d="m 389.839,28.6797 -3.6,0" /><text
       transform="scale(1,-1)"
       id="text150"
       x="13.519899"
       y="-25.0797"
       style="fill:#0000ff"><tspan
         style="font-size:10px;font-variant:normal;font-weight:normal;writing-mode:lr-tb;fill:#0000ff;fill-opacity:1;fill-rule:nonzero;stroke:none;font-family:Helvetica;-inkscape-font-specification:Helvetica"
         sodipodi:role="line"
         id="tspan152"
         x="13.519899"
         y="-25.0797">-0.04</tspan></text>
<path
       inkscape:connector-curvature="0"
       id="path154"
       style="fill:none;stroke:#0000ff;stroke-width:0.5;stroke-linecap:butt;stroke-linejoin:round;stroke-miterlimit:10;stroke-opacity:1;stroke-dasharray:none"
       d="m 46.4,96.7199 3.2398,0" /><path
       inkscape:connector-curvature="0"
       id="path156"
       style="fill:none;stroke:#0000ff;stroke-width:0.5;stroke-linecap:butt;stroke-linejoin:round;stroke-miterlimit:10;stroke-opacity:1;stroke-dasharray:none"
       d="m 389.839,96.7199 -3.6,0" /><text
       transform="scale(1,-1)"
       id="text160"
       x="13.519899"
       y="-93.119904"
       style="fill:#0000ff"><tspan
         style="font-size:10px;font-variant:normal;font-weight:normal;writing-mode:lr-tb;fill:#0000ff;fill-opacity:1;fill-rule:nonzero;stroke:none;font-family:Helvetica;-inkscape-font-specification:Helvetica"
         sodipodi:role="line"
         id="tspan162"
         x="13.519899"
         y="-93.119904">-0.02</tspan></text>
<path
       inkscape:connector-curvature="0"
       id="path164"
       style="fill:none;stroke:#0000ff;stroke-width:0.5;stroke-linecap:butt;stroke-linejoin:round;stroke-miterlimit:10;stroke-opacity:1;stroke-dasharray:none"
       d="m 46.4,164.76 3.2398,0" /><path
       inkscape:connector-curvature="0"
       id="path166"
       style="fill:none;stroke:#0000ff;stroke-width:0.5;stroke-linecap:butt;stroke-linejoin:round;stroke-miterlimit:10;stroke-opacity:1;stroke-dasharray:none"
       d="m 389.839,164.76 -3.6,0" /><text
       transform="scale(1,-1)"
       id="text170"
       x="33.319904"
       y="-161.16"
       style="fill:#0000ff"><tspan
         style="font-size:10px;font-variant:normal;font-weight:normal;writing-mode:lr-tb;fill:#0000ff;fill-opacity:1;fill-rule:nonzero;stroke:none;font-family:Helvetica;-inkscape-font-specification:Helvetica"
         x="33.319904"
         y="-161.16"
         id="tspan172">0</tspan></text>
<path
       inkscape:connector-curvature="0"
       id="path174"
       style="fill:none;stroke:#0000ff;stroke-width:0.5;stroke-linecap:butt;stroke-linejoin:round;stroke-miterlimit:10;stroke-opacity:1;stroke-dasharray:none"
       d="m 46.4,232.8 3.2398,0" /><path
       inkscape:connector-curvature="0"
       id="path176"
       style="fill:none;stroke:#0000ff;stroke-width:0.5;stroke-linecap:butt;stroke-linejoin:round;stroke-miterlimit:10;stroke-opacity:1;stroke-dasharray:none"
       d="m 389.839,232.8 -3.6,0" /><text
       transform="scale(1,-1)"
       id="text180"
       x="19.280098"
       y="-229.2"
       style="fill:#0000ff"><tspan
         style="font-size:10px;font-variant:normal;font-weight:normal;writing-mode:lr-tb;fill:#0000ff;fill-opacity:1;fill-rule:nonzero;stroke:none;font-family:Helvetica;-inkscape-font-specification:Helvetica"
         x="19.280098 24.840099 27.6201 33.180103"
         y="-229.2"
         sodipodi:role="line"
         id="tspan182">0.02</tspan></text>
<path
       inkscape:connector-curvature="0"
       id="path184"
       style="fill:none;stroke:#0000ff;stroke-width:0.5;stroke-linecap:butt;stroke-linejoin:round;stroke-miterlimit:10;stroke-opacity:1;stroke-dasharray:none"
       d="m 46.4,300.48 3.2398,0" /><path
       inkscape:connector-curvature="0"
       id="path186"
       style="fill:none;stroke:#0000ff;stroke-width:0.5;stroke-linecap:butt;stroke-linejoin:round;stroke-miterlimit:10;stroke-opacity:1;stroke-dasharray:none"
       d="m 389.839,300.48 -3.6,0" /><text
       transform="scale(1,-1)"
       id="text190"
       x="19.280098"
       y="-296.88"
       style="fill:#0000ff"><tspan
         style="font-size:10px;font-variant:normal;font-weight:normal;writing-mode:lr-tb;fill:#0000ff;fill-opacity:1;fill-rule:nonzero;stroke:none;font-family:Helvetica;-inkscape-font-specification:Helvetica"
         x="19.280098 24.840099 27.6201 33.180103"
         y="-296.88"
         sodipodi:role="line"
         id="tspan192">0.04</tspan></text>
<path
       inkscape:connector-curvature="0"
       id="path194"
       style="fill:none;stroke:#000000;stroke-width:0.5;stroke-linecap:butt;stroke-linejoin:round;stroke-miterlimit:10;stroke-opacity:1;stroke-dasharray:none"
       d="m 46.4,28.6797 343.439,0" /><path
       inkscape:connector-curvature="0"
       id="path196"
       style="fill:none;stroke:#000000;stroke-width:0.5;stroke-linecap:butt;stroke-linejoin:round;stroke-miterlimit:10;stroke-opacity:1;stroke-dasharray:none"
       d="m 46.4,300.48 343.439,0" /><path
       inkscape:connector-curvature="0"
       id="path198"
       style="fill:none;stroke:#0000ff;stroke-width:0.5;stroke-linecap:butt;stroke-linejoin:round;stroke-miterlimit:10;stroke-opacity:1;stroke-dasharray:none"
       d="m 46.4,28.6797 0,271.8003" /><path
       inkscape:connector-curvature="0"
       id="path200"
       style="fill:none;stroke:#0000ff;stroke-width:0.5;stroke-linecap:butt;stroke-linejoin:round;stroke-miterlimit:10;stroke-opacity:1;stroke-dasharray:none"
       d="m 389.839,28.6797 0,271.8003" /><path
       style="fill:none;stroke:#0000ff;stroke-width:1.2;stroke-linecap:butt;stroke-linejoin:round;stroke-miterlimit:10;stroke-opacity:1;stroke-dasharray:none"
       d="m 46.4,164.76 c 2.547191,2.65927 5.654051,4.65048 8.479602,6.93795 3.460633,3.57219 7.665886,6.28895 11.108521,9.88166 3.135285,2.68494 6.151155,5.51118 9.117973,8.36973 5.51213,5.06885 10.777848,10.40584 16.120137,15.65177 2.595682,2.34501 5.013587,4.90497 7.544977,7.34345 2.71764,2.29618 4.93311,5.16982 7.76898,7.3441 3.6377,4.00646 8.07824,7.16297 11.86964,11.00514 2.69309,2.2034 5.52057,4.2279 8.23844,6.39082 3.16098,2.02594 6.09302,4.39217 9.50275,6.01416 3.28899,1.37822 6.53976,3.04028 9.96815,4.0078 3.52138,0.68394 7.11667,1.26811 10.69192,0.60606 4.22591,-0.54558 8.21521,-2.31927 11.81887,-4.5252 3.80457,-2.53125 7.34339,-5.51409 10.33807,-8.97894 4.99821,-5.47895 9.06627,-11.72123 13.05473,-17.95047 3.07367,-5.21013 6.06158,-10.47829 8.64862,-15.95086 1.41868,-2.50803 2.85377,-5.02609 3.84011,-7.73638 2.72848,-4.96805 4.75636,-10.27401 7.5005,-15.235 0.88919,-2.60825 2.38322,-4.96987 3.37794,-7.52952 2.64966,-5.60732 4.95137,-11.37765 7.73671,-16.92482 1.81363,-4.38154 4.22948,-8.48603 6.0307,-12.87603 1.66996,-2.90269 2.8967,-6.03282 4.4053,-9.00591 2.40389,-4.27363 4.36354,-8.76895 6.84908,-12.99867 1.53058,-2.65111 3.05622,-5.29394 4.64249,-7.90436 3.42824,-4.95922 6.62379,-10.1061 10.64325,-14.623005 3.07889,-3.730018 6.70335,-6.980777 10.65194,-9.757281 6.01997,-4.057463 13.52118,-6.39817 20.76985,-4.973462 3.2013,0.448518 6.24052,1.508613 9.10204,3.005146 5.37327,1.849287 9.91408,5.372846 14.51219,8.597929 2.79937,2.417898 6.03804,4.338125 8.60953,7.045073 2.78565,2.7191 5.96469,5.01798 8.63702,7.86323 4.42214,4.00266 8.59206,8.28068 12.88456,12.41257 3.86639,3.66248 7.55525,7.50826 11.44479,11.14715 2.06893,2.26468 4.53257,4.16407 6.48468,6.54164 3.65857,2.81188 6.66596,6.36832 10.27591,9.24877 3.23612,3.08565 6.65844,5.95607 10.10221,8.807 2.31961,2.87579 5.83413,4.38101 8.38697,7.0193 0.73275,0.61115 1.49028,1.19338 2.27985,1.72946"
       id="path212"
       inkscape:connector-curvature="0" /><text
       transform="scale(1,-1)"
       id="text224"
       x="174.2"
       y="-2.9597702"><tspan
         style="font-size:10px;font-variant:normal;font-weight:normal;writing-mode:lr-tb;fill:#000000;fill-opacity:1;fill-rule:nonzero;stroke:none;font-family:Helvetica;-inkscape-font-specification:Helvetica"
         x="174.2 182.53 188.09 193.09 198.64999 206.98 212.53999 218.10001 220.88 223.66 229.22 231.44 234.77 240.33 245.33 248.11 250.33 255.89"
         y="-2.9597702"
         sodipodi:role="line"
         id="tspan226">movement direction</tspan></text>
<text
       transform="matrix(0,1,1,0,0,0)"
       id="text230"
       x="112.56"
       y="11.1199"
       style="fill:#0000ff"><tspan
         style="font-size:10px;font-variant:normal;font-weight:normal;writing-mode:lr-tb;fill:#0000ff;fill-opacity:1;fill-rule:nonzero;stroke:none;font-family:Helvetica;-inkscape-font-specification:Helvetica"
         x="112.56 118.12 123.12 128.68001 132.00999 137.57001 143.13 148.13 153.69 159.25 167.58 169.8 174.8 177.58 183.14 186.47 192.03 197.03 202.03 207.59 210.92"
         y="11.1199"
         sodipodi:role="line"
         id="tspan232">hydrodynamic pressure</tspan></text>
<path
       inkscape:connector-curvature="0"
       id="path234"
       style="fill:none;stroke:#000000;stroke-width:0.5;stroke-linecap:butt;stroke-linejoin:round;stroke-miterlimit:10;stroke-opacity:1;stroke-dasharray:none"
       d="m 46.4,28.6797 343.439,0" /><path
       inkscape:connector-curvature="0"
       id="path236"
       style="fill:none;stroke:#008000;stroke-width:0.5;stroke-linecap:butt;stroke-linejoin:round;stroke-miterlimit:10;stroke-opacity:1;stroke-dasharray:none"
       d="m 389.839,28.6797 0,271.8003" /><path
       inkscape:connector-curvature="0"
       id="path238"
       style="fill:none;stroke:#000000;stroke-width:0.5;stroke-linecap:butt;stroke-linejoin:round;stroke-miterlimit:10;stroke-opacity:1;stroke-dasharray:none"
       d="m 46.4,28.6797 0,3.6" /><path
       inkscape:connector-curvature="0"
       id="path254"
       style="fill:none;stroke:#000000;stroke-width:0.5;stroke-linecap:butt;stroke-linejoin:round;stroke-miterlimit:10;stroke-opacity:1;stroke-dasharray:none"
       d="m 114.8,28.6797 0,3.6" /><path
       inkscape:connector-curvature="0"
       id="path270"
       style="fill:none;stroke:#000000;stroke-width:0.5;stroke-linecap:butt;stroke-linejoin:round;stroke-miterlimit:10;stroke-opacity:1;stroke-dasharray:none"
       d="m 183.56,28.6797 0,3.6" /><path
       inkscape:connector-curvature="0"
       id="path286"
       style="fill:none;stroke:#000000;stroke-width:0.5;stroke-linecap:butt;stroke-linejoin:round;stroke-miterlimit:10;stroke-opacity:1;stroke-dasharray:none"
       d="m 252.32,28.6797 0,3.6" /><path
       inkscape:connector-curvature="0"
       id="path302"
       style="fill:none;stroke:#000000;stroke-width:0.5;stroke-linecap:butt;stroke-linejoin:round;stroke-miterlimit:10;stroke-opacity:1;stroke-dasharray:none"
       d="m 321.08,28.6797 0,3.6" /><path
       inkscape:connector-curvature="0"
       id="path318"
       style="fill:none;stroke:#000000;stroke-width:0.5;stroke-linecap:butt;stroke-linejoin:round;stroke-miterlimit:10;stroke-opacity:1;stroke-dasharray:none"
       d="m 389.839,28.6797 0,3.6" /><path
       inkscape:connector-curvature="0"
       id="path326"
       style="fill:none;stroke:#008000;stroke-width:0.5;stroke-linecap:butt;stroke-linejoin:round;stroke-miterlimit:10;stroke-opacity:1;stroke-dasharray:none"
       d="m 389.839,134.88 -3.6,0" /><text
       transform="scale(1,-1)"
       id="text330"
       x="392.72"
       y="-131.28"
       style="fill:#008000"><tspan
         style="font-size:10px;font-variant:normal;font-weight:normal;writing-mode:lr-tb;fill:#008000;fill-opacity:1;fill-rule:nonzero;stroke:none;font-family:Helvetica;-inkscape-font-specification:Helvetica"
         x="392.72"
         y="-131.28"
         id="tspan332">1</tspan></text>
<path
       inkscape:connector-curvature="0"
       id="path334"
       style="fill:none;stroke:#008000;stroke-width:0.5;stroke-linecap:butt;stroke-linejoin:round;stroke-miterlimit:10;stroke-opacity:1;stroke-dasharray:none"
       d="m 389.839,187.8 -3.6,0" /><text
       transform="scale(1,-1)"
       id="text338"
       x="392.72"
       y="-184.2"
       style="fill:#008000"><tspan
         style="font-size:10px;font-variant:normal;font-weight:normal;writing-mode:lr-tb;fill:#008000;fill-opacity:1;fill-rule:nonzero;stroke:none;font-family:Helvetica;-inkscape-font-specification:Helvetica"
         x="392.72 398.28 401.06"
         y="-184.2"
         sodipodi:role="line"
         id="tspan340">1.5</tspan></text>
<path
       inkscape:connector-curvature="0"
       id="path342"
       style="fill:none;stroke:#008000;stroke-width:0.5;stroke-linecap:butt;stroke-linejoin:round;stroke-miterlimit:10;stroke-opacity:1;stroke-dasharray:none"
       d="m 389.839,241.08 -3.6,0" /><text
       transform="scale(1,-1)"
       id="text346"
       x="392.72"
       y="-237.48"
       style="fill:#008000"><tspan
         style="font-size:10px;font-variant:normal;font-weight:normal;writing-mode:lr-tb;fill:#008000;fill-opacity:1;fill-rule:nonzero;stroke:none;font-family:Helvetica;-inkscape-font-specification:Helvetica"
         x="392.72"
         y="-237.48"
         id="tspan348">2</tspan></text>
<path
       inkscape:connector-curvature="0"
       id="path350"
       style="fill:none;stroke:#008000;stroke-width:0.5;stroke-linecap:butt;stroke-linejoin:round;stroke-miterlimit:10;stroke-opacity:1;stroke-dasharray:none"
       d="m 389.839,294 -3.6,0" /><text
       transform="scale(1,-1)"
       id="text354"
       x="392.72"
       y="-290.39999"
       style="fill:#008000"><tspan
         style="font-size:10px;font-variant:normal;font-weight:normal;writing-mode:lr-tb;fill:#008000;fill-opacity:1;fill-rule:nonzero;stroke:none;font-family:Helvetica;-inkscape-font-specification:Helvetica"
         x="392.72 398.28 401.06"
         y="-290.39999"
         sodipodi:role="line"
         id="tspan356">2.5</tspan></text>
<path
       style="fill:none;stroke:#008000;stroke-width:1.2;stroke-linecap:butt;stroke-linejoin:round;stroke-miterlimit:10;stroke-opacity:1;stroke-dasharray:none"
       d="m 46.4,300.48 c 3.878891,-8.02836 8.363153,-15.75804 12.596267,-23.60502 2.248773,-3.99873 4.701111,-7.88738 6.768945,-11.98213 1.334132,-2.6188 3.239392,-4.93474 4.446626,-7.63509 1.955146,-2.74383 3.697169,-5.60688 5.390443,-8.51515 2.184769,-3.21299 4.089939,-6.64105 6.357235,-9.77407 1.327393,-2.39325 3.003519,-4.5804 4.453179,-6.90039 2.175221,-2.71637 3.735094,-5.79564 5.952218,-8.4694 2.296564,-3.3783 4.749867,-6.65001 7.206518,-9.91156 2.072199,-2.00898 3.146959,-4.78372 5.188019,-6.81363 2.56058,-3.36704 5.24277,-6.64736 8.1009,-9.75186 1.77845,-2.55047 4.10048,-4.61292 5.99448,-7.07075 2.11603,-1.95405 3.80967,-4.26257 5.85017,-6.3004 2.54925,-2.58106 4.95828,-5.34814 7.81975,-7.59767 1.50044,-2.14356 3.86898,-3.47433 5.58081,-5.42761 4.29263,-3.48799 8.36035,-7.25544 12.78536,-10.56783 2.14308,-1.49061 4.25434,-3.07674 6.42866,-4.54484 7.25389,-5.0628 15.03624,-9.38517 23.18786,-12.83121 3.10991,-1.5234 6.46761,-2.34892 9.70529,-3.53246 4.6106,-1.3727 9.28314,-2.52062 14.04056,-3.23424 2.81727,-0.43054 5.64503,-0.87542 8.5073,-0.89426 5.35734,-0.68135 10.76555,-0.0428 16.10383,0.48197 3.61149,0.61863 7.28621,0.96866 10.79228,2.05913 6.77642,1.53797 13.31567,3.99194 19.66463,6.7935 3.17512,1.80763 6.59498,3.17581 9.73011,5.11124 5.96833,3.44091 11.65633,7.36272 17.13285,11.53678 4.32964,3.27535 8.29557,6.99365 12.52314,10.39668 5.73901,5.53184 11.64765,10.92218 16.76331,17.05181 2.35675,2.18999 4.20357,4.85921 6.5084,7.112 1.99123,2.92081 4.73709,5.23952 6.73851,8.15611 2.32619,2.79323 4.53014,5.67261 6.53174,8.68932 3.43405,3.89672 6.18561,8.33019 9.33803,12.45061 3.35029,5.13862 7.0512,10.04575 10.19007,15.32031 2.54556,3.6676 4.8205,7.51026 7.22147,11.27563 1.2468,2.6365 3.38165,4.73467 4.58913,7.40637 1.62334,2.80279 3.41689,5.47962 4.785,8.41214 5.99407,10.12334 11.58689,20.48472 17.06214,30.89615 0.44539,0.74991 0.86224,1.52315 1.40377,2.20983"
       id="path368"
       inkscape:connector-curvature="0" /><text
       transform="matrix(0,1,1,0,0,0)"
       id="text380"
       x="141"
       y="421.12003"
       style="fill:#008000"><tspan
         style="font-size:10px;font-variant:normal;font-weight:normal;writing-mode:lr-tb;fill:#008000;fill-opacity:1;fill-rule:nonzero;stroke:none;font-family:Helvetica;-inkscape-font-specification:Helvetica"
         sodipodi:role="line"
         id="tspan382"
         x="141"
         y="421.12003">disc profile</tspan></text>
</g></svg>