<?xml version="1.0" encoding="UTF-8" standalone="no"?>
<!-- Creator: fig2dev Version 3.2 Patchlevel 5d -->

<!-- CreationDate: Tue Jul 15 23:47:45 2014 -->

<!-- Magnification: 1.050 -->

<svg
   xmlns:dc="http://purl.org/dc/elements/1.1/"
   xmlns:cc="http://creativecommons.org/ns#"
   xmlns:rdf="http://www.w3.org/1999/02/22-rdf-syntax-ns#"
   xmlns:svg="http://www.w3.org/2000/svg"
   xmlns="http://www.w3.org/2000/svg"
   xmlns:sodipodi="http://sodipodi.sourceforge.net/DTD/sodipodi-0.dtd"
   xmlns:inkscape="http://www.inkscape.org/namespaces/inkscape"
   width="8.8in"
   height="7.8in"
   viewBox="866 1102 10551 9401"
   id="svg2"
   version="1.1"
   inkscape:version="0.48.4 r9939"
   sodipodi:docname="lubscheme_org.pdf">
  <metadata
     id="metadata118">
    <rdf:RDF>
      <cc:Work
         rdf:about="">
        <dc:format>image/svg+xml</dc:format>
        <dc:type
           rdf:resource="http://purl.org/dc/dcmitype/StillImage" />
        <dc:title></dc:title>
      </cc:Work>
    </rdf:RDF>
  </metadata>
  <defs
     id="defs116">
    <marker
       inkscape:stockid="Arrow1Lend"
       orient="auto"
       refY="0.0"
       refX="0.0"
       id="Arrow1Lend"
       style="overflow:visible;">
      <path
         id="path3934"
         d="M 0.0,0.0 L 5.0,-5.0 L -12.5,0.0 L 5.0,5.0 L 0.0,0.0 z "
         style="fill-rule:evenodd;stroke:#000000;stroke-width:1.0pt;"
         transform="scale(0.8) rotate(180) translate(12.5,0)" />
    </marker>
    <marker
       inkscape:stockid="Arrow2Lend"
       orient="auto"
       refY="0.0"
       refX="0.0"
       id="Arrow2Lend"
       style="overflow:visible;">
      <path
         id="path3952"
         style="fill-rule:evenodd;stroke-width:0.62500000;stroke-linejoin:round;"
         d="M 8.7185878,4.0337352 L -2.2072895,0.016013256 L 8.7185884,-4.0017078 C 6.9730900,-1.6296469 6.9831476,1.6157441 8.7185878,4.0337352 z "
         transform="scale(1.1) rotate(180) translate(1,0)" />
    </marker>
    <marker
       inkscape:stockid="Arrow2Lstart"
       orient="auto"
       refY="0.0"
       refX="0.0"
       id="Arrow2Lstart"
       style="overflow:visible">
      <path
         id="path3949"
         style="fill-rule:evenodd;stroke-width:0.62500000;stroke-linejoin:round"
         d="M 8.7185878,4.0337352 L -2.2072895,0.016013256 L 8.7185884,-4.0017078 C 6.9730900,-1.6296469 6.9831476,1.6157441 8.7185878,4.0337352 z "
         transform="scale(1.1) translate(1,0)" />
    </marker>
  </defs>
  <sodipodi:namedview
     pagecolor="#ffffff"
     bordercolor="#666666"
     borderopacity="1"
     objecttolerance="10"
     gridtolerance="10"
     guidetolerance="10"
     inkscape:pageopacity="0"
     inkscape:pageshadow="2"
     inkscape:window-width="1920"
     inkscape:window-height="1060"
     id="namedview114"
     showgrid="false"
     inkscape:zoom="0.67236467"
     inkscape:cx="444.66289"
     inkscape:cy="327.62531"
     inkscape:window-x="1364"
     inkscape:window-y="-3"
     inkscape:window-maximized="1"
     inkscape:current-layer="svg2" />
  <polyline
     id="polyline6"
     style="fill:#000000;stroke:#000000;stroke-width:79;stroke-linecap:butt;stroke-linejoin:miter"
     points="944,4960 11338,4960 " />
  <polyline
     id="polyline8"
     style="fill:none;stroke:#00b0b0;stroke-width:16;stroke-linecap:butt;stroke-linejoin:bevel"
     points="992,1984 993,1984 994,1984 996,1985 1000,1986 1005,1988 1013,1990 1023,1992 1036,1996 1050,2001 1068,2005 1088,2011 1111,2017 1138,2024 1167,2032 1198,2040 1233,2050 1270,2059 1310,2070 1352,2080 1396,2092 1442,2103 1490,2116 1541,2128 1593,2140 1647,2154 1702,2166 1760,2180 1819,2193 1879,2206 1942,2220 2005,2234 2071,2247 2138,2261 2207,2275 2279,2288 2353,2302 2429,2316 2508,2329 2590,2343 2675,2356 2762,2370 2853,2384 2948,2398 3046,2412 3147,2426 3253,2439 3362,2452 3475,2466 3589,2478 3707,2491 3826,2503 3938,2514 4049,2524 4158,2534 4265,2542 4370,2551 4470,2558 4566,2564 4658,2571 4744,2576 4826,2580 4902,2584 4974,2587 5040,2591 5102,2593 5159,2594 5211,2595 5259,2596 5303,2597 5344,2597 5382,2596 5417,2596 5448,2595 5478,2594 5506,2593 5532,2591 5558,2590 5582,2587 5606,2586 5630,2584 5654,2582 5678,2581 5704,2579 5731,2578 5760,2576 5791,2575 5823,2573 5859,2572 5898,2571 5940,2571 5985,2570 6034,2570 6088,2570 6144,2570 6206,2571 6271,2571 6342,2573 6416,2574 6495,2576 6578,2577 6664,2580 6754,2582 6847,2585 6941,2588 7037,2592 7132,2595 7228,2598 7352,2602 7470,2606 7582,2611 7686,2615 7781,2619 7866,2622 7943,2625 8010,2627 8068,2629 8117,2632 8158,2634 8192,2635 8219,2636 8239,2637 8254,2637 8264,2638 8270,2638 8274,2638 8275,2638 8274,2638 8271,2637 8269,2637 8267,2637 8268,2638 8272,2638 8281,2638 8292,2639 8309,2640 8330,2641 8359,2643 8393,2645 8434,2648 8482,2651 8538,2655 8602,2659 8674,2663 8751,2668 8836,2674 8925,2680 9020,2686 9118,2692 9207,2699 9296,2705 9384,2711 9471,2718 9555,2724 9638,2730 9718,2737 9796,2743 9872,2749 9945,2754 10016,2761 10087,2766 10154,2772 10220,2777 10284,2783 10347,2789 10409,2794 10469,2800 10528,2805 10585,2810 10642,2815 10698,2820 10752,2826 10805,2830 10855,2835 10904,2839 10953,2844 10998,2849 11041,2853 11081,2856 11119,2860 11154,2864 11186,2867 11214,2869 11240,2872 11262,2874 11281,2876 11297,2877 11310,2878 11320,2879 11328,2880 11333,2880 11336,2881 11337,2881 11338,2881 " />
  <polyline
     id="polyline10"
     style="fill:none;stroke:#00b0b0;stroke-width:16;stroke-linecap:butt;stroke-linejoin:bevel"
     points="944,2834 945,2834 946,2834 949,2835 953,2835 958,2836 966,2837 977,2838 990,2840 1004,2843 1023,2845 1044,2848 1067,2851 1095,2855 1124,2859 1156,2864 1192,2869 1230,2873 1271,2878 1314,2885 1359,2890 1406,2896 1456,2902 1507,2910 1561,2916 1616,2922 1673,2930 1732,2937 1792,2943 1854,2951 1917,2958 1982,2965 2049,2973 2117,2980 2187,2987 2261,2995 2335,3002 2413,3009 2493,3017 2576,3024 2662,3033 2751,3040 2844,3047 2939,3056 3038,3063 3141,3071 3248,3079 3358,3087 3471,3095 3587,3103 3706,3110 3826,3118 3939,3124 4051,3130 4161,3137 4268,3142 4373,3147 4474,3152 4571,3156 4662,3161 4749,3165 4831,3168 4908,3171 4979,3173 5045,3175 5107,3177 5164,3179 5216,3181 5265,3182 5309,3182 5350,3183 5387,3183 5422,3183 5454,3183 5483,3183 5511,3183 5537,3182 5562,3182 5586,3182 5610,3181 5633,3180 5657,3180 5681,3179 5707,3179 5734,3177 5762,3177 5793,3177 5825,3177 5861,3177 5900,3177 5941,3177 5986,3177 6035,3179 6088,3180 6145,3181 6206,3182 6272,3183 6343,3185 6417,3186 6495,3189 6578,3191 6664,3193 6754,3196 6847,3200 6941,3203 7037,3206 7132,3209 7228,3212 7352,3216 7470,3220 7582,3226 7686,3229 7781,3233 7867,3236 7944,3239 8011,3243 8069,3246 8118,3248 8159,3250 8193,3251 8220,3253 8241,3254 8256,3255 8266,3256 8274,3257 8277,3257 8278,3258 8277,3259 8275,3259 8274,3259 8271,3260 8271,3261 8274,3261 8278,3262 8286,3264 8298,3265 8314,3266 8337,3268 8364,3269 8398,3271 8439,3273 8488,3276 8543,3279 8606,3282 8678,3286 8754,3290 8838,3293 8928,3298 9021,3302 9118,3307 9210,3311 9302,3315 9393,3319 9482,3323 9568,3328 9653,3331 9735,3335 9814,3338 9890,3341 9965,3345 10037,3349 10107,3351 10175,3354 10242,3357 10306,3360 10370,3362 10432,3365 10492,3367 10552,3371 10609,3373 10666,3375 10721,3378 10774,3380 10827,3382 10876,3384 10924,3386 10970,3387 11013,3390 11054,3392 11090,3393 11125,3395 11156,3396 11184,3397 11208,3398 11229,3399 11246,3399 11259,3400 11271,3400 11279,3401 11285,3401 11288,3401 11290,3401 11291,3401 " />
  <polyline
     id="polyline12"
     style="fill:none;stroke:#00b0b0;stroke-width:16;stroke-linecap:butt;stroke-linejoin:bevel"
     points="944,3543 945,3543 946,3543 949,3543 953,3544 958,3544 966,3545 977,3546 990,3547 1004,3548 1023,3550 1044,3551 1067,3553 1095,3555 1124,3559 1156,3562 1192,3564 1230,3568 1271,3571 1314,3574 1359,3579 1406,3582 1456,3586 1507,3590 1561,3594 1616,3598 1673,3604 1732,3608 1792,3612 1854,3617 1917,3622 1982,3627 2049,3631 2117,3636 2187,3640 2261,3646 2335,3651 2413,3656 2493,3660 2576,3666 2662,3671 2751,3676 2844,3681 2939,3687 3038,3693 3141,3698 3248,3703 3358,3710 3471,3715 3587,3720 3706,3727 3826,3732 3939,3737 4051,3741 4161,3746 4268,3751 4373,3755 4474,3759 4571,3762 4662,3765 4749,3769 4831,3772 4908,3774 4979,3776 5045,3778 5107,3780 5164,3781 5216,3783 5265,3784 5309,3784 5350,3785 5387,3786 5422,3786 5454,3786 5483,3787 5511,3787 5537,3787 5562,3787 5586,3787 5610,3786 5633,3786 5657,3786 5681,3786 5707,3786 5734,3786 5762,3786 5793,3787 5825,3787 5861,3787 5900,3788 5941,3788 5986,3790 6035,3791 6088,3792 6145,3793 6206,3795 6272,3796 6343,3798 6417,3800 6495,3802 6578,3804 6664,3807 6754,3811 6847,3814 6941,3817 7037,3820 7132,3823 7228,3826 7352,3830 7470,3835 7582,3840 7686,3843 7781,3847 7866,3850 7943,3854 8010,3857 8068,3860 8117,3862 8158,3864 8192,3865 8219,3867 8239,3868 8254,3869 8264,3870 8270,3871 8274,3871 8275,3872 8274,3874 8271,3874 8269,3874 8267,3875 8267,3876 8268,3876 8272,3877 8281,3878 8292,3879 8309,3880 8330,3882 8359,3883 8393,3885 8434,3887 8482,3890 8538,3893 8602,3897 8674,3900 8751,3904 8836,3907 8925,3912 9020,3917 9118,3921 9207,3925 9296,3929 9384,3933 9471,3937 9555,3941 9638,3944 9718,3948 9796,3951 9872,3954 9945,3958 10016,3961 10087,3964 10154,3967 10220,3969 10284,3972 10347,3975 10409,3977 10469,3980 10528,3983 10585,3985 10642,3987 10698,3989 10752,3992 10805,3994 10855,3996 10904,3997 10953,4000 10998,4002 11041,4004 11081,4005 11119,4007 11154,4008 11186,4009 11214,4010 11240,4011 11262,4012 11281,4013 11297,4013 11310,4014 11320,4014 11328,4015 11333,4015 11336,4015 11337,4015 11338,4015 " />
  <polyline
     id="polyline14"
     style="fill:none;stroke:#00b0b0;stroke-width:16;stroke-linecap:butt;stroke-linejoin:bevel"
     points="944,4251 945,4251 946,4251 949,4251 953,4251 958,4253 966,4253 977,4254 990,4255 1004,4256 1023,4257 1044,4258 1067,4259 1095,4261 1124,4263 1156,4264 1192,4266 1230,4269 1271,4271 1314,4274 1359,4277 1406,4280 1456,4282 1507,4285 1561,4288 1616,4291 1673,4295 1732,4298 1792,4301 1854,4304 1917,4308 1982,4311 2049,4314 2117,4319 2187,4322 2261,4326 2335,4329 2413,4333 2493,4337 2576,4341 2662,4345 2751,4349 2844,4353 2939,4358 3038,4362 3141,4366 3248,4370 3358,4375 3471,4380 3587,4384 3706,4389 3826,4393 3939,4397 4051,4402 4161,4406 4268,4409 4373,4413 4474,4416 4571,4419 4662,4423 4749,4425 4831,4428 4908,4430 4979,4432 5045,4434 5107,4435 5164,4437 5216,4438 5265,4439 5309,4440 5350,4441 5387,4441 5422,4443 5454,4443 5483,4444 5511,4444 5537,4444 5562,4444 5586,4445 5610,4445 5633,4445 5657,4445 5681,4445 5707,4445 5734,4446 5762,4446 5793,4446 5825,4447 5861,4447 5900,4448 5941,4449 5986,4450 6035,4451 6088,4452 6145,4453 6206,4455 6272,4457 6343,4459 6417,4461 6495,4464 6578,4466 6664,4469 6754,4472 6847,4475 6941,4478 7037,4481 7132,4485 7228,4488 7352,4492 7470,4496 7582,4501 7686,4504 7781,4509 7867,4513 7944,4516 8011,4519 8069,4521 8118,4524 8159,4527 8193,4529 8220,4530 8241,4532 8256,4533 8266,4534 8274,4535 8277,4536 8278,4537 8277,4538 8275,4539 8274,4540 8271,4540 8271,4541 8274,4542 8278,4543 8286,4544 8298,4545 8314,4548 8337,4549 8364,4551 8398,4553 8439,4555 8488,4557 8543,4560 8606,4562 8678,4565 8754,4569 8838,4572 8928,4575 9021,4579 9118,4582 9210,4585 9302,4588 9393,4592 9482,4594 9568,4597 9653,4599 9735,4601 9814,4603 9890,4605 9965,4607 10037,4609 10107,4611 10175,4612 10242,4614 10306,4615 10370,4616 10432,4617 10492,4618 10552,4619 10609,4620 10666,4621 10721,4622 10774,4623 10827,4623 10876,4624 10924,4625 10970,4625 11013,4626 11054,4626 11090,4627 11125,4627 11156,4628 11184,4628 11208,4628 11229,4628 11246,4629 11259,4629 11271,4629 11279,4629 11285,4629 11288,4629 11290,4629 11291,4629 " />
  <polyline
     id="polyline24"
     style="fill:none;stroke:#0000ff;stroke-width:32;stroke-linecap:butt;stroke-linejoin:miter;stroke-dasharray:41, 41"
     points="1984,6614 1984,9779 " />
  <polyline
     id="polyline26"
     style="fill:none;stroke:#000000;stroke-width:32;stroke-linecap:butt;stroke-linejoin:miter;marker-end:url(#Arrow2Lend)"
     points="2031,7937 3065,7937 " />
  <polyline
     id="polyline30"
     style="fill:none;stroke:#000000;stroke-width:32;stroke-linecap:butt;stroke-linejoin:miter;marker-end:url(#Arrow2Lend)"
     points="2031,8834 3916,8834 " />
  <polyline
     id="polyline34"
     style="fill:none;stroke:#000000;stroke-width:32;stroke-linecap:butt;stroke-linejoin:miter;marker-end:url(#Arrow2Lend)"
     points="1984,8362 3490,8362 " />
  <polyline
     id="polyline38"
     style="fill:none;stroke:#000000;stroke-width:32;stroke-linecap:butt;stroke-linejoin:miter;marker-end:url(#Arrow2Lend)"
     points="1984,7417 2593,7417 " />
  <polyline
     id="polyline42"
     style="fill:none;stroke:#000000;stroke-width:32;stroke-linecap:butt;stroke-linejoin:miter;marker-end:url(#Arrow2Lend)"
     points="2031,9307 4341,9307 " />
  <polyline
     id="polyline46"
     style="fill:none;stroke:#000000;stroke-width:32;stroke-linecap:butt;stroke-linejoin:miter;marker-end:url(#Arrow2Lend)"
     points="2031,9779 4719,9779 " />
  <polyline
     id="polyline50"
     style="fill:none;stroke:#0000ff;stroke-width:32;stroke-linecap:butt;stroke-linejoin:miter;stroke-dasharray:41, 41"
     points="8598,6614 8598,9779 " />
  <polyline
     id="polyline52"
     style="fill:none;stroke:#000000;stroke-width:32;stroke-linecap:butt;stroke-linejoin:miter;marker-end:url(#Arrow2Lend)"
     points="8645,7937 8035,7937 "
     transform="matrix(0.94515689,0,0,1,439.78686,0)" />
  <polyline
     id="polyline56"
     style="fill:none;stroke:#000000;stroke-width:32;stroke-linecap:butt;stroke-linejoin:miter;marker-end:url(#Arrow2Lend)"
     points="8645,8834 8130,8834 "
     transform="matrix(0.94850563,0,0,1,417.8253,0)" />
  <polyline
     id="polyline60"
     style="fill:none;stroke:#000000;stroke-width:32;stroke-linecap:butt;stroke-linejoin:miter;marker-end:url(#Arrow2Lend)"
     points="8598,8362 7988,8362 "
     transform="matrix(1.0274216,0,0,1,-218.60462,0)" />
  <polyline
     id="polyline64"
     style="fill:none;stroke:#000000;stroke-width:32;stroke-linecap:butt;stroke-linejoin:miter;marker-end:url(#Arrow2Lend)"
     points="8598,7417 8224,7417 "
     transform="matrix(1.0346889,0,0,1,-284.72682,0)" />
  <polyline
     id="polyline68"
     style="fill:none;stroke:#000000;stroke-width:32;stroke-linecap:butt;stroke-linejoin:miter;marker-end:url(#Arrow2Lend)"
     points="8645,9307 8319,9307 "
     transform="matrix(0.91138202,0,0,1,735.81355,0)" />
  <polyline
     id="polyline72"
     style="fill:none;stroke:#000000;stroke-width:32;stroke-linecap:butt;stroke-linejoin:miter;marker-end:url(#Arrow2Lend)"
     points="4818,3118 5286,3118 " />
  <polyline
     id="polyline76"
     style="fill:none;stroke:#000000;stroke-width:32;stroke-linecap:butt;stroke-linejoin:miter;marker-end:url(#Arrow2Lend)"
     points="4818,4015 5947,4015 " />
  <polyline
     id="polyline80"
     style="fill:none;stroke:#000000;stroke-width:32;stroke-linecap:butt;stroke-linejoin:miter;marker-end:url(#Arrow2Lend)"
     points="4771,3543 5522,3543 " />
  <polyline
     id="polyline84"
     style="fill:none;stroke:#000000;stroke-width:32;stroke-linecap:butt;stroke-linejoin:miter;marker-end:url(#Arrow2Lend)"
     points="4771,2598 5049,2598 " />
  <polyline
     id="polyline88"
     style="fill:none;stroke:#000000;stroke-width:32;stroke-linecap:butt;stroke-linejoin:miter;marker-end:url(#Arrow2Lend)"
     points="4818,4488 6656,4488 " />
  <polyline
     id="polyline92"
     style="fill:none;stroke:#000000;stroke-width:32;stroke-linecap:butt;stroke-linejoin:miter;marker-end:url(#Arrow2Lend)"
     points="4818,4960 7506,4960 " />
  <polyline
     id="polyline96"
     style="fill:none;stroke:#0000ff;stroke-width:48;stroke-linecap:butt;stroke-linejoin:miter;stroke-dasharray:41, 41"
     points="4771,1795 4771,4960 " />
  <polyline
     id="polyline98"
     style="fill:none;stroke:#0000ff;stroke-width:32.00625356;stroke-linecap:butt;stroke-linejoin:bevel;stroke-dasharray:32.00625356,32.00625356;stroke-miterlimit:4;stroke-dashoffset:0"
     points="1984,6614 1985,6615 1987,6618 1992,6623 2000,6633 2010,6645 2024,6662 2041,6683 2062,6708 2088,6738 2115,6770 2145,6807 2179,6847 2214,6888 2250,6932 2288,6976 2326,7021 2365,7067 2403,7112 2439,7156 2476,7200 2512,7241 2546,7282 2580,7322 2613,7361 2644,7398 2675,7434 2704,7467 2732,7501 2761,7533 2788,7565 2814,7595 2840,7625 2866,7655 2892,7685 2917,7713 2942,7742 2969,7772 2994,7800 3020,7829 3046,7859 3072,7889 3100,7919 3127,7949 3154,7981 3183,8012 3211,8044 3240,8076 3270,8108 3299,8141 3329,8174 3359,8207 3390,8241 3420,8275 3451,8308 3482,8342 3512,8375 3543,8409 3573,8443 3604,8475 3634,8508 3664,8540 3693,8572 3721,8602 3750,8634 3777,8663 3804,8692 3830,8721 3857,8749 3882,8776 3907,8804 3931,8829 3954,8855 3977,8880 4001,8904 4024,8929 4049,8957 4075,8984 4100,9012 4125,9039 4152,9066 4177,9093 4202,9122 4228,9150 4256,9179 4283,9209 4312,9239 4342,9271 4372,9303 4403,9337 4435,9372 4468,9406 4501,9442 4534,9478 4567,9513 4599,9547 4629,9580 4658,9610 4683,9637 4706,9662 4725,9682 4741,9699 4753,9712 4762,9721 4767,9728 4770,9731 4771,9732 " />
  <polyline
     id="polyline100"
     style="fill:none;stroke:#0000ff;stroke-width:32.00000016;stroke-linecap:butt;stroke-linejoin:bevel;stroke-dasharray:32.00000016,32.00000016;stroke-miterlimit:4;stroke-dashoffset:0"
     points="8598,6614 8597,6616 8595,6620 8591,6627 8583,6639 8574,6656 8561,6678 8545,6706 8527,6739 8504,6777 8480,6819 8454,6867 8426,6916 8397,6969 8368,7022 8338,7077 8308,7132 8279,7186 8251,7239 8224,7291 8198,7341 8174,7391 8151,7437 8130,7482 8110,7525 8092,7566 8074,7606 8059,7644 8045,7680 8032,7715 8019,7750 8009,7783 8000,7817 7991,7848 7983,7881 7976,7913 7969,7949 7963,7985 7958,8020 7953,8057 7950,8093 7947,8130 7946,8167 7945,8205 7945,8243 7945,8281 7947,8320 7949,8358 7952,8396 7956,8435 7962,8474 7967,8512 7973,8550 7980,8587 7988,8624 7995,8660 8004,8696 8013,8730 8023,8765 8032,8797 8041,8830 8052,8860 8062,8891 8073,8920 8083,8950 8095,8977 8107,9004 8118,9032 8131,9061 8144,9090 8159,9120 8174,9148 8188,9177 8205,9207 8222,9236 8241,9268 8261,9299 8282,9333 8304,9366 8327,9402 8352,9439 8379,9476 8405,9513 8432,9551 8458,9589 8483,9625 8509,9657 8531,9688 8550,9714 8565,9736 8578,9753 8587,9765 8594,9773 8597,9777 8598,9779 " />
  <polyline
     id="polyline102"
     style="fill:none;stroke:#0000ff;stroke-width:48.00000023;stroke-linecap:butt;stroke-linejoin:bevel;stroke-dasharray:48.00000023,48.00000023;marker-start:none;stroke-miterlimit:4;stroke-dashoffset:0"
     points="4771,1795 4772,1797 4773,1801 4776,1808 4781,1820 4787,1837 4795,1859 4806,1887 4818,1920 4832,1959 4849,2001 4867,2048 4886,2097 4906,2150 4927,2203 4948,2258 4970,2313 4991,2367 5012,2420 5033,2472 5054,2522 5074,2572 5092,2618 5112,2663 5130,2706 5149,2747 5167,2787 5184,2825 5202,2861 5218,2896 5235,2931 5252,2964 5270,2998 5287,3029 5304,3062 5322,3095 5340,3126 5359,3158 5378,3190 5398,3222 5418,3254 5439,3287 5460,3319 5482,3353 5505,3386 5528,3420 5552,3454 5576,3487 5603,3522 5628,3555 5654,3590 5681,3624 5709,3658 5737,3692 5765,3725 5794,3758 5822,3792 5851,3823 5881,3855 5909,3886 5939,3917 5968,3946 5997,3975 6027,4004 6056,4031 6085,4057 6114,4083 6143,4109 6172,4134 6201,4158 6230,4181 6260,4204 6289,4227 6319,4249 6349,4271 6381,4293 6413,4314 6446,4337 6480,4359 6516,4381 6554,4403 6593,4426 6633,4449 6676,4473 6721,4497 6767,4522 6816,4549 6867,4575 6919,4601 6974,4629 7028,4657 7084,4684 7140,4712 7195,4739 7249,4765 7299,4789 7348,4812 7391,4833 7430,4852 7464,4869 7492,4881 7516,4893 7532,4900 7545,4907 7552,4910 7556,4912 7559,4913 " />
  <polyline
     id="polyline104"
     style="fill:none;stroke:#ff0000;stroke-width:40.17521368;stroke-linecap:butt;stroke-linejoin:bevel;stroke-miterlimit:4;stroke-dasharray:321.4017094,40.17521368;stroke-dashoffset:0"
     points="944,1181 945,1181 950,1182 956,1183 966,1186 981,1189 1001,1193 1026,1198 1058,1206 1095,1214 1137,1224 1185,1234 1238,1246 1297,1258 1359,1272 1425,1287 1495,1301 1566,1317 1639,1333 1713,1349 1787,1364 1862,1380 1935,1396 2008,1412 2079,1426 2150,1441 2218,1456 2284,1469 2349,1482 2412,1495 2472,1507 2532,1519 2588,1529 2644,1540 2698,1550 2750,1560 2802,1569 2851,1577 2900,1586 2949,1594 2996,1602 3043,1609 3089,1616 3135,1624 3182,1631 3228,1637 3274,1644 3320,1650 3366,1656 3414,1662 3461,1669 3509,1674 3556,1680 3606,1686 3655,1691 3704,1697 3756,1702 3806,1708 3858,1712 3910,1717 3964,1722 4016,1727 4071,1732 4124,1736 4179,1740 4235,1744 4289,1749 4345,1752 4401,1756 4456,1759 4512,1762 4567,1766 4623,1769 4679,1772 4734,1775 4789,1777 4844,1779 4898,1781 4952,1783 5005,1785 5058,1786 5110,1788 5162,1790 5213,1791 5265,1792 5315,1793 5365,1794 5416,1794 5465,1794 5514,1795 5564,1795 5614,1795 5659,1795 5704,1795 5751,1795 5797,1794 5844,1794 5891,1793 5939,1793 5987,1792 6035,1792 6085,1791 6135,1791 6185,1790 6237,1788 6288,1787 6341,1787 6393,1786 6448,1785 6501,1784 6556,1784 6612,1783 6666,1783 6723,1782 6779,1782 6835,1781 6892,1781 6949,1781 7006,1780 7063,1780 7120,1780 7177,1781 7234,1781 7291,1781 7348,1782 7404,1783 7460,1783 7516,1784 7571,1786 7627,1787 7681,1788 7736,1791 7790,1793 7844,1795 7898,1797 7950,1799 8004,1802 8056,1804 8109,1807 8162,1812 8215,1815 8267,1818 8267,1819 8317,1822 8366,1826 8415,1830 8465,1835 8516,1840 8566,1844 8619,1849 8671,1856 8725,1862 8781,1868 8836,1875 8894,1882 8953,1889 9014,1898 9076,1905 9140,1914 9206,1924 9274,1933 9344,1944 9417,1954 9490,1965 9567,1976 9645,1989 9725,2002 9806,2014 9890,2027 9975,2040 10060,2054 10148,2068 10234,2082 10321,2096 10407,2111 10492,2124 10576,2138 10657,2152 10735,2165 10810,2178 10881,2190 10949,2201 11011,2212 11067,2221 11119,2229 11164,2238 11204,2244 11237,2250 11266,2255 11289,2259 11306,2262 11319,2264 11329,2265 11334,2266 11337,2267 11338,2267 " />
  <text
     style="font-size:416px;font-style:italic;font-weight:bold;text-anchor:start;fill:#000000;stroke-width:0.025in;font-family:Times"
     id="text106"
     font-size="416"
     font-weight="bold"
     font-style="italic"
     y="5419.0791"
     x="5443.8892"
     xml:space="preserve">$U$</text>
  <text
     style="font-size:454px;font-style:normal;font-weight:bold;text-anchor:start;fill:#000000;stroke-width:0.025in;font-family:Times"
     id="text108"
     font-size="454"
     font-weight="bold"
     font-style="normal"
     y="10488"
     x="2362"
     xml:space="preserve">Couette</text>
  <text
     style="font-size:441px;font-style:normal;font-weight:bold;text-anchor:start;fill:#000000;stroke-width:0.025in;font-family:Times"
     id="text110"
     font-size="441"
     font-weight="bold"
     font-style="normal"
     y="10488"
     x="7795"
     xml:space="preserve">Poiseuille</text>
  <text
     xml:space="preserve"
     style="font-size:535.66949463px;font-style:normal;font-weight:normal;line-height:125%;letter-spacing:0px;word-spacing:0px;fill:#000000;fill-opacity:1;stroke:none;font-family:Sans"
     x="6162.0137"
     y="1489.4263"
     id="text3153"
     sodipodi:linespacing="125%"><tspan
       sodipodi:role="line"
       id="tspan3155"
       x="6162.0137"
       y="1489.4263">$h(x)$</tspan></text>
  <path
     style="fill:none;stroke:#000000;stroke-width:1px;stroke-linecap:butt;stroke-linejoin:miter;stroke-opacity:1;marker-start:url(#Arrow2Lstart);marker-end:url(#Arrow2Lend)"
     d="m 151.70339,420.90254 211.19492,-82.54449 165.08898,89.23729"
     id="path3925"
     inkscape:connector-curvature="0"
     transform="matrix(13.391738,0,0,13.391738,838.37179,1102)" />
</svg>
