<?xml version="1.0" encoding="UTF-8" standalone="no"?>
<!-- Created with Inkscape (http://www.inkscape.org/) -->

<svg
   xmlns:dc="http://purl.org/dc/elements/1.1/"
   xmlns:cc="http://creativecommons.org/ns#"
   xmlns:rdf="http://www.w3.org/1999/02/22-rdf-syntax-ns#"
   xmlns:svg="http://www.w3.org/2000/svg"
   xmlns="http://www.w3.org/2000/svg"
   xmlns:sodipodi="http://sodipodi.sourceforge.net/DTD/sodipodi-0.dtd"
   xmlns:inkscape="http://www.inkscape.org/namespaces/inkscape"
   id="svg2"
   version="1.1"
   inkscape:version="0.48.5 r10040"
   width="439.02344"
   height="231.6041"
   xml:space="preserve"
   sodipodi:docname="mass_cons_half_sommerfeld.pdf"><metadata
     id="metadata8"><rdf:RDF><cc:Work
         rdf:about=""><dc:format>image/svg+xml</dc:format><dc:type
           rdf:resource="http://purl.org/dc/dcmitype/StillImage" /><dc:title></dc:title></cc:Work></rdf:RDF></metadata><defs
     id="defs6"><marker
       inkscape:stockid="Arrow1Mend"
       orient="auto"
       refY="0"
       refX="0"
       id="Arrow1Mend"
       style="overflow:visible"><path
         id="path10908"
         d="M 0,0 5,-5 -12.5,0 5,5 0,0 z"
         style="fill-rule:evenodd;stroke:#000000;stroke-width:1pt"
         transform="matrix(-0.4,0,0,-0.4,-4,0)"
         inkscape:connector-curvature="0" /></marker><clipPath
       clipPathUnits="userSpaceOnUse"
       id="clipPath18"><path
         d="m 0,2 4260,0 0,3097 L 0,3099 0,2 z"
         id="path20"
         inkscape:connector-curvature="0" /></clipPath><clipPath
       clipPathUnits="userSpaceOnUse"
       id="clipPath206"><path
         d="m 464,283.199 3438,0 0,2721.6 -3438,0 0,-2721.6 z"
         id="path208"
         inkscape:connector-curvature="0" /></clipPath><clipPath
       clipPathUnits="userSpaceOnUse"
       id="clipPath218"><path
         d="m 0,2 4260,0 0,3097 L 0,3099 0,2 z"
         id="path220"
         inkscape:connector-curvature="0" /></clipPath><clipPath
       clipPathUnits="userSpaceOnUse"
       id="clipPath362"><path
         d="m 464,283.199 3438,0 0,2721.6 -3438,0 0,-2721.6 z"
         id="path364"
         inkscape:connector-curvature="0" /></clipPath><clipPath
       clipPathUnits="userSpaceOnUse"
       id="clipPath374"><path
         d="m 0,2 4260,0 0,3097 L 0,3099 0,2 z"
         id="path376"
         inkscape:connector-curvature="0" /></clipPath></defs><sodipodi:namedview
     pagecolor="#ffffff"
     bordercolor="#666666"
     borderopacity="1"
     objecttolerance="10"
     gridtolerance="10"
     guidetolerance="10"
     inkscape:pageopacity="0"
     inkscape:pageshadow="2"
     inkscape:window-width="1920"
     inkscape:window-height="1025"
     id="namedview4"
     showgrid="false"
     inkscape:zoom="6.8904136"
     inkscape:cx="245.29903"
     inkscape:cy="104.05203"
     inkscape:window-x="1918"
     inkscape:window-y="-3"
     inkscape:window-maximized="1"
     inkscape:current-layer="g10"
     fit-margin-top="0"
     fit-margin-left="0"
     fit-margin-right="0"
     fit-margin-bottom="0" /><g
     id="g10"
     inkscape:groupmode="layer"
     inkscape:label="ink_ext_XXXXXX"
     transform="matrix(1.25,0,0,-1.25,-53.4375,320.07917)"><path
       inkscape:connector-curvature="0"
       id="path26"
       style="fill:none;stroke:#000000;stroke-width:0.8177709;stroke-linecap:butt;stroke-linejoin:round;stroke-miterlimit:10;stroke-opacity:1;stroke-dasharray:none"
       d="m 46.393975,74.508779 343.915465,0 0,180.169061 -343.915465,0 0,-180.169061 z" /><path
       style="fill:none;stroke:#0000ff;stroke-width:1.20000005;stroke-linecap:butt;stroke-linejoin:round;stroke-miterlimit:10;stroke-opacity:1;stroke-dasharray:none"
       d="m 46.4,164.76 c 2.547191,2.65927 5.654051,4.65048 8.479602,6.93795 3.460633,3.57219 7.665886,6.28895 11.108521,9.88166 3.135285,2.68494 6.151155,5.51118 9.117973,8.36973 5.51213,5.06885 10.777848,10.40584 16.120137,15.65177 2.595682,2.34501 5.013587,4.90497 7.544977,7.34345 2.71764,2.29618 4.93311,5.16982 7.76898,7.3441 3.6377,4.00646 8.07824,7.16297 11.86964,11.00514 2.69309,2.2034 5.52057,4.2279 8.23844,6.39082 3.16098,2.02594 6.09302,4.39217 9.50275,6.01416 3.28899,1.37822 6.53976,3.04028 9.96815,4.0078 3.52138,0.68394 7.11667,1.26811 10.69192,0.60606 4.22591,-0.54558 8.21521,-2.31927 11.81887,-4.5252 3.80457,-2.53125 7.34339,-5.51409 10.33807,-8.97894 4.99821,-5.47895 9.06627,-11.72123 13.05473,-17.95047 3.07367,-5.21013 6.06158,-10.47829 8.64862,-15.95086 1.41868,-2.50803 2.85377,-5.02609 3.84011,-7.73638 2.72848,-4.96805 4.75636,-10.27401 7.5005,-15.235 0.88919,-2.60825 2.38322,-4.96987 3.37794,-7.52952 2.64966,-5.60732 4.95137,-11.37765 7.73671,-16.92482 1.81363,-4.38154 4.22948,-8.48603 6.0307,-12.87603 1.66996,-2.90269 2.8967,-6.03282 4.4053,-9.00591 2.40389,-4.27363 4.36354,-8.76895 6.84908,-12.99867 1.53058,-2.65111 3.05622,-5.29394 4.64249,-7.90436 3.42824,-4.95922 6.62379,-10.1061 10.64325,-14.623005 3.07889,-3.730018 6.70335,-6.980777 10.65194,-9.757281 6.01997,-4.057463 13.52118,-6.39817 20.76985,-4.973462 3.2013,0.448518 6.24052,1.508613 9.10204,3.005146 5.37327,1.849287 9.91408,5.372846 14.51219,8.597929 2.79937,2.417898 6.03804,4.338125 8.60953,7.045073 2.78565,2.7191 5.96469,5.01798 8.63702,7.86323 4.42214,4.00266 8.59206,8.28068 12.88456,12.41257 3.86639,3.66248 7.55525,7.50826 11.44479,11.14715 2.06893,2.26468 4.53257,4.16407 6.48468,6.54164 3.65857,2.81188 6.66596,6.36832 10.27591,9.24877 3.23612,3.08565 6.65844,5.95607 10.10221,8.807 2.31961,2.87579 5.83413,4.38101 8.38697,7.0193 0.73275,0.61115 1.49028,1.19338 2.27985,1.72946"
       id="path212"
       inkscape:connector-curvature="0" /><path
       style="fill:none;stroke:#0000ff;stroke-width:1.5;stroke-linecap:butt;stroke-linejoin:miter;stroke-miterlimit:4;stroke-opacity:1;stroke-dasharray:1.5, 3;stroke-dashoffset:0"
       d="m 343.37315,185.67532 215.14751,0"
       id="path10117"
       inkscape:connector-curvature="0"
       transform="matrix(0.8,0,0,-0.8,-57,313.40625)"
       sodipodi:nodetypes="cc" /><text
       xml:space="preserve"
       style="font-size:5.87881279px;font-style:normal;font-weight:normal;line-height:125%;letter-spacing:0px;word-spacing:0px;fill:#000000;fill-opacity:1;stroke:none;font-family:Sans"
       x="265.61346"
       y="-169.45047"
       id="text10889"
       sodipodi:linespacing="125%"
       transform="scale(1,-1)"><tspan
         sodipodi:role="line"
         id="tspan10891"
         x="265.61346"
         y="-169.45047">Half-Sommerfeld</tspan></text>
<text
       transform="scale(1,-1)"
       sodipodi:linespacing="125%"
       id="text11339"
       y="-240.50572"
       x="200.13118"
       style="font-size:5.87881279px;font-style:normal;font-weight:normal;line-height:125%;letter-spacing:0px;word-spacing:0px;fill:#000000;fill-opacity:1;stroke:none;font-family:Sans"
       xml:space="preserve"><tspan
         y="-240.50572"
         x="200.13118"
         id="tspan11341"
         sodipodi:role="line">Reynolds equation solution</tspan></text>
<path
       inkscape:connector-curvature="0"
       id="path11480"
       d="M 231.8651,237.37861 195.17645,217.40884"
       style="fill:none;stroke:#000000;stroke-width:0.80000001px;stroke-linecap:butt;stroke-linejoin:miter;stroke-opacity:1;marker-end:url(#Arrow1Mend)"
       sodipodi:nodetypes="cc" /><text
       xml:space="preserve"
       style="font-size:5.12682295px;font-style:normal;font-weight:normal;line-height:125%;letter-spacing:0px;word-spacing:0px;fill:#000000;fill-opacity:1;stroke:none;font-family:Sans"
       x="130.43274"
       y="-189.65302"
       id="text11501"
       sodipodi:linespacing="125%"
       transform="scale(1,-1)"><tspan
         sodipodi:role="line"
         id="tspan11503"
         x="130.43274"
         y="-189.65302">$\parder{p}{x}\leq 0$</tspan></text>
<path
       sodipodi:nodetypes="cc"
       style="fill:none;stroke:#000000;stroke-width:0.80000001px;stroke-linecap:butt;stroke-linejoin:miter;stroke-opacity:1;marker-end:url(#Arrow1Mend)"
       d="m 163.13192,183.04225 48.76341,-13.9324"
       id="path11543"
       inkscape:connector-curvature="0" /><text
       transform="scale(1,-1)"
       sodipodi:linespacing="125%"
       id="text11545"
       y="-141.61166"
       x="268.4144"
       style="font-size:5.12682295px;font-style:normal;font-weight:normal;line-height:125%;letter-spacing:0px;word-spacing:0px;fill:#000000;fill-opacity:1;stroke:none;font-family:Sans"
       xml:space="preserve"><tspan
         y="-141.61166"
         x="268.4144"
         id="tspan11547"
         sodipodi:role="line">$\parder{p}{x}\leq 0$</tspan></text>
<path
       inkscape:connector-curvature="0"
       id="path11549"
       d="m 263.75677,144.21851 -35.29542,17.64771"
       style="fill:none;stroke:#000000;stroke-width:0.80000001px;stroke-linecap:butt;stroke-linejoin:miter;stroke-opacity:1;marker-end:url(#Arrow1Mend)"
       sodipodi:nodetypes="cc" /><text
       xml:space="preserve"
       style="font-size:8.43971348px;font-style:normal;font-weight:normal;line-height:125%;letter-spacing:0px;word-spacing:0px;fill:#000000;fill-opacity:1;stroke:none;font-family:Sans"
       x="203.79269"
       y="-124.79961"
       id="text11627"
       sodipodi:linespacing="125%"
       transform="scale(1,-1)"><tspan
         sodipodi:role="line"
         id="tspan11629"
         x="203.79269"
         y="-124.79961">$x$=$\zeta$</tspan></text>
<path
       style="fill:none;stroke:#000000;stroke-width:0.80000001;stroke-linecap:butt;stroke-linejoin:miter;stroke-miterlimit:4;stroke-opacity:1;stroke-dasharray:0.8, 1.6;stroke-dashoffset:0"
       d="m 217.9499,165.05597 0,-31.56897"
       id="path11669"
       inkscape:connector-curvature="0"
       sodipodi:nodetypes="cc" /></g></svg>