<?xml version="1.0" encoding="UTF-8" standalone="no"?>
<!-- Created with Inkscape (http://www.inkscape.org/) -->

<svg
   xmlns:dc="http://purl.org/dc/elements/1.1/"
   xmlns:cc="http://creativecommons.org/ns#"
   xmlns:rdf="http://www.w3.org/1999/02/22-rdf-syntax-ns#"
   xmlns:svg="http://www.w3.org/2000/svg"
   xmlns="http://www.w3.org/2000/svg"
   xmlns:sodipodi="http://sodipodi.sourceforge.net/DTD/sodipodi-0.dtd"
   xmlns:inkscape="http://www.inkscape.org/namespaces/inkscape"
   id="svg2"
   version="1.1"
   inkscape:version="0.48.5 r10040"
   width="731.44531"
   height="405.19531"
   xml:space="preserve"
   sodipodi:docname="numerical_pocket_both_models.pdf"><metadata
     id="metadata8"><rdf:RDF><cc:Work
         rdf:about=""><dc:format>image/svg+xml</dc:format><dc:type
           rdf:resource="http://purl.org/dc/dcmitype/StillImage" /><dc:title></dc:title></cc:Work></rdf:RDF></metadata><defs
     id="defs6"><clipPath
       clipPathUnits="userSpaceOnUse"
       id="clipPath208"><path
         d="m 532.5,358.332 3472.5,0 0,2740 -3472.5,0 0,-2740 z"
         id="path210"
         inkscape:connector-curvature="0" /></clipPath><clipPath
       clipPathUnits="userSpaceOnUse"
       id="clipPath236"><path
         d="m 532.5,358.332 3472.5,0 0,2740 -3472.5,0 0,-2740 z"
         id="path238"
         inkscape:connector-curvature="0" /></clipPath><clipPath
       clipPathUnits="userSpaceOnUse"
       id="clipPath306"><path
         d="m 6,5 5034,0 0,3995 L 6,4000 6,5 z"
         id="path308-8"
         inkscape:connector-curvature="0" /></clipPath></defs><sodipodi:namedview
     pagecolor="#ffffff"
     bordercolor="#666666"
     borderopacity="1"
     objecttolerance="10"
     gridtolerance="10"
     guidetolerance="10"
     inkscape:pageopacity="0"
     inkscape:pageshadow="2"
     inkscape:window-width="1920"
     inkscape:window-height="1025"
     id="namedview4"
     showgrid="false"
     inkscape:zoom="1.4609134"
     inkscape:cx="192.72539"
     inkscape:cy="240.75037"
     inkscape:window-x="-2"
     inkscape:window-y="-3"
     inkscape:window-maximized="1"
     inkscape:current-layer="g10"
     fit-margin-top="0"
     fit-margin-left="0"
     fit-margin-right="0"
     fit-margin-bottom="0" /><g
     id="g10"
     inkscape:groupmode="layer"
     inkscape:label="ink_ext_XXXXXX"
     transform="matrix(1.25,0,0,-1.25,105.19531,404.92187)"><path
       inkscape:connector-curvature="0"
       id="path18"
       style="fill:none;stroke:#ffffff;stroke-width:0.5;stroke-linecap:butt;stroke-linejoin:round;stroke-miterlimit:10;stroke-opacity:1;stroke-dasharray:none"
       d="m 53.25,35.9168 347.167,0 0,273.916 -347.167,0 0,-273.916 z" /><path
       inkscape:connector-curvature="0"
       id="path20"
       style="fill:none;stroke:#000000;stroke-width:0.60000002;stroke-linecap:round;stroke-linejoin:round;stroke-miterlimit:10;stroke-opacity:1;stroke-dasharray:0, 4;stroke-dashoffset:0"
       d="m 82.1668,35.9168 0,273.9162" /><path
       inkscape:connector-curvature="0"
       id="path22"
       style="fill:none;stroke:#000000;stroke-width:0.33333299;stroke-linecap:round;stroke-linejoin:round;stroke-miterlimit:10;stroke-opacity:1;stroke-dasharray:0, 4;stroke-dashoffset:0"
       d="m 82.1668,309.833 0,0" /><path
       inkscape:connector-curvature="0"
       id="path24"
       style="fill:none;stroke:#000000;stroke-width:0.60000002;stroke-linecap:round;stroke-linejoin:round;stroke-miterlimit:10;stroke-opacity:1;stroke-dasharray:0, 4;stroke-dashoffset:0"
       d="m 140,35.9168 0,273.9162" /><path
       inkscape:connector-curvature="0"
       id="path26"
       style="fill:none;stroke:#000000;stroke-width:0.33333299;stroke-linecap:round;stroke-linejoin:round;stroke-miterlimit:10;stroke-opacity:1;stroke-dasharray:0, 4;stroke-dashoffset:0"
       d="m 140,309.833 0,0" /><path
       inkscape:connector-curvature="0"
       id="path28"
       style="fill:none;stroke:#000000;stroke-width:0.60000002;stroke-linecap:round;stroke-linejoin:round;stroke-miterlimit:10;stroke-opacity:1;stroke-dasharray:0, 4;stroke-dashoffset:0"
       d="m 197.833,35.9168 0,273.9162" /><path
       inkscape:connector-curvature="0"
       id="path30"
       style="fill:none;stroke:#000000;stroke-width:0.33333299;stroke-linecap:round;stroke-linejoin:round;stroke-miterlimit:10;stroke-opacity:1;stroke-dasharray:0, 4;stroke-dashoffset:0"
       d="m 197.833,309.833 0,0" /><path
       inkscape:connector-curvature="0"
       id="path32"
       style="fill:none;stroke:#000000;stroke-width:0.60000002;stroke-linecap:round;stroke-linejoin:round;stroke-miterlimit:10;stroke-opacity:1;stroke-dasharray:0, 4;stroke-dashoffset:0"
       d="m 255.75,35.9168 0,273.9162" /><path
       inkscape:connector-curvature="0"
       id="path34"
       style="fill:none;stroke:#000000;stroke-width:0.33333299;stroke-linecap:round;stroke-linejoin:round;stroke-miterlimit:10;stroke-opacity:1;stroke-dasharray:0, 4;stroke-dashoffset:0"
       d="m 255.75,309.833 0,0" /><path
       inkscape:connector-curvature="0"
       id="path36"
       style="fill:none;stroke:#000000;stroke-width:0.60000002;stroke-linecap:round;stroke-linejoin:round;stroke-miterlimit:10;stroke-opacity:1;stroke-dasharray:0, 4;stroke-dashoffset:0"
       d="m 313.583,35.9168 0,273.9162" /><path
       inkscape:connector-curvature="0"
       id="path38"
       style="fill:none;stroke:#000000;stroke-width:0.33333299;stroke-linecap:round;stroke-linejoin:round;stroke-miterlimit:10;stroke-opacity:1;stroke-dasharray:0, 4;stroke-dashoffset:0"
       d="m 313.583,309.833 0,0" /><path
       inkscape:connector-curvature="0"
       id="path40"
       style="fill:none;stroke:#000000;stroke-width:0.60000002;stroke-linecap:round;stroke-linejoin:round;stroke-miterlimit:10;stroke-opacity:1;stroke-dasharray:0, 4;stroke-dashoffset:0"
       d="m 371.417,35.9168 0,273.9162" /><path
       inkscape:connector-curvature="0"
       id="path42"
       style="fill:none;stroke:#000000;stroke-width:0.33333299;stroke-linecap:round;stroke-linejoin:round;stroke-miterlimit:10;stroke-opacity:1;stroke-dasharray:0, 4;stroke-dashoffset:0"
       d="m 371.417,309.833 0,0" /><path
       inkscape:connector-curvature="0"
       id="path44"
       style="fill:none;stroke:#000000;stroke-width:0.33333299;stroke-linecap:round;stroke-linejoin:round;stroke-miterlimit:10;stroke-opacity:1;stroke-dasharray:0, 4;stroke-dashoffset:0"
       d="m 53.25,35.9168 347.167,0" /><path
       inkscape:connector-curvature="0"
       id="path46"
       style="fill:none;stroke:#000000;stroke-width:0.33333299;stroke-linecap:round;stroke-linejoin:round;stroke-miterlimit:10;stroke-opacity:1;stroke-dasharray:0, 4;stroke-dashoffset:0"
       d="m 400.417,35.9168 0,0" /><path
       inkscape:connector-curvature="0"
       id="path48"
       style="fill:none;stroke:#000000;stroke-width:0.60000002;stroke-linecap:round;stroke-linejoin:round;stroke-miterlimit:10;stroke-opacity:1;stroke-dasharray:0, 4;stroke-dashoffset:0"
       d="m 53.25,70.1668 347.167,0" /><path
       inkscape:connector-curvature="0"
       id="path50"
       style="fill:none;stroke:#000000;stroke-width:0.33333299;stroke-linecap:round;stroke-linejoin:round;stroke-miterlimit:10;stroke-opacity:1;stroke-dasharray:0, 4;stroke-dashoffset:0"
       d="m 400.417,70.1668 0,0" /><path
       inkscape:connector-curvature="0"
       id="path52"
       style="fill:none;stroke:#000000;stroke-width:0.33333299;stroke-linecap:round;stroke-linejoin:round;stroke-miterlimit:10;stroke-opacity:1;stroke-dasharray:0, 4;stroke-dashoffset:0"
       d="m 53.25,104.417 347.167,0" /><path
       inkscape:connector-curvature="0"
       id="path54"
       style="fill:none;stroke:#000000;stroke-width:0.33333299;stroke-linecap:round;stroke-linejoin:round;stroke-miterlimit:10;stroke-opacity:1;stroke-dasharray:0, 4;stroke-dashoffset:0"
       d="m 400.417,104.417 0,0" /><path
       inkscape:connector-curvature="0"
       id="path56"
       style="fill:none;stroke:#000000;stroke-width:0.60000002;stroke-linecap:round;stroke-linejoin:round;stroke-miterlimit:10;stroke-opacity:1;stroke-dasharray:0, 4;stroke-dashoffset:0"
       d="m 53.25,138.667 347.167,0" /><path
       inkscape:connector-curvature="0"
       id="path58"
       style="fill:none;stroke:#000000;stroke-width:0.33333299;stroke-linecap:round;stroke-linejoin:round;stroke-miterlimit:10;stroke-opacity:1;stroke-dasharray:0, 4;stroke-dashoffset:0"
       d="m 400.417,138.667 0,0" /><path
       inkscape:connector-curvature="0"
       id="path60"
       style="fill:none;stroke:#000000;stroke-width:0.60000002;stroke-linecap:round;stroke-linejoin:round;stroke-miterlimit:10;stroke-opacity:1;stroke-dasharray:0, 4;stroke-dashoffset:0"
       d="m 53.25,172.917 347.167,0" /><path
       inkscape:connector-curvature="0"
       id="path62"
       style="fill:none;stroke:#000000;stroke-width:0.33333299;stroke-linecap:round;stroke-linejoin:round;stroke-miterlimit:10;stroke-opacity:1;stroke-dasharray:0, 4;stroke-dashoffset:0"
       d="m 400.417,172.917 0,0" /><path
       inkscape:connector-curvature="0"
       id="path64"
       style="fill:none;stroke:#000000;stroke-width:0.60000002;stroke-linecap:round;stroke-linejoin:round;stroke-miterlimit:10;stroke-opacity:1;stroke-dasharray:0, 4;stroke-dashoffset:0"
       d="m 53.25,207.167 347.167,0" /><path
       inkscape:connector-curvature="0"
       id="path66"
       style="fill:none;stroke:#000000;stroke-width:0.33333299;stroke-linecap:round;stroke-linejoin:round;stroke-miterlimit:10;stroke-opacity:1;stroke-dasharray:0, 4;stroke-dashoffset:0"
       d="m 400.417,207.167 0,0" /><path
       inkscape:connector-curvature="0"
       id="path68"
       style="fill:none;stroke:#000000;stroke-width:0.60000002;stroke-linecap:round;stroke-linejoin:round;stroke-miterlimit:10;stroke-opacity:1;stroke-dasharray:0, 4;stroke-dashoffset:0"
       d="m 53.25,241.417 347.167,0" /><path
       inkscape:connector-curvature="0"
       id="path70"
       style="fill:none;stroke:#000000;stroke-width:0.33333299;stroke-linecap:round;stroke-linejoin:round;stroke-miterlimit:10;stroke-opacity:1;stroke-dasharray:0, 4;stroke-dashoffset:0"
       d="m 400.417,241.417 0,0" /><path
       inkscape:connector-curvature="0"
       id="path72"
       style="fill:none;stroke:#000000;stroke-width:0.60000002;stroke-linecap:round;stroke-linejoin:round;stroke-miterlimit:10;stroke-opacity:1;stroke-dasharray:0, 4;stroke-dashoffset:0"
       d="m 53.25,275.667 347.167,0" /><path
       inkscape:connector-curvature="0"
       id="path74"
       style="fill:none;stroke:#000000;stroke-width:0.33333299;stroke-linecap:round;stroke-linejoin:round;stroke-miterlimit:10;stroke-opacity:1;stroke-dasharray:0, 4;stroke-dashoffset:0"
       d="m 400.417,275.667 0,0" /><path
       inkscape:connector-curvature="0"
       id="path76"
       style="fill:none;stroke:#000000;stroke-width:0.60000002;stroke-linecap:round;stroke-linejoin:round;stroke-miterlimit:10;stroke-opacity:1;stroke-dasharray:0, 4;stroke-dashoffset:0"
       d="m 53.25,309.833 347.167,0" /><path
       inkscape:connector-curvature="0"
       id="path78"
       style="fill:none;stroke:#000000;stroke-width:0.33333299;stroke-linecap:round;stroke-linejoin:round;stroke-miterlimit:10;stroke-opacity:1;stroke-dasharray:0, 4;stroke-dashoffset:0"
       d="m 400.417,309.833 0,0" /><path
       inkscape:connector-curvature="0"
       id="path80"
       style="fill:none;stroke:#000000;stroke-width:0.5;stroke-linecap:butt;stroke-linejoin:round;stroke-miterlimit:10;stroke-opacity:1;stroke-dasharray:none"
       d="m 53.25,35.9168 347.167,0" /><path
       inkscape:connector-curvature="0"
       id="path82"
       style="fill:none;stroke:#000000;stroke-width:0.5;stroke-linecap:butt;stroke-linejoin:round;stroke-miterlimit:10;stroke-opacity:1;stroke-dasharray:none"
       d="m 53.25,35.9168 0,273.9162" /><path
       inkscape:connector-curvature="0"
       id="path84"
       style="fill:none;stroke:#000000;stroke-width:0.5;stroke-linecap:butt;stroke-linejoin:round;stroke-miterlimit:10;stroke-opacity:1;stroke-dasharray:none"
       d="m 82.1668,35.9168 0,3.5" /><text
       transform="scale(1,-1)"
       id="text88"
       x="78.333199"
       y="-20.0832"><tspan
         style="font-size:14px;font-variant:normal;font-weight:normal;writing-mode:lr-tb;fill:#000000;fill-opacity:1;fill-rule:nonzero;stroke:none;font-family:Helvetica;-inkscape-font-specification:Helvetica"
         x="78.333199"
         y="-20.0832"
         id="tspan90">0</tspan></text>
<path
       inkscape:connector-curvature="0"
       id="path92"
       style="fill:none;stroke:#000000;stroke-width:0.5;stroke-linecap:butt;stroke-linejoin:round;stroke-miterlimit:10;stroke-opacity:1;stroke-dasharray:none"
       d="m 140,35.9168 0,3.5" /><text
       transform="scale(1,-1)"
       id="text96"
       x="130.33299"
       y="-20.0832"><tspan
         style="font-size:14px;font-variant:normal;font-weight:normal;writing-mode:lr-tb;fill:#000000;fill-opacity:1;fill-rule:nonzero;stroke:none;font-family:Helvetica;-inkscape-font-specification:Helvetica"
         x="130.33299 138.117 142.009"
         y="-20.0832"
         sodipodi:role="line"
         id="tspan98">0.2</tspan></text>
<path
       inkscape:connector-curvature="0"
       id="path100"
       style="fill:none;stroke:#000000;stroke-width:0.5;stroke-linecap:butt;stroke-linejoin:round;stroke-miterlimit:10;stroke-opacity:1;stroke-dasharray:none"
       d="m 197.833,35.9168 0,3.5" /><text
       transform="scale(1,-1)"
       id="text104"
       x="188.16701"
       y="-20.0832"><tspan
         style="font-size:14px;font-variant:normal;font-weight:normal;writing-mode:lr-tb;fill:#000000;fill-opacity:1;fill-rule:nonzero;stroke:none;font-family:Helvetica;-inkscape-font-specification:Helvetica"
         x="188.16701 195.951 199.843"
         y="-20.0832"
         sodipodi:role="line"
         id="tspan106">0.4</tspan></text>
<path
       inkscape:connector-curvature="0"
       id="path108"
       style="fill:none;stroke:#000000;stroke-width:0.5;stroke-linecap:butt;stroke-linejoin:round;stroke-miterlimit:10;stroke-opacity:1;stroke-dasharray:none"
       d="m 255.75,35.9168 0,3.5" /><text
       transform="scale(1,-1)"
       id="text112"
       x="246.08299"
       y="-20.0832"><tspan
         style="font-size:14px;font-variant:normal;font-weight:normal;writing-mode:lr-tb;fill:#000000;fill-opacity:1;fill-rule:nonzero;stroke:none;font-family:Helvetica;-inkscape-font-specification:Helvetica"
         x="246.08299 253.867 257.759"
         y="-20.0832"
         sodipodi:role="line"
         id="tspan114">0.6</tspan></text>
<path
       inkscape:connector-curvature="0"
       id="path116"
       style="fill:none;stroke:#000000;stroke-width:0.5;stroke-linecap:butt;stroke-linejoin:round;stroke-miterlimit:10;stroke-opacity:1;stroke-dasharray:none"
       d="m 313.583,35.9168 0,3.5" /><text
       transform="scale(1,-1)"
       id="text120"
       x="303.91699"
       y="-20.0832"><tspan
         style="font-size:14px;font-variant:normal;font-weight:normal;writing-mode:lr-tb;fill:#000000;fill-opacity:1;fill-rule:nonzero;stroke:none;font-family:Helvetica;-inkscape-font-specification:Helvetica"
         x="303.91699 311.70099 315.59299"
         y="-20.0832"
         sodipodi:role="line"
         id="tspan122">0.8</tspan></text>
<path
       inkscape:connector-curvature="0"
       id="path124"
       style="fill:none;stroke:#000000;stroke-width:0.5;stroke-linecap:butt;stroke-linejoin:round;stroke-miterlimit:10;stroke-opacity:1;stroke-dasharray:none"
       d="m 371.417,35.9168 0,3.5" /><text
       transform="scale(1,-1)"
       id="text128"
       x="367.58301"
       y="-20.0832"><tspan
         style="font-size:14px;font-variant:normal;font-weight:normal;writing-mode:lr-tb;fill:#000000;fill-opacity:1;fill-rule:nonzero;stroke:none;font-family:Helvetica;-inkscape-font-specification:Helvetica"
         x="367.58301"
         y="-20.0832"
         id="tspan130">1</tspan></text>
<path
       inkscape:connector-curvature="0"
       id="path132"
       style="fill:none;stroke:#000000;stroke-width:0.5;stroke-linecap:butt;stroke-linejoin:round;stroke-miterlimit:10;stroke-opacity:1;stroke-dasharray:none"
       d="m 53.25,35.9168 3.4168,0" /><text
       transform="scale(1,-1)"
       id="text136"
       x="34.416801"
       y="-30.75"><tspan
         style="font-size:14px;font-variant:normal;font-weight:normal;writing-mode:lr-tb;fill:#000000;fill-opacity:1;fill-rule:nonzero;stroke:none;font-family:Helvetica;-inkscape-font-specification:Helvetica"
         sodipodi:role="line"
         id="tspan138"
         x="34.416801"
         y="-30.75">-1</tspan></text>
<path
       inkscape:connector-curvature="0"
       id="path140"
       style="fill:none;stroke:#000000;stroke-width:0.5;stroke-linecap:butt;stroke-linejoin:round;stroke-miterlimit:10;stroke-opacity:1;stroke-dasharray:none"
       d="m 53.25,70.1668 3.4168,0" /><text
       transform="scale(1,-1)"
       id="text144"
       x="22.75"
       y="-65"><tspan
         style="font-size:14px;font-variant:normal;font-weight:normal;writing-mode:lr-tb;fill:#000000;fill-opacity:1;fill-rule:nonzero;stroke:none;font-family:Helvetica;-inkscape-font-specification:Helvetica"
         x="22.75"
         sodipodi:role="line"
         id="tspan146"
         y="-65">-0.5</tspan></text>
<path
       inkscape:connector-curvature="0"
       id="path148"
       style="fill:none;stroke:#000000;stroke-width:0.5;stroke-linecap:butt;stroke-linejoin:round;stroke-miterlimit:10;stroke-opacity:1;stroke-dasharray:none"
       d="m 53.25,104.417 3.4168,0" /><text
       transform="scale(1,-1)"
       id="text152"
       x="42.583199"
       y="-99.25"><tspan
         style="font-size:14px;font-variant:normal;font-weight:normal;writing-mode:lr-tb;fill:#000000;fill-opacity:1;fill-rule:nonzero;stroke:none;font-family:Helvetica;-inkscape-font-specification:Helvetica"
         x="42.583199"
         y="-99.25"
         id="tspan154">0</tspan></text>
<path
       inkscape:connector-curvature="0"
       id="path156"
       style="fill:none;stroke:#000000;stroke-width:0.5;stroke-linecap:butt;stroke-linejoin:round;stroke-miterlimit:10;stroke-opacity:1;stroke-dasharray:none"
       d="m 53.25,138.667 3.4168,0" /><text
       transform="scale(1,-1)"
       id="text160"
       x="30.9168"
       y="-133.5"><tspan
         style="font-size:14px;font-variant:normal;font-weight:normal;writing-mode:lr-tb;fill:#000000;fill-opacity:1;fill-rule:nonzero;stroke:none;font-family:Helvetica;-inkscape-font-specification:Helvetica"
         x="30.9168 38.700798 42.5928"
         y="-133.5"
         sodipodi:role="line"
         id="tspan162">0.5</tspan></text>
<path
       inkscape:connector-curvature="0"
       id="path164"
       style="fill:none;stroke:#000000;stroke-width:0.5;stroke-linecap:butt;stroke-linejoin:round;stroke-miterlimit:10;stroke-opacity:1;stroke-dasharray:none"
       d="m 53.25,172.917 3.4168,0" /><text
       transform="scale(1,-1)"
       id="text168"
       x="42.583199"
       y="-167.75"><tspan
         style="font-size:14px;font-variant:normal;font-weight:normal;writing-mode:lr-tb;fill:#000000;fill-opacity:1;fill-rule:nonzero;stroke:none;font-family:Helvetica;-inkscape-font-specification:Helvetica"
         x="42.583199"
         y="-167.75"
         id="tspan170">1</tspan></text>
<path
       inkscape:connector-curvature="0"
       id="path172"
       style="fill:none;stroke:#000000;stroke-width:0.5;stroke-linecap:butt;stroke-linejoin:round;stroke-miterlimit:10;stroke-opacity:1;stroke-dasharray:none"
       d="m 53.25,207.167 3.4168,0" /><text
       transform="scale(1,-1)"
       id="text176"
       x="30.9168"
       y="-202"><tspan
         style="font-size:14px;font-variant:normal;font-weight:normal;writing-mode:lr-tb;fill:#000000;fill-opacity:1;fill-rule:nonzero;stroke:none;font-family:Helvetica;-inkscape-font-specification:Helvetica"
         x="30.9168 38.700798 42.5928"
         y="-202"
         sodipodi:role="line"
         id="tspan178">1.5</tspan></text>
<path
       inkscape:connector-curvature="0"
       id="path180"
       style="fill:none;stroke:#000000;stroke-width:0.5;stroke-linecap:butt;stroke-linejoin:round;stroke-miterlimit:10;stroke-opacity:1;stroke-dasharray:none"
       d="m 53.25,241.417 3.4168,0" /><text
       transform="scale(1,-1)"
       id="text184"
       x="42.583199"
       y="-236.25"><tspan
         style="font-size:14px;font-variant:normal;font-weight:normal;writing-mode:lr-tb;fill:#000000;fill-opacity:1;fill-rule:nonzero;stroke:none;font-family:Helvetica;-inkscape-font-specification:Helvetica"
         x="42.583199"
         y="-236.25"
         id="tspan186">2</tspan></text>
<path
       inkscape:connector-curvature="0"
       id="path188"
       style="fill:none;stroke:#000000;stroke-width:0.5;stroke-linecap:butt;stroke-linejoin:round;stroke-miterlimit:10;stroke-opacity:1;stroke-dasharray:none"
       d="m 53.25,275.667 3.4168,0" /><text
       transform="scale(1,-1)"
       id="text192"
       x="30.9168"
       y="-270.5"><tspan
         style="font-size:14px;font-variant:normal;font-weight:normal;writing-mode:lr-tb;fill:#000000;fill-opacity:1;fill-rule:nonzero;stroke:none;font-family:Helvetica;-inkscape-font-specification:Helvetica"
         x="30.9168 38.700798 42.5928"
         y="-270.5"
         sodipodi:role="line"
         id="tspan194">2.5</tspan></text>
<path
       inkscape:connector-curvature="0"
       id="path196"
       style="fill:none;stroke:#000000;stroke-width:0.5;stroke-linecap:butt;stroke-linejoin:round;stroke-miterlimit:10;stroke-opacity:1;stroke-dasharray:none"
       d="m 53.25,309.833 3.4168,0" /><text
       transform="scale(1,-1)"
       id="text200"
       x="42.583199"
       y="-304.66699"><tspan
         style="font-size:14px;font-variant:normal;font-weight:normal;writing-mode:lr-tb;fill:#000000;fill-opacity:1;fill-rule:nonzero;stroke:none;font-family:Helvetica;-inkscape-font-specification:Helvetica"
         x="42.583199"
         y="-304.66699"
         id="tspan202">3</tspan></text>
<text
       transform="scale(1,-1)"
       id="text224"
       x="223.25"
       y="-5.25"><tspan
         style="font-size:14px;font-variant:normal;font-weight:normal;writing-mode:lr-tb;fill:#000000;fill-opacity:1;fill-rule:nonzero;stroke:none;font-family:Helvetica;-inkscape-font-specification:Helvetica"
         x="223.25"
         y="-5.25"
         id="tspan226">x</tspan></text>
<text
       transform="matrix(0,1,1,0,0,0)"
       id="text228"
       x="169.33299"
       y="15.0832"><tspan
         style="font-size:14px;font-variant:normal;font-weight:normal;writing-mode:lr-tb;fill:#000000;fill-opacity:1;fill-rule:nonzero;stroke:none;font-family:Helvetica;-inkscape-font-specification:Helvetica"
         x="169.33299"
         y="15.0832"
         id="tspan230">z</tspan></text>
<path
       inkscape:connector-curvature="0"
       id="path240"
       style="fill:none;stroke:#0000ff;stroke-width:0.5;stroke-linecap:butt;stroke-linejoin:round;stroke-miterlimit:10;stroke-opacity:1;stroke-dasharray:none"
       d="m 315.833,104.417 84.584,0" /><path
       inkscape:connector-curvature="0"
       id="path248"
       style="fill:none;stroke:#0000ff;stroke-width:0.5;stroke-linecap:butt;stroke-linejoin:round;stroke-miterlimit:10;stroke-opacity:1;stroke-dasharray:none"
       d="m 53.25,104.417 9,0" /><path
       inkscape:connector-curvature="0"
       id="path250"
       style="fill:none;stroke:#0000ff;stroke-width:2;stroke-linecap:butt;stroke-linejoin:round;stroke-miterlimit:10;stroke-opacity:1;stroke-dasharray:none"
       d="m 315.833,104.417 84.584,0" /><path
       inkscape:connector-curvature="0"
       id="path258"
       style="fill:none;stroke:#0000ff;stroke-width:2;stroke-linecap:butt;stroke-linejoin:round;stroke-miterlimit:10;stroke-opacity:1;stroke-dasharray:none"
       d="m 53.25,104.417 9,0" /><path
       inkscape:connector-curvature="0"
       id="path260"
       style="fill:none;stroke:#0000ff;stroke-width:0.5;stroke-linecap:butt;stroke-linejoin:round;stroke-miterlimit:10;stroke-opacity:1;stroke-dasharray:none"
       d="m 315.833,104.417 84.584,0" /><path
       inkscape:connector-curvature="0"
       id="path262"
       style="fill:none;stroke:#0000ff;stroke-width:0.5;stroke-linecap:butt;stroke-linejoin:round;stroke-miterlimit:10;stroke-opacity:1;stroke-dasharray:none"
       d="m 231.333,104.417 84.5,0" /><path
       id="path266"
       style="fill:none;stroke:#0000ff;stroke-width:2;stroke-linecap:butt;stroke-linejoin:round;stroke-miterlimit:10;stroke-opacity:1;stroke-dasharray:8, 8;stroke-dashoffset:0"
       d="m 62.25,104.417 20.0832,0 0.25,0.916 0.3336,0.834 0.25,0.916 0.25,0.917 0.3332,0.833 0.25,0.917 0.3332,0.833 0.25,0.917 0.25,0.833 0.3336,0.917 0.25,0.917 0.3332,0.833 0.25,0.917 0.25,0.833 0.3332,0.917 0.25,0.833 0.3336,0.917 0.25,0.833 0.25,0.917 0.3332,0.916 0.25,0.834 0.3332,0.916 0.25,0.834 0.25,0.916 0.3336,0.834 0.25,0.916 0.3332,0.834 0.25,0.916 0.25,0.834 0.3332,0.916 0.25,0.834 0.25,0.916 0.3336,0.834 0.25,0.916 0.3332,0.834 0.25,0.916 0.25,0.834 0.3332,0.916 0.25,0.834 0.3336,0.916 0.25,0.834 0.25,0.916 0.3332,0.834 0.25,0.916 0.3332,0.834 0.25,0.916 0.25,0.834 0.3336,0.833 0.25,0.917 0.3332,0.833 0.25,0.917 0.25,0.833 0.3332,0.917 0.25,0.833 0.3336,0.917 0.25,0.833 0.25,0.833 0.3332,0.917 0.25,0.833 0.25,0.917 0.3332,0.833 0.25,0.917 0.3338,0.833 0.25,0.834 0.25,0.916 0.333,0.834 0.25,0.916 0.333,0.834 0.25,0.833 0.25,0.917 0.334,0.833 0.25,0.917 0.333,0.833 0.25,0.917 0.25,0.833 0.333,0.833 0.25,0.917 0.334,0.833 0.25,0.917 0.25,0.833 0.333,0.834 0.25,0.916 0.333,0.834 0.25,0.916 0.25,0.834 0.334,0.833 0.25,0.917 0.25,0.833 0.333,0.917 0.25,0.833 0.333,0.833 0.25,0.917 0.25,0.833 0.334,0.834 0.25,0.916 0.333,0.834 0.25,0.916 0.25,0.834 0.333,0.833 0.25,0.917 0.334,0.833 0.25,0.833 0.25,0.917 0.333,0.833 0.25,0.834 0.333,0.916 0.25,0.834 0.25,0.916 0.334,0.834 0.25,0.833 0.25,0.833 0.333,0.917 0.25,0.833 0.333,0.834 0.25,0.916 0.25,0.834 0.334,0.833 0.25,0.917 0.333,0.833 0.25,0.833 0.25,0.834 0.333,0.916 0.25,0.834 0.334,0.833 0.25,0.833 0.25,0.917 0.333,0.833 0.25,0.834 0.333,0.833 0.25,0.833 0.25,0.834 0.334,0.916 0.25,0.834 0.333,0.833 0.25,0.833 0.25,0.834 0.333,0.833 0.25,0.833 0.25,0.834 0.334,0.833 0.25,0.833 0.333,0.917 0.25,0.833 0.25,0.834 0.333,0.833 0.25,0.833 0.334,0.834 0.25,0.833 0.25,0.75 0.333,0.833 0.25,0.834 0.333,0.833 0.25,0.833 0.25,0.834 0.334,0.833 0.25,0.833 0.333,0.834 0.25,0.833 0.25,0.833 0.333,0.75 0.25,0.834 0.334,0.833 0.25,0.833 0.25,0.834 0.333,0.833 0.25,0.833 0.25,0.75 0.333,0.834 0.25,0.833 0.334,0.833 0.25,0.834 0.25,0.833 0.333,0.75 0.25,-1.25 0.333,-0.75 0.25,-0.75 0.25,-0.75 0.334,-0.75 0.25,-0.667 0.333,-0.75 0.25,-0.75 0.25,-0.75 0.333,-0.75 0.25,-0.666 0.334,-0.75 0.25,-0.75 0.25,-0.75 0.333,-0.75 0.25,-0.667 0.333,-0.75 0.25,-0.75 0.25,-0.75 0.334,-0.75 0.25,-0.667 0.25,-0.75 0.333,-0.75 0.25,-0.75 0.333,-0.75 0.25,-0.666 0.25,-0.75 0.334,-0.75 0.25,-0.75 0.333,-0.667 0.25,-0.75 0.25,-0.75 0.333,-0.75 0.25,-0.75 0.334,-0.667 0.25,-0.75 0.25,-0.75 0.333,-0.75 0.25,-0.666 0.333,-0.75 0.25,-0.75 0.25,-0.75 0.334,-0.75 0.25,-0.667 0.25,-0.75 0.333,-0.75 0.25,-0.75 0.333,-0.667 0.25,-0.75 0.25,-0.75 0.334,-0.75 0.25,-0.666 0.333,-0.75 0.25,-0.75 0.25,-0.75 m 0,0 0.333,-0.667 0.25,-0.75 0.334,-0.75 0.25,-0.75 0.25,-0.667 0.333,-0.75 0.25,-0.75 0.333,-0.75 0.25,-0.666 0.25,-0.75 0.334,-0.75 0.25,-0.75 0.333,-0.667 0.25,-0.75 0.25,-0.75 0.333,-0.75 0.25,-0.667 0.25,-0.75 0.334,-0.75 0.25,-0.75 0.333,-0.666 0.25,-0.75 0.25,-0.75 0.333,-0.75 0.25,-0.667 0.334,-0.75 0.25,-0.75 0.25,-0.667 0.333,-0.75 0.25,-0.75 0.333,-0.75 0.25,-0.666 0.25,-0.75 0.334,-0.75 0.25,-0.75 L 157,186 l 0.25,-0.75 0.25,-0.75 0.333,-0.75 0.25,-0.667 0.334,-0.75 0.25,-0.75 0.25,-0.75 0.333,-0.666 0.25,-0.75 0.25,-0.75 0.333,-0.75 0.25,-0.667 0.334,-0.75 0.25,-0.75 0.25,-0.667 0.333,-0.75 0.25,-0.75 0.333,-0.75 0.25,-0.666 0.25,-0.75 0.334,-0.75 0.25,-0.75 0.333,-0.667 0.25,-0.75 0.25,-0.75 0.333,-0.75 0.25,-0.667 0.334,-0.75 0.25,-0.75 0.25,-0.666 0.333,-0.75 0.25,-0.75 0.333,-0.75 0.25,-0.667 0.25,-0.75 0.334,-0.75 0.25,-0.75 0.25,-0.667 0.333,-0.75 0.25,-0.75 0.333,-0.666 0.25,-0.75 0.25,-0.75 0.334,-0.75 0.25,-0.667 0.333,-0.75 0.25,-0.75 0.25,-0.75 0.333,-0.667 0.25,-0.75 0.334,-0.75 0.25,-0.666 0.25,-0.75 0.333,-0.75 0.25,-0.667 0.333,-0.75 0.25,-0.75 0.25,-0.75 0.334,-0.667 0.25,-0.75 0.25,-0.75 0.333,-0.666 0.25,-0.75 0.333,-0.75 0.25,-0.667 0.25,-0.75 0.334,-0.75 0.25,-0.667 0.333,-0.75 0.25,-0.75 0.25,-0.666 0.333,-0.75 0.25,-0.667 0.334,-0.75 0.25,-0.75 0.25,-0.667 0.333,-0.75 0.25,-0.75 0.333,-0.666 0.25,-0.75 0.25,-0.667 0.334,-0.75 0.25,-0.75 0.333,-0.667 0.25,-0.75 0.25,-0.666 0.333,-0.75 0.25,-0.75 0.25,-0.667 0.334,-0.75 0.25,-0.667 0.333,-0.75 0.25,-0.666 0.25,-0.75 0.333,-0.667 0.25,-0.75 0.334,-0.667 0.25,-0.75 0.25,-0.75 0.333,-0.666 0.25,-0.75 0.333,-0.667 0.25,-0.75 0.25,-0.667 0.334,-0.75 0.25,-0.666 0.333,-0.75 0.25,-0.667 0.25,-0.75 0.333,-0.667 0.25,-0.75 0.334,-0.666 0.25,-0.75 42.416,0"
       inkscape:connector-curvature="0" /><path
       inkscape:connector-curvature="0"
       id="path268"
       style="fill:none;stroke:#0000ff;stroke-width:0.5;stroke-linecap:butt;stroke-linejoin:round;stroke-miterlimit:10;stroke-opacity:1;stroke-dasharray:none"
       d="m 53.25,104.417 9,0" /><path
       inkscape:connector-curvature="0"
       id="path270"
       style="fill:none;stroke:#000000;stroke-width:2;stroke-linecap:butt;stroke-linejoin:round;stroke-miterlimit:10;stroke-opacity:1;stroke-dasharray:none"
       d="m 287,172.917 84.25,0 0,136.916" /><path
       inkscape:connector-curvature="0"
       id="path272"
       style="fill:none;stroke:#000000;stroke-width:2;stroke-linecap:butt;stroke-linejoin:round;stroke-miterlimit:10;stroke-opacity:1;stroke-dasharray:none"
       d="m 202.5,172.917 84.5,0" /><path
       inkscape:connector-curvature="0"
       id="path274"
       style="fill:none;stroke:#000000;stroke-width:2;stroke-linecap:butt;stroke-linejoin:round;stroke-miterlimit:10;stroke-opacity:1;stroke-dasharray:none"
       d="m 117.917,172.917 84.583,0" /><path
       inkscape:connector-curvature="0"
       id="path276"
       style="fill:none;stroke:#000000;stroke-width:2;stroke-linecap:butt;stroke-linejoin:round;stroke-miterlimit:10;stroke-opacity:1;stroke-dasharray:none"
       d="m 82.3332,309.833 0,-136.916 35.5838,0" /><path
       inkscape:connector-curvature="0"
       id="path278"
       style="fill:none;stroke:#0000ff;stroke-width:2;stroke-linecap:butt;stroke-linejoin:round;stroke-miterlimit:10;stroke-opacity:1;stroke-dasharray:none"
       d="m 315.833,104.417 84.584,0" /><path
       inkscape:connector-curvature="0"
       id="path280"
       style="fill:none;stroke:#0000ff;stroke-width:2;stroke-linecap:butt;stroke-linejoin:round;stroke-miterlimit:10;stroke-opacity:1;stroke-dasharray:none"
       d="m 231.333,104.417 84.5,0" /><path
       inkscape:connector-curvature="0"
       id="path286"
       style="fill:none;stroke:#0000ff;stroke-width:2;stroke-linecap:butt;stroke-linejoin:round;stroke-miterlimit:10;stroke-opacity:1;stroke-dasharray:none"
       d="m 53.25,104.417 9,0" /><path
       inkscape:connector-curvature="0"
       id="path288"
       style="fill:none;stroke:#000000;stroke-width:2;stroke-linecap:butt;stroke-linejoin:round;stroke-miterlimit:10;stroke-opacity:1;stroke-dasharray:none"
       d="m 287,172.917 84.25,0 0,136.916" /><path
       inkscape:connector-curvature="0"
       id="path290"
       style="fill:none;stroke:#000000;stroke-width:2;stroke-linecap:butt;stroke-linejoin:round;stroke-miterlimit:10;stroke-opacity:1;stroke-dasharray:none"
       d="m 202.5,172.917 84.5,0" /><path
       inkscape:connector-curvature="0"
       id="path292"
       style="fill:none;stroke:#000000;stroke-width:2;stroke-linecap:butt;stroke-linejoin:round;stroke-miterlimit:10;stroke-opacity:1;stroke-dasharray:none"
       d="m 117.917,172.917 84.583,0" /><path
       inkscape:connector-curvature="0"
       id="path294"
       style="fill:none;stroke:#000000;stroke-width:2;stroke-linecap:butt;stroke-linejoin:round;stroke-miterlimit:10;stroke-opacity:1;stroke-dasharray:none"
       d="m 82.3332,309.833 0,-136.916 35.5838,0" /><path
       id="path302"
       style="fill:none;stroke:#0000ff;stroke-width:2;stroke-linecap:butt;stroke-linejoin:round;stroke-miterlimit:10;stroke-opacity:1;stroke-dasharray:8, 8;stroke-dashoffset:0"
       d="m 62.25,104.417 20.0832,0 0.25,0.25 0.3336,0.166 0.25,0.25 0.25,0.25 0.3332,0.167 0.25,0.25 0.3332,0.167 0.25,0.25 0.25,0.25 0.3336,0.166 0.25,0.25 0.3332,0.167 0.25,0.25 0.25,0.167 0.3332,0.25 0.25,0.25 0.3336,0.166 0.25,0.25 0.25,0.167 0.3332,0.25 0.25,0.25 0.3332,0.167 0.25,0.25 0.25,0.166 0.3336,0.25 0.25,0.167 0.3332,0.25 0.25,0.167 0.25,0.25 0.3332,0.25 0.25,0.166 0.25,0.25 0.3336,0.167 0.25,0.25 0.3332,0.167 0.25,0.25 0.25,0.166 0.3332,0.25 0.25,0.25 0.3336,0.167 0.25,0.25 0.25,0.167 0.3332,0.25 0.25,0.166 0.3332,0.25 0.25,0.167 0.25,0.25 0.3336,0.167 0.25,0.25 0.3332,0.166 0.25,0.25 0.25,0.25 0.3332,0.167 0.25,0.25 0.3336,0.167 0.25,0.25 0.25,0.166 0.3332,0.25 0.25,0.167 0.25,0.25 0.3332,0.167 0.25,0.25 0.3338,0.166 0.25,0.25 0.25,0.167 0.333,0.25 0.25,0.25 0.333,0.167 0.25,0.25 0.25,0.166 0.334,0.25 0.25,0.167 0.333,0.25 0.25,0.167 0.25,0.25 0.333,0.166 0.25,0.25 0.334,0.167 0.25,0.25 0.25,0.167 0.333,0.25 0.25,0.25 0.333,0.166 0.25,0.25 0.25,0.167 0.334,0.25 0.25,0.167 0.25,0.25 0.333,0.166 0.25,0.25 0.333,0.167 0.25,0.25 0.25,0.167 0.334,0.25 0.25,0.166 0.333,0.25 0.25,0.167 0.25,0.25 0.333,0.25 0.25,0.167 0.334,0.25 0.25,0.166 0.25,0.25 0.333,0.167 0.25,0.25 0.333,0.167 0.25,0.25 0.25,0.166 0.334,0.25 0.25,0.167 0.25,0.25 0.333,0.167 0.25,0.25 0.333,0.25 0.25,0.166 0.25,0.25 0.334,0.167 0.25,0.25 0.333,0.167 0.25,0.25 0.25,0.166 0.333,0.25 0.25,0.167 0.334,0.25 0.25,0.167 0.25,0.25 0.333,0.166 0.25,0.25 0.333,0.167 0.25,0.25 0.25,0.25 0.334,0.167 0.25,0.25 0.333,0.166 0.25,0.25 0.25,0.167 0.333,0.25 0.25,0.167 0.25,0.25 0.334,0.166 0.25,0.25 0.333,0.167 0.25,0.25 0.25,0.167 0.333,0.25 0.25,0.25 0.334,0.166 0.25,0.25 0.25,0.167 0.333,0.25 0.25,0.167 0.333,0.25 0.25,0.166 0.25,0.25 0.334,0.167 0.25,0.25 0.333,0.167 0.25,0.25 0.25,0.166 0.333,0.25 0.25,0.167 0.334,0.25 0.25,0.25 0.25,0.167 0.333,0.25 0.25,0.166 0.25,0.25 0.333,0.167 0.25,0.25 0.334,0.167 0.25,0.25 0.25,0.166 0.333,0.25 0.25,0.167 0.333,0.25 0.25,0.167 0.25,0.25 0.334,0.25 0.25,0.166 0.333,0.25 0.25,0.167 0.25,0.25 0.333,0.167 0.25,0.25 0.334,0.166 0.25,0.25 0.25,0.167 0.333,0.25 0.25,0.167 0.333,0.25 0.25,0.166 0.25,0.25 0.334,0.25 0.25,0.167 0.25,0.25 0.333,0.167 0.25,0.25 0.333,0.166 0.25,0.25 0.25,0.167 0.334,0.25 0.25,0.167 0.333,0.25 0.25,0.166 0.25,0.25 0.333,0.167 0.25,0.25 0.334,0.167 0.25,0.25 0.25,0.25 0.333,0.166 0.25,0.25 0.333,0.167 0.25,0.25 0.25,0.167 0.334,0.25 0.25,0.166 0.25,0.25 0.333,0.167 0.25,0.25 0.333,0.167 0.25,0.25 0.25,0.166 0.334,0.25 0.25,0.25 0.333,0.167 0.25,0.25 0.25,0.167 m 0,0 0.333,0.25 0.25,0.166 0.334,0.25 0.25,0.167 0.25,0.25 0.333,0.167 0.25,0.25 0.333,0.166 0.25,0.25 0.25,0.167 0.334,0.25 0.25,0.167 0.333,0.25 0.25,0.25 0.25,0.166 0.333,0.25 0.25,0.167 0.25,0.25 0.334,0.167 0.25,0.25 0.333,0.166 0.25,0.25 0.25,0.167 0.333,0.25 0.25,0.167 0.334,0.25 0.25,0.166 0.25,0.25 0.333,0.25 0.25,0.167 0.333,0.25 0.25,0.167 0.25,0.25 0.334,0.166 0.25,0.25 0.333,0.167 0.25,0.25 0.25,0.167 0.333,0.25 0.25,0.166 0.334,0.25 0.25,0.167 0.25,0.25 0.333,0.167 0.25,0.25 0.25,0.25 0.333,0.166 0.25,0.25 0.334,0.167 0.25,0.25 0.25,0.167 0.333,0.25 0.25,0.166 0.333,0.25 0.25,0.167 0.25,0.25 0.334,0.167 0.25,0.25 0.333,0.166 0.25,0.25 0.25,0.25 0.333,0.167 0.25,0.25 0.334,0.167 0.25,0.25 0.25,0.166 0.333,0.25 0.25,0.167 0.333,0.25 0.25,0.167 0.25,0.25 0.334,0.166 0.25,0.25 0.25,0.167 0.333,0.25 0.25,0.167 0.333,0.25 0.25,0.25 0.25,0.166 0.334,0.25 0.25,0.167 0.333,0.25 0.25,0.167 0.25,0.25 0.333,0.166 0.25,0.25 0.334,0.167 0.25,0.25 0.25,0.167 0.333,0.25 0.25,0.166 0.333,0.25 0.25,0.25 0.25,0.167 0.334,0.25 0.25,0.167 0.25,0.25 0.333,0.166 0.25,0.25 0.333,0.167 0.25,0.25 0.25,0.167 0.334,0.25 0.25,0.166 0.333,0.25 0.25,0.167 0.25,0.25 0.333,0.167 0.25,0.25 0.334,0.25 0.25,0.166 0.25,0.25 0.333,0.167 0.25,0.25 0.333,0.167 0.25,0.25 0.25,0.166 0.334,0.25 0.25,0.167 0.333,0.25 0.25,0.167 0.25,0.25 0.333,0.166 0.25,0.25 0.25,0.25 0.334,0.167 0.25,0.25 0.333,0.167 0.25,0.25 0.25,0.166 0.333,0.25 0.25,0.167 0.334,0.25 0.25,0.167 0.25,0.25 0.333,0.166 0.25,0.25 0.333,0.167 0.25,0.25 0.25,0.25 0.334,0.167 0.25,0.25 0.333,0.166 0.25,0.25 0.25,0.167 0.333,0.25 0.25,0.167 0.334,0.25 0.25,0.166 0.25,0.25 0.333,0.167 0.25,0.25 0.25,0.167 0.333,0.25 0.25,0.166 0.334,0.25 0.25,0.25 0.25,0.167 0.333,0.25 0.25,0.167 0.333,0.25 0.25,0.166 0.25,0.25 0.334,0.167 0.25,0.25 0.333,0.167 0.25,0.25 0.25,0.166 0.333,0.25 0.25,0.167 0.334,0.25 0.25,0.25 0.25,0.167 0.333,0.25 0.25,0.166 0.333,0.25 0.25,0.167 0.25,0.25 0.334,0.167 0.25,0.25 0.25,0.166 0.333,0.25 0.25,0.167 0.333,0.25 0.25,0.167 0.25,0.25 0.334,0.166 0.25,0.25 0.333,0.25 0.25,0.167 0.25,0.25 0.333,0.167 0.25,0.25 0.334,0.166 0.25,0.25 0.25,0.167 0.333,0.25 0.25,0.167 0.333,0.25 0.25,0.166 0.25,0.25 0.334,0.167 0.25,0.25 0.25,0.25 0.333,0.167 0.25,0.25 0.333,0.166 0.25,0.25 0.25,0.167 0.334,0.25 0.25,0.167 0.333,0.25 0.25,0.166 0.25,0.25 0.333,0.167 0.25,0.25 0.334,0.167 0.25,0.25 0.25,0.166 0.333,0.25 0.25,0.25 0.333,0.167 0.25,0.25 0.25,0.167 0.334,0.25 0.25,0.166 0.333,0.25 0.25,0.167 0.25,0.25 0.333,0.167 0.25,0.25 0.25,0.166 0.334,0.25 0.25,0.167 0.333,0.25 0.25,0.25 0.25,0.167 0.333,0.25 0.25,0.166 0.334,0.25 0.25,0.167 0.25,0.25 0.333,0.167 0.25,0.25 0.333,0.166 0.25,0.25 0.25,0.167 0.334,0.25 0.25,0.167 0.333,0.25 0.25,0.166 0.25,0.25 0.333,0.25 0.25,0.167 0.334,0.25 0.25,0.167 0.25,0.25 0.333,0.166 0.25,0.25 0.25,0.167 0.333,0.25 0.25,0.167 0.334,0.25 0.25,0.166 0.25,0.25 0.333,0.167 0.25,0.25 0.333,0.25 0.25,0.167 0.25,0.25 0.334,0.166 0.25,0.25 0.333,0.167 0.25,0.25 0.25,0.167 0.333,0.25 0.25,0.166 0.334,0.25 0.25,0.167 0.25,0.25 0.333,0.167 0.25,0.25 0.333,0.166 0.25,0.25 0.25,0.25 0.334,0.167 0.25,0.25 0.25,0.167 0.333,0.25 0.25,0.166 0.333,0.25 0.25,0.167 0.25,0.25 0.334,0.167 0.25,0.25 0.333,0.166 0.25,0.25 0.25,0.167 0.333,0.25 m 0,0 0.25,0.25 0.334,0.167 0.25,0.25 0.25,0.166 0.333,0.25 0.25,0.167 0.333,0.25 0.25,0.167 0.25,0.25 0.334,0.166 0.25,0.25 0.25,0.167 0.333,0.25 0.25,0.167 0.333,0.25 0.25,0.166 0.25,0.25 0.334,0.25 0.25,0.167 0.333,0.25 0.25,0.167 0.25,0.25 0.333,0.166 0.25,0.25 0.334,0.167 0.25,0.25 0.25,0.167 0.333,0.25 0.25,0.166 0.333,0.25 0.25,0.167 0.25,0.25 0.334,0.25 0.25,0.167 0.333,0.25 0.25,0.166 0.25,0.25 0.333,0.167 0.25,0.25 0.25,0.167 0.334,0.25 0.25,0.166 0.333,0.25 0.25,0.167 0.25,0.25 0.333,0.167 0.25,0.25 0.334,0.25 0.25,0.166 0.25,0.25 0.333,0.167 0.25,0.25 0.333,0.167 0.25,0.25 0.25,0.166 0.334,0.25 0.25,0.167 0.333,0.25 0.25,0.167 0.25,0.25 0.333,0.166 0.25,0.25 0.334,0.167 0.25,0.25 0.25,0.25 0.333,0.167 0.25,0.25 0.25,0.166 0.333,0.25 0.25,0.167 0.334,0.25 0.25,0.167 0.25,0.25 0.333,0.166 0.25,0.25 0.333,0.167 0.25,0.25 0.25,0.167 0.334,0.25 0.25,0.25 0.333,0.166 0.25,0.25 0.25,0.167 0.333,0.25 0.25,0.167 0.334,0.25 0.25,0.166 0.25,0.25 0.333,0.167 0.25,0.25 0.25,0.167 0.333,0.25 0.25,0.166 0.334,0.25 0.25,0.167 0.25,0.25 0.333,0.25 0.25,0.167 0.333,0.25 0.25,0.166 0.25,0.25 0.334,0.167 0.25,0.25 0.333,0.167 0.25,0.25 0.25,0.166 0.333,0.25 0.25,0.167 0.334,0.25 0.25,0.167 0.25,0.25 0.333,0.25 0.25,0.166 0.333,0.25 0.25,0.167 0.25,0.25 0.334,0.167 0.25,0.25 0.25,0.166 0.333,0.25 0.25,0.167 0.333,0.25 0.25,0.167 0.25,0.25 0.334,0.166 0.25,0.25 0.333,0.167 0.25,0.25 0.25,0.25 0.333,0.167 0.25,0.25 0.334,0.166 0.25,0.25 0.25,0.167 0.333,0.25 0.25,0.167 0.333,0.25 0.25,0.166 0.25,0.25 0.334,0.167 0.25,0.25 0.333,0.167 0.25,0.25 0.25,0.25 0.333,0.166 0.25,0.25 0.25,0.167 0.334,0.25 0.25,0.167 0.333,0.25 0.25,0.166 0.25,0.25 0.333,0.167 0.25,0.25 0.334,0.167 0.25,0.25 0.25,0.166 0.333,0.25 0.25,0.167 0.333,0.25 0.25,0.25 0.25,0.167 0.334,0.25 0.25,0.166 0.333,0.25 0.25,0.167 0.25,0.25 0.333,0.167 0.25,0.25 0.334,0.166 0.25,0.25 0.25,0.167 0.333,0.25 0.25,0.167 0.25,0.25 0.333,0.25 0.25,0.166 0.334,0.25 0.25,0.167 0.25,0.25 0.333,0.167 0.25,0.25 0.333,0.166 0.25,0.25 0.25,0.167 0.334,0.25 0.25,0.167 0.333,0.25 0.25,0.166 0.25,0.25 0.333,0.167 0.25,0.25 0.334,0.25 0.25,0.167 0.25,0.25 0.333,0.166 0.25,0.25 0.25,0.167 0.333,0.25 0.25,0.167 0.334,0.25 0.25,0.166 0.25,0.25 0.333,0.167 0.25,0.25 0.333,0.167 0.25,0.25 0.25,0.166 0.334,0.25 0.25,0.167 0.333,0.25 0.25,0.167 0.25,0.25 0.333,0.166 0.25,0.25 0.334,0.167 0.25,0.25 0.25,0.167 0.333,0.25 0.25,0.166 0.333,0.25 0.25,0.167 0.25,0.167 0.334,0.25 0.25,0.166 0.25,0.25 0.333,0.167 0.25,0.167 0.333,0.25 0.25,0.166 0.25,0.25 0.334,0.167 0.25,0.167 0.333,0.25 0.25,0.166 0.25,0.167 0.333,0.167 0.25,0.25 0.334,0.166 0.25,0.167 0.25,0.167 0.333,0.25 0.25,0.166 0.333,0.167 0.25,0.167 0.25,0.166 0.334,0.25 0.25,0.167 0.333,0.167 0.25,0.166 0.25,0.167 0.333,0.167 0.25,0.166 0.25,0.25 0.334,0.167 0.25,0.167 0.333,0.166 0.25,0.167 0.25,0.167 0.333,0.166 0.25,-1.416 0.334,-0.834 0.25,-0.833 0.25,-0.75 0.333,-0.833 0.25,-0.834 0.333,-0.833 0.25,-0.75 0.25,-0.833 0.334,-0.834 0.25,-0.833 0.333,-0.833 0.25,-0.75 0.25,-0.834 0.333,-0.833 0.25,-0.833 0.334,-0.75 0.25,-0.834 0.25,-0.833 0.333,-0.833 0.25,-0.75 0.25,-0.834 0.333,-0.833 0.25,-0.833 0.334,-0.75 0.25,-0.834 0.25,-0.833 0.333,-0.833 0.25,-0.75 0.333,-0.834 0.25,-0.833 0.25,-0.833 0.334,-0.75 0.25,-0.834 0.333,-0.833 0.25,-0.75 0.25,-0.833 0.333,-0.834 0.25,-0.833 m 0,0 0.334,-0.75 0.25,-0.833 0.25,-0.834 L 317,234 l 0.25,-0.75 0.25,-0.833 0.333,-0.834 0.25,-0.833 0.334,-0.75 0.25,-0.833 0.25,-0.834 0.333,-0.75 0.25,-0.833 0.333,-0.833 0.25,-0.834 0.25,-0.75 0.334,-0.833 0.25,-0.833 0.333,-0.75 0.25,-0.834 0.25,-0.833 0.333,-0.833 0.25,-0.75 0.334,-0.834 0.25,-0.833 0.25,-0.833 0.333,-0.75 0.25,-0.834 0.333,-0.833 0.25,-0.75 0.25,-0.833 0.334,-0.834 0.25,-0.833 0.25,-0.75 0.333,-0.833 0.25,-0.834 0.333,-0.75 0.25,-0.833 0.25,-0.833 0.334,-0.834 0.25,-0.75 0.333,-0.833 0.25,-0.833 0.25,-0.834 0.333,-0.75 0.25,-0.833 0.334,-0.833 0.25,-0.75 0.25,-0.834 0.333,-0.833 0.25,-0.833 0.333,-0.75 0.25,-0.834 0.25,-0.833 0.334,-0.75 0.25,-0.833 0.333,-0.834 0.25,-0.833 0.25,-0.75 0.333,-0.833 0.25,-0.834 0.25,-0.833 0.334,-0.75 0.25,-0.833 0.333,-0.834 0.25,-0.75 0.25,-0.833 0.333,-0.833 0.25,-0.834 0.334,-0.75 0.25,-0.833 0.25,-0.833 0.333,-0.75 0.25,-0.834 0.333,-0.833 0.25,-0.833 0.25,-0.75 0.334,-0.834 0.25,-0.833 0.333,-0.75 0.25,-0.833 0.25,-0.834 0.333,-0.833 0.25,-0.75 0.334,-0.833 0.25,-0.834 0.25,-0.833 0.333,-0.75 0.25,-0.833 0.25,-0.834 0.333,-0.75 0.25,-0.833 0.334,-0.833 0.25,-0.834 0.25,-0.75 0.333,-0.833 0.25,-0.833 0.333,-0.75 0.25,-0.834 0.25,-0.833 0.334,-0.833 0.25,-0.75 0.333,-0.834 0.25,-0.833 0.25,-0.75 0.333,-0.833 0.25,-0.834 0.334,-0.833 0.25,-0.75 0.25,-0.833 0.333,-0.834 0.25,-0.75 0.25,-0.833 0.333,-0.833 0.25,-0.834 0.334,-0.75 0.25,-0.833 0.25,-0.833 0.333,-0.75 0.25,-0.834 0.333,-0.833 0.25,-0.75 0.25,-0.833 0.334,-0.834 0.25,-0.75 0.333,-0.833 0.25,-0.833 0.25,-0.75 0.333,-0.834 0.25,-0.75 0.334,-0.833 0.25,-0.833 0.25,-0.75 0.333,-0.834 0.25,-0.75 0.333,-0.833 0.25,-0.833 0.25,-0.75 0.334,-0.834 0.25,-0.75 0.25,-0.833 0.333,-0.75 0.25,-0.833 0.333,-0.75 0.25,-0.834 0.25,-0.75 0.334,-0.833 0.25,-0.75 0.333,-0.833 0.25,-0.75 0.25,-0.75 0.333,-0.834 0.25,-0.75 0.334,-0.833 0.25,-0.75 0.25,-0.75 0.333,-0.833 0.25,-0.75 0.333,-0.834 0.25,-0.75 0.25,-0.75 0.334,-0.833 0.25,-0.75 0.333,-0.75 0.25,-0.833 37.917,0"
       inkscape:connector-curvature="0" /><path
       inkscape:connector-curvature="0"
       id="path304"
       style="fill:none;stroke:#0000ff;stroke-width:0.5;stroke-linecap:butt;stroke-linejoin:round;stroke-miterlimit:10;stroke-opacity:1;stroke-dasharray:none"
       d="m 53.25,104.417 9,0" /><path
       inkscape:connector-curvature="0"
       id="path306"
       style="fill:none;stroke:#000000;stroke-width:2;stroke-linecap:butt;stroke-linejoin:round;stroke-miterlimit:10;stroke-opacity:1;stroke-dasharray:none"
       d="m 287,172.917 84.25,0 0,136.916" /><path
       inkscape:connector-curvature="0"
       id="path308"
       style="fill:none;stroke:#000000;stroke-width:2;stroke-linecap:butt;stroke-linejoin:round;stroke-miterlimit:10;stroke-opacity:1;stroke-dasharray:none"
       d="m 202.5,172.917 84.5,0" /><path
       inkscape:connector-curvature="0"
       id="path310"
       style="fill:none;stroke:#000000;stroke-width:2;stroke-linecap:butt;stroke-linejoin:round;stroke-miterlimit:10;stroke-opacity:1;stroke-dasharray:none"
       d="m 117.917,172.917 84.583,0" /><path
       inkscape:connector-curvature="0"
       id="path312"
       style="fill:none;stroke:#000000;stroke-width:2;stroke-linecap:butt;stroke-linejoin:round;stroke-miterlimit:10;stroke-opacity:1;stroke-dasharray:none"
       d="m 82.3332,309.833 0,-136.916 35.5838,0" /><path
       inkscape:connector-curvature="0"
       id="path322"
       style="fill:none;stroke:#0000ff;stroke-width:2;stroke-linecap:butt;stroke-linejoin:round;stroke-miterlimit:10;stroke-opacity:1;stroke-dasharray:none"
       d="m 53.25,104.417 9,0" /><path
       inkscape:connector-curvature="0"
       id="path324"
       style="fill:none;stroke:#000000;stroke-width:2;stroke-linecap:butt;stroke-linejoin:round;stroke-miterlimit:10;stroke-opacity:1;stroke-dasharray:none"
       d="m 287,172.917 84.25,0 0,136.916" /><path
       inkscape:connector-curvature="0"
       id="path326"
       style="fill:none;stroke:#000000;stroke-width:2;stroke-linecap:butt;stroke-linejoin:round;stroke-miterlimit:10;stroke-opacity:1;stroke-dasharray:none"
       d="m 202.5,172.917 84.5,0" /><path
       inkscape:connector-curvature="0"
       id="path328"
       style="fill:none;stroke:#000000;stroke-width:2;stroke-linecap:butt;stroke-linejoin:round;stroke-miterlimit:10;stroke-opacity:1;stroke-dasharray:none"
       d="m 117.917,172.917 84.583,0" /><path
       inkscape:connector-curvature="0"
       id="path330"
       style="fill:none;stroke:#000000;stroke-width:2;stroke-linecap:butt;stroke-linejoin:round;stroke-miterlimit:10;stroke-opacity:1;stroke-dasharray:none"
       d="m 82.3332,309.833 0,-136.916 35.5838,0" /><path
       inkscape:connector-curvature="0"
       id="path332"
       style="fill:none;stroke:#ff0000;stroke-width:2;stroke-linecap:butt;stroke-linejoin:round;stroke-miterlimit:10;stroke-opacity:1;stroke-dasharray:11.84, 4.44;stroke-dashoffset:0"
       d="m 316.083,104.417 84.417,0" /><path
       inkscape:connector-curvature="0"
       id="path334"
       style="fill:none;stroke:#ff0000;stroke-width:2;stroke-linecap:butt;stroke-linejoin:round;stroke-miterlimit:10;stroke-opacity:1;stroke-dasharray:11.84, 4.44;stroke-dashoffset:0"
       d="m 231.583,104.417 84.5,0" /><path
       inkscape:connector-curvature="0"
       id="path340"
       style="fill:none;stroke:#ff0000;stroke-width:2;stroke-linecap:butt;stroke-linejoin:round;stroke-miterlimit:10;stroke-opacity:1;stroke-dasharray:11.84, 4.44;stroke-dashoffset:0"
       d="m 53.25,104.417 9.4168,0" /><path
       inkscape:connector-curvature="0"
       id="path342"
       style="fill:none;stroke:#000000;stroke-width:2;stroke-linecap:butt;stroke-linejoin:round;stroke-miterlimit:10;stroke-opacity:1;stroke-dasharray:none"
       d="m 287.25,172.917 84.167,0 0,136.916" /><path
       inkscape:connector-curvature="0"
       id="path344"
       style="fill:none;stroke:#000000;stroke-width:2;stroke-linecap:butt;stroke-linejoin:round;stroke-miterlimit:10;stroke-opacity:1;stroke-dasharray:none"
       d="m 202.75,172.917 84.5,0" /><path
       inkscape:connector-curvature="0"
       id="path346"
       style="fill:none;stroke:#000000;stroke-width:2;stroke-linecap:butt;stroke-linejoin:round;stroke-miterlimit:10;stroke-opacity:1;stroke-dasharray:none"
       d="m 118.333,172.917 84.417,0" /><path
       inkscape:connector-curvature="0"
       id="path348"
       style="fill:none;stroke:#000000;stroke-width:2;stroke-linecap:butt;stroke-linejoin:round;stroke-miterlimit:10;stroke-opacity:1;stroke-dasharray:none"
       d="m 82.1668,309.833 0,-136.916 36.1662,0" /><path
       inkscape:connector-curvature="0"
       id="path350"
       style="fill:none;stroke:#000000;stroke-width:2;stroke-linecap:butt;stroke-linejoin:round;stroke-miterlimit:10;stroke-opacity:1;stroke-dasharray:none"
       d="m 316.083,104.417 84.417,0" /><path
       inkscape:connector-curvature="0"
       id="path352"
       style="fill:none;stroke:#000000;stroke-width:2;stroke-linecap:butt;stroke-linejoin:round;stroke-miterlimit:10;stroke-opacity:1;stroke-dasharray:none"
       d="m 231.583,104.417 84.5,0" /><path
       inkscape:connector-curvature="0"
       id="path354"
       style="fill:none;stroke:#000000;stroke-width:2;stroke-linecap:butt;stroke-linejoin:round;stroke-miterlimit:10;stroke-opacity:1;stroke-dasharray:none"
       d="m 147.083,35.9168 42.167,0 0.25,68.5002 42.083,0" /><path
       inkscape:connector-curvature="0"
       id="path356"
       style="fill:none;stroke:#000000;stroke-width:2;stroke-linecap:butt;stroke-linejoin:round;stroke-miterlimit:10;stroke-opacity:1;stroke-dasharray:none"
       d="m 62.6668,104.417 68.6662,0 0.25,-68.5002 15.5,0" /><path
       inkscape:connector-curvature="0"
       id="path358"
       style="fill:none;stroke:#000000;stroke-width:2;stroke-linecap:butt;stroke-linejoin:round;stroke-miterlimit:10;stroke-opacity:1;stroke-dasharray:none"
       d="m 53.25,104.417 9.4168,0" /><path
       inkscape:connector-curvature="0"
       id="path360"
       style="fill:none;stroke:#ff0000;stroke-width:2;stroke-linecap:butt;stroke-linejoin:round;stroke-miterlimit:10;stroke-opacity:1;stroke-dasharray:11.84, 4.44;stroke-dashoffset:0"
       d="m 316.083,104.417 84.417,0" /><path
       inkscape:connector-curvature="0"
       id="path366"
       style="fill:none;stroke:#ff0000;stroke-width:2;stroke-linecap:butt;stroke-linejoin:round;stroke-miterlimit:10;stroke-opacity:1;stroke-dasharray:11.84, 4.44;stroke-dashoffset:0"
       d="m 62.6668,104.417 19.5,0 0.25,0.166 0.25,0.167 0.3332,0.167 0.25,0.166 0.3332,0.167 0.25,0.167 0.25,0.166 0.3336,0.084 0.25,0.166 L 85,106 l 0.25,0.167 0.25,0.166 0.3332,0.167 0.25,0.167 0.3336,0.166 0.25,0.167 0.25,0.167 0.3332,0.083 0.25,0.167 0.25,0.166 0.3332,0.167 0.25,0.167 0.3336,0.166 0.25,0.167 0.25,0.167 0.3332,0.166 0.25,0.167 0.3332,0.083 0.25,0.167 0.25,0.167 0.3336,0.166 0.25,0.167 0.3332,0.167 0.25,0.166 0.25,0.167 0.3332,0.167 0.25,0.166 0.25,0.167 0.3336,0.083 0.25,0.167 0.3332,0.167 0.25,0.166 0.25,0.167 0.3332,0.167 0.25,0.166 0.3336,0.167 0.25,0.167 0.25,0.166 0.3332,0.084 0.25,0.166 0.3332,0.167 0.25,0.167 0.25,0.166 0.3336,0.167 0.25,0.167 0.3332,0.166 0.25,0.167 0.25,0.167 0.3332,0.083 0.25,0.167 0.25,0.166 0.3336,0.167 0.25,0.167 0.3332,0.166 0.25,0.167 0.25,0.167 0.333,0.166 0.25,0.167 0.334,0.083 0.25,0.167 0.25,0.167 0.333,0.166 0.25,0.167 0.333,0.167 0.25,0.166 0.25,0.167 0.334,0.167 0.25,0.166 0.333,0.084 0.25,0.166 0.25,0.167 0.333,0.167 0.25,0.166 0.25,0.167 0.334,0.167 0.25,0.166 0.333,0.167 0.25,0.167 0.25,0.083 0.333,0.167 0.25,0.166 0.334,0.167 0.25,0.167 0.25,0.166 0.333,0.167 0.25,0.167 0.333,0.166 0.25,0.167 0.25,0.083 0.334,0.167 0.25,0.167 0.25,0.166 0.333,0.167 0.25,0.167 0.333,0.166 0.25,0.167 0.25,0.167 0.334,0.083 0.25,0.167 0.333,0.166 0.25,0.167 0.25,0.167 0.333,0.166 0.25,0.167 0.334,0.167 0.25,0.166 0.25,0.167 0.333,0.083 0.25,0.167 0.333,0.167 0.25,0.166 0.25,0.167 0.334,0.167 0.25,0.166 0.25,0.167 0.333,0.167 0.25,0.166 0.333,0.084 0.25,0.166 0.25,0.167 0.334,0.167 0.25,0.166 0.333,0.167 0.25,0.167 0.25,0.166 0.333,0.167 0.25,0.167 0.334,0.083 0.25,0.167 0.25,0.166 0.333,0.167 0.25,0.167 0.25,0.166 0.333,0.167 0.25,0.167 0.334,0.166 0.25,0.084 0.25,0.166 0.333,0.167 0.25,0.167 0.333,0.166 0.25,0.167 0.25,0.167 0.334,0.166 0.25,0.167 0.333,0.167 0.25,0.083 0.25,0.167 0.333,0.166 0.25,0.167 0.334,0.167 0.25,0.166 0.25,0.167 0.333,0.167 0.25,0.166 0.25,0.084 0.333,0.166 0.25,0.167 0.334,0.167 0.25,0.166 0.25,0.167 0.333,0.167 0.25,0.166 0.333,0.167 0.25,0.167 0.25,0.083 0.334,0.167 0.25,0.166 0.333,0.167 0.25,0.167 0.25,0.166 0.333,0.167 0.25,0.167 0.25,0.166 0.334,0.084 0.25,0.166 0.333,0.167 0.25,0.167 0.25,0.166 0.333,0.167 0.25,0.167 0.334,0.166 0.25,0.167 0.25,0.083 0.333,0.167 0.25,0.167 0.333,0.166 0.25,0.167 0.25,0.167 0.334,0.166 0.25,0.167 0.333,0.167 0.25,0.083 0.25,0.167 0.333,0.166 0.25,0.167 0.25,0.167 0.334,0.166 0.25,0.167 0.333,0.167 0.25,0.166 0.25,0.084 0.333,0.166 0.25,0.167 0.334,0.167 0.25,0.166 0.25,0.167 0.333,0.167 0.25,0.166 0.333,0.167 0.25,0.083 0.25,0.167 0.334,0.167 0.25,0.166 0.25,0.167 0.333,0.167 0.25,0.166 0.333,0.167 0.25,0.167 0.25,0.083" /><path
       inkscape:connector-curvature="0"
       id="path368"
       style="fill:none;stroke:#ff0000;stroke-width:2;stroke-linecap:butt;stroke-linejoin:round;stroke-miterlimit:10;stroke-opacity:1;stroke-dasharray:11.84, 4.44;stroke-dashoffset:0"
       d="m 53.25,104.417 9.4168,0" /><path
       inkscape:connector-curvature="0"
       id="path370"
       style="fill:none;stroke:#000000;stroke-width:2;stroke-linecap:butt;stroke-linejoin:round;stroke-miterlimit:10;stroke-opacity:1;stroke-dasharray:none"
       d="m 316.083,104.417 84.417,0" /><path
       inkscape:connector-curvature="0"
       id="path372"
       style="fill:none;stroke:#000000;stroke-width:2;stroke-linecap:butt;stroke-linejoin:round;stroke-miterlimit:10;stroke-opacity:1;stroke-dasharray:none"
       d="m 231.583,35.9168 30,0 0.25,68.5002 54.25,0" /><path
       inkscape:connector-curvature="0"
       id="path374"
       style="fill:none;stroke:#000000;stroke-width:2;stroke-linecap:butt;stroke-linejoin:round;stroke-miterlimit:10;stroke-opacity:1;stroke-dasharray:none"
       d="m 147.083,104.417 56.5,0 0.334,-68.5002 27.666,0" /><path
       inkscape:connector-curvature="0"
       id="path376"
       style="fill:none;stroke:#000000;stroke-width:2;stroke-linecap:butt;stroke-linejoin:round;stroke-miterlimit:10;stroke-opacity:1;stroke-dasharray:none"
       d="m 62.6668,104.417 84.4162,0" /><path
       inkscape:connector-curvature="0"
       id="path378"
       style="fill:none;stroke:#000000;stroke-width:2;stroke-linecap:butt;stroke-linejoin:round;stroke-miterlimit:10;stroke-opacity:1;stroke-dasharray:none"
       d="m 53.25,104.417 9.4168,0" /><path
       id="path386"
       style="fill:none;stroke:#ff0000;stroke-width:2;stroke-linecap:butt;stroke-linejoin:round;stroke-miterlimit:10;stroke-opacity:1;stroke-dasharray:8, 8;stroke-dashoffset:0;marker-start:none"
       d="m 62.6668,104.417 19.5,0 0.25,0.083 0.25,0.083 0.3332,0.084 0.25,0.083 0.3332,0.083 0.25,0.084 0.25,0.083 0.3336,0.083 0.25,0.084 0.3332,0.083 0.25,0.083 0.25,0.084 0.3332,0.083 0.25,0.083 0.3336,0.167 0.25,0.083 0.25,0.084 0.3332,0.083 0.25,0.083 0.25,0.084 0.3332,0.083 0.25,0.083 0.3336,0.084 0.25,0.083 0.25,0.083 0.3332,0.084 0.25,0.083 0.3332,0.083 0.25,0.084 0.25,0.083 0.3336,0.083 0.25,0.084 0.3332,0.083 0.25,0.083 0.25,0.084 0.3332,0.083 0.25,0.083 0.25,0.084 0.3336,0.083 0.25,0.083 0.3332,0.084 0.25,0.083 0.25,0.083 0.3332,0.084 0.25,0.083 0.3336,0.083 0.25,0.084 0.25,0.083 0.3332,0.083 0.25,0.084 0.3332,0.083 0.25,0.083 0.25,0.084 0.3336,0.083 0.25,0.083 0.3332,0.084 0.25,0.083 0.25,0.083 0.3332,0.084 0.25,0.083 0.25,0.083 0.3336,0.084 0.25,0.083 0.3332,0.083 0.25,0.084 0.25,0.083 0.333,0.083 0.25,0.084 0.334,0.083 0.25,0.083 0.25,0.167 0.333,0.083 0.25,0.084 0.333,0.083 0.25,0.083 0.25,0.084 0.334,0.083 0.25,0.083 0.333,0.084 0.25,0.083 0.25,0.083 0.333,0.084 0.25,0.083 0.25,0.083 0.334,0.084 0.25,0.083 0.333,0.083 0.25,0.084 0.25,0.083 0.333,0.083 0.25,0.084 0.334,0.083 0.25,0.083 0.25,0.084 0.333,0.083 0.25,0.083 0.333,0.084 0.25,0.083 0.25,0.083 0.334,0.084 0.25,0.083 0.25,0.083 0.333,0.084 0.25,0.083 0.333,0.083 0.25,0.084 0.25,0.083 0.334,0.083 0.25,0.084 0.333,0.083 0.25,0.083 0.25,0.084 0.333,0.083 0.25,0.083 0.334,0.084 0.25,0.083 0.25,0.083 0.333,0.084 0.25,0.083 0.333,0.083 0.25,0.084 0.25,0.083 0.334,0.083 0.25,0.084 0.25,0.083 0.333,0.083 0.25,0.084 0.333,0.083 0.25,0.083 0.25,0.084 0.334,0.166 0.25,0.084 0.333,0.083 0.25,0.083 0.25,0.084 0.333,0.083 0.25,0.083 0.334,0.084 0.25,0.083 0.25,0.083 0.333,0.084 0.25,0.083 0.25,0.083 0.333,0.084 0.25,0.083 0.334,0.083 0.25,0.084 0.25,0.083 0.333,0.083 0.25,0.084 0.333,0.083 0.25,0.083 0.25,0.084 0.334,0.083 0.25,0.083 0.333,0.084 0.25,0.083 0.25,0.083 0.333,0.084 0.25,0.083 0.334,0.083 0.25,0.084 0.25,0.083 0.333,0.083 0.25,0.084 0.25,0.083 0.333,0.083 0.25,0.084 0.334,0.083 0.25,0.083 0.25,0.084 0.333,0.083 0.25,0.083 0.333,0.084 0.25,0.083 0.25,0.083 0.334,0.084 0.25,0.083 0.333,0.083 0.25,0.084 0.25,0.083 0.333,0.083 0.25,0.084 0.25,0.083 0.334,0.083 0.25,0.084 0.333,0.083 0.25,0.083 0.25,0.084 0.333,0.083 0.25,0.083 0.334,0.084 0.25,0.083 0.25,0.083 0.333,0.167 0.25,0.083 0.333,0.084 0.25,0.083 0.25,0.083 0.334,0.084 0.25,0.083 0.333,0.083 0.25,0.084 0.25,0.083 0.333,0.083 0.25,0.084 0.25,0.083 0.334,0.083 0.25,0.084 0.333,0.083 0.25,0.083 0.25,0.084 0.333,0.083 0.25,0.083 0.334,0.084 0.25,0.083 0.25,0.083 0.333,0.084 0.25,0.083 0.333,0.083 0.25,0.084 0.25,0.083 0.334,0.083 0.25,0.084 0.25,0.083 0.333,0.083 0.25,0.084 0.333,0.083 0.25,0.083 0.25,0.084 m 0,0 0.334,0.083 0.25,0.083 0.333,0.084 0.25,0.083 0.25,0.083 0.333,0.084 0.25,0.083 0.334,0.083 0.25,0.084 0.25,0.083 0.333,0.083 0.25,0.084 0.333,0.083 0.25,0.083 0.25,0.084 0.334,0.083 0.25,0.083 0.25,0.084 0.333,0.083 0.25,0.083 0.333,0.084 0.25,0.083 0.25,0.083 0.334,0.084 0.25,0.083 0.333,0.083 0.25,0.084 0.25,0.083 0.333,0.083 0.25,0.084 0.334,0.083 0.25,0.083 0.25,0.084 0.333,0.083 0.25,0.083 0.25,0.084 0.333,0.083 0.25,0.083 0.334,0.084 0.25,0.083 0.25,0.083 0.333,0.167 0.25,0.083 0.333,0.084 0.25,0.083 0.25,0.083 0.334,0.084 0.25,0.083 0.333,0.083 0.25,0.084 0.25,0.083 0.333,0.083 0.25,0.084 0.334,0.083 0.25,0.083 0.25,0.084 0.333,0.083 0.25,0.083 0.25,0.084 0.333,0.083 0.25,0.083 0.334,0.084 0.25,0.083 0.25,0.083 0.333,0.084 0.25,0.083 0.333,0.083 0.25,0.084 0.25,0.083 0.334,0.083 0.25,0.084 0.333,0.083 0.25,0.083 0.25,0.084 0.333,0.083 0.25,0.083 0.25,0.084 0.334,0.083 0.25,0.083 0.333,0.084 0.25,0.083 0.25,0.083 0.333,0.084 0.25,0.083 0.334,0.083 0.25,0.084 0.25,0.083 0.333,0.083 0.25,0.084 0.333,0.083 0.25,0.083 0.25,0.084 0.334,0.083 0.25,0.083 0.333,0.084 0.25,0.083 0.25,0.083 0.333,0.084 0.25,0.083 0.25,0.083 0.334,0.084 0.25,0.083 0.333,0.083 0.25,0.084 0.25,0.083 0.333,0.083 0.25,0.084 0.334,0.083 0.25,0.083 0.25,0.084 0.333,0.083 0.25,0.083 0.333,0.084 0.25,0.083 0.25,0.083 0.334,0.084 0.25,0.083 0.25,0.083 0.333,0.084 0.25,0.083 0.333,0.083 0.25,0.084 0.25,0.083 0.334,0.083 0.25,0.084 0.333,0.083 0.25,0.083 0.25,0.084 0.333,0.083 0.25,0.083 0.334,0.084 0.25,0.083 0.25,0.083 0.333,0.084 0.25,0.083 0.333,0.083 0.25,0.084 0.25,0.083 0.334,0.083 0.25,0.084 0.25,0.083 0.333,0.083 0.25,0.084 0.333,0.083 0.25,0.083 0.25,0.084 0.334,0.083 0.25,0.083 0.333,0.084 0.25,0.083 0.25,0.083 0.333,0.084 0.25,0.083 0.334,0.083 0.25,0.084 0.25,0.083 0.333,0.083 0.25,0.084 0.25,0.083 0.333,0.083 0.25,0.167 0.334,0.083 0.25,0.084 0.25,0.083 0.333,0.083 0.25,0.084 0.333,0.083 0.25,0.083 0.25,0.084 0.334,0.083 0.25,0.083 0.333,0.084 0.25,0.083 0.25,0.083 0.333,0.084 0.25,0.083 0.334,0.083 0.25,0.084 0.25,0.083 0.333,0.083 0.25,0.084 0.25,0.083 0.333,0.083 0.25,0.084 0.334,0.083 0.25,0.083 0.25,0.084 0.333,0.083 0.25,0.083 0.333,0.084 0.25,0.083 0.25,0.083 0.334,0.084 0.25,0.083 0.333,0.083 0.25,0.084 0.25,0.083 0.333,0.083 0.25,0.084 0.25,0.083 0.334,0.083 0.25,0.084 0.333,0.083 0.25,0.083 0.25,0.084 0.333,0.083 0.25,0.083 0.334,0.084 0.25,0.083 0.25,0.083 0.333,0.084 0.25,0.083 0.333,0.083 0.25,0.084 0.25,0.083 0.334,0.083 0.25,0.084 0.333,0.083 0.25,0.083 0.25,0.084 0.333,0.083 0.25,0.083 0.25,0.084 0.334,0.083 0.25,0.083 0.333,0.084 0.25,0.083 0.25,0.083 0.333,0.084 0.25,0.083 0.334,0.083 0.25,0.084 0.25,0.083 0.333,0.083 0.25,0.084 0.333,0.083 0.25,0.083 0.25,0.084 0.334,0.083 0.25,0.083 0.25,0.084 0.333,0.083 0.25,0.083 0.333,0.084 0.25,0.083 0.25,0.083 0.334,0.084 0.25,0.083 0.333,0.083 0.25,0.084 0.25,0.083 0.333,0.083 0.25,0.084 0.334,0.083 0.25,0.083 0.25,0.084 0.333,0.083 0.25,0.083 0.333,0.084 0.25,0.083 0.25,0.083 0.334,0.084 0.25,0.083 0.25,0.083 0.333,0.084 0.25,0.083 0.333,0.083 0.25,0.084 0.25,0.083 0.334,0.083 0.25,0.084 0.333,0.083 0.25,0.083 0.25,0.084 0.333,0.083 0.25,0.083 0.334,0.084 0.25,0.083 0.25,0.083 0.333,0.084 0.25,0.083 0.333,0.083 0.25,0.084 0.25,0.083 0.334,0.083 0.25,0.084 0.25,0.083 0.333,0.083 0.25,0.084 0.333,0.083 0.25,0.083 0.25,0.084 0.334,0.083 0.25,0 0.333,0.083 0.25,0.084 0.25,0.083 0.333,0.083 0.25,0.084 m 0,0 0.334,0.083 0.25,0.083 0.25,0.084 0.333,0.083 0.25,0.083 0.25,0.084 0.333,0.083 0.25,0.083 0.334,0.084 0.25,0.083 0.25,0.083 0.333,0.084 0.25,0.083 0.333,0.083 0.25,0.084 0.25,0.083 0.334,0.083 0.25,0.084 0.333,0.083 0.25,0.083 0.25,0.084 0.333,0.083 0.25,0.083 0.334,0.084 0.25,0.083 0.25,0.083 0.333,0.084 0.25,0.083 0.25,0.083 0.333,0.084 0.25,0.083 0.334,0.083 0.25,0.084 0.25,0.083 0.333,0.083 0.25,0.084 0.333,0.083 0.25,0.083 0.25,0.084 0.334,0.083 0.25,0.083 0.333,0.084 0.25,0.083 0.25,0.083 0.333,0.084 0.25,0.083 0.25,0.083 0.334,0.084 0.25,0.083 0.333,0.083 0.25,0.084 0.25,0.083 0.333,0.083 0.25,0.084 0.334,0.083 0.25,0.083 0.25,0.084 0.333,0.083 0.25,0.083 0.333,0.084 0.25,0.083 0.25,0.083 0.334,0.084 0.25,0.083 0.333,0.083 0.25,0.084 0.25,0.083 0.333,0.083 0.25,0.084 0.25,0.083 0.334,0.083 0.25,0.084 0.333,0.083 0.25,0.083 0.25,0.084 0.333,0.083 0.25,0.083 0.334,0.084 0.25,0.083 0.25,0.083 0.333,0.084 0.25,0.083 0.333,0.083 0.25,0.084 0.25,0.083 0.334,0.083 0.25,0.084 0.25,0.083 0.333,0.083 0.25,0.084 0.333,0.083 0.25,0.083 0.25,0.084 0.334,0.083 0.25,0 0.333,0.083 0.25,0.084 0.25,0.083 0.333,0.083 0.25,0.084 0.334,0.083 0.25,0.083 0.25,0.084 0.333,0.083 0.25,0.083 0.333,0.084 0.25,0.083 0.25,0.083 0.334,0.084 0.25,0.083 0.25,0.083 0.333,0.084 0.25,0.083 0.333,0.083 0.25,0.084 0.25,0.083 0.334,0.083 0.25,0.084 0.333,0.083 0.25,0.083 0.25,0.084 0.333,0.083 0.25,0.083 0.334,0.084 0.25,0.083 0.25,0.083 0.333,0.084 0.25,0.083 0.25,0.083 0.333,0.084 0.25,0.083 0.334,0.083 0.25,0.084 0.25,0.083 0.333,0.083 0.25,0.084 0.333,0.083 0.25,0.083 0.25,0.084 0.334,0.083 0.25,0.083 0.333,0.084 0.25,0.083 0.25,0.083 0.333,0.084 0.25,0.083 0.334,0.083 0.25,0.084 0.25,0.083 0.333,0.083 0.25,0.084 0.25,0.083 0.333,0.083 0.25,0.084 0.334,0.083 0.25,0.083 0.25,0.084 0.333,0.083 0.25,0.083 0.333,0.084 0.25,0.083 0.25,0.083 0.334,0.084 0.25,0.083 0.333,0.083 0.25,0.084 0.25,0.083 0.333,0.083 0.25,0.084 0.25,0.083 0.334,0.083 0.25,0.084 0.333,0.083 0.25,0.083 0.25,0.084 0.333,0.083 0.25,0.083 0.334,0.084 0.25,0.083 0.25,0.083 0.333,0.084 0.25,0.083 0.333,0.083 0.25,0.084 0.25,0.083 0.334,0.083 0.25,0.084 0.333,0.083 0.25,0.083 0.25,0.084 0.333,0.083 0.25,0.083 0.25,0.084 0.334,0.083 0.25,0.083 0.333,0.084 0.25,0.083 0.25,0.083 0.333,0.084 0.25,0.083 0.334,0.083 0.25,0.084 0.25,0.083 0.333,0.083 0.25,0.084 0.333,0.083 0.25,0.083 0.25,0.084 0.334,0.083 0.25,0.083 0.25,0.084 0.333,0.083 0.25,0.083 0.333,0.084 0.25,0.083 0.25,0.083 0.334,0.084 0.25,0.083 0.333,0.083 0.25,0.084 0.25,0.083 0.333,0.083 0.25,0.084 0.334,0.083 0.25,0.083 0.25,0.084 0.333,0.083 0.25,0.083 0.333,0.084 0.25,0.083 0.25,0.083 0.334,0.084 0.25,0.083 0.25,0.083 0.333,0.084 0.25,0.083 0.333,0.083 0.25,0.084 0.25,0.083 0.334,0.083 0.25,0.084 0.333,0.083 0.25,0.083 0.25,0.084 0.333,0.083 0.25,0.083 0.334,0.084 0.25,0.083 0.25,0.083 0.333,0.084 0.25,0.083 0.25,0.083 0.333,0.084 0.25,0.083 0.334,0.083 0.25,0.084 0.25,0.083 0.333,0.083 0.25,0.084 0.333,-3 0.25,-0.75 0.25,-0.834 0.334,-0.833 0.25,-0.833 0.333,-0.834 0.25,-0.833 0.25,-0.833 0.333,-0.834 0.25,-0.833 0.334,-0.833 0.25,-0.834 0.25,-0.833 0.333,-0.75 0.25,-0.833 0.25,-0.834 0.333,-0.833 0.25,-0.833 0.334,-0.834 0.25,-0.833 0.25,-0.833 0.333,-0.834 0.25,-0.833 0.333,-0.833 0.25,-0.75 0.25,-0.834 0.334,-0.833 0.25,-0.833 0.333,-0.834 0.25,-0.833 0.25,-0.833 0.333,-0.834 0.25,-0.833 0.25,-0.833 0.334,-0.834 0.25,-0.833 0.333,-0.75 0.25,-0.833 0.25,-0.834 0.333,-0.833 m 0,0 0.25,-0.833 0.334,-0.834 0.25,-0.833 0.25,-0.833 0.333,-0.834 0.25,-0.833 0.333,-0.833 0.25,-0.75 0.25,-0.834 0.334,-0.833 0.25,-0.833 0.333,-0.834 0.25,-0.833 0.25,-0.833 0.333,-0.834 0.25,-0.833 0.25,-0.833 0.334,-0.834 0.25,-0.75 0.333,-0.833 0.25,-0.833 0.25,-0.834 0.333,-0.833 0.25,-0.833 0.334,-0.834 0.25,-0.833 0.25,-0.833 0.333,-0.834 0.25,-0.833 0.333,-0.75 0.25,-0.833 0.25,-0.834 0.334,-0.833 0.25,-0.833 0.25,-0.834 0.333,-0.833 0.25,-0.833 0.333,-0.25 73.667,0"
       inkscape:connector-curvature="0" /><path
       inkscape:connector-curvature="0"
       id="path388"
       style="fill:none;stroke:#ff0000;stroke-width:2;stroke-linecap:butt;stroke-linejoin:round;stroke-miterlimit:10;stroke-opacity:1;stroke-dasharray:11.84, 4.44;stroke-dashoffset:0"
       d="m 53.25,104.417 9.4168,0" /><path
       inkscape:connector-curvature="0"
       id="path390"
       style="fill:none;stroke:#000000;stroke-width:2;stroke-linecap:butt;stroke-linejoin:round;stroke-miterlimit:10;stroke-opacity:1;stroke-dasharray:none"
       d="m 316.083,35.9168 46.584,0 0.333,68.5002 37.5,0" /><path
       inkscape:connector-curvature="0"
       id="path392"
       style="fill:none;stroke:#000000;stroke-width:2;stroke-linecap:butt;stroke-linejoin:round;stroke-miterlimit:10;stroke-opacity:1;stroke-dasharray:none"
       d="m 231.583,104.417 73.167,0 0.333,-68.5002 11,0" /><path
       inkscape:connector-curvature="0"
       id="path394"
       style="fill:none;stroke:#000000;stroke-width:2;stroke-linecap:butt;stroke-linejoin:round;stroke-miterlimit:10;stroke-opacity:1;stroke-dasharray:none"
       d="m 147.083,104.417 84.5,0" /><path
       inkscape:connector-curvature="0"
       id="path396"
       style="fill:none;stroke:#000000;stroke-width:2;stroke-linecap:butt;stroke-linejoin:round;stroke-miterlimit:10;stroke-opacity:1;stroke-dasharray:none"
       d="m 62.6668,104.417 84.4162,0" /><path
       inkscape:connector-curvature="0"
       id="path398"
       style="fill:none;stroke:#000000;stroke-width:2;stroke-linecap:butt;stroke-linejoin:round;stroke-miterlimit:10;stroke-opacity:1;stroke-dasharray:none"
       d="m 53.25,104.417 9.4168,0" /><text
       xml:space="preserve"
       style="font-size:9.5301609px;font-style:normal;font-weight:normal;line-height:125%;letter-spacing:0px;word-spacing:0px;fill:#000000;fill-opacity:1;stroke:none;font-family:Sans"
       x="134.8434"
       y="-70.175659"
       id="text3467"
       sodipodi:linespacing="125%"
       transform="scale(1,-1)"><tspan
         sodipodi:role="line"
         id="tspan3469"
         x="134.8434"
         y="-70.175659">$t=0.17$</tspan></text>
<text
       sodipodi:linespacing="125%"
       id="text3471"
       y="-70.175659"
       x="205.28224"
       style="font-size:9.5301609px;font-style:normal;font-weight:normal;line-height:125%;letter-spacing:0px;word-spacing:0px;fill:#000000;fill-opacity:1;stroke:none;font-family:Sans"
       xml:space="preserve"
       transform="scale(1,-1)"><tspan
         y="-70.175659"
         x="205.28224"
         id="tspan3473"
         sodipodi:role="line">$t=0.42$</tspan></text>
<text
       xml:space="preserve"
       style="font-size:9.5301609px;font-style:normal;font-weight:normal;line-height:125%;letter-spacing:0px;word-spacing:0px;fill:#000000;fill-opacity:1;stroke:none;font-family:Sans"
       x="306.34381"
       y="-70.175659"
       id="text3475"
       sodipodi:linespacing="125%"
       transform="scale(1,-1)"><tspan
         sodipodi:role="line"
         id="tspan3477"
         x="306.34381"
         y="-70.175659">$t=0.77$</tspan></text>
<g
       id="g206"
       clip-path="url(#clipPath208)"
       transform="matrix(0.10046076,0,0,0.10046076,-1.0453564,-0.85164464)"
       style="stroke-width:19.90826988;stroke-miterlimit:10;stroke-dasharray:79.63308261, 79.63308261;stroke-dashoffset:0"><path
         d="m 3158.33,1044.17 845.84,0"
         style="fill:none;stroke:#0000ff;stroke-width:19.90826988;stroke-linecap:butt;stroke-linejoin:round;stroke-miterlimit:10;stroke-opacity:1;stroke-dasharray:79.63308261, 79.63308261;stroke-dashoffset:0"
         id="path212"
         inkscape:connector-curvature="0" /><path
         d="m 2313.33,1871.67 2.5,-8.34 3.34,-7.5 2.5,-8.33 2.5,-7.5 3.33,-8.33 2.5,-7.5 3.33,-7.5 2.5,-8.34 2.5,-7.5 3.34,-8.33 2.5,-7.5 2.5,-8.33 3.33,-7.5 2.5,-8.34 3.33,-7.5 2.5,-8.33 2.5,-7.5 3.34,-8.33 2.5,-7.5 3.33,-8.34 2.5,-7.5 2.5,-8.33 3.33,-7.5 2.5,-7.5 3.34,-8.33 2.5,-7.5 2.5,-8.34 3.33,-7.5 2.5,-8.33 3.33,-7.5 2.5,-8.33 2.5,-7.5 3.34,-8.34 2.5,-7.5 3.33,-8.33 2.5,-7.5 2.5,-8.33 3.33,-7.5 2.5,-7.5 2.5,-8.34 3.34,-7.5 2.5,-8.33 3.33,-7.5 2.5,-8.33 2.5,-7.5 3.33,-8.34 2.5,-7.5 3.34,-8.33 2.5,-7.5 2.5,-7.5 3.33,-8.33 2.5,-7.5 3.33,-8.34 2.5,-7.5 2.5,-8.33 3.34,-7.5 2.5,-7.5 3.33,-8.33 2.5,-7.5 2.5,-8.34 3.33,-7.5 2.5,-7.5 3.34,-8.33 2.5,-7.5 2.5,-8.33 3.33,-7.5 2.5,-7.5 2.5,-8.34 3.33,-7.5 2.5,-7.5 3.34,-8.33 2.5,-7.5 2.5,-7.5 3.33,-8.33 2.5,-7.5 3.33,-7.5 2.5,-7.5 2.5,-8.34 3.34,-7.5 2.5,-7.5 3.33,-8.33 2.5,-7.5 2.5,-7.5 3.33,-7.5 2.5,-7.5 3.34,-8.33 2.5,-7.5 2.5,-7.5 3.33,-7.5 2.5,-7.5 2.5,-8.34 3.33,-7.5 2.5,-7.5 3.34,-7.5 2.5,-7.5 2.5,-7.5 3.33,-8.33 2.5,-7.5 3.33,-7.5 2.5,-7.5 2.5,-7.5 3.34,-7.5 2.5,-7.5 3.33,-7.5 2.5,-8.33 2.5,-7.5 545.83,0"
         style="fill:none;stroke:#0000ff;stroke-width:19.90826988;stroke-linecap:butt;stroke-linejoin:round;stroke-miterlimit:10;stroke-opacity:1;stroke-dasharray:79.63308261, 79.63308261;stroke-dashoffset:0"
         id="path214"
         inkscape:connector-curvature="0" /><path
         d="m 1467.5,1907.5 3.33,4.17 2.5,3.33 3.34,4.17 2.5,4.16 2.5,3.34 3.33,4.16 2.5,3.34 3.33,4.16 2.5,3.34 2.5,4.16 3.34,3.34 2.5,4.16 3.33,3.34 2.5,4.16 2.5,3.34 3.33,4.16 2.5,3.34 2.5,4.16 3.34,3.34 2.5,4.16 3.33,4.17 2.5,3.33 2.5,4.17 3.33,3.33 2.5,4.17 3.34,3.33 2.5,4.17 2.5,3.33 3.33,4.17 2.5,3.33 3.33,4.17 2.5,3.33 2.5,4.17 3.34,3.33 2.5,4.17 3.33,4.17 2.5,3.33 2.5,4.17 3.33,3.33 2.5,4.17 3.34,3.33 2.5,4.17 2.5,3.33 3.33,4.17 2.5,3.33 2.5,4.17 3.33,3.33 2.5,4.17 3.34,3.33 2.5,4.17 2.5,3.33 3.33,4.17 2.5,4.16 3.33,3.34 2.5,4.16 2.5,3.34 3.34,4.16 2.5,3.34 3.33,4.16 2.5,3.34 2.5,4.16 3.33,3.34 2.5,4.16 3.34,3.34 2.5,4.16 2.5,3.34 3.33,4.16 2.5,4.17 3.33,3.33 2.5,4.17 2.5,3.33 3.34,4.17 2.5,3.33 2.5,4.17 3.33,3.33 2.5,4.17 3.33,3.33 2.5,4.17 2.5,3.33 3.34,4.17 2.5,3.33 3.33,4.17 2.5,3.33 2.5,4.17 3.33,4.17 2.5,3.33 3.34,4.17 2.5,3.33 2.5,4.17 3.33,3.33 2.5,4.17 3.33,3.33 2.5,4.17 2.5,3.33 3.34,4.17 2.5,3.33 2.5,4.17 3.33,3.33 2.5,4.17 3.33,4.16 2.5,3.34 2.5,4.16 3.34,3.34 2.5,4.16 3.33,3.34 2.5,4.16 2.5,3.34 3.33,4.16 2.5,3.34 3.34,4.16 2.5,3.34 2.5,4.16 3.33,3.34 2.5,4.16 3.33,3.34 2.5,4.16 2.5,4.17 3.34,3.33 2.5,4.17 3.33,3.33 2.5,4.17 2.5,3.33 3.33,4.17 2.5,3.33 2.5,4.17 3.34,3.33 2.5,4.17 3.33,3.33 2.5,4.17 2.5,3.33 3.33,4.17 2.5,3.33 3.34,4.17 2.5,3.33 2.5,4.17 3.33,3.33 2.5,4.17 3.33,3.33 2.5,4.17 2.5,3.33 3.34,4.17 2.5,3.33 3.33,4.17 2.5,3.33 2.5,4.17 3.33,3.33 2.5,4.17 3.34,3.33 2.5,4.17 2.5,3.33 3.33,4.17 2.5,3.33 2.5,4.17 3.33,3.33 2.5,3.34 3.34,4.16 2.5,3.34 2.5,4.16 3.33,3.34 2.5,4.16 3.33,3.34 2.5,3.33 2.5,4.17 3.34,3.33 2.5,3.33 3.33,4.17 2.5,3.33 2.5,3.34 3.33,4.16 2.5,3.34 3.34,3.33 2.5,3.33 2.5,4.17 3.33,3.33 2.5,3.34 3.33,3.33 2.5,3.33 2.5,4.17 3.34,3.33 2.5,3.34 2.5,3.33 3.33,3.33 2.5,3.34 3.33,3.33 2.5,4.17 2.5,3.33 3.34,3.33 2.5,3.34 3.33,3.33 2.5,3.33 2.5,3.34 3.33,3.33 2.5,3.33 3.34,3.34 2.5,3.33 2.5,3.33 3.33,3.34 2.5,3.33 3.33,3.33 2.5,3.34 2.5,3.33 3.34,-14.17 2.5,-7.5 2.5,-8.33 3.33,-7.5 2.5,-8.33 3.33,-7.5 2.5,-8.34 2.5,-7.5 3.34,-8.33 2.5,-7.5 3.33,-8.33 2.5,-7.5 2.5,-8.34 3.33,-7.5 2.5,-8.33 3.34,-7.5 2.5,-8.33 2.5,-7.5 3.33,-8.34 2.5,-8.33 3.33,-7.5 2.5,-8.33 2.5,-7.5 3.34,-8.34 2.5,-7.5 3.33,-8.33 2.5,-7.5 2.5,-8.33 3.33,-7.5 2.5,-8.34 2.5,-7.5 3.34,-8.33 2.5,-7.5 3.33,-8.33 2.5,-7.5 2.5,-8.34 3.33,-7.5 2.5,-8.33 3.34,-7.5 2.5,-8.33 2.5,-7.5 3.33,-8.34 2.5,-7.5 3.33,-8.33 2.5,-7.5 2.5,-7.5 3.34,-8.33 2.5,-7.5 3.33,-8.34 2.5,-7.5 2.5,-8.33 3.33,-7.5 2.5,-8.33 3.34,-7.5 2.5,-8.34 2.5,-7.5 3.33,-8.33 2.5,-7.5 2.5,-8.33 3.33,-7.5 2.5,-8.34 3.34,-7.5 2.5,-8.33 2.5,-7.5 3.33,-8.33 2.5,-7.5 3.33,-8.34 2.5,-7.5 2.5,-7.5 3.34,-8.33 2.5,-7.5 3.33,-8.33 2.5,-7.5 2.5,-8.34 3.33,-7.5 2.5,-8.33 3.34,-7.5 2.5,-8.33 2.5,-7.5 3.33,-8.34 2.5,-7.5 3.33,-8.33 2.5,-7.5 2.5,-8.33 3.34,-7.5 2.5,-8.34 2.5,-7.5 3.33,-7.5 2.5,-8.33 3.33,-7.5 2.5,-8.33 2.5,-7.5 3.34,-8.34 2.5,-7.5 3.33,-8.33 2.5,-7.5 2.5,-8.33 3.33,-7.5"
         style="fill:none;stroke:#0000ff;stroke-width:19.90826988;stroke-linecap:butt;stroke-linejoin:round;stroke-miterlimit:10;stroke-opacity:1;stroke-dasharray:79.63308261, 79.63308261;stroke-dashoffset:0"
         id="path216"
         inkscape:connector-curvature="0" /><path
         d="m 622.5,1044.17 200.832,0 2.5,4.16 3.336,4.17 2.5,3.33 2.5,4.17 3.332,3.33 2.5,4.17 3.332,4.17 2.5,3.33 2.5,4.17 3.336,3.33 2.5,4.17 3.332,4.16 2.5,3.34 2.5,4.16 3.332,4.17 2.5,3.33 3.336,4.17 2.5,3.33 2.5,4.17 3.332,4.17 2.5,3.33 3.332,4.17 2.5,3.33 2.5,4.17 3.336,4.16 2.5,3.34 3.332,4.16 2.5,3.34 2.5,4.16 3.332,3.34 2.5,4.16 2.5,4.17 3.336,3.33 2.5,4.17 3.332,3.33 2.5,4.17 2.5,3.33 3.332,4.17 2.5,4.17 3.336,3.33 2.5,4.17 2.5,3.33 3.332,4.17 2.5,3.33 3.332,4.17 2.5,3.33 2.5,4.17 3.336,4.16 2.5,3.34 3.332,4.16 2.5,3.34 2.5,4.16 3.332,3.34 2.5,4.16 3.336,3.34 2.5,4.16 2.5,3.34 3.332,4.16 2.5,4.17 2.5,3.33 3.332,4.17 2.5,3.33 3.338,4.17 2.5,3.33 2.5,4.17 3.33,3.33 2.5,4.17 3.33,3.33 2.5,4.17 2.5,3.33 3.34,4.17 2.5,3.33 3.33,4.17 2.5,4.17 2.5,3.33 3.33,4.17 2.5,3.33 3.34,4.17 2.5,3.33 2.5,4.17 3.33,3.33 2.5,4.17 3.33,3.33 2.5,4.17 2.5,3.33 3.34,4.17 2.5,3.33 2.5,4.17 3.33,4.16 2.5,3.34 3.33,4.16 2.5,3.34 2.5,4.16 3.34,3.34 2.5,4.16 3.33,3.34 2.5,4.16 2.5,3.34 3.33,4.16 2.5,3.34 3.34,4.16 2.5,3.34 2.5,4.16 3.33,4.17 2.5,3.33 3.33,4.17 2.5,3.33 2.5,4.17 3.34,3.33 2.5,4.17 2.5,3.33 3.33,4.17 2.5,3.33 3.33,4.17 2.5,3.33 2.5,4.17 3.34,3.33 2.5,4.17 3.33,3.33 2.5,4.17 2.5,4.17 3.33,3.33 2.5,4.17 3.34,3.33 2.5,4.17 2.5,3.33 3.33,4.17 2.5,3.33 3.33,4.17 2.5,3.33 2.5,4.17 3.34,3.33 2.5,4.17 3.33,3.33 2.5,4.17 2.5,4.16 3.33,3.34 2.5,4.16 2.5,3.34 3.34,4.16 2.5,3.34 3.33,4.16 2.5,3.34 2.5,4.16 3.33,3.34 2.5,4.16 3.34,3.34 2.5,4.16 2.5,3.34 3.33,4.16 2.5,3.34 3.33,4.16 2.5,4.17 2.5,3.33 3.34,4.17 2.5,3.33 3.33,4.17 2.5,3.33 2.5,4.17 3.33,3.33 2.5,4.17 3.34,3.33 2.5,4.17 2.5,3.33 3.33,4.17 2.5,3.33 2.5,4.17 3.33,4.17 2.5,3.33 3.34,4.17 2.5,3.33 2.5,4.17 3.33,3.33 2.5,4.17 3.33,3.33 2.5,4.17 2.5,3.33 3.34,4.17 2.5,3.33 3.33,4.17 2.5,3.33 2.5,4.17 3.33,3.33 2.5,4.17 3.34,4.16 2.5,3.34 2.5,4.16 3.33,3.34 2.5,4.16 3.33,3.34 2.5,4.16 2.5,3.34 3.34,4.16 2.5,3.34 2.5,4.16 3.33,3.34 2.5,4.16 3.33,3.34 2.5,4.16 2.5,4.17 3.34,3.33 2.5,4.17 3.33,3.33 2.5,4.17 2.5,3.33 3.33,4.17 2.5,3.33 3.34,4.17 2.5,3.33 2.5,4.17 3.33,3.33 2.5,4.17 3.33,3.33 2.5,4.17 2.5,3.33 3.34,4.17 2.5,4.17 2.5,3.33 3.33,4.17 2.5,3.33 3.33,4.17 2.5,3.33 2.5,4.17 3.34,3.33 2.5,4.17 3.33,3.33 2.5,4.17 2.5,3.33"
         style="fill:none;stroke:#0000ff;stroke-width:19.90826988;stroke-linecap:butt;stroke-linejoin:round;stroke-miterlimit:10;stroke-opacity:1;stroke-dasharray:79.63308261, 79.63308261;stroke-dashoffset:0"
         id="path218"
         inkscape:connector-curvature="0" /><path
         d="m 532.5,1044.17 90,0"
         style="fill:none;stroke:#0000ff;stroke-width:19.90826988;stroke-linecap:butt;stroke-linejoin:round;stroke-miterlimit:10;stroke-opacity:1;stroke-dasharray:79.63308261, 79.63308261;stroke-dashoffset:0"
         id="path220"
         inkscape:connector-curvature="0" /></g><path
       id="path338"
       style="fill:none;stroke:#ff0000;stroke-width:2;stroke-linecap:butt;stroke-linejoin:round;stroke-miterlimit:10;stroke-opacity:1;stroke-dasharray:8, 8;stroke-dashoffset:0;marker-start:none"
       d="m 62.6668,104.417 19.5,0 0.25,0.416 0.25,0.417 0.3332,0.417 0.25,0.333 0.3332,0.417 0.25,0.416 0.25,0.417 0.3336,0.333 0.25,0.417 0.3332,0.417 0.25,0.416 0.25,0.334 0.3332,0.416 0.25,0.417 0.3336,0.417 0.25,0.416 0.25,0.334 0.3332,0.416 0.25,0.417 0.25,0.417 0.3332,0.333 0.25,0.417 0.3336,0.416 0.25,0.417 0.25,0.333 0.3332,0.417 0.25,0.417 0.3332,0.416 0.25,0.334 0.25,0.416 0.3336,0.417 0.25,0.417 0.3332,0.416 0.25,0.334 0.25,0.416 0.3332,0.417 0.25,0.417 0.25,0.333 0.3336,0.417 0.25,0.416 0.3332,0.417 0.25,0.333 0.25,0.417 0.3332,0.417 0.25,0.416 0.3336,0.334 0.25,0.416 0.25,0.417 0.3332,0.417 0.25,0.416 0.3332,0.334 0.25,0.416 0.25,0.417 0.3336,0.417 0.25,0.333 0.3332,0.417 0.25,0.416 0.25,0.417 0.3332,0.333 0.25,0.417 0.25,0.417 0.3336,0.416 0.25,0.417 0.3332,0.333 0.25,0.417 0.25,0.417 0.333,0.416 0.25,0.334 0.334,0.416 0.25,0.417 0.25,0.417 0.333,0.333 0.25,0.417 0.333,0.416 0.25,0.417 0.25,0.417 0.334,0.333 0.25,0.417 0.333,0.416 0.25,0.417 0.25,0.333 0.333,0.417 0.25,0.417 0.25,0.416 0.334,0.334 0.25,0.416 0.333,0.417 0.25,0.417 0.25,0.333 0.333,0.417 0.25,0.416 0.334,0.417 0.25,0.417 0.25,0.333 0.333,0.417 0.25,0.416 0.333,0.417 0.25,0.333 0.25,0.417 0.334,0.417 0.25,0.416 0.25,0.334 0.333,0.416 0.25,0.417 0.333,0.417 0.25,0.416 0.25,0.334 0.334,0.416 0.25,0.417 0.333,0.417 0.25,0.333 0.25,0.417 0.333,0.416 0.25,0.417 0.334,0.333 0.25,0.417 0.25,0.417 0.333,0.416 0.25,0.417 0.333,0.333 0.25,0.417 0.25,0.417 0.334,0.416 0.25,0.334 0.25,0.416 0.333,0.417 0.25,0.417 0.333,0.333 0.25,0.417 0.25,0.416 0.334,0.417 0.25,0.417 0.333,0.333 0.25,0.417 0.25,0.416 0.333,0.417 0.25,0.333 0.334,0.417 0.25,0.417 0.25,0.416 0.333,0.334 0.25,0.416 0.25,0.417 0.333,0.417 0.25,0.416 0.334,0.334 0.25,0.416 0.25,0.417 0.333,0.417 0.25,0.333 0.333,0.417 0.25,0.416 0.25,0.417 0.334,0.333 0.25,0.417 0.333,0.417 0.25,0.416 0.25,0.417 0.333,0.333 0.25,0.417 0.334,0.417 0.25,0.416 0.25,0.334 0.333,0.416 0.25,0.417 0.25,0.417 0.333,0.333 0.25,0.417 0.334,0.416 0.25,0.417 0.25,0.417 0.333,0.333 0.25,0.417 0.333,0.416 0.25,-2.916 0.25,-0.75 0.334,-0.834 0.25,-0.75 0.333,-0.833 0.25,-0.75 0.25,-0.75 0.333,-0.833 0.25,-0.75 0.25,-0.834 0.334,-0.75 0.25,-0.833 0.333,-0.75 0.25,-0.833 0.25,-0.75 0.333,-0.75 0.25,-0.834 0.334,-0.75 0.25,-0.833 0.25,-0.75 0.333,-0.833 0.25,-0.75 0.333,-0.834 0.25,-0.75 0.25,-0.833 0.334,-0.75 0.25,-0.75 0.333,-0.833 0.25,-0.75 0.25,-0.834 0.333,-0.75 0.25,-0.833 0.25,-0.75 0.334,-0.833 0.25,-0.75 0.333,-0.75 0.25,-0.834 0.25,-0.75 0.333,-0.833 0.25,-0.75 0.334,-0.833 0.25,-0.75 0.25,-0.834 0.333,-0.75 0.25,-0.833 0.333,-0.75 0.25,-0.75 0.25,-0.833 0.334,-0.75 0.25,-0.834 0.25,-0.75 0.333,-0.833 0.25,-0.75 0.333,-0.833 0.25,-0.75 0.25,-0.75 m 0,0 0.334,-0.834 0.25,-0.75 L 148,125 l 0.25,-0.75 0.25,-0.833 0.333,-0.75 0.25,-0.834 0.334,-0.75 0.25,-0.75 0.25,-0.833 0.333,-0.75 0.25,-0.833 0.333,-0.75 0.25,-0.834 0.25,-0.75 0.334,-0.833 0.25,-0.75 0.25,-0.833 0.333,-0.75 0.25,-0.75 0.333,-0.834 0.25,-0.75 0.25,-0.833 0.334,-0.75 0.25,-0.833 0.333,-0.75 0.25,-0.834 0.25,-0.75 0.333,-0.75 0.25,-0.166 76,0"
       inkscape:connector-curvature="0" /><path
       id="path364"
       style="fill:none;stroke:#ff0000;stroke-width:2;stroke-linecap:butt;stroke-linejoin:round;stroke-miterlimit:10;stroke-opacity:1;stroke-dasharray:8, 8;stroke-dashoffset:0;marker-start:none"
       d="m 147.083,140.75 0.334,0.167 0.25,0.166 0.333,0.167 0.25,0.167 0.25,0.166 0.333,0.167 0.25,0.167 0.334,0.166 0.25,0.084 0.25,0.166 0.333,0.167 0.25,0.167 0.333,0.166 0.25,0.167 0.25,0.167 0.334,0.166 0.25,0.167 0.25,0.083 0.333,0.167 0.25,0.167 0.333,0.166 0.25,0.167 0.25,0.167 0.334,0.166 0.25,0.167 0.333,0.083 0.25,0.167 0.25,0.167 0.333,0.166 0.25,0.167 0.334,0.167 0.25,0.166 0.25,0.167 0.333,0.167 0.25,0.083 0.25,0.167 0.333,0.166 0.25,0.167 0.334,0.167 0.25,0.166 0.25,0.167 0.333,0.167 0.25,0.166 0.333,0.084 0.25,0.166 0.25,0.167 0.334,0.167 0.25,0.166 0.333,0.167 0.25,0.167 0.25,0.166 0.333,0.167 0.25,0.083 0.334,0.167 0.25,0.167 0.25,0.166 0.333,0.167 0.25,0.167 0.25,0.166 0.333,0.167 0.25,0.083 0.334,0.167 0.25,0.167 0.25,0.166 0.333,0.167 0.25,0.167 0.333,0.166 0.25,0.167 0.25,0.167 0.334,0.083 0.25,0.167 0.333,0.166 0.25,0.167 0.25,0.167 0.333,0.166 0.25,0.167 0.25,0.167 0.334,0.166 0.25,0.084 0.333,0.166 0.25,0.167 0.25,0.167 0.333,0.166 0.25,0.167 0.334,0.167 0.25,0.166 0.25,0.084 0.333,0.166 0.25,0.167 0.333,0.167 0.25,0.166 0.25,0.167 0.334,0.167 0.25,0.166 0.333,0.167 0.25,0.083 0.25,0.167 0.333,0.167 0.25,0.166 0.25,0.167 0.334,0.167 0.25,0.166 0.333,0.167 0.25,0.167 0.25,0.083 0.333,0.167 0.25,0.166 0.334,0.167 0.25,0.167 0.25,0.166 0.333,0.167 0.25,0.167 0.333,0.166 0.25,0.084 0.25,0.166 0.334,0.167 0.25,0.167 0.25,0.166 0.333,0.167 0.25,0.167 0.333,0.166 0.25,0.167 0.25,0.083 0.334,0.167 0.25,0.167 0.333,0.166 0.25,0.167 0.25,0.167 0.333,0.166 0.25,0.167 0.334,0.167 0.25,0.083 0.25,0.167 0.333,0.166 0.25,0.167 0.333,0.167 0.25,0.166 0.25,0.167 0.334,0.167 0.25,0.166 0.25,0.084 0.333,0.166 0.25,0.167 0.333,0.167 0.25,0.166 0.25,0.167 0.334,0.167 0.25,0.166 0.333,0.167 0.25,0.167 0.25,0.083 0.333,0.167 0.25,0.166 0.334,0.167 0.25,0.167 0.25,0.166 0.333,0.167 0.25,0.167 0.25,0.166 0.333,0.084 0.25,0.166 0.334,0.167 0.25,0.167 0.25,0.166 0.333,0.167 0.25,0.167 0.333,0.166 0.25,0.167 0.25,0.167 0.334,0.083 0.25,0.167 0.333,0.166 0.25,0.167 0.25,0.167 0.333,0.166 0.25,0.167 0.334,0.167 0.25,0.166 0.25,0.167 0.333,0.083 0.25,0.167 0.25,0.167 0.333,0.166 0.25,0.167 0.334,0.167 0.25,0.166 0.25,0.167 0.333,0.167 0.25,0.166 0.333,0.084 0.25,0.166 0.25,0.167 0.334,0.167 0.25,0.166 0.333,0.167 0.25,0.167 0.25,0.166 0.333,0.167 0.25,0.167 0.25,0.166 0.334,-3 0.25,-0.833 0.333,-0.75 0.25,-0.833 0.25,-0.834 0.333,-0.833 0.25,-0.833 0.334,-0.75 0.25,-0.834 0.25,-0.833 0.333,-0.833 0.25,-0.834 0.333,-0.75 0.25,-0.833 0.25,-0.833 0.334,-0.834 0.25,-0.833 0.333,-0.75 0.25,-0.833 0.25,-0.834 0.333,-0.833 0.25,-0.833 0.25,-0.75 0.334,-0.834 0.25,-0.833 0.333,-0.833 0.25,-0.834 0.25,-0.75 0.333,-0.833 0.25,-0.833 0.334,-0.834 0.25,-0.833 0.25,-0.75 0.333,-0.833 0.25,-0.834 0.333,-0.833 0.25,-0.833 0.25,-0.834 0.334,-0.75 0.25,-0.833 0.25,-0.833 0.333,-0.834 0.25,-0.833 0.333,-0.75 0.25,-0.833 0.25,-0.834 0.334,-0.833 0.25,-0.833 0.333,-0.75 0.25,-0.834 0.25,-0.833 0.333,-0.833 0.25,-0.834 0.334,-0.75 0.25,-0.833 0.25,-0.833 0.333,-0.834 0.25,-0.833 0.333,-0.75 0.25,-0.833 0.25,-0.834 0.334,-0.833 0.25,-0.833 0.25,-0.75 0.333,-0.834 0.25,-0.833 0.333,-0.833 0.25,-0.834 0.25,-0.75 0.334,-0.833 0.25,-0.833 0.333,-0.834 0.25,-0.833 0.25,-0.75 0.333,-0.833 0.25,-0.834 0.334,-0.833 0.25,-0.75 0.25,-0.833 0.333,-0.834 0.25,-0.416 5.083,0 m 0,0 84.5,0"
       inkscape:connector-curvature="0" /></g></svg>