<?xml version="1.0" encoding="UTF-8" standalone="no"?>
<svg
   xmlns:dc="http://purl.org/dc/elements/1.1/"
   xmlns:cc="http://creativecommons.org/ns#"
   xmlns:rdf="http://www.w3.org/1999/02/22-rdf-syntax-ns#"
   xmlns:svg="http://www.w3.org/2000/svg"
   xmlns="http://www.w3.org/2000/svg"
   xmlns:sodipodi="http://sodipodi.sourceforge.net/DTD/sodipodi-0.dtd"
   xmlns:inkscape="http://www.inkscape.org/namespaces/inkscape"
   width="2467.1562"
   height="1376.75"
   viewBox="0 0 1973.7256 1101.4007"
   version="1.2"
   id="svg2"
   inkscape:version="0.48.5 r10040"
   sodipodi:docname="oscilaciones.pdf">
  <metadata
     id="metadata1000">
    <rdf:RDF>
      <cc:Work
         rdf:about="">
        <dc:format>image/svg+xml</dc:format>
        <dc:type
           rdf:resource="http://purl.org/dc/dcmitype/StillImage" />
        <dc:title>Qt Svg Document</dc:title>
      </cc:Work>
    </rdf:RDF>
  </metadata>
  <sodipodi:namedview
     pagecolor="#ffffff"
     bordercolor="#666666"
     borderopacity="1"
     objecttolerance="10"
     gridtolerance="10"
     guidetolerance="10"
     inkscape:pageopacity="0"
     inkscape:pageshadow="2"
     inkscape:window-width="1920"
     inkscape:window-height="1025"
     id="namedview998"
     showgrid="false"
     inkscape:zoom="0.55510121"
     inkscape:cx="403.35858"
     inkscape:cy="780.67183"
     inkscape:window-x="-2"
     inkscape:window-y="-3"
     inkscape:window-maximized="1"
     inkscape:current-layer="svg2"
     fit-margin-top="0"
     fit-margin-left="0"
     fit-margin-right="0"
     fit-margin-bottom="0" />
  <title
     id="title4">Qt Svg Document</title>
  <desc
     id="desc6">Generated with Qt</desc>
  <defs
     id="defs8">
    <marker
       inkscape:stockid="DiamondSend"
       orient="auto"
       refY="0.0"
       refX="0.0"
       id="DiamondSend"
       style="overflow:visible">
      <path
         id="path4698"
         d="M 0,-7.0710768 L -7.0710894,0 L 0,7.0710589 L 7.0710462,0 L 0,-7.0710768 z "
         style="fill-rule:evenodd;stroke:#000000;stroke-width:1.0pt"
         transform="scale(0.2) translate(-6,0)" />
    </marker>
    <marker
       inkscape:stockid="TriangleOutM"
       orient="auto"
       refY="0.0"
       refX="0.0"
       id="TriangleOutM"
       style="overflow:visible">
      <path
         id="path4740"
         d="M 5.77,0.0 L -2.88,5.0 L -2.88,-5.0 L 5.77,0.0 z "
         style="fill-rule:evenodd;stroke:#000000;stroke-width:1.0pt"
         transform="scale(0.4)" />
    </marker>
    <marker
       inkscape:stockid="TriangleInM"
       orient="auto"
       refY="0.0"
       refX="0.0"
       id="TriangleInM"
       style="overflow:visible">
      <path
         id="path4731"
         d="M 5.77,0.0 L -2.88,5.0 L -2.88,-5.0 L 5.77,0.0 z "
         style="fill-rule:evenodd;stroke:#000000;stroke-width:1.0pt"
         transform="scale(-0.4)" />
    </marker>
    <marker
       inkscape:stockid="DiamondS"
       orient="auto"
       refY="0.0"
       refX="0.0"
       id="DiamondS"
       style="overflow:visible">
      <path
         id="path4680"
         d="M 0,-7.0710768 L -7.0710894,0 L 0,7.0710589 L 7.0710462,0 L 0,-7.0710768 z "
         style="fill-rule:evenodd;stroke:#000000;stroke-width:1.0pt"
         transform="scale(0.2)" />
    </marker>
    <marker
       inkscape:stockid="SquareS"
       orient="auto"
       refY="0.0"
       refX="0.0"
       id="SquareS"
       style="overflow:visible">
      <path
         id="path4671"
         d="M -5.0,-5.0 L -5.0,5.0 L 5.0,5.0 L 5.0,-5.0 L -5.0,-5.0 z "
         style="fill-rule:evenodd;stroke:#000000;stroke-width:1.0pt"
         transform="scale(0.2)" />
    </marker>
    <marker
       inkscape:stockid="SquareM"
       orient="auto"
       refY="0.0"
       refX="0.0"
       id="SquareM"
       style="overflow:visible">
      <path
         id="path4668"
         d="M -5.0,-5.0 L -5.0,5.0 L 5.0,5.0 L 5.0,-5.0 L -5.0,-5.0 z "
         style="fill-rule:evenodd;stroke:#000000;stroke-width:1.0pt"
         transform="scale(0.4)" />
    </marker>
    <marker
       inkscape:stockid="DotS"
       orient="auto"
       refY="0.0"
       refX="0.0"
       id="DotS"
       style="overflow:visible">
      <path
         id="path4662"
         d="M -2.5,-1.0 C -2.5,1.7600000 -4.7400000,4.0 -7.5,4.0 C -10.260000,4.0 -12.5,1.7600000 -12.5,-1.0 C -12.5,-3.7600000 -10.260000,-6.0 -7.5,-6.0 C -4.7400000,-6.0 -2.5,-3.7600000 -2.5,-1.0 z "
         style="fill-rule:evenodd;stroke:#000000;stroke-width:1.0pt"
         transform="scale(0.2) translate(7.4, 1)" />
    </marker>
    <marker
       inkscape:stockid="StopM"
       orient="auto"
       refY="0"
       refX="0"
       id="StopM"
       style="overflow:visible">
      <path
         id="path5506"
         d="M 0,5.65 0,-5.65"
         style="fill:none;stroke:#000000;stroke-width:1pt"
         transform="scale(0.4,0.4)"
         inkscape:connector-curvature="0" />
    </marker>
    <marker
       inkscape:stockid="DotM"
       orient="auto"
       refY="0"
       refX="0"
       id="DotM"
       style="overflow:visible">
      <path
         id="path5398"
         d="m -2.5,-1 c 0,2.76 -2.24,5 -5,5 -2.76,0 -5,-2.24 -5,-5 0,-2.76 2.24,-5 5,-5 2.76,0 5,2.24 5,5 z"
         style="fill-rule:evenodd;stroke:#000000;stroke-width:1pt"
         transform="matrix(0.4,0,0,0.4,2.96,0.4)"
         inkscape:connector-curvature="0" />
    </marker>
  </defs>
  <path
     style="font-size:9px;font-style:normal;font-weight:400;fill:none;stroke:#a0a0a4;stroke-width:1.00313997;stroke-linecap:round;stroke-linejoin:round;stroke-opacity:1;stroke-dasharray:1.00314, 2.00628;stroke-dashoffset:0;font-family:Sans Serif"
     vector-effect="none"
     d="m 137.59002,1011.4029 1821.70218,0"
     id="path18"
     inkscape:connector-curvature="0" />
  <path
     style="font-size:9px;font-style:normal;font-weight:400;fill:none;stroke:#000000;stroke-width:1.00313997;stroke-linecap:round;stroke-linejoin:round;stroke-opacity:1;font-family:Sans Serif"
     vector-effect="none"
     d="m 137.59002,1011.4029 8.02512,0"
     id="path26"
     inkscape:connector-curvature="0" />
  <path
     style="font-size:9px;font-style:normal;font-weight:400;fill:none;stroke:#000000;stroke-width:1.00313997;stroke-linecap:round;stroke-linejoin:round;stroke-opacity:1;font-family:Sans Serif"
     vector-effect="none"
     d="m 1959.2922,1011.4029 -8.0251,0"
     id="path34"
     inkscape:connector-curvature="0" />
  <text
     xml:space="preserve"
     x="76.353394"
     y="1019.023"
     font-size="9"
     font-weight="400"
     font-style="normal"
     id="text44"
     style="font-size:9.02826023px;font-style:normal;font-weight:400;fill:#000000;fill-opacity:1;stroke:none;font-family:Sans">-30</text>
  <path
     style="font-size:9px;font-style:normal;font-weight:400;stroke:#000000;stroke-width:0.80000049;stroke-linecap:round;stroke-linejoin:round;stroke-miterlimit:4;stroke-opacity:1;stroke-dasharray:1.00314001, 6.01884004;stroke-dashoffset:0;font-family:Sans Serif"
     vector-effect="none"
     d="m 137.59002,929.14538 1821.70218,0"
     id="path60"
     inkscape:connector-curvature="0" />
  <path
     style="font-size:9px;font-style:normal;font-weight:400;fill:none;stroke:#000000;stroke-width:1.00313997;stroke-linecap:round;stroke-linejoin:round;stroke-opacity:1;font-family:Sans Serif"
     vector-effect="none"
     d="m 137.59002,929.14538 8.02512,0"
     id="path68"
     inkscape:connector-curvature="0" />
  <path
     style="font-size:9px;font-style:normal;font-weight:400;fill:none;stroke:#000000;stroke-width:1.00313997;stroke-linecap:round;stroke-linejoin:round;stroke-opacity:1;font-family:Sans Serif"
     vector-effect="none"
     d="m 1959.2922,929.14538 -8.0251,0"
     id="path76"
     inkscape:connector-curvature="0" />
  <text
     xml:space="preserve"
     x="76.353394"
     y="937.76801"
     font-size="9"
     font-weight="400"
     font-style="normal"
     id="text86"
     style="font-size:9.02826023px;font-style:normal;font-weight:400;fill:#000000;fill-opacity:1;stroke:none;font-family:Sans">-25</text>
  <path
     style="font-size:9px;font-style:normal;font-weight:400;stroke:#000000;stroke-width:0.80000049;stroke-linecap:round;stroke-linejoin:round;stroke-miterlimit:4;stroke-opacity:1;stroke-dasharray:1.00314001, 6.01884004;stroke-dashoffset:0;font-family:Sans Serif"
     vector-effect="none"
     d="m 137.59002,847.89104 1821.70218,0"
     id="path102"
     inkscape:connector-curvature="0" />
  <path
     style="font-size:9px;font-style:normal;font-weight:400;fill:none;stroke:#000000;stroke-width:1.00313997;stroke-linecap:round;stroke-linejoin:round;stroke-opacity:1;font-family:Sans Serif"
     vector-effect="none"
     d="m 137.59002,847.89104 8.02512,0"
     id="path110"
     inkscape:connector-curvature="0" />
  <path
     style="font-size:9px;font-style:normal;font-weight:400;fill:none;stroke:#000000;stroke-width:1.00313997;stroke-linecap:round;stroke-linejoin:round;stroke-opacity:1;font-family:Sans Serif"
     vector-effect="none"
     d="m 1959.2922,847.89104 -8.0251,0"
     id="path118"
     inkscape:connector-curvature="0" />
  <text
     xml:space="preserve"
     x="76.353394"
     y="856.51398"
     font-size="9"
     font-weight="400"
     font-style="normal"
     id="text128"
     style="font-size:9.02826023px;font-style:normal;font-weight:400;fill:#000000;fill-opacity:1;stroke:none;font-family:Sans">-20</text>
  <path
     style="font-size:9px;font-style:normal;font-weight:400;stroke:#000000;stroke-width:0.80000049;stroke-linecap:round;stroke-linejoin:round;stroke-miterlimit:4;stroke-opacity:1;stroke-dasharray:1.00314001, 6.01884004;stroke-dashoffset:0;font-family:Sans Serif"
     vector-effect="none"
     d="m 137.59002,766.6367 1821.70218,0"
     id="path144"
     inkscape:connector-curvature="0" />
  <path
     style="font-size:9px;font-style:normal;font-weight:400;fill:none;stroke:#000000;stroke-width:1.00313997;stroke-linecap:round;stroke-linejoin:round;stroke-opacity:1;font-family:Sans Serif"
     vector-effect="none"
     d="m 137.59002,766.6367 8.02512,0"
     id="path152"
     inkscape:connector-curvature="0" />
  <path
     style="font-size:9px;font-style:normal;font-weight:400;fill:none;stroke:#000000;stroke-width:1.00313997;stroke-linecap:round;stroke-linejoin:round;stroke-opacity:1;font-family:Sans Serif"
     vector-effect="none"
     d="m 1959.2922,766.6367 -8.0251,0"
     id="path160"
     inkscape:connector-curvature="0" />
  <text
     xml:space="preserve"
     x="76.353394"
     y="774.25598"
     font-size="9"
     font-weight="400"
     font-style="normal"
     id="text170"
     style="font-size:9.02826023px;font-style:normal;font-weight:400;fill:#000000;fill-opacity:1;stroke:none;font-family:Sans">-15</text>
  <path
     style="font-size:9px;font-style:normal;font-weight:400;stroke:#000000;stroke-width:0.80000049;stroke-linecap:round;stroke-linejoin:round;stroke-miterlimit:4;stroke-opacity:1;stroke-dasharray:1.00314001, 6.01884004;stroke-dashoffset:0;font-family:Sans Serif"
     vector-effect="none"
     d="m 137.59002,684.37922 1821.70218,0"
     id="path186"
     inkscape:connector-curvature="0" />
  <path
     style="font-size:9px;font-style:normal;font-weight:400;fill:none;stroke:#000000;stroke-width:1.00313997;stroke-linecap:round;stroke-linejoin:round;stroke-opacity:1;font-family:Sans Serif"
     vector-effect="none"
     d="m 137.59002,684.37922 8.02512,0"
     id="path194"
     inkscape:connector-curvature="0" />
  <path
     style="font-size:9px;font-style:normal;font-weight:400;fill:none;stroke:#000000;stroke-width:1.00313997;stroke-linecap:round;stroke-linejoin:round;stroke-opacity:1;font-family:Sans Serif"
     vector-effect="none"
     d="m 1959.2922,684.37922 -8.0251,0"
     id="path202"
     inkscape:connector-curvature="0" />
  <text
     xml:space="preserve"
     x="76.353394"
     y="693.00201"
     font-size="9"
     font-weight="400"
     font-style="normal"
     id="text212"
     style="font-size:9.02826023px;font-style:normal;font-weight:400;fill:#000000;fill-opacity:1;stroke:none;font-family:Sans">-10</text>
  <path
     style="font-size:9px;font-style:normal;font-weight:400;stroke:#000000;stroke-width:0.80000049;stroke-linecap:round;stroke-linejoin:round;stroke-miterlimit:4;stroke-opacity:1;stroke-dasharray:1.00314001, 6.01884004;stroke-dashoffset:0;font-family:Sans Serif"
     vector-effect="none"
     d="m 137.59002,603.12488 1821.70218,0"
     id="path228"
     inkscape:connector-curvature="0" />
  <path
     style="font-size:9px;font-style:normal;font-weight:400;fill:none;stroke:#000000;stroke-width:1.00313997;stroke-linecap:round;stroke-linejoin:round;stroke-opacity:1;font-family:Sans Serif"
     vector-effect="none"
     d="m 137.59002,603.12488 8.02512,0"
     id="path236"
     inkscape:connector-curvature="0" />
  <path
     style="font-size:9px;font-style:normal;font-weight:400;fill:none;stroke:#000000;stroke-width:1.00313997;stroke-linecap:round;stroke-linejoin:round;stroke-opacity:1;font-family:Sans Serif"
     vector-effect="none"
     d="m 1959.2922,603.12488 -8.0251,0"
     id="path244"
     inkscape:connector-curvature="0" />
  <text
     xml:space="preserve"
     x="87.387993"
     y="611.74799"
     font-size="9"
     font-weight="400"
     font-style="normal"
     id="text254"
     style="font-size:9.02826023px;font-style:normal;font-weight:400;fill:#000000;fill-opacity:1;stroke:none;font-family:Sans">-5</text>
  <path
     style="font-size:9px;font-style:normal;font-weight:400;stroke:#000000;stroke-width:0.80000049;stroke-linecap:round;stroke-linejoin:round;stroke-miterlimit:4;stroke-opacity:1;stroke-dasharray:1.00314001, 6.01884004;stroke-dashoffset:0;font-family:Sans Serif"
     vector-effect="none"
     d="m 137.59002,521.87054 1821.70218,0"
     id="path270"
     inkscape:connector-curvature="0" />
  <path
     style="font-size:9px;font-style:normal;font-weight:400;fill:none;stroke:#000000;stroke-width:1.00313997;stroke-linecap:round;stroke-linejoin:round;stroke-opacity:1;font-family:Sans Serif"
     vector-effect="none"
     d="m 137.59002,521.87054 8.02512,0"
     id="path278"
     inkscape:connector-curvature="0" />
  <path
     style="font-size:9px;font-style:normal;font-weight:400;fill:none;stroke:#000000;stroke-width:1.00313997;stroke-linecap:round;stroke-linejoin:round;stroke-opacity:1;font-family:Sans Serif"
     vector-effect="none"
     d="m 1959.2922,521.87054 -8.0251,0"
     id="path286"
     inkscape:connector-curvature="0" />
  <text
     xml:space="preserve"
     x="88.391098"
     y="529.48999"
     font-size="9"
     font-weight="400"
     font-style="normal"
     id="text296"
     style="font-size:9.02826023px;font-style:normal;font-weight:400;fill:#000000;fill-opacity:1;stroke:none;font-family:Sans"> 0</text>
  <path
     style="font-size:9px;font-style:normal;font-weight:400;stroke:#000000;stroke-width:0.80000049;stroke-linecap:round;stroke-linejoin:round;stroke-miterlimit:4;stroke-opacity:1;stroke-dasharray:1.00314001, 6.01884004;stroke-dashoffset:0;font-family:Sans Serif"
     vector-effect="none"
     d="m 137.59002,440.6162 1821.70218,0"
     id="path312"
     inkscape:connector-curvature="0" />
  <path
     style="font-size:9px;font-style:normal;font-weight:400;fill:none;stroke:#000000;stroke-width:1.00313997;stroke-linecap:round;stroke-linejoin:round;stroke-opacity:1;font-family:Sans Serif"
     vector-effect="none"
     d="m 137.59002,440.6162 8.02512,0"
     id="path320"
     inkscape:connector-curvature="0" />
  <path
     style="font-size:9px;font-style:normal;font-weight:400;fill:none;stroke:#000000;stroke-width:1.00313997;stroke-linecap:round;stroke-linejoin:round;stroke-opacity:1;font-family:Sans Serif"
     vector-effect="none"
     d="m 1959.2922,440.6162 -8.0251,0"
     id="path328"
     inkscape:connector-curvature="0" />
  <text
     xml:space="preserve"
     x="88.391098"
     y="448.23599"
     font-size="9"
     font-weight="400"
     font-style="normal"
     id="text338"
     style="font-size:9.02826023px;font-style:normal;font-weight:400;fill:#000000;fill-opacity:1;stroke:none;font-family:Sans"> 5</text>
  <path
     style="font-size:9px;font-style:normal;font-weight:400;stroke:#000000;stroke-width:0.80000049;stroke-linecap:round;stroke-linejoin:round;stroke-miterlimit:4;stroke-opacity:1;stroke-dasharray:1.00314001, 6.01884004;stroke-dashoffset:0;font-family:Sans Serif"
     vector-effect="none"
     d="m 137.59002,358.35872 1821.70218,0"
     id="path354"
     inkscape:connector-curvature="0" />
  <path
     style="font-size:9px;font-style:normal;font-weight:400;fill:none;stroke:#000000;stroke-width:1.00313997;stroke-linecap:round;stroke-linejoin:round;stroke-opacity:1;font-family:Sans Serif"
     vector-effect="none"
     d="m 137.59002,358.35872 8.02512,0"
     id="path362"
     inkscape:connector-curvature="0" />
  <path
     style="font-size:9px;font-style:normal;font-weight:400;fill:none;stroke:#000000;stroke-width:1.00313997;stroke-linecap:round;stroke-linejoin:round;stroke-opacity:1;font-family:Sans Serif"
     vector-effect="none"
     d="m 1959.2922,358.35872 -8.0251,0"
     id="path370"
     inkscape:connector-curvature="0" />
  <text
     xml:space="preserve"
     x="77.356598"
     y="366.98099"
     font-size="9"
     font-weight="400"
     font-style="normal"
     id="text380"
     style="font-size:9.02826023px;font-style:normal;font-weight:400;fill:#000000;fill-opacity:1;stroke:none;font-family:Sans"> 10</text>
  <path
     style="font-size:9px;font-style:normal;font-weight:400;stroke:#000000;stroke-width:0.80000049;stroke-linecap:round;stroke-linejoin:round;stroke-miterlimit:4;stroke-opacity:1;stroke-dasharray:1.00314001, 6.01884004;stroke-dashoffset:0;font-family:Sans Serif"
     vector-effect="none"
     d="m 137.59002,277.10438 1821.70218,0"
     id="path396"
     inkscape:connector-curvature="0" />
  <path
     style="font-size:9px;font-style:normal;font-weight:400;fill:none;stroke:#000000;stroke-width:1.00313997;stroke-linecap:round;stroke-linejoin:round;stroke-opacity:1;font-family:Sans Serif"
     vector-effect="none"
     d="m 137.59002,277.10438 8.02512,0"
     id="path404"
     inkscape:connector-curvature="0" />
  <path
     style="font-size:9px;font-style:normal;font-weight:400;fill:none;stroke:#000000;stroke-width:1.00313997;stroke-linecap:round;stroke-linejoin:round;stroke-opacity:1;font-family:Sans Serif"
     vector-effect="none"
     d="m 1959.2922,277.10438 -8.0251,0"
     id="path412"
     inkscape:connector-curvature="0" />
  <text
     xml:space="preserve"
     x="77.356598"
     y="285.72702"
     font-size="9"
     font-weight="400"
     font-style="normal"
     id="text422"
     style="font-size:9.02826023px;font-style:normal;font-weight:400;fill:#000000;fill-opacity:1;stroke:none;font-family:Sans"> 15</text>
  <path
     style="font-size:9px;font-style:normal;font-weight:400;stroke:#000000;stroke-width:0.80000049;stroke-linecap:round;stroke-linejoin:round;stroke-miterlimit:4;stroke-opacity:1;stroke-dasharray:1.00314001, 6.01884004;stroke-dashoffset:0;font-family:Sans Serif"
     vector-effect="none"
     d="m 137.59002,195.85005 1821.43748,0"
     id="path438"
     inkscape:connector-curvature="0"
     sodipodi:nodetypes="cc" />
  <path
     style="font-size:9px;font-style:normal;font-weight:400;fill:none;stroke:#000000;stroke-width:1.00313997;stroke-linecap:round;stroke-linejoin:round;stroke-opacity:1;font-family:Sans Serif"
     vector-effect="none"
     d="m 137.59002,195.85005 8.02512,0"
     id="path454"
     inkscape:connector-curvature="0" />
  <text
     xml:space="preserve"
     x="77.356598"
     y="203.46899"
     font-size="9"
     font-weight="400"
     font-style="normal"
     id="text472"
     style="font-size:9.02826023px;font-style:normal;font-weight:400;fill:#000000;fill-opacity:1;stroke:none;font-family:Sans"> 20</text>
  <path
     style="font-size:9px;font-style:normal;font-weight:400;fill:none;stroke:#a0a0a4;stroke-width:1.00313997;stroke-linecap:round;stroke-linejoin:round;stroke-opacity:1;stroke-dasharray:1.00314, 2.00628;stroke-dashoffset:0;font-family:Sans Serif"
     vector-effect="none"
     d="m 137.59002,114.59571 1821.70218,0"
     id="path488"
     inkscape:connector-curvature="0" />
  <path
     style="font-size:9px;font-style:normal;font-weight:400;fill:none;stroke:#000000;stroke-width:1.00313997;stroke-linecap:round;stroke-linejoin:round;stroke-opacity:1;font-family:Sans Serif"
     vector-effect="none"
     d="m 137.59002,114.59571 8.02512,0"
     id="path496"
     inkscape:connector-curvature="0" />
  <text
     xml:space="preserve"
     x="77.356598"
     y="122.21455"
     font-size="9"
     font-weight="400"
     font-style="normal"
     id="text514"
     style="font-size:9.02826023px;font-style:normal;font-weight:400;fill:#000000;fill-opacity:1;stroke:none;font-family:Sans"> 25</text>
  <path
     style="font-size:9px;font-style:normal;font-weight:400;fill:none;stroke:#a0a0a4;stroke-width:1.00313997;stroke-linecap:round;stroke-linejoin:round;stroke-opacity:1;stroke-dasharray:1.00314, 2.00628;stroke-dashoffset:0;font-family:Sans Serif"
     vector-effect="none"
     d="m 137.59002,1011.4029 0,-896.80719"
     id="path530"
     inkscape:connector-curvature="0" />
  <path
     style="font-size:9px;font-style:normal;font-weight:400;fill:none;stroke:#000000;stroke-width:1.00313997;stroke-linecap:round;stroke-linejoin:round;stroke-opacity:1;font-family:Sans Serif"
     vector-effect="none"
     d="m 137.59002,1011.4029 0,-8.0252"
     id="path538"
     inkscape:connector-curvature="0" />
  <path
     style="font-size:9px;font-style:normal;font-weight:400;fill:none;stroke:#000000;stroke-width:1.00313997;stroke-linecap:round;stroke-linejoin:round;stroke-opacity:1;font-family:Sans Serif"
     vector-effect="none"
     d="m 137.59002,114.59571 0,8.02512"
     id="path546"
     inkscape:connector-curvature="0" />
  <text
     xml:space="preserve"
     x="110.721"
     y="1053.486"
     font-size="9"
     font-weight="400"
     font-style="normal"
     id="text556"
     style="font-size:9.02826023px;font-style:normal;font-weight:400;fill:#000000;fill-opacity:1;stroke:none;font-family:Sans"> 59.7</text>
  <path
     style="font-size:9px;font-style:normal;font-weight:400;stroke:#000000;stroke-width:0.80000049;stroke-linecap:round;stroke-linejoin:round;stroke-miterlimit:4;stroke-opacity:1;stroke-dasharray:1.00314001, 6.01884004;stroke-dashoffset:0;font-family:Sans Serif"
     vector-effect="none"
     d="m 441.54144,1011.4029 0,-896.80719"
     id="path572"
     inkscape:connector-curvature="0" />
  <path
     style="font-size:9px;font-style:normal;font-weight:400;fill:none;stroke:#000000;stroke-width:1.00313997;stroke-linecap:round;stroke-linejoin:round;stroke-opacity:1;font-family:Sans Serif"
     vector-effect="none"
     d="m 441.54144,1011.4029 0,-8.0252"
     id="path580"
     inkscape:connector-curvature="0" />
  <path
     style="font-size:9px;font-style:normal;font-weight:400;fill:none;stroke:#000000;stroke-width:1.00313997;stroke-linecap:round;stroke-linejoin:round;stroke-opacity:1;font-family:Sans Serif"
     vector-effect="none"
     d="m 441.54144,114.59571 0,8.02512"
     id="path588"
     inkscape:connector-curvature="0" />
  <text
     xml:space="preserve"
     x="408.15256"
     y="1053.486"
     font-size="9"
     font-weight="400"
     font-style="normal"
     id="text598"
     style="font-size:9.02826023px;font-style:normal;font-weight:400;fill:#000000;fill-opacity:1;stroke:none;font-family:Sans"> 59.75</text>
  <path
     style="font-size:9px;font-style:normal;font-weight:400;stroke:#000000;stroke-width:0.80000049;stroke-linecap:round;stroke-linejoin:round;stroke-miterlimit:4;stroke-opacity:1;stroke-dasharray:1.00314001, 6.01884004;stroke-dashoffset:0;font-family:Sans Serif"
     vector-effect="none"
     d="m 745.49286,1011.4029 0,-896.80719"
     id="path614"
     inkscape:connector-curvature="0" />
  <path
     style="font-size:9px;font-style:normal;font-weight:400;fill:none;stroke:#000000;stroke-width:1.00313997;stroke-linecap:round;stroke-linejoin:round;stroke-opacity:1;font-family:Sans Serif"
     vector-effect="none"
     d="m 745.49286,1011.4029 0,-8.0252"
     id="path622"
     inkscape:connector-curvature="0" />
  <path
     style="font-size:9px;font-style:normal;font-weight:400;fill:none;stroke:#000000;stroke-width:1.00313997;stroke-linecap:round;stroke-linejoin:round;stroke-opacity:1;font-family:Sans Serif"
     vector-effect="none"
     d="m 745.49286,114.59571 0,8.02512"
     id="path630"
     inkscape:connector-curvature="0" />
  <text
     xml:space="preserve"
     x="717.62164"
     y="1053.486"
     font-size="9"
     font-weight="400"
     font-style="normal"
     id="text640"
     style="font-size:9.02826023px;font-style:normal;font-weight:400;fill:#000000;fill-opacity:1;stroke:none;font-family:Sans"> 59.8</text>
  <path
     style="font-size:9px;font-style:normal;font-weight:400;stroke:#000000;stroke-width:0.80000049;stroke-linecap:round;stroke-linejoin:round;stroke-miterlimit:4;stroke-opacity:1;stroke-dasharray:1.00314001, 6.01884004;stroke-dashoffset:0;font-family:Sans Serif"
     vector-effect="none"
     d="m 1048.4411,1011.4029 0,-896.80719"
     id="path656"
     inkscape:connector-curvature="0" />
  <path
     style="font-size:9px;font-style:normal;font-weight:400;fill:none;stroke:#000000;stroke-width:1.00313997;stroke-linecap:round;stroke-linejoin:round;stroke-opacity:1;font-family:Sans Serif"
     vector-effect="none"
     d="m 1048.4411,1011.4029 0,-8.0252"
     id="path664"
     inkscape:connector-curvature="0" />
  <path
     style="font-size:9px;font-style:normal;font-weight:400;fill:none;stroke:#000000;stroke-width:1.00313997;stroke-linecap:round;stroke-linejoin:round;stroke-opacity:1;font-family:Sans Serif"
     vector-effect="none"
     d="m 1048.4411,114.59571 0,8.02512"
     id="path672"
     inkscape:connector-curvature="0" />
  <text
     xml:space="preserve"
     x="1016.0557"
     y="1053.486"
     font-size="9"
     font-weight="400"
     font-style="normal"
     id="text682"
     style="font-size:9.02826023px;font-style:normal;font-weight:400;fill:#000000;fill-opacity:1;stroke:none;font-family:Sans"> 59.85</text>
  <path
     style="font-size:9px;font-style:normal;font-weight:400;stroke:#000000;stroke-width:0.80000049;stroke-linecap:round;stroke-linejoin:round;stroke-miterlimit:4;stroke-opacity:1;stroke-dasharray:1.00314001, 6.01884004;stroke-dashoffset:0;font-family:Sans Serif"
     vector-effect="none"
     d="m 1352.3925,1011.4029 0,-896.80719"
     id="path698"
     inkscape:connector-curvature="0" />
  <path
     style="font-size:9px;font-style:normal;font-weight:400;fill:none;stroke:#000000;stroke-width:1.00313997;stroke-linecap:round;stroke-linejoin:round;stroke-opacity:1;font-family:Sans Serif"
     vector-effect="none"
     d="m 1352.3925,1011.4029 0,-8.0252"
     id="path706"
     inkscape:connector-curvature="0" />
  <path
     style="font-size:9px;font-style:normal;font-weight:400;fill:none;stroke:#000000;stroke-width:1.00313997;stroke-linecap:round;stroke-linejoin:round;stroke-opacity:1;font-family:Sans Serif"
     vector-effect="none"
     d="m 1352.3925,114.59571 0,8.02512"
     id="path714"
     inkscape:connector-curvature="0" />
  <text
     xml:space="preserve"
     x="1324.5228"
     y="1053.486"
     font-size="9"
     font-weight="400"
     font-style="normal"
     id="text724"
     style="font-size:9.02826023px;font-style:normal;font-weight:400;fill:#000000;fill-opacity:1;stroke:none;font-family:Sans"> 59.9</text>
  <path
     style="font-size:9px;font-style:normal;font-weight:400;stroke:#000000;stroke-width:0.80000049;stroke-linecap:round;stroke-linejoin:round;stroke-miterlimit:4;stroke-opacity:1;stroke-dasharray:1.00314001, 6.01884004;stroke-dashoffset:0;font-family:Sans Serif"
     vector-effect="none"
     d="m 1656.3439,1011.4029 0,-896.621"
     id="path740"
     inkscape:connector-curvature="0"
     sodipodi:nodetypes="cc" />
  <path
     style="font-size:9px;font-style:normal;font-weight:400;fill:none;stroke:#000000;stroke-width:1.00313997;stroke-linecap:round;stroke-linejoin:round;stroke-opacity:1;font-family:Sans Serif"
     vector-effect="none"
     d="m 1656.3439,1011.4029 0,-8.0252"
     id="path756"
     inkscape:connector-curvature="0" />
  <text
     xml:space="preserve"
     x="1622.9528"
     y="1053.486"
     font-size="9"
     font-weight="400"
     font-style="normal"
     id="text774"
     style="font-size:9.02826023px;font-style:normal;font-weight:400;fill:#000000;fill-opacity:1;stroke:none;font-family:Sans"> 59.95</text>
  <path
     style="font-size:9px;font-style:normal;font-weight:400;fill:none;stroke:#a0a0a4;stroke-width:1.00313997;stroke-linecap:round;stroke-linejoin:round;stroke-opacity:1;stroke-dasharray:1.00314, 2.00628;stroke-dashoffset:0;font-family:Sans Serif"
     vector-effect="none"
     d="m 1959.2922,1011.4029 0,-896.80719"
     id="path790"
     inkscape:connector-curvature="0" />
  <path
     style="font-size:9px;font-style:normal;font-weight:400;fill:none;stroke:#000000;stroke-width:1.00313997;stroke-linecap:round;stroke-linejoin:round;stroke-opacity:1;font-family:Sans Serif"
     vector-effect="none"
     d="m 1959.2922,1011.4029 0,-8.0252"
     id="path798"
     inkscape:connector-curvature="0" />
  <text
     xml:space="preserve"
     x="1940.9528"
     y="1053.486"
     font-size="9"
     font-weight="400"
     font-style="normal"
     id="text816"
     style="font-size:9.02826023px;font-style:normal;font-weight:400;fill:#000000;fill-opacity:1;stroke:none;font-family:Sans"> 60</text>
  <path
     style="font-size:9px;font-style:normal;font-weight:400;fill:none;stroke:#000000;stroke-width:1.00313997;stroke-linecap:round;stroke-linejoin:round;stroke-opacity:1;font-family:Sans Serif"
     vector-effect="none"
     d="m 137.59002,114.59571 0,896.80719 1821.70218,0 0,-896.80719 -1821.70218,0"
     id="path832"
     inkscape:connector-curvature="0" />
  <path
     style="font-size:9px;font-style:normal;font-weight:400;fill:none;stroke:#ff0000;stroke-width:2.40000152999999994;stroke-linecap:round;stroke-linejoin:round;stroke-opacity:1;marker-mid:url(#StopM);font-family:Sans Serif"
     vector-effect="none"
     d="m 137.59002,673.24437 0,0 24.27598,19.46091 24.276,19.96249 24.3763,20.16311 24.27599,20.765 24.27598,20.56437 24.27599,-66.20724 24.27599,-542.49811 24.27599,41.12874 24.3763,42.83408 24.27599,39.4234 24.27599,38.42026 24.27598,38.42026 24.27599,36.21336 24.3763,23.17253 24.27599,24.77756 24.27599,24.67724 24.27599,25.17882 24.27599,24.47661 24.3763,24.07536 24.27599,23.47348 24.27598,22.57065 24.27599,21.76814 24.27599,18.75871 24.27599,18.85904 24.3763,19.56123 24.27599,19.46091 24.27599,19.96249 24.27598,20.16311 24.27599,20.765 24.3763,20.56437 24.27599,-66.20724 24.27599,-542.49811 24.27599,41.12874 24.27599,42.83408 24.3763,39.4234 24.276,38.42026 24.276,38.42026 24.276,36.21336 24.2759,23.17253 24.276,24.77756 24.3763,24.67724 24.276,25.17882 24.276,24.47661 24.276,24.07536 24.2759,23.47348 24.3763,22.57065 24.276,21.76814 24.276,18.75871 24.276,18.85904 24.276,19.56123 24.3763,19.46091 24.276,19.96249 24.276,20.16311 24.276,20.765 24.276,20.56437 24.2759,-66.20724 24.3763,-542.49811 24.276,41.12874 24.276,42.83408 24.276,39.4234 24.276,38.42026 24.3763,38.42026 24.276,36.21336 24.276,23.17253 24.276,24.77756 24.2759,24.67724 24.3763,25.17882 24.276,24.47661 24.276,24.07536 24.276,23.47348 24.276,22.57065 24.276,21.76814 24.3763,18.75871 24.276,18.85904"
     id="path870"
     inkscape:connector-curvature="0" />
  <path
     style="font-size:9px;font-style:normal;font-weight:400;fill:none;stroke:#ff0000;stroke-width:2.40000153;stroke-linecap:round;stroke-linejoin:round;stroke-miterlimit:4;stroke-opacity:1;stroke-dasharray:19.2000122,19.2000122;stroke-dashoffset:0;marker-mid:url(#DotS);font-family:Sans Serif"
     vector-effect="none"
     d="m 137.59002,127.4359 0,0 24.27598,13.04082 24.276,35.91241 24.3763,63.59907 24.27599,92.89076 24.27598,125.49282 24.27599,153.27979 24.27599,143.44902 24.27599,97.90646 24.3763,60.28872 24.27599,24.47661 24.27599,-1.60502 24.27598,-26.18195 24.27599,-43.93754 24.3763,-60.38902 24.27599,-68.41415 24.27599,-78.24492 24.27599,-83.16031 24.27599,-83.1603 24.3763,-81.55529 24.27599,-76.63989 24.27598,-68.41415 24.27599,-58.68369 24.27599,-44.03784 24.27599,-27.78698 24.3763,-8.12543 24.27599,13.04082 24.27599,35.91241 24.27598,63.59907 24.27599,92.89076 24.3763,125.49282 24.27599,153.27979 24.27599,143.44902 24.27599,97.90646 24.27599,60.28872 24.3763,24.47661 24.276,-1.60502 24.276,-26.18195 24.276,-45.64287 24.2759,-58.68369 24.276,-68.41415 24.3763,-78.24492 24.276,-83.16031 24.276,-83.1603 24.276,-81.55529 24.2759,-76.63989 24.3763,-70.11949 24.276,-56.97835 24.276,-44.03784 24.276,-27.78698 24.276,-8.12543 24.3763,13.04082 24.276,35.91241 24.276,63.59907 24.276,92.89076 24.276,125.49282 24.2759,153.27979 24.3763,143.44902 24.276,97.90646 24.276,60.28872 24.276,24.47661 24.276,-1.60502 24.3763,-26.18195 24.276,-45.64287 24.276,-58.68369 24.276,-68.41415 24.2759,-78.24492 24.3763,-83.16031 24.276,-83.1603 24.276,-81.55529 24.276,-76.63989 24.276,-70.11949 24.276,-56.97835 24.3763,-44.03784 24.276,-27.78698"
     id="path908"
     inkscape:connector-curvature="0" />
  <path
     style="font-size:9px;font-style:normal;font-weight:400;fill:none;stroke:#0000ff;stroke-width:2.40000152999999994;stroke-linecap:round;stroke-linejoin:round;stroke-miterlimit:4;stroke-opacity:1;stroke-dasharray:none;stroke-dashoffset:0;marker-mid:url(#StopM);font-family:Sans Serif"
     vector-effect="none"
     d="m 137.59002,535.81419 0,0 24.27598,1.50471 24.276,2.50785 24.3763,3.21004 24.27599,1.00314 24.27598,1.20377 24.27599,-2.10659 24.27599,-1.50471 24.27599,-0.40126 24.3763,0.60189 24.27599,1.00314 24.27599,-3.21005 24.27598,-83.56156 24.27599,6.01884 24.3763,8.42637 24.27599,9.52983 24.27599,8.82763 24.27599,8.92795 24.27599,9.93109 24.3763,9.42951 24.27599,8.62701 24.27598,6.72103 24.27599,4.11288 24.27599,1.50471 24.27599,-2.40754 24.3763,0.10032 24.27599,1.50471 24.27599,2.50785 24.27598,3.21004 24.27599,1.00314 24.3763,1.20377 24.27599,-2.10659 24.27599,-1.50471 24.27599,-0.40126 24.27599,0.60189 24.3763,1.00314 24.276,-3.41068 24.276,-83.36093 24.276,6.01884 24.2759,8.42637 24.276,9.52983 24.3763,8.82763 24.276,8.92795 24.276,9.93109 24.276,9.42951 24.2759,8.62701 24.3763,6.72103 24.276,4.11288 24.276,1.50471 24.276,-2.40754 24.276,0.10032 24.3763,1.50471 24.276,2.50785 24.276,3.21004 24.276,1.00314 24.276,1.20377 24.2759,-2.10659 24.3763,-1.50471 24.276,-0.40126 24.276,0.60189 24.276,1.00314 24.276,-3.51099 24.3763,-83.26062 24.276,6.01884 24.276,8.42637 24.276,9.52983 24.2759,8.82763 24.3763,8.92795 24.276,9.93109 24.276,9.42951 24.276,8.62701 24.276,6.72103 24.276,4.21319 24.3763,1.4044 24.276,-2.40754"
     id="path946"
     inkscape:connector-curvature="0" />
  <path
     style="font-size:9px;font-style:normal;font-weight:400;fill:none;stroke:#0000ff;stroke-width:2.40000153;stroke-linecap:round;stroke-linejoin:round;stroke-miterlimit:4;stroke-opacity:1;stroke-dasharray:19.2000122,19.2000122;stroke-dashoffset:0;marker-mid:url(#DotS);font-family:Sans Serif"
     vector-effect="none"
     d="m 137.59002,489.77006 0,0 24.27598,-6.52041 24.276,-3.21005 24.3763,0 24.27599,1.60503 24.27598,4.91538 24.27599,8.12544 24.27599,11.43579 24.27599,13.04082 24.3763,16.25087 24.27599,19.66154 24.27599,21.16626 24.27598,17.9562 24.27599,9.73046 24.3763,3.31036 24.27599,-3.31036 24.27599,-9.73046 24.27599,-11.43579 24.27599,-14.64585 24.3763,-16.35118 24.27599,-16.35118 24.27598,-16.25087 24.27599,-13.04082 24.27599,-11.43579 24.27599,-9.73046 24.3763,-6.52041 24.27599,-6.52041 24.27599,-3.31036 24.27598,0 24.27599,1.60502 24.3763,4.91539 24.27599,8.12543 24.27599,11.4358 24.27599,13.04082 24.27599,16.35118 24.3763,19.56123 24.276,21.16625 24.276,17.95621 24.276,9.73046 24.2759,3.31036 24.276,-4.91539 24.3763,-8.12543 24.276,-11.4358 24.276,-16.25087 24.276,-14.74615 24.2759,-16.25087 24.3763,-16.35118 24.276,-13.04082 24.276,-11.4358 24.276,-9.73046 24.276,-6.52041 24.3763,-6.52041 24.276,-3.31036 24.276,0 24.276,1.70534 24.276,4.81507 24.2759,8.22575 24.3763,11.33548 24.276,13.04082 24.276,16.35118 24.276,19.56123 24.276,21.16626 24.3763,17.9562 24.276,9.83077 24.276,1.60503 24.276,-3.31036 24.2759,-8.12544 24.3763,-13.04082 24.276,-14.64584 24.276,-16.35118 24.276,-16.25087 24.276,-14.74616 24.276,-13.04082 24.3763,-11.33548 24.276,-9.83077"
     id="path984"
     inkscape:connector-curvature="0" />
  <path
     inkscape:connector-curvature="0"
     id="path6326"
     d="m 1959.2922,195.85469 -8.0251,0"
     vector-effect="none"
     style="font-size:9px;font-style:normal;font-weight:400;fill:none;stroke:#000000;stroke-width:1.00313997;stroke-linecap:round;stroke-linejoin:round;stroke-opacity:1;font-family:Sans Serif" />
  <path
     inkscape:connector-curvature="0"
     id="path6328"
     d="m 1656.3289,114.59571 0,8.02512"
     vector-effect="none"
     style="font-size:9px;font-style:normal;font-weight:400;fill:none;stroke:#000000;stroke-width:1.00313997;stroke-linecap:round;stroke-linejoin:round;stroke-opacity:1;font-family:Sans Serif" />
  <text
     xml:space="preserve"
     style="font-size:20.82701302px;font-style:normal;font-weight:normal;line-height:125%;letter-spacing:0px;word-spacing:0px;fill:#000000;fill-opacity:1;stroke:none;font-family:Sans"
     x="1017.6279"
     y="1094.2278"
     id="text3905"
     sodipodi:linespacing="125%"><tspan
       sodipodi:role="line"
       id="tspan3907"
       x="1017.6279"
       y="1094.2278">time</tspan></text>
  <path
     sodipodi:nodetypes="ccc"
     inkscape:connector-curvature="0"
     id="path4340"
     d="m 162.15877,9.03221 29.1839,0 29.18388,0"
     style="fill:none;stroke:#ff0000;stroke-width:2.40000152999999994;stroke-linecap:butt;stroke-linejoin:miter;stroke-opacity:1;marker-mid:url(#StopM)" />
  <path
     style="fill:none;stroke:#ff0000;stroke-width:2.40000153;stroke-linecap:butt;stroke-linejoin:miter;stroke-miterlimit:4;stroke-opacity:1;stroke-dasharray:19.2000122,19.2000122;stroke-dashoffset:0;marker-mid:url(#DotS)"
     d="m 162.87936,62.905833 29.1839,0 29.18388,0"
     id="path4342"
     inkscape:connector-curvature="0"
     sodipodi:nodetypes="ccc" />
  <path
     style="fill:none;stroke:#0000ff;stroke-width:2.40000152999999994;stroke-linecap:butt;stroke-linejoin:miter;stroke-opacity:1;marker-mid:url(#StopM)"
     d="m 754.15915,9.03221 29.18389,0 29.18388,0"
     id="path4348"
     inkscape:connector-curvature="0"
     sodipodi:nodetypes="ccc" />
  <path
     sodipodi:nodetypes="ccc"
     inkscape:connector-curvature="0"
     id="path4350"
     d="m 754.87974,62.905833 29.18389,0 29.18388,0"
     style="fill:none;stroke:#0000ff;stroke-width:2.40000153;stroke-linecap:butt;stroke-linejoin:miter;stroke-miterlimit:4;stroke-opacity:1;stroke-dasharray:19.2000122,19.2000122;stroke-dashoffset:0;marker-mid:url(#DotS)" />
  <text
     xml:space="preserve"
     style="font-size:17.67009735px;font-style:normal;font-weight:normal;line-height:125%;letter-spacing:0px;word-spacing:0px;fill:#000000;fill-opacity:1;stroke:none;font-family:Sans"
     x="229.8613"
     y="23.281498"
     id="text4352"
     sodipodi:linespacing="125%"><tspan
       sodipodi:role="line"
       id="tspan4354"
       x="229.8613"
       y="23.281498">$100\times\left(W^h(t)-W^a\right)/W^a$</tspan></text>
  <flowRoot
     xml:space="preserve"
     id="flowRoot4356"
     style="font-size:40px;font-style:normal;font-weight:normal;line-height:125%;letter-spacing:0px;word-spacing:0px;fill:#000000;fill-opacity:1;stroke:none;font-family:Sans"
     transform="matrix(0.80000048,0,0,0.80000048,77.849772,103.77506)"><flowRegion
       id="flowRegion4358"><rect
         id="rect4360"
         width="2450.8567"
         height="1380.8361"
         x="-73.88237"
         y="-139.41336" /></flowRegion><flowPara
       id="flowPara4362"></flowPara></flowRoot>  <text
     xml:space="preserve"
     style="font-size:32.00001907px;font-style:normal;font-weight:normal;line-height:125%;letter-spacing:0px;word-spacing:0px;fill:#000000;fill-opacity:1;stroke:none;font-family:Sans"
     x="-780.69214"
     y="46.531021"
     id="text4366"
     sodipodi:linespacing="125%"
     transform="matrix(0,-1,1,0,0,0)"><tspan
       sodipodi:role="line"
       id="tspan4368"
       x="-780.69214"
       y="46.531021">relative/absolute differences</tspan></text>
  <text
     sodipodi:linespacing="125%"
     id="text4427"
     y="23.281498"
     x="823.4613"
     style="font-size:17.67009735px;font-style:normal;font-weight:normal;line-height:125%;letter-spacing:0px;word-spacing:0px;fill:#000000;fill-opacity:1;stroke:none;font-family:Sans"
     xml:space="preserve"><tspan
       y="23.281498"
       x="823.4613"
       id="tspan4429"
       sodipodi:role="line">$100\times\left(W^h(t)-W^a\right)/W^a$</tspan></text>
  <text
     sodipodi:linespacing="125%"
     id="text4450"
     y="74.481529"
     x="229.8613"
     style="font-size:17.67009735px;font-style:normal;font-weight:normal;line-height:125%;letter-spacing:0px;word-spacing:0px;fill:#000000;fill-opacity:1;stroke:none;font-family:Sans"
     xml:space="preserve"><tspan
       y="74.481529"
       x="229.8613"
       id="tspan4452"
       sodipodi:role="line">$10^5\times\left(Z(t)-\bar{Z}\right)$</tspan></text>
  <text
     xml:space="preserve"
     style="font-size:17.67009735px;font-style:normal;font-weight:normal;line-height:125%;letter-spacing:0px;word-spacing:0px;fill:#000000;fill-opacity:1;stroke:none;font-family:Sans"
     x="823.4613"
     y="74.481529"
     id="text4454"
     sodipodi:linespacing="125%"><tspan
       sodipodi:role="line"
       id="tspan4456"
       x="823.4613"
       y="74.481529">$10^5\times\left(Z(t)-\bar{Z}\right)$</tspan></text>
</svg>
