<?xml version="1.0" encoding="UTF-8" standalone="no"?>
<!-- Created with Inkscape (http://www.inkscape.org/) -->

<svg
   xmlns:dc="http://purl.org/dc/elements/1.1/"
   xmlns:cc="http://creativecommons.org/ns#"
   xmlns:rdf="http://www.w3.org/1999/02/22-rdf-syntax-ns#"
   xmlns:svg="http://www.w3.org/2000/svg"
   xmlns="http://www.w3.org/2000/svg"
   xmlns:sodipodi="http://sodipodi.sourceforge.net/DTD/sodipodi-0.dtd"
   xmlns:inkscape="http://www.inkscape.org/namespaces/inkscape"
   id="svg2"
   version="1.1"
   inkscape:version="0.48.4 r9939"
   width="891.01562"
   height="460.97656"
   xml:space="preserve"
   sodipodi:docname="ring_profiles.svg"><metadata
     id="metadata8"><rdf:RDF><cc:Work
         rdf:about=""><dc:format>image/svg+xml</dc:format><dc:type
           rdf:resource="http://purl.org/dc/dcmitype/StillImage" /><dc:title /></cc:Work></rdf:RDF></metadata><defs
     id="defs6"><clipPath
       clipPathUnits="userSpaceOnUse"
       id="clipPath18"><path
         d="m 6,0 4993.2,0 0,3580 L 6,3580 6,0 z"
         id="path20"
         inkscape:connector-curvature="0" /></clipPath><clipPath
       clipPathUnits="userSpaceOnUse"
       id="clipPath276"><path
         d="m 481.199,356 4381.191,0 0,3106.8 -4381.191,0 0,-3106.8 z"
         id="path278"
         inkscape:connector-curvature="0" /></clipPath><clipPath
       clipPathUnits="userSpaceOnUse"
       id="clipPath288"><path
         d="m 6,0 4994,0 0,3580 L 6,3580 6,0 z"
         id="path290"
         inkscape:connector-curvature="0" /></clipPath><clipPath
       clipPathUnits="userSpaceOnUse"
       id="clipPath314"><path
         d="m 481.199,356 4381.191,0 0,3106.8 -4381.191,0 0,-3106.8 z"
         id="path316"
         inkscape:connector-curvature="0" /></clipPath></defs><sodipodi:namedview
     pagecolor="#ffffff"
     bordercolor="#666666"
     borderopacity="1"
     objecttolerance="10"
     gridtolerance="10"
     guidetolerance="10"
     inkscape:pageopacity="0"
     inkscape:pageshadow="2"
     inkscape:window-width="1920"
     inkscape:window-height="1060"
     id="namedview4"
     showgrid="false"
     inkscape:zoom="1"
     inkscape:cx="295.2247"
     inkscape:cy="162.07853"
     inkscape:window-x="1364"
     inkscape:window-y="-3"
     inkscape:window-maximized="1"
     inkscape:current-layer="g10"
     fit-margin-top="0"
     fit-margin-left="0"
     fit-margin-right="0"
     fit-margin-bottom="0" /><g
     id="g10"
     inkscape:groupmode="layer"
     inkscape:label="ink_ext_XXXXXX"
     transform="matrix(1.25,0,0,-1.25,137.5,454.49219)"><path
       inkscape:connector-curvature="0"
       id="path24"
       style="fill:#ffffff;fill-opacity:1;fill-rule:evenodd;stroke:none"
       d="m 48.1199,35.9598 437.76,0 0,310.32 -437.76,0 0,-310.32 z" /><path
       inkscape:connector-curvature="0"
       id="path26"
       style="fill:none;stroke:#ffffff;stroke-width:0.5;stroke-linecap:butt;stroke-linejoin:round;stroke-miterlimit:10;stroke-opacity:1;stroke-dasharray:none"
       d="m 48.1199,35.9598 437.76,0 0,310.32 -437.76,0 0,-310.32 z" /><path
       inkscape:connector-curvature="0"
       id="path28"
       style="fill:none;stroke:#000000;stroke-width:0.33333299;stroke-linecap:round;stroke-linejoin:round;stroke-miterlimit:10;stroke-opacity:1;stroke-dasharray:0, 4;stroke-dashoffset:0"
       d="m 48.1199,35.9598 0,310.3202" /><path
       inkscape:connector-curvature="0"
       id="path30"
       style="fill:none;stroke:#000000;stroke-width:0.33333299;stroke-linecap:round;stroke-linejoin:round;stroke-miterlimit:10;stroke-opacity:1;stroke-dasharray:0, 4;stroke-dashoffset:0"
       d="m 48.1199,346.28 0,0" /><path
       inkscape:connector-curvature="0"
       id="path32"
       style="fill:none;stroke:#000000;stroke-width:0.80000001;stroke-linecap:round;stroke-linejoin:round;stroke-miterlimit:10;stroke-opacity:1;stroke-dasharray:0, 4;stroke-dashoffset:0"
       d="m 91.6801,35.9598 0,310.3202" /><path
       inkscape:connector-curvature="0"
       id="path34"
       style="fill:none;stroke:#000000;stroke-width:0.33333299;stroke-linecap:round;stroke-linejoin:round;stroke-miterlimit:10;stroke-opacity:1;stroke-dasharray:0, 4;stroke-dashoffset:0"
       d="m 91.6801,346.28 0,0" /><path
       inkscape:connector-curvature="0"
       id="path36"
       style="fill:none;stroke:#000000;stroke-width:0.80000001;stroke-linecap:round;stroke-linejoin:round;stroke-miterlimit:10;stroke-opacity:1;stroke-dasharray:0, 4;stroke-dashoffset:0"
       d="m 135.6,35.9598 0,310.3202" /><path
       inkscape:connector-curvature="0"
       id="path38"
       style="fill:none;stroke:#000000;stroke-width:0.33333299;stroke-linecap:round;stroke-linejoin:round;stroke-miterlimit:10;stroke-opacity:1;stroke-dasharray:0, 4;stroke-dashoffset:0"
       d="m 135.6,346.28 0,0" /><path
       inkscape:connector-curvature="0"
       id="path40"
       style="fill:none;stroke:#000000;stroke-width:0.80000001;stroke-linecap:round;stroke-linejoin:round;stroke-miterlimit:10;stroke-opacity:1;stroke-dasharray:0, 4;stroke-dashoffset:0"
       d="m 179.16,35.9598 0,310.3202" /><path
       inkscape:connector-curvature="0"
       id="path42"
       style="fill:none;stroke:#000000;stroke-width:0.33333299;stroke-linecap:round;stroke-linejoin:round;stroke-miterlimit:10;stroke-opacity:1;stroke-dasharray:0, 4;stroke-dashoffset:0"
       d="m 179.16,346.28 0,0" /><path
       inkscape:connector-curvature="0"
       id="path44"
       style="fill:none;stroke:#000000;stroke-width:0.80000001;stroke-linecap:round;stroke-linejoin:round;stroke-miterlimit:10;stroke-opacity:1;stroke-dasharray:0, 4;stroke-dashoffset:0"
       d="m 223.08,35.9598 0,310.3202" /><path
       inkscape:connector-curvature="0"
       id="path46"
       style="fill:none;stroke:#000000;stroke-width:0.33333299;stroke-linecap:round;stroke-linejoin:round;stroke-miterlimit:10;stroke-opacity:1;stroke-dasharray:0, 4;stroke-dashoffset:0"
       d="m 223.08,346.28 0,0" /><path
       inkscape:connector-curvature="0"
       id="path48"
       style="fill:none;stroke:#000000;stroke-width:0.80000001;stroke-linecap:round;stroke-linejoin:round;stroke-miterlimit:10;stroke-opacity:1;stroke-dasharray:0, 4;stroke-dashoffset:0"
       d="M 267,35.9598 267,346.28" /><path
       inkscape:connector-curvature="0"
       id="path50"
       style="fill:none;stroke:#000000;stroke-width:0.33333299;stroke-linecap:round;stroke-linejoin:round;stroke-miterlimit:10;stroke-opacity:1;stroke-dasharray:0, 4;stroke-dashoffset:0"
       d="m 267,346.28 0,0" /><path
       inkscape:connector-curvature="0"
       id="path52"
       style="fill:none;stroke:#000000;stroke-width:0.80000001;stroke-linecap:round;stroke-linejoin:round;stroke-miterlimit:10;stroke-opacity:1;stroke-dasharray:0, 4;stroke-dashoffset:0"
       d="m 310.56,35.9598 0,310.3202" /><path
       inkscape:connector-curvature="0"
       id="path54"
       style="fill:none;stroke:#000000;stroke-width:0.33333299;stroke-linecap:round;stroke-linejoin:round;stroke-miterlimit:10;stroke-opacity:1;stroke-dasharray:0, 4;stroke-dashoffset:0"
       d="m 310.56,346.28 0,0" /><path
       inkscape:connector-curvature="0"
       id="path56"
       style="fill:none;stroke:#000000;stroke-width:0.80000001;stroke-linecap:round;stroke-linejoin:round;stroke-miterlimit:10;stroke-opacity:1;stroke-dasharray:0, 4;stroke-dashoffset:0"
       d="m 354.48,35.9598 0,310.3202" /><path
       inkscape:connector-curvature="0"
       id="path58"
       style="fill:none;stroke:#000000;stroke-width:0.33333299;stroke-linecap:round;stroke-linejoin:round;stroke-miterlimit:10;stroke-opacity:1;stroke-dasharray:0, 4;stroke-dashoffset:0"
       d="m 354.48,346.28 0,0" /><path
       inkscape:connector-curvature="0"
       id="path60"
       style="fill:none;stroke:#000000;stroke-width:0.80000001;stroke-linecap:round;stroke-linejoin:round;stroke-miterlimit:10;stroke-opacity:1;stroke-dasharray:0, 4;stroke-dashoffset:0"
       d="m 398.04,35.9598 0,310.3202" /><path
       inkscape:connector-curvature="0"
       id="path62"
       style="fill:none;stroke:#000000;stroke-width:0.33333299;stroke-linecap:round;stroke-linejoin:round;stroke-miterlimit:10;stroke-opacity:1;stroke-dasharray:0, 4;stroke-dashoffset:0"
       d="m 398.04,346.28 0,0" /><path
       inkscape:connector-curvature="0"
       id="path64"
       style="fill:none;stroke:#000000;stroke-width:0.80000001;stroke-linecap:round;stroke-linejoin:round;stroke-miterlimit:10;stroke-opacity:1;stroke-dasharray:0, 4;stroke-dashoffset:0"
       d="m 441.96,35.9598 0,310.3202" /><path
       inkscape:connector-curvature="0"
       id="path66"
       style="fill:none;stroke:#000000;stroke-width:0.33333299;stroke-linecap:round;stroke-linejoin:round;stroke-miterlimit:10;stroke-opacity:1;stroke-dasharray:0, 4;stroke-dashoffset:0"
       d="m 441.96,346.28 0,0" /><path
       inkscape:connector-curvature="0"
       id="path68"
       style="fill:none;stroke:#000000;stroke-width:0.80000001;stroke-linecap:round;stroke-linejoin:round;stroke-miterlimit:10;stroke-opacity:1;stroke-dasharray:0, 4;stroke-dashoffset:0"
       d="m 485.88,35.9598 0,310.3202" /><path
       inkscape:connector-curvature="0"
       id="path70"
       style="fill:none;stroke:#000000;stroke-width:0.33333299;stroke-linecap:round;stroke-linejoin:round;stroke-miterlimit:10;stroke-opacity:1;stroke-dasharray:0, 4;stroke-dashoffset:0"
       d="m 485.88,346.28 0,0" /><path
       inkscape:connector-curvature="0"
       id="path72"
       style="fill:none;stroke:#000000;stroke-width:0.33333299;stroke-linecap:round;stroke-linejoin:round;stroke-miterlimit:10;stroke-opacity:1;stroke-dasharray:0, 4;stroke-dashoffset:0"
       d="m 48.1199,35.9598 437.7601,0" /><path
       inkscape:connector-curvature="0"
       id="path74"
       style="fill:none;stroke:#000000;stroke-width:0.33333299;stroke-linecap:round;stroke-linejoin:round;stroke-miterlimit:10;stroke-opacity:1;stroke-dasharray:0, 4;stroke-dashoffset:0"
       d="m 485.88,35.9598 0,0" /><path
       inkscape:connector-curvature="0"
       id="path76"
       style="fill:none;stroke:#000000;stroke-width:0.80000001;stroke-linecap:round;stroke-linejoin:round;stroke-miterlimit:10;stroke-opacity:1;stroke-dasharray:0, 4;stroke-dashoffset:0"
       d="m 48.1199,74.8398 437.7601,0" /><path
       inkscape:connector-curvature="0"
       id="path78"
       style="fill:none;stroke:#000000;stroke-width:0.33333299;stroke-linecap:round;stroke-linejoin:round;stroke-miterlimit:10;stroke-opacity:1;stroke-dasharray:0, 4;stroke-dashoffset:0"
       d="m 485.88,74.8398 0,0" /><path
       inkscape:connector-curvature="0"
       id="path80"
       style="fill:none;stroke:#000000;stroke-width:0.80000001;stroke-linecap:round;stroke-linejoin:round;stroke-miterlimit:10;stroke-opacity:1;stroke-dasharray:0, 4;stroke-dashoffset:0"
       d="m 48.1199,113.72 437.7601,0" /><path
       inkscape:connector-curvature="0"
       id="path82"
       style="fill:none;stroke:#000000;stroke-width:0.33333299;stroke-linecap:round;stroke-linejoin:round;stroke-miterlimit:10;stroke-opacity:1;stroke-dasharray:0, 4;stroke-dashoffset:0"
       d="m 485.88,113.72 0,0" /><path
       inkscape:connector-curvature="0"
       id="path84"
       style="fill:none;stroke:#000000;stroke-width:0.80000001;stroke-linecap:round;stroke-linejoin:round;stroke-miterlimit:10;stroke-opacity:1;stroke-dasharray:0, 4;stroke-dashoffset:0"
       d="m 48.1199,152.6 437.7601,0" /><path
       inkscape:connector-curvature="0"
       id="path86"
       style="fill:none;stroke:#000000;stroke-width:0.33333299;stroke-linecap:round;stroke-linejoin:round;stroke-miterlimit:10;stroke-opacity:1;stroke-dasharray:0, 4;stroke-dashoffset:0"
       d="m 485.88,152.6 0,0" /><path
       inkscape:connector-curvature="0"
       id="path88"
       style="fill:none;stroke:#000000;stroke-width:0.80000001;stroke-linecap:round;stroke-linejoin:round;stroke-miterlimit:10;stroke-opacity:1;stroke-dasharray:0, 4;stroke-dashoffset:0"
       d="m 48.1199,191.12 437.7601,0" /><path
       inkscape:connector-curvature="0"
       id="path90"
       style="fill:none;stroke:#000000;stroke-width:0.33333299;stroke-linecap:round;stroke-linejoin:round;stroke-miterlimit:10;stroke-opacity:1;stroke-dasharray:0, 4;stroke-dashoffset:0"
       d="m 485.88,191.12 0,0" /><path
       inkscape:connector-curvature="0"
       id="path92"
       style="fill:none;stroke:#000000;stroke-width:0.80000001;stroke-linecap:round;stroke-linejoin:round;stroke-miterlimit:10;stroke-opacity:1;stroke-dasharray:0, 4;stroke-dashoffset:0"
       d="M 48.1199,230 485.88,230" /><path
       inkscape:connector-curvature="0"
       id="path94"
       style="fill:none;stroke:#000000;stroke-width:0.33333299;stroke-linecap:round;stroke-linejoin:round;stroke-miterlimit:10;stroke-opacity:1;stroke-dasharray:0, 4;stroke-dashoffset:0"
       d="m 485.88,230 0,0" /><path
       inkscape:connector-curvature="0"
       id="path96"
       style="fill:none;stroke:#000000;stroke-width:0.80000001;stroke-linecap:round;stroke-linejoin:round;stroke-miterlimit:10;stroke-opacity:1;stroke-dasharray:0, 4;stroke-dashoffset:0"
       d="m 48.1199,268.88 437.7601,0" /><path
       inkscape:connector-curvature="0"
       id="path98"
       style="fill:none;stroke:#000000;stroke-width:0.33333299;stroke-linecap:round;stroke-linejoin:round;stroke-miterlimit:10;stroke-opacity:1;stroke-dasharray:0, 4;stroke-dashoffset:0"
       d="m 485.88,268.88 0,0" /><path
       inkscape:connector-curvature="0"
       id="path100"
       style="fill:none;stroke:#000000;stroke-width:0.80000001;stroke-linecap:round;stroke-linejoin:round;stroke-miterlimit:10;stroke-opacity:1;stroke-dasharray:0, 4;stroke-dashoffset:0"
       d="m 48.1199,307.76 437.7601,0" /><path
       inkscape:connector-curvature="0"
       id="path102"
       style="fill:none;stroke:#000000;stroke-width:0.33333299;stroke-linecap:round;stroke-linejoin:round;stroke-miterlimit:10;stroke-opacity:1;stroke-dasharray:0, 4;stroke-dashoffset:0"
       d="m 485.88,307.76 0,0" /><path
       inkscape:connector-curvature="0"
       id="path104"
       style="fill:none;stroke:#000000;stroke-width:0.80000001;stroke-linecap:round;stroke-linejoin:round;stroke-miterlimit:10;stroke-opacity:1;stroke-dasharray:0, 4;stroke-dashoffset:0"
       d="m 48.1199,346.28 437.7601,0" /><path
       inkscape:connector-curvature="0"
       id="path106"
       style="fill:none;stroke:#000000;stroke-width:0.33333299;stroke-linecap:round;stroke-linejoin:round;stroke-miterlimit:10;stroke-opacity:1;stroke-dasharray:0, 4;stroke-dashoffset:0"
       d="m 485.88,346.28 0,0" /><path
       inkscape:connector-curvature="0"
       id="path108"
       style="fill:none;stroke:#000000;stroke-width:0.5;stroke-linecap:butt;stroke-linejoin:round;stroke-miterlimit:10;stroke-opacity:1;stroke-dasharray:none"
       d="m 48.1199,35.9598 437.7601,0" /><path
       inkscape:connector-curvature="0"
       id="path110"
       style="fill:none;stroke:#000000;stroke-width:0.5;stroke-linecap:butt;stroke-linejoin:round;stroke-miterlimit:10;stroke-opacity:1;stroke-dasharray:none"
       d="m 48.1199,35.9598 0,310.3202" /><path
       inkscape:connector-curvature="0"
       id="path112"
       style="fill:none;stroke:#000000;stroke-width:0.5;stroke-linecap:butt;stroke-linejoin:round;stroke-miterlimit:10;stroke-opacity:1;stroke-dasharray:none"
       d="m 48.1199,35.9598 0,4.68" /><g
       id="g114"><text
         id="text116"
         transform="matrix(1,0,0,-1,30.4801,20.1199)"><tspan
           id="tspan118"
           sodipodi:role="line"
           y="0"
           x="0"
           style="font-size:14px;font-variant:normal;font-weight:normal;writing-mode:lr-tb;fill:#000000;fill-opacity:1;fill-rule:nonzero;stroke:none;font-family:Helvetica;-inkscape-font-specification:Helvetica">-0.5</tspan></text>
</g><path
       inkscape:connector-curvature="0"
       id="path120"
       style="fill:none;stroke:#000000;stroke-width:0.5;stroke-linecap:butt;stroke-linejoin:round;stroke-miterlimit:10;stroke-opacity:1;stroke-dasharray:none"
       d="m 91.6801,35.9598 0,4.68" /><g
       id="g122"><text
         id="text124"
         transform="matrix(1,0,0,-1,74.0398,20.1199)"><tspan
           id="tspan126"
           sodipodi:role="line"
           x="0"
           style="font-size:14px;font-variant:normal;font-weight:normal;writing-mode:lr-tb;fill:#000000;fill-opacity:1;fill-rule:nonzero;stroke:none;font-family:Helvetica;-inkscape-font-specification:Helvetica"
           y="0">-0.4</tspan></text>
</g><path
       inkscape:connector-curvature="0"
       id="path128"
       style="fill:none;stroke:#000000;stroke-width:0.5;stroke-linecap:butt;stroke-linejoin:round;stroke-miterlimit:10;stroke-opacity:1;stroke-dasharray:none"
       d="m 135.6,35.9598 0,4.68" /><g
       id="g130"><text
         id="text132"
         transform="matrix(1,0,0,-1,117.96,20.1199)"><tspan
           id="tspan134"
           sodipodi:role="line"
           y="0"
           x="0"
           style="font-size:14px;font-variant:normal;font-weight:normal;writing-mode:lr-tb;fill:#000000;fill-opacity:1;fill-rule:nonzero;stroke:none;font-family:Helvetica;-inkscape-font-specification:Helvetica">-0.3</tspan></text>
</g><path
       inkscape:connector-curvature="0"
       id="path136"
       style="fill:none;stroke:#000000;stroke-width:0.5;stroke-linecap:butt;stroke-linejoin:round;stroke-miterlimit:10;stroke-opacity:1;stroke-dasharray:none"
       d="m 179.16,35.9598 0,4.68" /><g
       id="g138"><text
         id="text140"
         transform="matrix(1,0,0,-1,161.52,20.1199)"><tspan
           id="tspan142"
           sodipodi:role="line"
           style="font-size:14px;font-variant:normal;font-weight:normal;writing-mode:lr-tb;fill:#000000;fill-opacity:1;fill-rule:nonzero;stroke:none;font-family:Helvetica;-inkscape-font-specification:Helvetica"
           x="0"
           y="0">-0.2</tspan></text>
</g><path
       inkscape:connector-curvature="0"
       id="path144"
       style="fill:none;stroke:#000000;stroke-width:0.5;stroke-linecap:butt;stroke-linejoin:round;stroke-miterlimit:10;stroke-opacity:1;stroke-dasharray:none"
       d="m 223.08,35.9598 0,4.68" /><g
       id="g146"><text
         id="text148"
         transform="matrix(1,0,0,-1,205.44,20.1199)"><tspan
           id="tspan150"
           sodipodi:role="line"
           style="font-size:14px;font-variant:normal;font-weight:normal;writing-mode:lr-tb;fill:#000000;fill-opacity:1;fill-rule:nonzero;stroke:none;font-family:Helvetica;-inkscape-font-specification:Helvetica"
           x="0"
           y="0">-0.1</tspan></text>
</g><path
       inkscape:connector-curvature="0"
       id="path152"
       style="fill:none;stroke:#000000;stroke-width:0.5;stroke-linecap:butt;stroke-linejoin:round;stroke-miterlimit:10;stroke-opacity:1;stroke-dasharray:none"
       d="m 267,35.9598 0,4.68" /><g
       id="g154"><text
         id="text156"
         transform="matrix(1,0,0,-1,263.4,20.1199)"><tspan
           id="tspan158"
           y="0"
           x="0"
           style="font-size:14px;font-variant:normal;font-weight:normal;writing-mode:lr-tb;fill:#000000;fill-opacity:1;fill-rule:nonzero;stroke:none;font-family:Helvetica;-inkscape-font-specification:Helvetica">0</tspan></text>
</g><path
       inkscape:connector-curvature="0"
       id="path160"
       style="fill:none;stroke:#000000;stroke-width:0.5;stroke-linecap:butt;stroke-linejoin:round;stroke-miterlimit:10;stroke-opacity:1;stroke-dasharray:none"
       d="m 310.56,35.9598 0,4.68" /><g
       id="g162"><text
         id="text164"
         transform="matrix(1,0,0,-1,300.84,20.1199)"><tspan
           id="tspan166"
           sodipodi:role="line"
           y="0"
           x="0 7.7839999 11.676"
           style="font-size:14px;font-variant:normal;font-weight:normal;writing-mode:lr-tb;fill:#000000;fill-opacity:1;fill-rule:nonzero;stroke:none;font-family:Helvetica;-inkscape-font-specification:Helvetica">0.1</tspan></text>
</g><path
       inkscape:connector-curvature="0"
       id="path168"
       style="fill:none;stroke:#000000;stroke-width:0.5;stroke-linecap:butt;stroke-linejoin:round;stroke-miterlimit:10;stroke-opacity:1;stroke-dasharray:none"
       d="m 354.48,35.9598 0,4.68" /><g
       id="g170"><text
         id="text172"
         transform="matrix(1,0,0,-1,344.76,20.1199)"><tspan
           id="tspan174"
           sodipodi:role="line"
           y="0"
           x="0 7.7839999 11.676"
           style="font-size:14px;font-variant:normal;font-weight:normal;writing-mode:lr-tb;fill:#000000;fill-opacity:1;fill-rule:nonzero;stroke:none;font-family:Helvetica;-inkscape-font-specification:Helvetica">0.2</tspan></text>
</g><path
       inkscape:connector-curvature="0"
       id="path176"
       style="fill:none;stroke:#000000;stroke-width:0.5;stroke-linecap:butt;stroke-linejoin:round;stroke-miterlimit:10;stroke-opacity:1;stroke-dasharray:none"
       d="m 398.04,35.9598 0,4.68" /><g
       id="g178"><text
         id="text180"
         transform="matrix(1,0,0,-1,388.32,20.1199)"><tspan
           id="tspan182"
           sodipodi:role="line"
           y="0"
           x="0 7.7839999 11.676"
           style="font-size:14px;font-variant:normal;font-weight:normal;writing-mode:lr-tb;fill:#000000;fill-opacity:1;fill-rule:nonzero;stroke:none;font-family:Helvetica;-inkscape-font-specification:Helvetica">0.3</tspan></text>
</g><path
       inkscape:connector-curvature="0"
       id="path184"
       style="fill:none;stroke:#000000;stroke-width:0.5;stroke-linecap:butt;stroke-linejoin:round;stroke-miterlimit:10;stroke-opacity:1;stroke-dasharray:none"
       d="m 441.96,35.9598 0,4.68" /><g
       id="g186"><text
         id="text188"
         transform="matrix(1,0,0,-1,432.239,20.1199)"><tspan
           id="tspan190"
           sodipodi:role="line"
           y="0"
           x="0 7.7839999 11.676"
           style="font-size:14px;font-variant:normal;font-weight:normal;writing-mode:lr-tb;fill:#000000;fill-opacity:1;fill-rule:nonzero;stroke:none;font-family:Helvetica;-inkscape-font-specification:Helvetica">0.4</tspan></text>
</g><path
       inkscape:connector-curvature="0"
       id="path192"
       style="fill:none;stroke:#000000;stroke-width:0.5;stroke-linecap:butt;stroke-linejoin:round;stroke-miterlimit:10;stroke-opacity:1;stroke-dasharray:none"
       d="m 485.88,35.9598 0,4.68" /><g
       id="g194"><text
         id="text196"
         transform="matrix(1,0,0,-1,476.16,20.1199)"><tspan
           id="tspan198"
           sodipodi:role="line"
           y="0"
           x="0 7.7839999 11.676"
           style="font-size:14px;font-variant:normal;font-weight:normal;writing-mode:lr-tb;fill:#000000;fill-opacity:1;fill-rule:nonzero;stroke:none;font-family:Helvetica;-inkscape-font-specification:Helvetica">0.5</tspan></text>
</g><path
       inkscape:connector-curvature="0"
       id="path200"
       style="fill:none;stroke:#000000;stroke-width:0.5;stroke-linecap:butt;stroke-linejoin:round;stroke-miterlimit:10;stroke-opacity:1;stroke-dasharray:none"
       d="m 48.1199,35.9598 4.3199,0" /><g
       id="g202"><text
         id="text204"
         transform="matrix(1,0,0,-1,37.6801,30.9199)"><tspan
           id="tspan206"
           y="0"
           x="0"
           style="font-size:14px;font-variant:normal;font-weight:normal;writing-mode:lr-tb;fill:#000000;fill-opacity:1;fill-rule:nonzero;stroke:none;font-family:Helvetica;-inkscape-font-specification:Helvetica">0</tspan></text>
</g><path
       inkscape:connector-curvature="0"
       id="path208"
       style="fill:none;stroke:#000000;stroke-width:0.5;stroke-linecap:butt;stroke-linejoin:round;stroke-miterlimit:10;stroke-opacity:1;stroke-dasharray:none"
       d="m 48.1199,74.8398 4.3199,0" /><g
       id="g210"><text
         id="text212"
         transform="matrix(1,0,0,-1,25.8,69.7996)"><tspan
           id="tspan214"
           sodipodi:role="line"
           y="0"
           x="0 7.7839999 11.676"
           style="font-size:14px;font-variant:normal;font-weight:normal;writing-mode:lr-tb;fill:#000000;fill-opacity:1;fill-rule:nonzero;stroke:none;font-family:Helvetica;-inkscape-font-specification:Helvetica">0.5</tspan></text>
</g><path
       inkscape:connector-curvature="0"
       id="path216"
       style="fill:none;stroke:#000000;stroke-width:0.5;stroke-linecap:butt;stroke-linejoin:round;stroke-miterlimit:10;stroke-opacity:1;stroke-dasharray:none"
       d="m 48.1199,113.72 4.3199,0" /><g
       id="g218"><text
         id="text220"
         transform="matrix(1,0,0,-1,37.6801,108.68)"><tspan
           id="tspan222"
           y="0"
           x="0"
           style="font-size:14px;font-variant:normal;font-weight:normal;writing-mode:lr-tb;fill:#000000;fill-opacity:1;fill-rule:nonzero;stroke:none;font-family:Helvetica;-inkscape-font-specification:Helvetica">1</tspan></text>
</g><path
       inkscape:connector-curvature="0"
       id="path224"
       style="fill:none;stroke:#000000;stroke-width:0.5;stroke-linecap:butt;stroke-linejoin:round;stroke-miterlimit:10;stroke-opacity:1;stroke-dasharray:none"
       d="m 48.1199,152.6 4.3199,0" /><g
       id="g226"><text
         id="text228"
         transform="matrix(1,0,0,-1,25.8,147.56)"><tspan
           id="tspan230"
           sodipodi:role="line"
           y="0"
           x="0 7.7839999 11.676"
           style="font-size:14px;font-variant:normal;font-weight:normal;writing-mode:lr-tb;fill:#000000;fill-opacity:1;fill-rule:nonzero;stroke:none;font-family:Helvetica;-inkscape-font-specification:Helvetica">1.5</tspan></text>
</g><path
       inkscape:connector-curvature="0"
       id="path232"
       style="fill:none;stroke:#000000;stroke-width:0.5;stroke-linecap:butt;stroke-linejoin:round;stroke-miterlimit:10;stroke-opacity:1;stroke-dasharray:none"
       d="m 48.1199,191.12 4.3199,0" /><g
       id="g234"><text
         id="text236"
         transform="matrix(1,0,0,-1,37.6801,186.08)"><tspan
           id="tspan238"
           y="0"
           x="0"
           style="font-size:14px;font-variant:normal;font-weight:normal;writing-mode:lr-tb;fill:#000000;fill-opacity:1;fill-rule:nonzero;stroke:none;font-family:Helvetica;-inkscape-font-specification:Helvetica">2</tspan></text>
</g><path
       inkscape:connector-curvature="0"
       id="path240"
       style="fill:none;stroke:#000000;stroke-width:0.5;stroke-linecap:butt;stroke-linejoin:round;stroke-miterlimit:10;stroke-opacity:1;stroke-dasharray:none"
       d="m 48.1199,230 4.3199,0" /><g
       id="g242"><text
         id="text244"
         transform="matrix(1,0,0,-1,25.8,224.96)"><tspan
           id="tspan246"
           sodipodi:role="line"
           y="0"
           x="0 7.7839999 11.676"
           style="font-size:14px;font-variant:normal;font-weight:normal;writing-mode:lr-tb;fill:#000000;fill-opacity:1;fill-rule:nonzero;stroke:none;font-family:Helvetica;-inkscape-font-specification:Helvetica">2.5</tspan></text>
</g><path
       inkscape:connector-curvature="0"
       id="path248"
       style="fill:none;stroke:#000000;stroke-width:0.5;stroke-linecap:butt;stroke-linejoin:round;stroke-miterlimit:10;stroke-opacity:1;stroke-dasharray:none"
       d="m 48.1199,268.88 4.3199,0" /><g
       id="g250"><text
         id="text252"
         transform="matrix(1,0,0,-1,37.6801,263.839)"><tspan
           id="tspan254"
           y="0"
           x="0"
           style="font-size:14px;font-variant:normal;font-weight:normal;writing-mode:lr-tb;fill:#000000;fill-opacity:1;fill-rule:nonzero;stroke:none;font-family:Helvetica;-inkscape-font-specification:Helvetica">3</tspan></text>
</g><path
       inkscape:connector-curvature="0"
       id="path256"
       style="fill:none;stroke:#000000;stroke-width:0.5;stroke-linecap:butt;stroke-linejoin:round;stroke-miterlimit:10;stroke-opacity:1;stroke-dasharray:none"
       d="m 48.1199,307.76 4.3199,0" /><g
       id="g258"><text
         id="text260"
         transform="matrix(1,0,0,-1,25.8,302.72)"><tspan
           id="tspan262"
           sodipodi:role="line"
           y="0"
           x="0 7.7839999 11.676"
           style="font-size:14px;font-variant:normal;font-weight:normal;writing-mode:lr-tb;fill:#000000;fill-opacity:1;fill-rule:nonzero;stroke:none;font-family:Helvetica;-inkscape-font-specification:Helvetica">3.5</tspan></text>
</g><path
       inkscape:connector-curvature="0"
       id="path264"
       style="fill:none;stroke:#000000;stroke-width:0.5;stroke-linecap:butt;stroke-linejoin:round;stroke-miterlimit:10;stroke-opacity:1;stroke-dasharray:none"
       d="m 48.1199,346.28 4.3199,0" /><g
       id="g266"><text
         id="text268"
         transform="matrix(1,0,0,-1,37.6801,341.239)"><tspan
           id="tspan270"
           y="0"
           x="0"
           style="font-size:14px;font-variant:normal;font-weight:normal;writing-mode:lr-tb;fill:#000000;fill-opacity:1;fill-rule:nonzero;stroke:none;font-family:Helvetica;-inkscape-font-specification:Helvetica">4</tspan></text>
</g><g
       id="g274"
       clip-path="url(#clipPath276)"
       transform="scale(0.1,0.1)"><path
         d="m 481.199,3390.8 43.199,-118.8 43.2,-118.8 43.203,-118.81 46.797,-111.59 43.203,-111.6 43.199,-108 43.199,-108 46.801,-104.4 43.199,-100.8 43.199,-97.2 46.801,-97.2 43.201,-93.6 43.2,-93.6 43.2,-90 46.8,-86.4 43.2,-82.8 43.2,-82.8 46.8,-79.2 43.2,-75.6 43.2,-75.6 43.2,-68.4 46.8,-72 43.2,-64.8 43.2,-64.8 46.8,-61.2 43.2,-61.2 43.2,-57.604 43.2,-54 46.8,-50.398 43.2,-50.399 43.2,-46.801 46.8,-43.199 43.2,-43.203 43.2,-39.598 43.2,-36 46.8,-36 43.2,-32.402 43.2,-28.797 46.8,-28.801 43.2,-21.601 43.2,-25.199 43.2,-18 46.8,-18 43.2,-14.399 43.2,-14.402 46.8,-7.199 43.2,-7.2 43.2,-7.199 133.2,0 43.2,7.199 43.2,7.2 46.8,7.199 43.2,14.402 43.2,14.399 46.8,18 43.2,18 43.2,25.199 43.2,21.601 46.8,28.801 43.2,28.797 43.2,32.402 46.8,36 43.2,36 43.2,39.598 43.2,43.203 46.8,43.199 43.2,46.801 43.2,50.399 46.8,50.398 43.2,54 43.2,57.604 43.2,61.2 46.8,61.2 43.2,64.8 43.2,64.8 46.8,72 43.2,68.4 43.19,75.6 43.21,75.6 46.79,79.2 43.21,82.8 43.2,82.8 46.8,86.4 43.2,90 43.2,93.6 43.2,93.6 46.8,97.2 43.2,97.2 43.19,100.8 46.81,104.4 43.19,108 43.21,108 43.2,111.6 46.8,111.59 43.2,118.81 43.2,118.8 46.8,118.8"
         style="fill:none;stroke:#0000ff;stroke-width:20;stroke-linecap:butt;stroke-linejoin:round;stroke-miterlimit:10;stroke-opacity:1;stroke-dasharray:82.2222, 30.8333;stroke-dashoffset:0"
         id="path280"
         inkscape:connector-curvature="0" /><path
         d="m 481.199,3390.8 43.199,-118.8 43.2,-118.8 43.203,-118.81 46.797,-111.59 43.203,-111.6 43.199,-108 43.199,-108 46.801,-104.4 43.199,-100.8 43.199,-97.2 46.801,-97.2 43.201,-93.6 43.2,-93.6 43.2,-90 46.8,-86.4 43.2,-82.8 43.2,-82.8 46.8,-79.2 43.2,-75.6 43.2,-75.6 43.2,-68.4 46.8,-72 43.2,-64.8 43.2,-64.8 46.8,-61.2 43.2,-61.2 43.2,-57.604 43.2,-54 46.8,-50.398 43.2,-50.399 43.2,-46.801 46.8,-43.199 43.2,-43.203 43.2,-39.598 43.2,-36 46.8,-36 43.2,-32.402 43.2,-28.797 46.8,-28.801 43.2,-21.601 43.2,-25.199 43.2,-18 46.8,-18 43.2,-14.399 43.2,-14.402 46.8,-7.199 43.2,-7.2 43.2,-7.199 133.2,0 43.2,7.199 43.2,7.2 46.8,7.199 43.2,14.402 43.2,14.399 46.8,18 43.2,18 43.2,25.199 43.2,21.601 46.8,28.801 43.2,28.797 43.2,32.402 46.8,36 43.2,36 43.2,39.598 43.2,43.203 46.8,43.199 43.2,46.801 43.2,50.399 46.8,50.398 43.2,54 43.2,57.604 43.2,61.2 46.8,61.2 43.2,64.8 43.2,64.8 46.8,72 43.2,68.4 43.19,75.6 43.21,75.6 46.79,79.2 43.21,82.8 43.2,82.8 46.8,86.4 43.2,90 43.2,93.6 43.2,93.6 46.8,97.2 43.2,97.2 43.19,100.8 46.81,104.4 43.19,108 43.21,108 43.2,111.6 46.8,111.59 43.2,118.81 43.2,118.8 46.8,118.8"
         style="fill:none;stroke:#000000;stroke-width:20;stroke-linecap:butt;stroke-linejoin:round;stroke-miterlimit:10;stroke-opacity:1;stroke-dasharray:none"
         id="path282"
         inkscape:connector-curvature="0" /></g><text
       transform="scale(1,-1)"
       id="text294"
       x="188.52"
       y="-5"><tspan
         style="font-size:14px;font-variant:normal;font-weight:normal;writing-mode:lr-tb;fill:#000000;fill-opacity:1;fill-rule:nonzero;stroke:none;font-family:Helvetica;-inkscape-font-specification:Helvetica"
         x="188.52 200.18201 207.966 214.966 222.75 234.412 242.196 249.98 253.87199 257.76401 265.548 268.65601 273.31799 281.10199 288.10199 291.99399 295.10199 302.88599 310.67001 314.56201 318.45401 330.116 341.77798"
         y="-5"
         sodipodi:role="line"
         id="tspan296">movement direction [mm]</tspan></text>
<g
       id="g312"
       clip-path="url(#clipPath314)"
       transform="scale(0.1,0.1)"><path
         d="m 481.199,1875.2 43.199,-57.6 43.2,-61.2 43.203,-57.6 46.797,-57.6 43.203,-54 43.199,-54 43.199,-54 46.801,-54 43.199,-50.4 43.199,-46.8 46.801,-50.4 43.201,-46.8 43.2,-46.8 43.2,-43.2 46.8,-43.2 43.2,-43.2 43.2,-39.6 46.8,-39.601 43.2,-39.601 43.2,-36 43.2,-36 46.8,-36 43.2,-32.399 43.2,-32.402 46.8,-28.801 43.2,-32.398 43.2,-28.801 43.2,-25.199 46.8,-25.2 43.2,-25.199 43.2,-25.203 46.8,-21.598 43.2,-21.601 43.2,-18 43.2,-18 46.8,-18 43.2,-18 43.2,-14.399 46.8,-14.398 43.2,-10.801 43.2,-10.801 43.2,-10.8 46.8,-7.2 43.2,-7.199 43.2,-7.199 46.8,-3.602 43.2,-3.601 43.2,-3.598 133.2,0 43.2,3.598 43.2,3.601 46.8,3.602 43.2,7.199 43.2,7.199 46.8,7.2 43.2,10.8 43.2,10.801 43.2,10.801 46.8,14.398 43.2,14.399 43.2,18 46.8,18 43.2,18 43.2,18 43.2,21.601 46.8,21.598 43.2,25.203 43.2,25.199 46.8,25.2 43.2,25.199 43.2,28.801 43.2,32.398 46.8,28.801 43.2,32.402 43.2,32.399 46.8,36 43.2,36 43.19,36 43.21,39.601 46.79,39.601 43.21,39.6 43.2,43.2 46.8,43.2 43.2,43.2 43.2,46.8 43.2,46.8 46.8,50.4 43.2,46.8 43.19,50.4 46.81,54 43.19,54 43.21,54 43.2,54 46.8,57.6 43.2,57.6 43.2,61.2 46.8,57.6"
         style="fill:none;stroke:#0000ff;stroke-width:20;stroke-linecap:butt;stroke-linejoin:round;stroke-miterlimit:10;stroke-opacity:1;stroke-dasharray:88.8889, 33.3333;stroke-dashoffset:0"
         id="path318"
         inkscape:connector-curvature="0" /><path
         d="m 481.199,1875.2 43.199,-57.6 43.2,-61.2 43.203,-57.6 46.797,-57.6 43.203,-54 43.199,-54 43.199,-54 46.801,-54 43.199,-50.4 43.199,-46.8 46.801,-50.4 43.201,-46.8 43.2,-46.8 43.2,-43.2 46.8,-43.2 43.2,-43.2 43.2,-39.6 46.8,-39.601 43.2,-39.601 43.2,-36 43.2,-36 46.8,-36 43.2,-32.399 43.2,-32.402 46.8,-28.801 43.2,-32.398 43.2,-28.801 43.2,-25.199 46.8,-25.2 43.2,-25.199 43.2,-25.203 46.8,-21.598 43.2,-21.601 43.2,-18 43.2,-18 46.8,-18 43.2,-18 43.2,-14.399 46.8,-14.398 43.2,-10.801 43.2,-10.801 43.2,-10.8 46.8,-7.2 43.2,-7.199 43.2,-7.199 46.8,-3.602 43.2,-3.601 43.2,-3.598 133.2,0 43.2,3.598 43.2,3.601 46.8,3.602 43.2,7.199 43.2,7.199 46.8,7.2 43.2,10.8 43.2,10.801 43.2,10.801 46.8,14.398 43.2,14.399 43.2,18 46.8,18 43.2,18 43.2,18 43.2,21.601 46.8,21.598 43.2,25.203 43.2,25.199 46.8,25.2 43.2,25.199 43.2,28.801 43.2,32.398 46.8,28.801 43.2,32.402 43.2,32.399 46.8,36 43.2,36 43.19,36 43.21,39.601 46.79,39.601 43.21,39.6 43.2,43.2 46.8,43.2 43.2,43.2 43.2,46.8 43.2,46.8 46.8,50.4 43.2,46.8 43.19,50.4 46.81,54 43.19,54 43.21,54 43.2,54 46.8,57.6 43.2,57.6 43.2,61.2 46.8,57.6"
         style="fill:none;stroke:#000000;stroke-width:20;stroke-linecap:butt;stroke-linejoin:round;stroke-miterlimit:10;stroke-opacity:1;stroke-dasharray:none"
         id="path320"
         inkscape:connector-curvature="0" /><path
         d="m 481.199,1119.2 43.199,-28.8 43.2,-32.4 43.203,-28.8 46.797,-28.8 43.203,-25.201 L 744,946.398 787.199,921.199 834,892.398 l 43.199,-25.199 43.199,-21.601 46.801,-25.2 43.201,-25.199 43.2,-21.601 43.2,-21.602 46.8,-21.598 43.2,-21.601 43.2,-21.598 46.8,-18 43.2,-21.601 43.2,-18 43.2,-18 46.8,-18 43.2,-14.399 43.2,-18 46.8,-14.402 43.2,-14.399 43.2,-14.402 43.2,-14.398 46.8,-10.801 43.2,-14.399 43.2,-10.8 46.8,-10.801 43.2,-10.797 43.2,-10.801 43.2,-7.199 46.8,-10.801 43.2,-7.199 43.2,-7.203 46.8,-7.199 43.2,-7.2 43.2,-3.601 43.2,-7.199 46.8,-3.598 43.2,-3.602 43.2,-3.601 46.8,0 43.2,-3.598 219.6,0 43.2,3.598 46.8,0 43.2,3.601 43.2,3.602 46.8,3.598 43.2,7.199 43.2,3.601 43.2,7.2 46.8,7.199 43.2,7.203 43.2,7.199 46.8,10.801 43.2,7.199 43.2,10.801 43.2,10.797 46.8,10.801 43.2,10.8 43.2,14.399 46.8,10.801 43.2,14.398 43.2,14.402 43.2,14.399 46.8,14.402 43.2,18 43.2,14.399 46.8,18 43.2,18 43.19,18 43.21,21.601 46.79,18 43.21,21.598 43.2,21.601 46.8,21.598 43.2,21.602 43.2,21.601 43.2,25.199 46.8,25.2 43.2,21.601 43.19,25.199 46.81,28.801 43.19,25.199 43.21,28.801 43.2,25.201 46.8,28.8 43.2,28.8 43.2,32.4 46.8,28.8"
         style="fill:none;stroke:#0000ff;stroke-width:20;stroke-linecap:butt;stroke-linejoin:round;stroke-miterlimit:10;stroke-opacity:1;stroke-dasharray:88.8889, 33.3333;stroke-dashoffset:0"
         id="path322"
         inkscape:connector-curvature="0" /><path
         d="m 481.199,1119.2 43.199,-28.8 43.2,-32.4 43.203,-28.8 46.797,-28.8 43.203,-25.201 L 744,946.398 787.199,921.199 834,892.398 l 43.199,-25.199 43.199,-21.601 46.801,-25.2 43.201,-25.199 43.2,-21.601 43.2,-21.602 46.8,-21.598 43.2,-21.601 43.2,-21.598 46.8,-18 43.2,-21.601 43.2,-18 43.2,-18 46.8,-18 43.2,-14.399 43.2,-18 46.8,-14.402 43.2,-14.399 43.2,-14.402 43.2,-14.398 46.8,-10.801 43.2,-14.399 43.2,-10.8 46.8,-10.801 43.2,-10.797 43.2,-10.801 43.2,-7.199 46.8,-10.801 43.2,-7.199 43.2,-7.203 46.8,-7.199 43.2,-7.2 43.2,-3.601 43.2,-7.199 46.8,-3.598 43.2,-3.602 43.2,-3.601 46.8,0 43.2,-3.598 219.6,0 43.2,3.598 46.8,0 43.2,3.601 43.2,3.602 46.8,3.598 43.2,7.199 43.2,3.601 43.2,7.2 46.8,7.199 43.2,7.203 43.2,7.199 46.8,10.801 43.2,7.199 43.2,10.801 43.2,10.797 46.8,10.801 43.2,10.8 43.2,14.399 46.8,10.801 43.2,14.398 43.2,14.402 43.2,14.399 46.8,14.402 43.2,18 43.2,14.399 46.8,18 43.2,18 43.19,18 43.21,21.601 46.79,18 43.21,21.598 43.2,21.601 46.8,21.598 43.2,21.602 43.2,21.601 43.2,25.199 46.8,25.2 43.2,21.601 43.19,25.199 46.81,28.801 43.19,25.199 43.21,28.801 43.2,25.201 46.8,28.8 43.2,28.8 43.2,32.4 46.8,28.8"
         style="fill:none;stroke:#000000;stroke-width:20;stroke-linecap:butt;stroke-linejoin:round;stroke-miterlimit:10;stroke-opacity:1;stroke-dasharray:none"
         id="path324"
         inkscape:connector-curvature="0" /><path
         d="m 481.199,741.199 43.199,-14.402 43.2,-18 43.203,-14.399 46.797,-14.402 43.203,-10.797 L 744,654.797 787.199,640.398 834,625.996 l 43.199,-10.797 43.199,-10.801 46.801,-14.402 43.201,-10.797 43.2,-10.801 43.2,-10.8 46.8,-10.801 43.2,-10.801 43.2,-10.797 46.8,-10.801 43.2,-10.8 43.2,-7.2 43.2,-10.8 46.8,-7.2 43.2,-7.199 43.2,-10.801 46.8,-7.199 43.2,-7.203 43.2,-7.199 43.2,-7.199 46.8,-3.602 43.2,-7.199 43.2,-7.199 46.8,-3.602 43.2,-7.199 43.2,-3.598 43.2,-3.601 46.8,-7.2 43.2,-3.601 43.2,-3.598 46.8,-3.601 43.2,-3.598 43.2,0 43.2,-3.602 46.8,-3.601 43.2,0 43.2,-3.598 399.6,0 43.2,3.598 43.2,0 46.8,3.601 43.2,3.602 43.2,0 43.2,3.598 46.8,3.601 43.2,3.598 43.2,3.601 46.8,7.2 43.2,3.601 43.2,3.598 43.2,7.199 46.8,3.602 43.2,7.199 43.2,7.199 46.8,3.602 43.2,7.199 43.2,7.199 43.2,7.203 46.8,7.199 43.2,10.801 43.2,7.199 46.8,7.2 43.2,10.8 43.19,7.2 43.21,10.8 46.79,10.801 43.21,10.797 43.2,10.801 46.8,10.801 43.2,10.8 43.2,10.801 43.2,10.797 46.8,14.402 43.2,10.801 43.19,10.797 46.81,14.402 43.19,14.399 43.21,14.402 43.2,10.797 46.8,14.402 43.2,14.399 43.2,18 46.8,14.402"
         style="fill:none;stroke:#0000ff;stroke-width:20;stroke-linecap:butt;stroke-linejoin:round;stroke-miterlimit:10;stroke-opacity:1;stroke-dasharray:88.8889, 33.3333;stroke-dashoffset:0"
         id="path326"
         inkscape:connector-curvature="0" /><path
         d="m 481.199,741.199 43.199,-14.402 43.2,-18 43.203,-14.399 46.797,-14.402 43.203,-10.797 L 744,654.797 787.199,640.398 834,625.996 l 43.199,-10.797 43.199,-10.801 46.801,-14.402 43.201,-10.797 43.2,-10.801 43.2,-10.8 46.8,-10.801 43.2,-10.801 43.2,-10.797 46.8,-10.801 43.2,-10.8 43.2,-7.2 43.2,-10.8 46.8,-7.2 43.2,-7.199 43.2,-10.801 46.8,-7.199 43.2,-7.203 43.2,-7.199 43.2,-7.199 46.8,-3.602 43.2,-7.199 43.2,-7.199 46.8,-3.602 43.2,-7.199 43.2,-3.598 43.2,-3.601 46.8,-7.2 43.2,-3.601 43.2,-3.598 46.8,-3.601 43.2,-3.598 43.2,0 43.2,-3.602 46.8,-3.601 43.2,0 43.2,-3.598 399.6,0 43.2,3.598 43.2,0 46.8,3.601 43.2,3.602 43.2,0 43.2,3.598 46.8,3.601 43.2,3.598 43.2,3.601 46.8,7.2 43.2,3.601 43.2,3.598 43.2,7.199 46.8,3.602 43.2,7.199 43.2,7.199 46.8,3.602 43.2,7.199 43.2,7.199 43.2,7.203 46.8,7.199 43.2,10.801 43.2,7.199 46.8,7.2 43.2,10.8 43.19,7.2 43.21,10.8 46.79,10.801 43.21,10.797 43.2,10.801 46.8,10.801 43.2,10.8 43.2,10.801 43.2,10.797 46.8,14.402 43.2,10.801 43.19,10.797 46.81,14.402 43.19,14.399 43.21,14.402 43.2,10.797 46.8,14.402 43.2,14.399 43.2,18 46.8,14.402"
         style="fill:none;stroke:#000000;stroke-width:20;stroke-linecap:butt;stroke-linejoin:round;stroke-miterlimit:10;stroke-opacity:1;stroke-dasharray:none"
         id="path328"
         inkscape:connector-curvature="0" /></g><text
       xml:space="preserve"
       style="font-size:16.11890221px;font-style:normal;font-weight:normal;line-height:125%;letter-spacing:0px;word-spacing:0px;fill:#000000;fill-opacity:1;stroke:none;font-family:Sans"
       x="52.566608"
       y="-42.047241"
       id="text3751"
       sodipodi:linespacing="125%"
       transform="scale(1,-1)"><tspan
         sodipodi:role="line"
         id="tspan3753"
         x="52.566608"
         y="-42.047241">R=256</tspan></text>
<text
       xml:space="preserve"
       style="font-size:16.11890221px;font-style:normal;font-weight:normal;line-height:125%;letter-spacing:0px;word-spacing:0px;fill:#000000;fill-opacity:1;stroke:none;font-family:Sans"
       x="52.566608"
       y="-112.86509"
       id="text3751-1"
       sodipodi:linespacing="125%"
       transform="scale(1,-1)"><tspan
         sodipodi:role="line"
         id="tspan3753-5"
         x="52.566608"
         y="-112.86509">R=128</tspan></text>
<text
       xml:space="preserve"
       style="font-size:16.11890221px;font-style:normal;font-weight:normal;line-height:125%;letter-spacing:0px;word-spacing:0px;fill:#000000;fill-opacity:1;stroke:none;font-family:Sans"
       x="52.566608"
       y="-187.97778"
       id="text3751-1-2"
       sodipodi:linespacing="125%"
       transform="scale(1,-1)"><tspan
         sodipodi:role="line"
         id="tspan3753-5-5"
         x="52.566608"
         y="-187.97778">R=64</tspan></text>
<text
       xml:space="preserve"
       style="font-size:16.11890221px;font-style:normal;font-weight:normal;line-height:125%;letter-spacing:0px;word-spacing:0px;fill:#000000;fill-opacity:1;stroke:none;font-family:Sans"
       x="60.841347"
       y="-310.86594"
       id="text3751-1-2-5"
       sodipodi:linespacing="125%"
       transform="scale(1,-1)"><tspan
         sodipodi:role="line"
         id="tspan3753-5-5-9"
         x="60.841347"
         y="-310.86594">R=32</tspan></text>
<text
       style="font-size:12px"
       id="text294-2"
       x="130.7146"
       y="20.589563"
       transform="matrix(0,1,1,0,0,0)"><tspan
         style="font-size:14px;font-variant:normal;font-weight:normal;writing-mode:lr-tb;fill:#000000;fill-opacity:1;fill-rule:nonzero;stroke:none;font-family:Helvetica;-inkscape-font-specification:Helvetica"
         sodipodi:role="line"
         id="tspan296-7"
         x="130.7146"
         y="20.589563">disc profiles [$\mu$m]</tspan></text>
</g></svg>