<?xml version="1.0" encoding="UTF-8" standalone="no"?>
<!-- Created with Inkscape (http://www.inkscape.org/) -->

<svg
   xmlns:dc="http://purl.org/dc/elements/1.1/"
   xmlns:cc="http://creativecommons.org/ns#"
   xmlns:rdf="http://www.w3.org/1999/02/22-rdf-syntax-ns#"
   xmlns:svg="http://www.w3.org/2000/svg"
   xmlns="http://www.w3.org/2000/svg"
   xmlns:sodipodi="http://sodipodi.sourceforge.net/DTD/sodipodi-0.dtd"
   xmlns:inkscape="http://www.inkscape.org/namespaces/inkscape"
   id="svg2"
   version="1.1"
   inkscape:version="0.48.5 r10040"
   width="511.25"
   height="385"
   xml:space="preserve"
   sodipodi:docname="sol_num1.pdf"><metadata
     id="metadata8"><rdf:RDF><cc:Work
         rdf:about=""><dc:format>image/svg+xml</dc:format><dc:type
           rdf:resource="http://purl.org/dc/dcmitype/StillImage" /><dc:title></dc:title></cc:Work></rdf:RDF></metadata><defs
     id="defs6"><clipPath
       clipPathUnits="userSpaceOnUse"
       id="clipPath18"><path
         d="m 0,7.5 4090,0 0,3072.5 L 0,3080 0,7.5 z"
         id="path20" /></clipPath><clipPath
       clipPathUnits="userSpaceOnUse"
       id="clipPath156"><path
         d="m 532.5,2849.17 3175,0 0,-2504.17 -3175,0 0,2504.17 z"
         id="path158" /></clipPath><clipPath
       clipPathUnits="userSpaceOnUse"
       id="clipPath172"><path
         d="m 0,7 0,3073 4090,0 L 4090,7 0,7 z"
         id="path174" /></clipPath><clipPath
       clipPathUnits="userSpaceOnUse"
       id="clipPath186"><path
         d="m 532.5,2849.17 3175,0 0,-2504.17 -3175,0 0,2504.17 z"
         id="path188" /></clipPath></defs><sodipodi:namedview
     pagecolor="#ffffff"
     bordercolor="#666666"
     borderopacity="1"
     objecttolerance="10"
     gridtolerance="10"
     guidetolerance="10"
     inkscape:pageopacity="0"
     inkscape:pageshadow="2"
     inkscape:window-width="1920"
     inkscape:window-height="1025"
     id="namedview4"
     showgrid="false"
     inkscape:zoom="6.5164022"
     inkscape:cx="136.83785"
     inkscape:cy="250.60624"
     inkscape:window-x="-2"
     inkscape:window-y="-3"
     inkscape:window-maximized="1"
     inkscape:current-layer="g12" /><g
     id="g10"
     inkscape:groupmode="layer"
     inkscape:label="ink_ext_XXXXXX"
     transform="matrix(1.25,0,0,-1.25,0,385)"><g
       id="g12"
       transform="scale(0.1,0.1)"><path
         d="m 0,7.5 4090,0 0,3072.5 L 0,3080 0,7.5 z"
         style="fill:#ffffff;fill-opacity:1;fill-rule:nonzero;stroke:none"
         id="path22"
         inkscape:connector-curvature="0" /><path
         d="m 532.5,345.832 0,2503.338 3174.17,0 0,-2503.338 -3174.17,0"
         style="fill:none;stroke:#ffffff;stroke-width:5;stroke-linecap:butt;stroke-linejoin:round;stroke-miterlimit:10;stroke-opacity:1;stroke-dasharray:none"
         id="path26"
         inkscape:connector-curvature="0" /><path
         d="m 532.5,345.832 3174.17,0"
         style="fill:none;stroke:#000000;stroke-width:5;stroke-linecap:butt;stroke-linejoin:round;stroke-miterlimit:10;stroke-opacity:1;stroke-dasharray:none"
         id="path28"
         inkscape:connector-curvature="0" /><path
         d="m 532.5,345.832 0,2503.338"
         style="fill:none;stroke:#000000;stroke-width:5;stroke-linecap:butt;stroke-linejoin:round;stroke-miterlimit:10;stroke-opacity:1;stroke-dasharray:none"
         id="path30"
         inkscape:connector-curvature="0" /><path
         d="m 532.5,345.832 0,32.5"
         style="fill:none;stroke:#000000;stroke-width:5;stroke-linecap:butt;stroke-linejoin:round;stroke-miterlimit:10;stroke-opacity:1;stroke-dasharray:none"
         id="path32"
         inkscape:connector-curvature="0" /><text
         id="text36"
         transform="scale(1,-1)"
         x="505"
         y="-225"
         style="font-size:120px"><tspan
           id="tspan38"
           y="-225"
           x="505"
           style="font-size:100px;font-variant:normal;font-weight:normal;writing-mode:lr-tb;fill:#000000;fill-opacity:1;fill-rule:nonzero;stroke:none;font-family:Helvetica;-inkscape-font-specification:Helvetica">0</tspan></text>
<path
         d="m 1166.67,345.832 0,32.5"
         style="fill:none;stroke:#000000;stroke-width:5;stroke-linecap:butt;stroke-linejoin:round;stroke-miterlimit:10;stroke-opacity:1;stroke-dasharray:none"
         id="path40"
         inkscape:connector-curvature="0" /><text
         id="text44"
         transform="scale(1,-1)"
         x="1097.5"
         y="-225"
         style="font-size:120px"><tspan
           id="tspan46"
           sodipodi:role="line"
           y="-225"
           x="1097.5 1153.1 1180.9"
           style="font-size:100px;font-variant:normal;font-weight:normal;writing-mode:lr-tb;fill:#000000;fill-opacity:1;fill-rule:nonzero;stroke:none;font-family:Helvetica;-inkscape-font-specification:Helvetica">0.2</tspan></text>
<path
         d="m 1801.67,345.832 0,32.5"
         style="fill:none;stroke:#000000;stroke-width:5;stroke-linecap:butt;stroke-linejoin:round;stroke-miterlimit:10;stroke-opacity:1;stroke-dasharray:none"
         id="path48"
         inkscape:connector-curvature="0" /><text
         id="text52"
         transform="scale(1,-1)"
         x="1732.5"
         y="-225"
         style="font-size:120px"><tspan
           id="tspan54"
           sodipodi:role="line"
           y="-225"
           x="1732.5 1788.1 1815.9"
           style="font-size:100px;font-variant:normal;font-weight:normal;writing-mode:lr-tb;fill:#000000;fill-opacity:1;fill-rule:nonzero;stroke:none;font-family:Helvetica;-inkscape-font-specification:Helvetica">0.4</tspan></text>
<path
         d="m 2436.67,345.832 0,32.5"
         style="fill:none;stroke:#000000;stroke-width:5;stroke-linecap:butt;stroke-linejoin:round;stroke-miterlimit:10;stroke-opacity:1;stroke-dasharray:none"
         id="path56"
         inkscape:connector-curvature="0" /><text
         id="text60"
         transform="scale(1,-1)"
         x="2367.5"
         y="-225"
         style="font-size:120px"><tspan
           id="tspan62"
           sodipodi:role="line"
           y="-225"
           x="2367.5 2423.1001 2450.8999"
           style="font-size:100px;font-variant:normal;font-weight:normal;writing-mode:lr-tb;fill:#000000;fill-opacity:1;fill-rule:nonzero;stroke:none;font-family:Helvetica;-inkscape-font-specification:Helvetica">0.6</tspan></text>
<path
         d="m 3071.67,345.832 0,32.5"
         style="fill:none;stroke:#000000;stroke-width:5;stroke-linecap:butt;stroke-linejoin:round;stroke-miterlimit:10;stroke-opacity:1;stroke-dasharray:none"
         id="path64"
         inkscape:connector-curvature="0" /><text
         id="text68"
         transform="scale(1,-1)"
         x="3002.5"
         y="-225"
         style="font-size:120px"><tspan
           id="tspan70"
           sodipodi:role="line"
           y="-225"
           x="3002.5 3058.1001 3085.8999"
           style="font-size:100px;font-variant:normal;font-weight:normal;writing-mode:lr-tb;fill:#000000;fill-opacity:1;fill-rule:nonzero;stroke:none;font-family:Helvetica;-inkscape-font-specification:Helvetica">0.8</tspan></text>
<path
         d="m 3706.67,345.832 0,32.5"
         style="fill:none;stroke:#000000;stroke-width:5;stroke-linecap:butt;stroke-linejoin:round;stroke-miterlimit:10;stroke-opacity:1;stroke-dasharray:none"
         id="path72"
         inkscape:connector-curvature="0" /><text
         id="text76"
         transform="scale(1,-1)"
         x="3679.1699"
         y="-225"
         style="font-size:120px"><tspan
           id="tspan78"
           y="-225"
           x="3679.1699"
           style="font-size:100px;font-variant:normal;font-weight:normal;writing-mode:lr-tb;fill:#000000;fill-opacity:1;fill-rule:nonzero;stroke:none;font-family:Helvetica;-inkscape-font-specification:Helvetica">1</tspan></text>
<path
         d="m 532.5,345.832 31.668,0"
         style="fill:none;stroke:#000000;stroke-width:5;stroke-linecap:butt;stroke-linejoin:round;stroke-miterlimit:10;stroke-opacity:1;stroke-dasharray:none"
         id="path80"
         inkscape:connector-curvature="0" /><text
         id="text84"
         transform="scale(1,-1)"
         x="390"
         y="-309.168"
         style="font-size:120px"><tspan
           id="tspan86"
           sodipodi:role="line"
           style="font-size:100px;font-variant:normal;font-weight:normal;writing-mode:lr-tb;fill:#000000;fill-opacity:1;fill-rule:nonzero;stroke:none;font-family:Helvetica;-inkscape-font-specification:Helvetica"
           x="390"
           y="-309.168">-1</tspan></text>
<path
         d="m 532.5,659.168 31.668,0"
         style="fill:none;stroke:#000000;stroke-width:5;stroke-linecap:butt;stroke-linejoin:round;stroke-miterlimit:10;stroke-opacity:1;stroke-dasharray:none"
         id="path88"
         inkscape:connector-curvature="0" /><text
         id="text92"
         transform="scale(1,-1)"
         x="306.668"
         y="-622.5"
         style="font-size:120px"><tspan
           id="tspan94"
           sodipodi:role="line"
           x="306.668"
           style="font-size:100px;font-variant:normal;font-weight:normal;writing-mode:lr-tb;fill:#000000;fill-opacity:1;fill-rule:nonzero;stroke:none;font-family:Helvetica;-inkscape-font-specification:Helvetica"
           y="-622.5">-0.5</tspan></text>
<path
         d="m 532.5,971.668 31.668,0"
         style="fill:none;stroke:#000000;stroke-width:5;stroke-linecap:butt;stroke-linejoin:round;stroke-miterlimit:10;stroke-opacity:1;stroke-dasharray:none"
         id="path96"
         inkscape:connector-curvature="0" /><text
         id="text100"
         transform="scale(1,-1)"
         x="448.332"
         y="-935"
         style="font-size:120px"><tspan
           id="tspan102"
           y="-935"
           x="448.332"
           style="font-size:100px;font-variant:normal;font-weight:normal;writing-mode:lr-tb;fill:#000000;fill-opacity:1;fill-rule:nonzero;stroke:none;font-family:Helvetica;-inkscape-font-specification:Helvetica">0</tspan></text>
<path
         d="m 532.5,1285 31.668,0"
         style="fill:none;stroke:#000000;stroke-width:5;stroke-linecap:butt;stroke-linejoin:round;stroke-miterlimit:10;stroke-opacity:1;stroke-dasharray:none"
         id="path104"
         inkscape:connector-curvature="0" /><text
         id="text108"
         transform="scale(1,-1)"
         x="365"
         y="-1248.33"
         style="font-size:120px"><tspan
           id="tspan110"
           sodipodi:role="line"
           y="-1248.33"
           x="365 420.60001 448.39999"
           style="font-size:100px;font-variant:normal;font-weight:normal;writing-mode:lr-tb;fill:#000000;fill-opacity:1;fill-rule:nonzero;stroke:none;font-family:Helvetica;-inkscape-font-specification:Helvetica">0.5</tspan></text>
<path
         d="m 532.5,1597.5 31.668,0"
         style="fill:none;stroke:#000000;stroke-width:5;stroke-linecap:butt;stroke-linejoin:round;stroke-miterlimit:10;stroke-opacity:1;stroke-dasharray:none"
         id="path112"
         inkscape:connector-curvature="0" /><text
         id="text116"
         transform="scale(1,-1)"
         x="448.332"
         y="-1560.83"
         style="font-size:120px"><tspan
           id="tspan118"
           y="-1560.83"
           x="448.332"
           style="font-size:100px;font-variant:normal;font-weight:normal;writing-mode:lr-tb;fill:#000000;fill-opacity:1;fill-rule:nonzero;stroke:none;font-family:Helvetica;-inkscape-font-specification:Helvetica">1</tspan></text>
<path
         d="m 532.5,1910.83 31.668,0"
         style="fill:none;stroke:#000000;stroke-width:5;stroke-linecap:butt;stroke-linejoin:round;stroke-miterlimit:10;stroke-opacity:1;stroke-dasharray:none"
         id="path120"
         inkscape:connector-curvature="0" /><text
         id="text124"
         transform="scale(1,-1)"
         x="365"
         y="-1874.17"
         style="font-size:120px"><tspan
           id="tspan126"
           sodipodi:role="line"
           y="-1874.17"
           x="365 420.60001 448.39999"
           style="font-size:100px;font-variant:normal;font-weight:normal;writing-mode:lr-tb;fill:#000000;fill-opacity:1;fill-rule:nonzero;stroke:none;font-family:Helvetica;-inkscape-font-specification:Helvetica">1.5</tspan></text>
<path
         d="m 532.5,2223.33 31.668,0"
         style="fill:none;stroke:#000000;stroke-width:5;stroke-linecap:butt;stroke-linejoin:round;stroke-miterlimit:10;stroke-opacity:1;stroke-dasharray:none"
         id="path128"
         inkscape:connector-curvature="0" /><text
         id="text132"
         transform="scale(1,-1)"
         x="448.332"
         y="-2186.6699"
         style="font-size:120px"><tspan
           id="tspan134"
           y="-2186.6699"
           x="448.332"
           style="font-size:100px;font-variant:normal;font-weight:normal;writing-mode:lr-tb;fill:#000000;fill-opacity:1;fill-rule:nonzero;stroke:none;font-family:Helvetica;-inkscape-font-specification:Helvetica">2</tspan></text>
<path
         d="m 532.5,2536.67 31.668,0"
         style="fill:none;stroke:#000000;stroke-width:5;stroke-linecap:butt;stroke-linejoin:round;stroke-miterlimit:10;stroke-opacity:1;stroke-dasharray:none"
         id="path136"
         inkscape:connector-curvature="0" /><text
         id="text140"
         transform="scale(1,-1)"
         x="365"
         y="-2500"
         style="font-size:120px"><tspan
           id="tspan142"
           sodipodi:role="line"
           y="-2500"
           x="365 420.60001 448.39999"
           style="font-size:100px;font-variant:normal;font-weight:normal;writing-mode:lr-tb;fill:#000000;fill-opacity:1;fill-rule:nonzero;stroke:none;font-family:Helvetica;-inkscape-font-specification:Helvetica">2.5</tspan></text>
<path
         d="m 532.5,2849.17 31.668,0"
         style="fill:none;stroke:#000000;stroke-width:5;stroke-linecap:butt;stroke-linejoin:round;stroke-miterlimit:10;stroke-opacity:1;stroke-dasharray:none"
         id="path144"
         inkscape:connector-curvature="0" /><text
         id="text148"
         transform="scale(1,-1)"
         x="448.332"
         y="-2812.5"
         style="font-size:120px"><tspan
           id="tspan150"
           y="-2812.5"
           x="448.332"
           style="font-size:100px;font-variant:normal;font-weight:normal;writing-mode:lr-tb;fill:#000000;fill-opacity:1;fill-rule:nonzero;stroke:none;font-family:Helvetica;-inkscape-font-specification:Helvetica">3</tspan></text>
<path
         d="m 532.5,971.668 18.332,55.002 18.336,54.16 19.164,54.17 18.336,54.17 19.164,54.16 18.336,54.17 18.332,54.17 19.168,54.16 18.332,55 19.168,54.17 18.332,54.17 18.332,54.16 19.168,54.17 18.332,54.17 19.168,55 18.332,54.16 18.336,54.17 19.164,54.17 18.336,54.16 19.164,55 18.336,54.17 18.332,54.17 19.168,55 18.332,54.16 10.99557,40.0699 26.50443,-55.0699 18.33,-39.16 19.17,-39.17 18.33,-39.17 19.17,-39.16 18.33,-39.17 18.34,-39.17 19.16,-39.16 18.34,-39.17 19.16,-39.17 18.34,-39.16 19.16,-39.17 18.34,-39.17 18.33,-39.16 19.17,-39.17 18.33,-38.33 19.17,-39.17 18.33,-39.17 18.33,-39.16 19.17,-39.17 18.33,-39.17 19.17,-38.33 18.33,-39.17 18.34,-39.16 19.16,-39.17 18.34,-38.33 19.16,-39.17 18.34,-39.17 18.33,-39.16 19.17,-38.34 18.33,-39.16 19.17,-39.17 18.33,-39.17 18.33,-39.162 2074.17,0"
         style="fill:none;stroke:#000000;stroke-width:14.39999962;stroke-linecap:butt;stroke-linejoin:round;stroke-miterlimit:10;stroke-opacity:1;stroke-dasharray:115.19999696, 14.3999996;stroke-dashoffset:0"
         id="path160"
         inkscape:connector-curvature="0"
         sodipodi:nodetypes="ccccccccccccccccccccccccccccccccccccccccccccccccccccccccccccc" /><path
         d="m 532.5,971.668 466.668,0 0,-625.836 634.16,0 0,625.836 2074.172,0"
         style="fill:none;stroke:#000000;stroke-width:12;stroke-linecap:butt;stroke-linejoin:round;stroke-miterlimit:10;stroke-opacity:1;stroke-dasharray:12, 12;stroke-dashoffset:0;marker-start:none;marker-mid:none"
         id="path162"
         inkscape:connector-curvature="0"
         sodipodi:nodetypes="cccccc" /><path
         d="m 532.5,1597.5 3174.17,0"
         style="fill:none;stroke:#000000;stroke-width:12;stroke-linecap:butt;stroke-linejoin:round;stroke-miterlimit:10;stroke-opacity:1;stroke-dasharray:12,12;stroke-dashoffset:0"
         id="path164"
         inkscape:connector-curvature="0"
         sodipodi:nodetypes="cc" /><path
         d="m 532.5,971.668 485,618.332 268.33,-618.332 2421.67,0"
         style="fill:none;stroke:#000000;stroke-width:14.4;stroke-linecap:butt;stroke-linejoin:round;stroke-miterlimit:10;stroke-opacity:1;stroke-dasharray:none"
         id="path166"
         inkscape:connector-curvature="0" /><path
         d="m 532.5,971.668 18.332,20.832 18.336,20.83 19.164,20.84 18.336,20.83 19.164,20.83 18.336,20.84 18.332,20.83 19.168,20.83 18.332,20.84 19.168,20.83 18.332,20 18.332,20.83 19.168,20.84 18.332,20.83 19.168,20.83 18.332,20.84 18.336,20.83 19.164,20 18.336,20.83 19.164,20.84 18.336,20.83 18.332,20.83 19.168,20 18.332,20.84 19.168,20.83 18.332,20.83 18.33,20 19.17,20.84 18.33,20.83 19.17,20 18.33,20.83 18.34,20 19.16,20.84 18.34,20.83 19.16,20 18.34,20.83 19.16,20 18.34,20.84 18.33,20 19.17,20.83 18.33,20 19.17,20.83 18.33,20 18.33,20.84 19.17,20 18.33,20 19.17,20.83 18.33,20 18.34,20 19.16,20.83 18.34,20 19.16,20 18.34,20.84 18.33,20 19.17,20 18.33,20 19.17,20.83 18.33,20 18.33,20 19.17,20 18.33,20 19.17,20.83 18.33,20 18.34,20 19.16,20 18.34,20 19.16,20 18.34,20 19.16,20 18.34,20 18.33,20 8.7529,6.9505 28.7471,-63.6105 19.17,-44.17 18.33,-43.33 18.33,-43.34 19.17,-43.33 18.33,-43.33 19.17,-44.17 18.33,-43.33 18.34,-43.34 19.16,-43.33 18.34,-44.17 19.16,-43.33 18.34,-43.33 18.33,-44.17 19.17,-43.33 18.33,-43.34 19.17,-43.33 18.33,-44.17 18.33,-43.33 19.17,-43.33 18.33,-44.17 19.17,-43.33 18.33,-43.34 18.34,-44.16 19.16,-43.34 18.34,-43.33 19.16,-44.17 18.34,-43.33 18.33,-43.33 19.17,-44.17 18.33,-43.33 19.17,-43.34 18.33,-44.162 355,0 18.33,0.832 841.67,0"
         style="fill:none;stroke:#0000ff;stroke-width:14.39999962;stroke-linecap:butt;stroke-linejoin:round;stroke-miterlimit:10;stroke-opacity:1;stroke-dasharray:115.19999696, 14.3999996;stroke-dashoffset:0"
         id="path190"
         inkscape:connector-curvature="0"
         sodipodi:nodetypes="ccccccccccccccccccccccccccccccccccccccccccccccccccccccccccccccccccccccccccccccccccccccccccccccccccccccccccccc" /><path
         d="m 532.5,971.668 1362.5,0 0,-625.836 616.672,0 0,625.836 1195.828,0"
         style="fill:none;stroke:#0000ff;stroke-width:12;stroke-linecap:butt;stroke-linejoin:round;stroke-miterlimit:10;stroke-opacity:1;stroke-dasharray:12, 12;stroke-dashoffset:0"
         id="path192"
         inkscape:connector-curvature="0"
         sodipodi:nodetypes="cccccc" /><path
         d="m 532.5,971.668 1344.17,607.502 251.66,-607.502 1579.17,0"
         style="fill:none;stroke:#0000ff;stroke-width:14.4;stroke-linecap:butt;stroke-linejoin:round;stroke-miterlimit:10;stroke-opacity:1;stroke-dasharray:none"
         id="path196"
         inkscape:connector-curvature="0" /><path
         d="m 532.5,971.668 18.332,12.5 18.336,11.664 19.164,11.668 18.336,11.67 19.164,12.5 18.336,11.66 18.332,11.67 19.168,11.67 18.332,12.5 19.168,11.66 18.332,11.67 18.332,11.67 19.168,12.5 18.332,11.66 19.168,11.67 18.332,11.67 18.336,12.5 19.164,11.66 18.336,11.67 19.164,12.5 18.336,11.67 18.332,11.66 19.168,12.5 18.332,11.67 19.168,11.67 18.332,12.5 18.33,11.66 19.17,11.67 18.33,12.5 19.17,11.67 18.33,12.5 18.34,11.66 19.16,12.5 18.34,11.67 19.16,12.5 18.34,11.67 19.16,12.5 18.34,11.66 18.33,12.5 19.17,11.67 18.33,12.5 19.17,11.67 18.33,12.5 18.33,12.5 19.17,11.66 18.33,12.5 19.17,12.5 18.33,11.67 18.34,12.5 19.16,12.5 18.34,11.67 19.16,12.5 18.34,12.5 18.33,12.5 19.17,12.5 18.33,11.66 19.17,12.5 18.33,12.5 18.33,12.5 19.17,12.5 18.33,12.5 19.17,12.5 18.33,12.5 18.34,12.5 19.16,12.5 18.34,12.5 19.16,12.5 18.34,12.5 19.16,12.5 18.34,12.5 18.33,12.5 19.17,12.5 18.33,12.5 19.17,13.34 18.33,12.5 18.33,12.5 19.17,12.5 18.33,12.5 19.17,13.33 18.33,12.5 18.34,12.5 19.16,13.33 18.34,12.5 19.16,12.5 18.34,13.34 18.33,12.5 19.17,12.5 18.33,13.33 19.17,12.5 18.33,13.33 18.33,12.5 19.17,13.34 18.33,12.5 19.17,13.33 18.33,12.5 18.34,13.33 19.16,12.5 18.34,13.34 19.16,12.5 18.34,13.33 18.33,13.33 19.17,12.5 18.33,13.34 19.17,12.5 18.33,13.33 19.17,13.33 18.33,12.5 18.33,13.34 19.17,13.33 18.33,12.5 19.17,13.33 18.33,13.34 18.34,13.33 19.16,12.5 18.34,13.33 19.16,13.34 18.34,13.33 18.33,12.5 19.17,13.33 18.33,13.34 19.17,13.33 18.33,13.33 18.33,12.5 19.17,13.34 18.33,13.33 19.17,13.33 6.1767,7.2914 30.4933,-73.1214 19.16,-44.17 18.34,-45 19.16,-44.16 18.34,-44.17 18.33,-44.17 19.17,-45 18.33,-44.16 19.17,-44.17 18.33,-44.17 19.17,-44.16 18.33,-45 18.33,-44.17 19.17,-44.17 18.33,-44.16 19.17,-45 18.33,-44.17 18.34,-44.17 19.16,-44.16 18.34,-44.17 19.16,-45 18.34,-44.17 18.33,-44.16 19.17,-44.17 18.33,-44.17 19.17,-45 18.33,-44.16 18.33,-44.17 19.17,-44.17 18.33,-44.16 19.17,-45 18.33,-44.17 18.34,-44.17 19.16,-44.16 18.34,-45.002 150.83,0"
         style="fill:none;stroke:#008000;stroke-width:14.39999962;stroke-linecap:butt;stroke-linejoin:round;stroke-miterlimit:10;stroke-opacity:1;stroke-dasharray:115.19999696, 14.3999996;stroke-dashoffset:0"
         id="path198"
         inkscape:connector-curvature="0"
         sodipodi:nodetypes="cccccccccccccccccccccccccccccccccccccccccccccccccccccccccccccccccccccccccccccccccccccccccccccccccccccccccccccccccccccccccccccccccccccccccccccccccccccccccccccccccccc" /><path
         d="m 532.5,971.668 2389.172,0 0,-625.836 635,0 0,625.836 150.828,0"
         style="fill:none;stroke:#008000;stroke-width:12;stroke-linecap:butt;stroke-linejoin:round;stroke-miterlimit:10;stroke-opacity:1;stroke-dasharray:12, 12;stroke-dashoffset:0;marker-start:none"
         id="path200"
         inkscape:connector-curvature="0"
         sodipodi:nodetypes="cccccc" /><path
         d="M 532.5,971.668 2921.67,1565 l 244.16,-593.332 541.67,0"
         style="fill:none;stroke:#008000;stroke-width:14.4;stroke-linecap:butt;stroke-linejoin:round;stroke-miterlimit:10;stroke-opacity:1;stroke-dasharray:none"
         id="path204"
         inkscape:connector-curvature="0" /><text
         xml:space="preserve"
         style="font-size:75.73963165px;font-style:normal;font-weight:normal;line-height:125%;letter-spacing:0px;word-spacing:0px;fill:#000000;fill-opacity:1;stroke:none;font-family:Sans"
         x="1158.4167"
         y="-633.15521"
         id="text4858"
         sodipodi:linespacing="125%"
         transform="scale(1,-1)"><tspan
           sodipodi:role="line"
           id="tspan4860"
           x="1158.4167"
           y="-633.15521">$t=0.17$</tspan></text>
<text
         xml:space="preserve"
         style="font-size:75.73963165px;font-style:normal;font-weight:normal;line-height:125%;letter-spacing:0px;word-spacing:0px;fill:#000000;fill-opacity:1;stroke:none;font-family:Sans"
         x="2031.5891"
         y="-633.15521"
         id="text4858-5"
         sodipodi:linespacing="125%"
         transform="scale(1,-1)"><tspan
           sodipodi:role="line"
           id="tspan4860-8"
           x="2031.5891"
           y="-633.15521">$t=0.42$</tspan></text>
<text
         xml:space="preserve"
         style="font-size:75.73963165px;font-style:normal;font-weight:normal;line-height:125%;letter-spacing:0px;word-spacing:0px;fill:#000000;fill-opacity:1;stroke:none;font-family:Sans"
         x="3068.9431"
         y="-633.15521"
         id="text4858-5-2"
         sodipodi:linespacing="125%"
         transform="scale(1,-1)"><tspan
           sodipodi:role="line"
           id="tspan4860-8-9"
           x="3068.9431"
           y="-633.15521">$t=0.77$</tspan></text>
<text
         id="text148-7"
         x="223.1113"
         y="-1562.5944"
         style="font-size:120px"
         transform="scale(1,-1)"><tspan
           id="tspan150-5"
           y="-1562.5944"
           x="223.1113"
           style="font-size:100px;font-variant:normal;font-weight:normal;writing-mode:lr-tb;fill:#000000;fill-opacity:1;fill-rule:nonzero;stroke:none;font-family:Helvetica;-inkscape-font-specification:Helvetica">$y$</tspan></text>
<text
         id="text148-7-8"
         x="2075.4019"
         y="-132.12939"
         style="font-size:120px"
         transform="scale(1,-1)"><tspan
           id="tspan150-5-6"
           y="-132.12939"
           x="2075.4019"
           style="font-size:100px;font-variant:normal;font-weight:normal;writing-mode:lr-tb;fill:#000000;fill-opacity:1;fill-rule:nonzero;stroke:none;font-family:Helvetica;-inkscape-font-specification:Helvetica">$x$</tspan></text>
</g></g></svg>