<?xml version="1.0" encoding="UTF-8" standalone="no"?>
<!-- Created with Inkscape (http://www.inkscape.org/) -->

<svg
   xmlns:osb="http://www.openswatchbook.org/uri/2009/osb"
   xmlns:dc="http://purl.org/dc/elements/1.1/"
   xmlns:cc="http://creativecommons.org/ns#"
   xmlns:rdf="http://www.w3.org/1999/02/22-rdf-syntax-ns#"
   xmlns:svg="http://www.w3.org/2000/svg"
   xmlns="http://www.w3.org/2000/svg"
   xmlns:xlink="http://www.w3.org/1999/xlink"
   xmlns:sodipodi="http://sodipodi.sourceforge.net/DTD/sodipodi-0.dtd"
   xmlns:inkscape="http://www.inkscape.org/namespaces/inkscape"
   width="590"
   height="530"
   id="svg2"
   version="1.1"
   inkscape:version="0.48.4 r9939"
   sodipodi:docname="staggered_grid.pdf"
   inkscape:dataloss="true">
  <defs
     id="defs4">
    <linearGradient
       id="linearGradient3863"
       osb:paint="solid">
      <stop
         style="stop-color:#cccccc;stop-opacity:1;"
         offset="0"
         id="stop3865" />
    </linearGradient>
    <marker
       inkscape:stockid="Arrow2Lend"
       orient="auto"
       refY="0"
       refX="0"
       id="Arrow2Lend"
       style="overflow:visible">
      <path
         id="path3835"
         style="fill-rule:evenodd;stroke-width:0.625;stroke-linejoin:round"
         d="M 8.7185878,4.0337352 -2.2072895,0.01601326 8.7185884,-4.0017078 c -1.7454984,2.3720609 -1.7354408,5.6174519 -6e-7,8.035443 z"
         transform="matrix(-1.1,0,0,-1.1,-1.1,0)"
         inkscape:connector-curvature="0" />
    </marker>
    <marker
       inkscape:stockid="Arrow1Lstart"
       orient="auto"
       refY="0"
       refX="0"
       id="Arrow1Lstart"
       style="overflow:visible">
      <path
         id="path3814"
         d="M 0,0 5,-5 -12.5,0 5,5 0,0 z"
         style="fill-rule:evenodd;stroke:#000000;stroke-width:1pt"
         transform="matrix(0.8,0,0,0.8,10,0)"
         inkscape:connector-curvature="0" />
    </marker>
    <clipPath
       id="clipPath3279"
       clipPathUnits="userSpaceOnUse">
      <path
         id="path3281"
         d="m 482,124.797 3472.8,0 0,2743.203 -3472.8,0 0,-2743.203 z"
         inkscape:connector-curvature="0" />
    </clipPath>
    <clipPath
       id="clipPath3149"
       clipPathUnits="userSpaceOnUse">
      <path
         id="path3151"
         d="m 0,4.79688 4060,0 L 4060,3100 0,3100 0,4.79688 z"
         inkscape:connector-curvature="0" />
    </clipPath>
    <clipPath
       id="clipPath14033"
       clipPathUnits="userSpaceOnUse">
      <path
         id="path14035"
         d="m 309.598,110.797 2750.402,0 0,2750.403 -2750.402,0 0,-2750.403 z"
         inkscape:connector-curvature="0" />
    </clipPath>
    <clipPath
       id="clipPath13935"
       clipPathUnits="userSpaceOnUse">
      <path
         id="path13937"
         d="m 0,0 3100,0 0,2998 L 0,2998 0,0 z"
         inkscape:connector-curvature="0" />
    </clipPath>
  </defs>
  <sodipodi:namedview
     id="base"
     pagecolor="#ffffff"
     bordercolor="#666666"
     borderopacity="1.0"
     inkscape:pageopacity="0.0"
     inkscape:pageshadow="2"
     inkscape:zoom="7.9195959"
     inkscape:cx="291.46359"
     inkscape:cy="129.38863"
     inkscape:document-units="px"
     inkscape:current-layer="layer1"
     showgrid="true"
     fit-margin-top="0"
     fit-margin-left="0"
     fit-margin-right="0"
     fit-margin-bottom="0"
     inkscape:window-width="1920"
     inkscape:window-height="1060"
     inkscape:window-x="1364"
     inkscape:window-y="-3"
     inkscape:window-maximized="1"
     inkscape:snap-grids="false"
     showguides="false">
    <inkscape:grid
       type="xygrid"
       id="grid2985"
       empspacing="5"
       visible="true"
       enabled="true"
       snapvisiblegridlinesonly="true"
       originx="339.87054px"
       originy="-732.28182px" />
  </sodipodi:namedview>
  <metadata
     id="metadata7">
    <rdf:RDF>
      <cc:Work
         rdf:about="">
        <dc:format>image/svg+xml</dc:format>
        <dc:type
           rdf:resource="http://purl.org/dc/dcmitype/StillImage" />
        <dc:title></dc:title>
      </cc:Work>
    </rdf:RDF>
  </metadata>
  <g
     inkscape:label="Layer 1"
     inkscape:groupmode="layer"
     id="layer1"
     transform="translate(339.87054,209.91964)">
    <rect
       style="opacity:0.81818183;fill:#999999;stroke:none"
       id="rect4264"
       width="11.364217"
       height="11.364217"
       x="114.80706"
       y="-74.608284" />
    <g
       id="g3011"
       transform="translate(-226.54695,54.246102)"
       style="opacity:1;stroke-width:1.50000000000000000;stroke-miterlimit:4;stroke-dasharray:none;fill:#cccccc">
      <rect
         y="93.076469"
         x="120.00002"
         height="100"
         width="100"
         id="rect2987-1-8"
         style="opacity:0.81818183000000000;fill:#cccccc;fill-opacity:1;stroke:#000000;stroke-width:1.50000000000000000;stroke-miterlimit:4;stroke-dasharray:none" />
      <path
         inkscape:connector-curvature="0"
         id="path3169"
         d="m 170,22.362183 0,239.999997"
         style="fill:#cccccc;stroke:#000000;stroke-width:1.50000000000000000;stroke-linecap:butt;stroke-linejoin:miter;stroke-miterlimit:4;stroke-opacity:1;stroke-dasharray:none" />
      <path
         inkscape:connector-curvature="0"
         id="path3171"
         d="m 50,42.362183 240,0"
         style="fill:#cccccc;stroke:#000000;stroke-width:1.50000000000000000;stroke-linecap:butt;stroke-linejoin:miter;stroke-miterlimit:4;stroke-opacity:1;stroke-dasharray:none" />
      <path
         inkscape:connector-curvature="0"
         id="path3173"
         d="m 270,22.362183 0,239.999997"
         style="fill:#cccccc;stroke:#000000;stroke-width:1.50000000000000000;stroke-linecap:butt;stroke-linejoin:miter;stroke-miterlimit:4;stroke-opacity:1;stroke-dasharray:none" />
      <path
         inkscape:connector-curvature="0"
         id="path3175"
         d="m 290,242.36218 -240,0"
         style="fill:#cccccc;stroke:#000000;stroke-width:1.50000000000000000;stroke-linecap:butt;stroke-linejoin:miter;stroke-miterlimit:4;stroke-opacity:1;stroke-dasharray:none" />
      <path
         inkscape:connector-curvature="0"
         id="path3177"
         d="M 70,22.362183 70,262.36218"
         style="fill:#cccccc;stroke:#000000;stroke-width:1.50000000000000000;stroke-linecap:butt;stroke-linejoin:miter;stroke-miterlimit:4;stroke-opacity:1;stroke-dasharray:none" />
      <path
         inkscape:connector-curvature="0"
         id="path3179"
         d="m 50,142.36218 240,0"
         style="fill:#cccccc;stroke:#000000;stroke-width:1.50000000000000000;stroke-linecap:butt;stroke-linejoin:miter;stroke-miterlimit:4;stroke-opacity:1;stroke-dasharray:none" />
    </g>
    <g
       id="g14029"
       transform="matrix(0.125,0,0,-0.125,-101.6569,117.98361)"
       style="stroke-width:12;stroke-miterlimit:4;stroke-dasharray:none">
      <g
         clip-path="url(#clipPath14033)"
         id="g14031"
         style="stroke-width:12;stroke-miterlimit:4;stroke-dasharray:none">
        <path
           id="path16975"
           style="fill:none;stroke:#000000;stroke-width:12;stroke-linecap:butt;stroke-linejoin:round;stroke-miterlimit:4;stroke-opacity:1;stroke-dasharray:none"
           d="m 2296.8,2206 0,93.6 m -93.6,-93.6 93.6,0 m -93.6,0 93.6,0 0,93.6 m -93.6,0 93.6,0 m -93.6,-93.6 0,93.6 m 0,-93.6 0,93.6 93.6,0 m -93.6,-93.6 0,93.6 m -93.6,-93.6 93.6,0 m -93.6,0 93.6,0 0,93.6 m -93.6,0 93.6,0 m -93.6,-93.6 0,93.6 m 0,-93.6 0,93.6 93.6,0 m -93.6,-93.6 0,93.6 m -100.8,-93.6 100.8,0 m -100.8,0 100.8,0 0,93.6 m -100.8,0 100.8,0 m -100.8,-93.6 0,93.6 m 0,-93.6 0,93.6 100.8,0 m -100.8,-93.6 0,93.6 m -93.6,-93.6 93.6,0 m -93.6,0 93.6,0 0,93.6 m -93.6,0 93.6,0 m -93.6,-93.6 0,93.6 m 0,-93.6 0,93.6 93.6,0 m -93.6,-93.6 0,93.6 m -93.6,-93.6 93.6,0 m -93.6,0 93.6,0 0,93.6 m -93.6,0 93.6,0 m -93.6,-93.6 0,93.6 m 0,-93.6 0,93.6 93.6,0 m -280.8,-93.6 0,93.6 m -93.6,-93.6 93.6,0 m -93.6,0 93.6,0 0,93.6 m -93.6,0 93.6,0 m -93.6,-93.6 0,93.6 m 0,-93.6 0,93.6 93.6,0 m -93.6,-93.6 0,93.6 m -93.6,-93.6 93.6,0 m -93.6,0 93.6,0 0,93.6 m -93.6,0 93.6,0 m -93.6,-93.6 0,93.6 m 0,-93.6 0,93.6 93.6,0 m -93.6,-93.6 0,93.6 m -93.6,-93.6 93.6,0 m -93.6,0 93.6,0 0,93.6 m -93.6,0 93.6,0 m -93.6,-93.6 0,93.6 m 0,-93.6 0,93.6 93.6,0 m -93.6,-93.6 0,93.6 m -100.8,-93.6 100.8,0 m -100.8,0 100.8,0 0,93.6 m -100.8,0 100.8,0 m -100.8,-93.6 0,93.6 m 0,-93.6 0,93.6 100.8,0 m 1036.8,-194.4 0,100.8 m -93.6,-100.8 93.6,0 m -93.6,0 93.6,0 0,100.8 m -93.6,0 93.6,0 m -93.6,-100.8 0,100.8 m 0,-100.8 0,100.8 93.6,0 m -93.6,-100.8 0,100.8 m -93.6,-100.8 93.6,0 m -93.6,0 93.6,0 0,100.8 m -93.6,0 93.6,0 m -93.6,-100.8 0,100.8 m 0,-100.8 0,100.8 93.6,0 m -93.6,-100.8 0,100.8 m -93.6,-100.8 93.6,0 m -93.6,0 93.6,0 0,100.8 m -93.6,0 93.6,0 m -93.6,-100.8 0,100.8 m 0,-100.8 0,100.8 93.6,0 m -93.6,-100.8 0,100.8 m -100.8,-100.8 100.8,0 m -100.8,0 100.8,0 0,100.8 m -100.8,0 100.8,0 m -100.8,-100.8 0,100.8 m 0,-100.8 0,100.8 100.8,0 m -100.8,-100.8 0,100.8 m -93.6,-100.8 93.6,0 m -93.6,0 93.6,0 0,100.8 m -93.6,0 93.6,0 m -93.6,-100.8 0,100.8 m 0,-100.8 0,100.8 93.6,0 m -93.6,-100.8 0,100.8 m -93.6,-100.8 93.6,0 m -93.6,0 93.6,0 0,100.8 m -93.6,0 93.6,0 m -93.6,-100.8 0,100.8 m 0,-100.8 0,100.8 93.6,0 m -93.6,-100.8 0,100.8 m -93.6,-100.8 93.6,0 m -93.6,0 93.6,0 0,100.8 m -93.6,0 93.6,0 m -93.6,-100.8 0,100.8 m 0,-100.8 0,100.8 93.6,0 m -93.6,-100.8 0,100.8 m -93.6,-100.8 93.6,0 m -93.6,0 93.6,0 0,100.8 m -93.6,0 93.6,0 m -93.6,-100.8 0,100.8 m 0,-100.8 0,100.8 93.6,0 m -93.6,-100.8 0,100.8 m -93.6,-100.8 93.6,0 m -93.6,0 93.6,0 0,100.8 m -93.6,0 93.6,0 m -93.6,-100.8 0,100.8 m 0,-100.8 0,100.8 93.6,0 m -93.6,-100.8 0,100.8 m -93.6,-100.8 93.6,0 m -93.6,0 93.6,0 0,100.8 m -93.6,0 93.6,0 m -93.6,-100.8 0,100.8 m 0,-100.8 0,100.8 93.6,0 m -93.6,-100.8 0,100.8 m -93.6,-100.8 93.6,0 m -93.6,0 93.6,0 0,100.8 m -93.6,0 93.6,0 m -93.6,-100.8 0,100.8 m 0,-100.8 0,100.8 93.6,0 m -93.6,-100.8 0,100.8 m -100.8,-100.8 100.8,0 m -100.8,0 100.8,0 0,100.8 m -100.8,0 100.8,0 m -100.8,-100.8 0,100.8 m 0,-100.8 0,100.8 100.8,0 m -100.8,-100.8 0,100.8 m -93.6,-100.8 93.6,0 m -93.6,0 93.6,0 0,100.8 m -93.6,0 93.6,0 m -93.6,-100.8 0,100.8 m 0,-100.8 0,100.8 93.6,0 m -93.6,-100.8 0,100.8 m -93.6,-100.8 93.6,0 m -93.6,0 93.6,0 0,100.8 m -93.6,0 93.6,0 m -93.6,-100.8 0,100.8 m 0,-100.8 0,100.8 93.6,0 m 1324.8,-194.4 0,93.6 m -93.6,-93.6 93.6,0 m -93.6,0 93.6,0 0,93.6 m -93.6,0 93.6,0 m -93.6,-93.6 0,93.6 m 0,-93.6 0,93.6 93.6,0 m -93.6,-93.6 0,93.6 m -93.6,-93.6 93.6,0 m -93.6,0 93.6,0 0,93.6 m -93.6,0 93.6,0 m -93.6,-93.6 0,93.6 m 0,-93.6 0,93.6 93.6,0 m -93.6,-93.6 0,93.6 m -93.6,-93.6 93.6,0 m -93.6,0 93.6,0 0,93.6 m -93.6,0 93.6,0 m -93.6,-93.6 0,93.6 m 0,-93.6 0,93.6 93.6,0 m -93.6,-93.6 0,93.6 m -93.6,-93.6 93.6,0 m -93.6,0 93.6,0 0,93.6 m -93.6,0 93.6,0 m -93.6,-93.6 0,93.6 m 0,-93.6 0,93.6 93.6,0 m -93.6,-93.6 0,93.6 m -100.8,-93.6 100.8,0 m -100.8,0 100.8,0 0,93.6 m -100.8,0 100.8,0 m -100.8,-93.6 0,93.6 m 0,-93.6 0,93.6 100.8,0 m -100.8,-93.6 0,93.6 m -93.6,-93.6 93.6,0 m -93.6,0 93.6,0 0,93.6 m -93.6,0 93.6,0 m -93.6,-93.6 0,93.6 m 0,-93.6 0,93.6 93.6,0 m -93.6,-93.6 0,93.6 m -93.6,-93.6 93.6,0 m -93.6,0 93.6,0 0,93.6 m -93.6,0 93.6,0 m -93.6,-93.6 0,93.6 m 0,-93.6 0,93.6 93.6,0 m -93.6,-93.6 0,93.6 m -93.6,-93.6 93.6,0 m -93.6,0 93.6,0 0,93.6 m -93.6,0 93.6,0 m -93.6,-93.6 0,93.6 m 0,-93.6 0,93.6 93.6,0 m -93.6,-93.6 0,93.6 m -93.6,-93.6 93.6,0 m -93.6,0 93.6,0 0,93.6 m -93.6,0 93.6,0 m -93.6,-93.6 0,93.6 m 0,-93.6 0,93.6 93.6,0 m -93.6,-93.6 0,93.6 m -93.6,-93.6 93.6,0 m -93.6,0 93.6,0 0,93.6 m -93.6,0 93.6,0 m -93.6,-93.6 0,93.6 m 0,-93.6 0,93.6 93.6,0 m -93.6,-93.6 0,93.6 m -93.6,-93.6 93.6,0 m -93.6,0 93.6,0 0,93.6 m -93.6,0 93.6,0 m -93.6,-93.6 0,93.6 m 0,-93.6 0,93.6 93.6,0 m -93.6,-93.6 0,93.6 m -93.6,-93.6 93.6,0 m -93.6,0 93.6,0 0,93.6 m -93.6,0 93.6,0 m -93.6,-93.6 0,93.6 m 0,-93.6 0,93.6 93.6,0 m -93.6,-93.6 0,93.6 m -100.8,-93.6 100.8,0 m -100.8,0 100.8,0 0,93.6 m -100.8,0 100.8,0 m -100.8,-93.6 0,93.6 m 0,-93.6 0,93.6 100.8,0 m -100.8,-93.6 0,93.6 m -93.6,-93.6 93.6,0 m -93.6,0 93.6,0 0,93.6 m -93.6,0 93.6,0 m -93.6,-93.6 0,93.6 m 0,-93.6 0,93.6 93.6,0 m -93.6,-93.6 0,93.6 m -93.6,-93.6 93.6,0 m -93.6,0 93.6,0 0,93.6 m -93.6,0 93.6,0 m -93.6,-93.6 0,93.6 m 0,-93.6 0,93.6 93.6,0 m -93.6,-93.6 0,93.6 m -93.604,-93.6 93.604,0 m -93.604,0 93.604,0 0,93.6 m -93.604,0 93.604,0 m -93.604,-93.6 0,93.6 m 0,-93.6 0,93.6 93.604,0 m 1512,-187.2 0,93.6 m -93.6,-93.6 93.6,0 m -93.6,0 93.6,0 0,93.6 m -93.6,0 93.6,0 m -93.6,-93.6 0,93.6 m 0,-93.6 0,93.6 93.6,0 m -93.6,-93.6 0,93.6 m -93.6,-93.6 93.6,0 m -93.6,0 93.6,0 0,93.6 m -93.6,0 93.6,0 m -93.6,-93.6 0,93.6 m 0,-93.6 0,93.6 93.6,0 m -93.6,-93.6 0,93.6 m -93.6,-93.6 93.6,0 m -93.6,0 93.6,0 0,93.6 m -93.6,0 93.6,0 m -93.6,-93.6 0,93.6 m 0,-93.6 0,93.6 93.6,0 m -93.6,-93.6 0,93.6 m -93.6,-93.6 93.6,0 m -93.6,0 93.6,0 0,93.6 m -93.6,0 93.6,0 m -93.6,-93.6 0,93.6 m 0,-93.6 0,93.6 93.6,0 m -93.6,-93.6 0,93.6 m -93.6,-93.6 93.6,0 m -93.6,0 93.6,0 0,93.6 m -93.6,0 93.6,0 m -93.6,-93.6 0,93.6 m 0,-93.6 0,93.6 93.6,0 m -93.6,-93.6 0,93.6 m -100.8,-93.6 100.8,0 m -100.8,0 100.8,0 0,93.6 m -100.8,0 100.8,0 m -100.8,-93.6 0,93.6 m 0,-93.6 0,93.6 100.8,0 m -100.8,-93.6 0,93.6 m -93.6,-93.6 93.6,0 m -93.6,0 93.6,0 0,93.6 m -93.6,0 93.6,0 m -93.6,-93.6 0,93.6 m 0,-93.6 0,93.6 93.6,0 m -93.6,-93.6 0,93.6 m -93.6,-93.6 93.6,0 m -93.6,0 93.6,0 0,93.6 m -93.6,0 93.6,0 m -93.6,-93.6 0,93.6 m 0,-93.6 0,93.6 93.6,0 m -93.6,-93.6 0,93.6 m -93.6,-93.6 93.6,0 m -93.6,0 93.6,0 0,93.6 m -93.6,0 93.6,0 m -93.6,-93.6 0,93.6 m 0,-93.6 0,93.6 93.6,0 m -93.6,-93.6 0,93.6 m -93.6,-93.6 93.6,0 m -93.6,0 93.6,0 0,93.6 m -93.6,0 93.6,0 m -93.6,-93.6 0,93.6 m 0,-93.6 0,93.6 93.6,0 m -93.6,-93.6 0,93.6 m -93.6,-93.6 93.6,0 m -93.6,0 93.6,0 0,93.6 m -93.6,0 93.6,0 m -93.6,-93.6 0,93.6 m 0,-93.6 0,93.6 93.6,0 m -93.6,-93.6 0,93.6 m -93.6,-93.6 93.6,0 m -93.6,0 93.6,0 0,93.6 m -93.6,0 93.6,0 m -93.6,-93.6 0,93.6 m 0,-93.6 0,93.6 93.6,0 m -93.6,-93.6 0,93.6 m -93.6,-93.6 93.6,0 m -93.6,0 93.6,0 0,93.6 m -93.6,0 93.6,0 m -93.6,-93.6 0,93.6 m 0,-93.6 0,93.6 93.6,0 m -93.6,-93.6 0,93.6 m -100.8,-93.6 100.8,0 m -100.8,0 100.8,0 0,93.6 m -100.8,0 100.8,0 m -100.8,-93.6 0,93.6 m 0,-93.6 0,93.6 100.8,0 m -100.8,-93.6 0,93.6 m -93.6,-93.6 93.6,0 m -93.6,0 93.6,0 0,93.6 m -93.6,0 93.6,0 m -93.6,-93.6 0,93.6 m 0,-93.6 0,93.6 93.6,0 m -93.6,-93.6 0,93.6 m -93.6,-93.6 93.6,0 m -93.6,0 93.6,0 0,93.6 m -93.6,0 93.6,0 m -93.6,-93.6 0,93.6 m 0,-93.6 0,93.6 93.6,0 m -93.6,-93.6 0,93.6 m -93.604,-93.6 93.604,0 m -93.604,0 93.604,0 0,93.6 m -93.604,0 93.604,0 m -93.604,-93.6 0,93.6 m 0,-93.6 0,93.6 93.604,0 m 1512,-187.21 0,93.61 m -93.6,-93.61 93.6,0 m -93.6,0 93.6,0 0,93.61 m -93.6,0 93.6,0 m -93.6,-93.61 0,93.61 m 0,-93.61 0,93.61 93.6,0 m -93.6,-93.61 0,93.61 m -93.6,-93.61 93.6,0 m -93.6,0 93.6,0 0,93.61 m -93.6,0 93.6,0 m -93.6,-93.61 0,93.61 m 0,-93.61 0,93.61 93.6,0 m -93.6,-93.61 0,93.61 m -93.6,-93.61 93.6,0 m -93.6,0 93.6,0 0,93.61 m -93.6,0 93.6,0 m -93.6,-93.61 0,93.61 m 0,-93.61 0,93.61 93.6,0 m -93.6,-93.61 0,93.61 m -93.6,-93.61 93.6,0 m -93.6,0 93.6,0 0,93.61 m -93.6,0 93.6,0 m -93.6,-93.61 0,93.61 m 0,-93.61 0,93.61 93.6,0 m -93.6,-93.61 0,93.61 m -93.6,-93.61 93.6,0 m -93.6,0 93.6,0 0,93.61 m -93.6,0 93.6,0 m -93.6,-93.61 0,93.61 m 0,-93.61 0,93.61 93.6,0 m -93.6,-93.61 0,93.61 m -100.8,-93.61 100.8,0 m -100.8,0 100.8,0 0,93.61 m -100.8,0 100.8,0 m -100.8,-93.61 0,93.61 m 0,-93.61 0,93.61 100.8,0 m -100.8,-93.61 0,93.61 m -93.6,-93.61 93.6,0 m -93.6,0 93.6,0 0,93.61 m -93.6,0 93.6,0 m -93.6,-93.61 0,93.61 m 0,-93.61 0,93.61 93.6,0 m -93.6,-93.61 0,93.61 m -93.6,-93.61 93.6,0 m -93.6,0 93.6,0 0,93.61 m -93.6,0 93.6,0 m -93.6,-93.61 0,93.61 m 0,-93.61 0,93.61 93.6,0 m -93.6,-93.61 0,93.61 m -93.6,-93.61 93.6,0 m -93.6,0 93.6,0 0,93.61 m -93.6,0 93.6,0 m -93.6,-93.61 0,93.61 m 0,-93.61 0,93.61 93.6,0 m -93.6,-93.61 0,93.61 m -93.6,-93.61 93.6,0 m -93.6,0 93.6,0 0,93.61 m -93.6,0 93.6,0 m -93.6,-93.61 0,93.61 m 0,-93.61 0,93.61 93.6,0 m -93.6,-93.61 0,93.61 m -93.6,-93.61 93.6,0 m -93.6,0 93.6,0 0,93.61 m -93.6,0 93.6,0 m -93.6,-93.61 0,93.61 m 0,-93.61 0,93.61 93.6,0 m -93.6,-93.61 0,93.61 m -93.6,-93.61 93.6,0 m -93.6,0 93.6,0 0,93.61 m -93.6,0 93.6,0 m -93.6,-93.61 0,93.61 m 0,-93.61 0,93.61 93.6,0 m -93.6,-93.61 0,93.61 m -93.6,-93.61 93.6,0 m -93.6,0 93.6,0 0,93.61 m -93.6,0 93.6,0 m -93.6,-93.61 0,93.61 m 0,-93.61 0,93.61 93.6,0 m -93.6,-93.61 0,93.61 m -100.8,-93.61 100.8,0 m -100.8,0 100.8,0 0,93.61 m -100.8,0 100.8,0 m -100.8,-93.61 0,93.61 m 0,-93.61 0,93.61 100.8,0 m -100.8,-93.61 0,93.61 m -93.6,-93.61 93.6,0 m -93.6,0 93.6,0 0,93.61 m -93.6,0 93.6,0 m -93.6,-93.61 0,93.61 m 0,-93.61 0,93.61 93.6,0 m -93.6,-93.61 0,93.61 m -93.6,-93.61 93.6,0 m -93.6,0 93.6,0 0,93.61 m -93.6,0 93.6,0 m -93.6,-93.61 0,93.61 m 0,-93.61 0,93.61 93.6,0 m -93.6,-93.61 0,93.61 m -93.604,-93.61 93.604,0 m -93.604,0 93.604,0 0,93.61 m -93.604,0 93.604,0 m -93.604,-93.61 0,93.61 m 0,-93.61 0,93.61 93.604,0 m -93.604,-93.61 0,93.61 m -93.598,-93.61 93.598,0 m -93.598,0 93.602,0 0,93.61 m -93.602,0 93.598,0 m -93.598,-93.61 0,93.61 m 0,-93.61 0,93.61 93.602,0 m 1699.2,-187.2 0,93.59 m -93.6,-93.59 93.6,0 m -93.6,0 93.6,0 0,93.59 m -93.6,0 93.6,0 m -93.6,-93.59 0,93.59 m 0,-93.59 0,93.59 93.6,0 m -93.6,-93.59 0,93.59 m -93.6,-93.59 93.6,0 m -93.6,0 93.6,0 0,93.59 m -93.6,0 93.6,0 m -93.6,-93.59 0,93.59 m 0,-93.59 0,93.59 93.6,0 m -93.6,-93.59 0,93.59 m -93.6,-93.59 93.6,0 m -93.6,0 93.6,0 0,93.59 m -93.6,0 93.6,0 m -93.6,-93.59 0,93.59 m 0,-93.59 0,93.59 93.6,0 m -93.6,-93.59 0,93.59 m -93.6,-93.59 93.6,0 m -93.6,0 93.6,0 0,93.59 m -93.6,0 93.6,0 m -93.6,-93.59 0,93.59 m 0,-93.59 0,93.59 93.6,0 m -93.6,-93.59 0,93.59 m -93.6,-93.59 93.6,0 m -93.6,0 93.6,0 0,93.59 m -93.6,0 93.6,0 m -93.6,-93.59 0,93.59 m 0,-93.59 0,93.59 93.6,0 m -93.6,-93.59 0,93.59 m -93.6,-93.59 93.6,0 m -93.6,0 93.6,0 0,93.59 m -93.6,0 93.6,0 m -93.6,-93.59 0,93.59 m 0,-93.59 0,93.59 93.6,0 m -93.6,-93.59 0,93.59 m -100.8,-93.59 100.8,0 m -100.8,0 100.8,0 0,93.59 m -100.8,0 100.8,0 m -100.8,-93.59 0,93.59 m 0,-93.59 0,93.59 100.8,0 m -100.8,-93.59 0,93.59 m -93.6,-93.59 93.6,0 m -93.6,0 93.6,0 0,93.59 m -93.6,0 93.6,0 m -93.6,-93.59 0,93.59 m 0,-93.59 0,93.59 93.6,0 m -93.6,-93.59 0,93.59 m -93.6,-93.59 93.6,0 m -93.6,0 93.6,0 0,93.59 m -93.6,0 93.6,0 m -93.6,-93.59 0,93.59 m 0,-93.59 0,93.59 93.6,0 m -93.6,-93.59 0,93.59 m -93.6,-93.59 93.6,0 m -93.6,0 93.6,0 0,93.59 m -93.6,0 93.6,0 m -93.6,-93.59 0,93.59 m 0,-93.59 0,93.59 93.6,0 m -93.6,-93.59 0,93.59 m -93.6,-93.59 93.6,0 m -93.6,0 93.6,0 0,93.59 m -93.6,0 93.6,0 m -93.6,-93.59 0,93.59 m 0,-93.59 0,93.59 93.6,0 m -93.6,-93.59 0,93.59 m -93.6,-93.59 93.6,0 m -93.6,0 93.6,0 0,93.59 m -93.6,0 93.6,0 m -93.6,-93.59 0,93.59 m 0,-93.59 0,93.59 93.6,0 m -93.6,-93.59 0,93.59 m -93.6,-93.59 93.6,0 m -93.6,0 93.6,0 0,93.59 m -93.6,0 93.6,0 m -93.6,-93.59 0,93.59 m 0,-93.59 0,93.59 93.6,0 m -93.6,-93.59 0,93.59 m -93.6,-93.59 93.6,0 m -93.6,0 93.6,0 0,93.59 m -93.6,0 93.6,0 m -93.6,-93.59 0,93.59 m 0,-93.59 0,93.59 93.6,0 m -93.6,-93.59 0,93.59 m -100.8,-93.59 100.8,0 m -100.8,0 100.8,0 0,93.59 m -100.8,0 100.8,0 m -100.8,-93.59 0,93.59 m 0,-93.59 0,93.59 100.8,0 m -100.8,-93.59 0,93.59 m -93.6,-93.59 93.6,0 m -93.6,0 93.6,0 0,93.59 m -93.6,0 93.6,0 m -93.6,-93.59 0,93.59 m 0,-93.59 0,93.59 93.6,0 m -93.6,-93.59 0,93.59 m -93.6,-93.59 93.6,0 m -93.6,0 93.6,0 0,93.59 m -93.6,0 93.6,0 m -93.6,-93.59 0,93.59 m 0,-93.59 0,93.59 93.6,0 m -93.6,-93.59 0,93.59 m -93.604,-93.59 93.604,0 m -93.604,0 93.604,0 0,93.59 m -93.604,0 93.604,0 m -93.604,-93.59 0,93.59 m 0,-93.59 0,93.59 93.604,0 m -93.604,-93.59 0,93.59 m -93.598,-93.59 93.598,0 m -93.598,0 93.602,0 0,93.59 m -93.602,0 93.598,0 m -93.598,-93.59 0,93.59 m 0,-93.59 0,93.59 93.602,0 m 1699.2,-187.19 0,93.6 m -93.6,-93.6 93.6,0 m -93.6,0 93.6,0 0,93.6 m -93.6,0 93.6,0 m -93.6,-93.6 0,93.6 m 0,-93.6 0,93.6 93.6,0 m -93.6,-93.6 0,93.6 m -93.6,-93.6 93.6,0 m -93.6,0 93.6,0 0,93.6 m -93.6,0 93.6,0 m -93.6,-93.6 0,93.6 m 0,-93.6 0,93.6 93.6,0 m -93.6,-93.6 0,93.6 m -93.6,-93.6 93.6,0 m -93.6,0 93.6,0 0,93.6 m -93.6,0 93.6,0 m -93.6,-93.6 0,93.6 m 0,-93.6 0,93.6 93.6,0 m -93.6,-93.6 0,93.6 m -93.6,-93.6 93.6,0 m -93.6,0 93.6,0 0,93.6 m -93.6,0 93.6,0 m -93.6,-93.6 0,93.6 m 0,-93.6 0,93.6 93.6,0 m -93.6,-93.6 0,93.6 m -93.6,-93.6 93.6,0 m -93.6,0 93.6,0 0,93.6 m -93.6,0 93.6,0 m -93.6,-93.6 0,93.6 m 0,-93.6 0,93.6 93.6,0 m -93.6,-93.6 0,93.6 m -93.6,-93.6 93.6,0 m -93.6,0 93.6,0 0,93.6 m -93.6,0 93.6,0 m -93.6,-93.6 0,93.6 m 0,-93.6 0,93.6 93.6,0 m -93.6,-93.6 0,93.6 m -100.8,-93.6 100.8,0 m -100.8,0 100.8,0 0,93.6 m -100.8,0 100.8,0 m -100.8,-93.6 0,93.6 m 0,-93.6 0,93.6 100.8,0 m -100.8,-93.6 0,93.6 m -93.6,-93.6 93.6,0 m -93.6,0 93.6,0 0,93.6 m -93.6,0 93.6,0 m -93.6,-93.6 0,93.6 m 0,-93.6 0,93.6 93.6,0 m -93.6,-93.6 0,93.6 m -93.6,-93.6 93.6,0 m -93.6,0 93.6,0 0,93.6 m -93.6,0 93.6,0 m -93.6,-93.6 0,93.6 m 0,-93.6 0,93.6 93.6,0 m -93.6,-93.6 0,93.6 m -93.6,-93.6 93.6,0 m -93.6,0 93.6,0 0,93.6 m -93.6,0 93.6,0 m -93.6,-93.6 0,93.6 m 0,-93.6 0,93.6 93.6,0 m -93.6,-93.6 0,93.6 m -93.6,-93.6 93.6,0 m -93.6,0 93.6,0 0,93.6 m -93.6,0 93.6,0 m -93.6,-93.6 0,93.6 m 0,-93.6 0,93.6 93.6,0 m -93.6,-93.6 0,93.6 m -93.6,-93.6 93.6,0 m -93.6,0 93.6,0 0,93.6 m -93.6,0 93.6,0 m -93.6,-93.6 0,93.6 m 0,-93.6 0,93.6 93.6,0 m -93.6,-93.6 0,93.6 m -93.6,-93.6 93.6,0 m -93.6,0 93.6,0 0,93.6 m -93.6,0 93.6,0 m -93.6,-93.6 0,93.6 m 0,-93.6 0,93.6 93.6,0 m -93.6,-93.6 0,93.6 m -93.6,-93.6 93.6,0 m -93.6,0 93.6,0 0,93.6 m -93.6,0 93.6,0 m -93.6,-93.6 0,93.6 m 0,-93.6 0,93.6 93.6,0 m -93.6,-93.6 0,93.6 m -100.8,-93.6 100.8,0 m -100.8,0 100.8,0 0,93.6 m -100.8,0 100.8,0 m -100.8,-93.6 0,93.6 m 0,-93.6 0,93.6 100.8,0 m -100.8,-93.6 0,93.6 m -93.6,-93.6 93.6,0 m -93.6,0 93.6,0 0,93.6 m -93.6,0 93.6,0 m -93.6,-93.6 0,93.6 m 0,-93.6 0,93.6 93.6,0 m -93.6,-93.6 0,93.6 m -93.6,-93.6 93.6,0 m -93.6,0 93.6,0 0,93.6 m -93.6,0 93.6,0 m -93.6,-93.6 0,93.6 m 0,-93.6 0,93.6 93.6,0 m -93.6,-93.6 0,93.6 m -93.604,-93.6 93.604,0 m -93.604,0 93.604,0 0,93.6 m -93.604,0 93.604,0 m -93.604,-93.6 0,93.6 m 0,-93.6 0,93.6 93.604,0 m -93.604,-93.6 0,93.6 m -93.598,-93.6 93.598,0 m -93.598,0 93.602,0 0,93.6 m -93.602,0 93.598,0 m -93.598,-93.6 0,93.6 m 0,-93.6 0,93.6 93.602,0 m 1699.2,-187.2 0,93.6 m -93.6,-93.6 93.6,0 m -93.6,0 93.6,0 0,93.6 m -93.6,0 93.6,0 m -93.6,-93.6 0,93.6 m 0,-93.6 0,93.6 93.6,0 m -93.6,-93.6 0,93.6 m -93.6,-93.6 93.6,0 m -93.6,0 93.6,0 0,93.6 m -93.6,0 93.6,0 m -93.6,-93.6 0,93.6 m 0,-93.6 0,93.6 93.6,0 m -93.6,-93.6 0,93.6 m -93.6,-93.6 93.6,0 m -93.6,0 93.6,0 0,93.6 m -93.6,0 93.6,0 m -93.6,-93.6 0,93.6 m 0,-93.6 0,93.6 93.6,0 m -93.6,-93.6 0,93.6 m -93.6,-93.6 93.6,0 m -93.6,0 93.6,0 0,93.6 m -93.6,0 93.6,0 m -93.6,-93.6 0,93.6 m 0,-93.6 0,93.6 93.6,0 m -93.6,-93.6 0,93.6 m -93.6,-93.6 93.6,0 m -93.6,0 93.6,0 0,93.6 m -93.6,0 93.6,0 m -93.6,-93.6 0,93.6 m 0,-93.6 0,93.6 93.6,0 m -93.6,-93.6 0,93.6 m -93.6,-93.6 93.6,0 m -93.6,0 93.6,0 0,93.6 m -93.6,0 93.6,0 m -93.6,-93.6 0,93.6 m 0,-93.6 0,93.6 93.6,0 m -93.6,-93.6 0,93.6 m -100.8,-93.6 100.8,0 m -100.8,0 100.8,0 0,93.6 m -100.8,0 100.8,0 m -100.8,-93.6 0,93.6 m 0,-93.6 0,93.6 100.8,0 m -100.8,-93.6 0,93.6 m -93.6,-93.6 93.6,0 m -93.6,0 93.6,0 0,93.6 m -93.6,0 93.6,0 m -93.6,-93.6 0,93.6 m 0,-93.6 0,93.6 93.6,0 m -93.6,-93.6 0,93.6 m -93.6,-93.6 93.6,0 m -93.6,0 93.6,0 0,93.6 m -93.6,0 93.6,0 m -93.6,-93.6 0,93.6 m 0,-93.6 0,93.6 93.6,0 m -93.6,-93.6 0,93.6 m -93.6,-93.6 93.6,0 m -93.6,0 93.6,0 0,93.6 m -93.6,0 93.6,0 m -93.6,-93.6 0,93.6 m 0,-93.6 0,93.6 93.6,0 m -93.6,-93.6 0,93.6 m -93.6,-93.6 93.6,0 m -93.6,0 93.6,0 0,93.6 m -93.6,0 93.6,0 m -93.6,-93.6 0,93.6 m 0,-93.6 0,93.6 93.6,0 m -93.6,-93.6 0,93.6 m -93.6,-93.6 93.6,0 m -93.6,0 93.6,0 0,93.6 m -93.6,0 93.6,0 m -93.6,-93.6 0,93.6 m 0,-93.6 0,93.6 93.6,0 m -93.6,-93.6 0,93.6 m -93.6,-93.6 93.6,0 m -93.6,0 93.6,0 0,93.6 m -93.6,0 93.6,0 m -93.6,-93.6 0,93.6 m 0,-93.6 0,93.6 93.6,0 m -93.6,-93.6 0,93.6 m -93.6,-93.6 93.6,0 m -93.6,0 93.6,0 0,93.6 m -93.6,0 93.6,0 m -93.6,-93.6 0,93.6 m 0,-93.6 0,93.6 93.6,0 m -93.6,-93.6 0,93.6 m -100.8,-93.6 100.8,0 m -100.8,0 100.8,0 0,93.6 m -100.8,0 100.8,0 m -100.8,-93.6 0,93.6 m 0,-93.6 0,93.6 100.8,0 m -100.8,-93.6 0,93.6 m -93.6,-93.6 93.6,0 m -93.6,0 93.6,0 0,93.6 m -93.6,0 93.6,0 m -93.6,-93.6 0,93.6 m 0,-93.6 0,93.6 93.6,0 m -93.6,-93.6 0,93.6 m -93.6,-93.6 93.6,0 m -93.6,0 93.6,0 0,93.6 m -93.6,0 93.6,0 m -93.6,-93.6 0,93.6 m 0,-93.6 0,93.6 93.6,0 m -93.6,-93.6 0,93.6 m -93.604,-93.6 93.604,0 m -93.604,0 93.604,0 0,93.6 m -93.604,0 93.604,0 m -93.604,-93.6 0,93.6 m 0,-93.6 0,93.6 93.604,0 m -93.604,-93.6 0,93.6 m -93.598,-93.6 93.598,0 m -93.598,0 93.602,0 0,93.6 m -93.602,0 93.598,0 m -93.598,-93.6 0,93.6 m 0,-93.6 0,93.6 93.602,0 m 1699.2,-194.4 0,100.8 m -93.6,-100.8 93.6,0 m -93.6,0 93.6,0 0,100.8 m -93.6,0 93.6,0 m -93.6,-100.8 0,100.8 m 0,-100.8 0,100.8 93.6,0 m -93.6,-100.8 0,100.8 m -93.6,-100.8 93.6,0 m -93.6,0 93.6,0 0,100.8 m -93.6,0 93.6,0 m -93.6,-100.8 0,100.8 m 0,-100.8 0,100.8 93.6,0 m -93.6,-100.8 0,100.8 m -93.6,-100.8 93.6,0 m -93.6,0 93.6,0 0,100.8 m -93.6,0 93.6,0 m -93.6,-100.8 0,100.8 m 0,-100.8 0,100.8 93.6,0 m -93.6,-100.8 0,100.8 m -93.6,-100.8 93.6,0 m -93.6,0 93.6,0 0,100.8 m -93.6,0 93.6,0 m -93.6,-100.8 0,100.8 m 0,-100.8 0,100.8 93.6,0 m -93.6,-100.8 0,100.8 m -93.6,-100.8 93.6,0 m -93.6,0 93.6,0 0,100.8 m -93.6,0 93.6,0 m -93.6,-100.8 0,100.8 m 0,-100.8 0,100.8 93.6,0 m -93.6,-100.8 0,100.8 m -93.6,-100.8 93.6,0 m -93.6,0 93.6,0 0,100.8 m -93.6,0 93.6,0 m -93.6,-100.8 0,100.8 m 0,-100.8 0,100.8 93.6,0 m -93.6,-100.8 0,100.8 m -100.8,-100.8 100.8,0 m -100.8,0 100.8,0 0,100.8 m -100.8,0 100.8,0 m -100.8,-100.8 0,100.8 m 0,-100.8 0,100.8 100.8,0 m -100.8,-100.8 0,100.8 m -93.6,-100.8 93.6,0 m -93.6,0 93.6,0 0,100.8 m -93.6,0 93.6,0 m -93.6,-100.8 0,100.8 m 0,-100.8 0,100.8 93.6,0 m -93.6,-100.8 0,100.8 m -93.6,-100.8 93.6,0 m -93.6,0 93.6,0 0,100.8 m -93.6,0 93.6,0 m -93.6,-100.8 0,100.8 m 0,-100.8 0,100.8 93.6,0 m -93.6,-100.8 0,100.8 m -93.6,-100.8 93.6,0 m -93.6,0 93.6,0 0,100.8 m -93.6,0 93.6,0 m -93.6,-100.8 0,100.8 m 0,-100.8 0,100.8 93.6,0 m -93.6,-100.8 0,100.8 m -93.6,-100.8 93.6,0 m -93.6,0 93.6,0 0,100.8 m -93.6,0 93.6,0 m -93.6,-100.8 0,100.8 m 0,-100.8 0,100.8 93.6,0 m -93.6,-100.8 0,100.8 m -93.6,-100.8 93.6,0 m -93.6,0 93.6,0 0,100.8 m -93.6,0 93.6,0 m -93.6,-100.8 0,100.8 m 0,-100.8 0,100.8 93.6,0 m -93.6,-100.8 0,100.8 m -93.6,-100.8 93.6,0 m -93.6,0 93.6,0 0,100.8 m -93.6,0 93.6,0 m -93.6,-100.8 0,100.8 m 0,-100.8 0,100.8 93.6,0 m -93.6,-100.8 0,100.8 m -93.6,-100.8 93.6,0 m -93.6,0 93.6,0 0,100.8 m -93.6,0 93.6,0 m -93.6,-100.8 0,100.8 m 0,-100.8 0,100.8 93.6,0 m -93.6,-100.8 0,100.8 m -100.8,-100.8 100.8,0 m -100.8,0 100.8,0 0,100.8 m -100.8,0 100.8,0 m -100.8,-100.8 0,100.8 m 0,-100.8 0,100.8 100.8,0 m -100.8,-100.8 0,100.8 m -93.6,-100.8 93.6,0 m -93.6,0 93.6,0 0,100.8 m -93.6,0 93.6,0 m -93.6,-100.8 0,100.8 m 0,-100.8 0,100.8 93.6,0 m -93.6,-100.8 0,100.8 m -93.6,-100.8 93.6,0 m -93.6,0 93.6,0 0,100.8 m -93.6,0 93.6,0 m -93.6,-100.8 0,100.8 m 0,-100.8 0,100.8 93.6,0 m -93.6,-100.8 0,100.8 m -93.604,-100.8 93.604,0 m -93.604,0 93.604,0 0,100.8 m -93.604,0 93.604,0 m -93.604,-100.8 0,100.8 m 0,-100.8 0,100.8 93.604,0 m -93.604,-100.8 0,100.8 m -93.598,-100.8 93.598,0 m -93.598,0 93.602,0 0,100.8 m -93.602,0 93.598,0 m -93.598,-100.8 0,100.8 m 0,-100.8 0,100.8 93.602,0 m 1605.6,-194.4 0,93.6 m -93.6,-93.6 93.6,0 m -93.6,0 93.6,0 0,93.6 m -93.6,0 93.6,0 m -93.6,-93.6 0,93.6 m 0,-93.6 0,93.6 93.6,0 m -93.6,-93.6 0,93.6 m -93.6,-93.6 93.6,0 m -93.6,0 93.6,0 0,93.6 m -93.6,0 93.6,0 m -93.6,-93.6 0,93.6 m 0,-93.6 0,93.6 93.6,0 m -93.6,-93.6 0,93.6 m -93.6,-93.6 93.6,0 m -93.6,0 93.6,0 0,93.6 m -93.6,0 93.6,0 m -93.6,-93.6 0,93.6 m 0,-93.6 0,93.6 93.6,0 m -93.6,-93.6 0,93.6 m -93.6,-93.6 93.6,0 m -93.6,0 93.6,0 0,93.6 m -93.6,0 93.6,0 m -93.6,-93.6 0,93.6 m 0,-93.6 0,93.6 93.6,0 m -93.6,-93.6 0,93.6 m -93.6,-93.6 93.6,0 m -93.6,0 93.6,0 0,93.6 m -93.6,0 93.6,0 m -93.6,-93.6 0,93.6 m 0,-93.6 0,93.6 93.6,0 m -93.6,-93.6 0,93.6 m -100.8,-93.6 100.8,0 m -100.8,0 100.8,0 0,93.6 m -100.8,0 100.8,0 m -100.8,-93.6 0,93.6 m 0,-93.6 0,93.6 100.8,0 m -100.8,-93.6 0,93.6 m -93.6,-93.6 93.6,0 m -93.6,0 93.6,0 0,93.6 m -93.6,0 93.6,0 m -93.6,-93.6 0,93.6 m 0,-93.6 0,93.6 93.6,0 m -93.6,-93.6 0,93.6 m -93.6,-93.6 93.6,0 m -93.6,0 93.6,0 0,93.6 m -93.6,0 93.6,0 m -93.6,-93.6 0,93.6 m 0,-93.6 0,93.6 93.6,0 m -93.6,-93.6 0,93.6 m -93.6,-93.6 93.6,0 m -93.6,0 93.6,0 0,93.6 m -93.6,0 93.6,0 m -93.6,-93.6 0,93.6 m 0,-93.6 0,93.6 93.6,0 m -93.6,-93.6 0,93.6 m -93.6,-93.6 93.6,0 m -93.6,0 93.6,0 0,93.6 m -93.6,0 93.6,0 m -93.6,-93.6 0,93.6 m 0,-93.6 0,93.6 93.6,0 m -93.6,-93.6 0,93.6 m -93.6,-93.6 93.6,0 m -93.6,0 93.6,0 0,93.6 m -93.6,0 93.6,0 m -93.6,-93.6 0,93.6 m 0,-93.6 0,93.6 93.6,0 m -93.6,-93.6 0,93.6 m -93.6,-93.6 93.6,0 m -93.6,0 93.6,0 0,93.6 m -93.6,0 93.6,0 m -93.6,-93.6 0,93.6 m 0,-93.6 0,93.6 93.6,0 m -93.6,-93.6 0,93.6 m -93.6,-93.6 93.6,0 m -93.6,0 93.6,0 0,93.6 m -93.6,0 93.6,0 m -93.6,-93.6 0,93.6 m 0,-93.6 0,93.6 93.6,0 m -93.6,-93.6 0,93.6 m -100.8,-93.6 100.8,0 m -100.8,0 100.8,0 0,93.6 m -100.8,0 100.8,0 m -100.8,-93.6 0,93.6 m 0,-93.6 0,93.6 100.8,0 m -100.8,-93.6 0,93.6 m -93.6,-93.6 93.6,0 m -93.6,0 93.6,0 0,93.6 m -93.6,0 93.6,0 m -93.6,-93.6 0,93.6 m 0,-93.6 0,93.6 93.6,0 m -93.6,-93.6 0,93.6 m -93.6,-93.6 93.6,0 m -93.6,0 93.6,0 0,93.6 m -93.6,0 93.6,0 m -93.6,-93.6 0,93.6 m 0,-93.6 0,93.6 93.6,0 m -93.6,-93.6 0,93.6 m -93.604,-93.6 93.604,0 m -93.604,0 93.604,0 0,93.6 m -93.604,0 93.604,0 m -93.604,-93.6 0,93.6 m 0,-93.6 0,93.6 93.604,0 m -93.604,-93.6 0,93.6 m -93.598,-93.6 93.598,0 m -93.598,0 93.602,0 0,93.6 m -93.602,0 93.598,0 m -93.598,-93.6 0,93.6 m 0,-93.6 0,93.6 93.602,0 m 1605.6,-187.2 0,93.6 m -93.6,-93.6 93.6,0 m -93.6,0 93.6,0 0,93.6 m -93.6,0 93.6,0 m -93.6,-93.6 0,93.6 m 0,-93.6 0,93.6 93.6,0 m -93.6,-93.6 0,93.6 m -93.6,-93.6 93.6,0 m -93.6,0 93.6,0 0,93.6 m -93.6,0 93.6,0 m -93.6,-93.6 0,93.6 m 0,-93.6 0,93.6 93.6,0 m -93.6,-93.6 0,93.6 m -93.6,-93.6 93.6,0 m -93.6,0 93.6,0 0,93.6 m -93.6,0 93.6,0 m -93.6,-93.6 0,93.6 m 0,-93.6 0,93.6 93.6,0 m -93.6,-93.6 0,93.6 m -93.6,-93.6 93.6,0 m -93.6,0 93.6,0 0,93.6 m -93.6,0 93.6,0 m -93.6,-93.6 0,93.6 m 0,-93.6 0,93.6 93.6,0 m -93.6,-93.6 0,93.6 m -93.6,-93.6 93.6,0 m -93.6,0 93.6,0 0,93.6 m -93.6,0 93.6,0 m -93.6,-93.6 0,93.6 m 0,-93.6 0,93.6 93.6,0 m -93.6,-93.6 0,93.6 m -100.8,-93.6 100.8,0 m -100.8,0 100.8,0 0,93.6 m -100.8,0 100.8,0 m -100.8,-93.6 0,93.6 m 0,-93.6 0,93.6 100.8,0 m -100.8,-93.6 0,93.6 m -93.6,-93.6 93.6,0 m -93.6,0 93.6,0 0,93.6 m -93.6,0 93.6,0 m -93.6,-93.6 0,93.6 m 0,-93.6 0,93.6 93.6,0 m -93.6,-93.6 0,93.6 m -93.6,-93.6 93.6,0 m -93.6,0 93.6,0 0,93.6 m -93.6,0 93.6,0 m -93.6,-93.6 0,93.6 m 0,-93.6 0,93.6 93.6,0 m -93.6,-93.6 0,93.6 m -93.6,-93.6 93.6,0 m -93.6,0 93.6,0 0,93.6 m -93.6,0 93.6,0 m -93.6,-93.6 0,93.6 m 0,-93.6 0,93.6 93.6,0 m -93.6,-93.6 0,93.6 m -93.6,-93.6 93.6,0 m -93.6,0 93.6,0 0,93.6 m -93.6,0 93.6,0 m -93.6,-93.6 0,93.6 m 0,-93.6 0,93.6 93.6,0 m -93.6,-93.6 0,93.6 m -93.6,-93.6 93.6,0 m -93.6,0 93.6,0 0,93.6 m -93.6,0 93.6,0 m -93.6,-93.6 0,93.6 m 0,-93.6 0,93.6 93.6,0 m -93.6,-93.6 0,93.6 m -93.6,-93.6 93.6,0 m -93.6,0 93.6,0 0,93.6 m -93.6,0 93.6,0 m -93.6,-93.6 0,93.6 m 0,-93.6 0,93.6 93.6,0 m -93.6,-93.6 0,93.6 m -93.6,-93.6 93.6,0 m -93.6,0 93.6,0 0,93.6 m -93.6,0 93.6,0 m -93.6,-93.6 0,93.6 m 0,-93.6 0,93.6 93.6,0 m -93.6,-93.6 0,93.6 m -100.8,-93.6 100.8,0 m -100.8,0 100.8,0 0,93.6 m -100.8,0 100.8,0 m -100.8,-93.6 0,93.6 m 0,-93.6 0,93.6 100.8,0 m -100.8,-93.6 0,93.6 m -93.6,-93.6 93.6,0 m -93.6,0 93.6,0 0,93.6 m -93.6,0 93.6,0 m -93.6,-93.6 0,93.6 m 0,-93.6 0,93.6 93.6,0 m -93.6,-93.6 0,93.6 m -93.6,-93.6 93.6,0 m -93.6,0 93.6,0 0,93.6 m -93.6,0 93.6,0 m -93.6,-93.6 0,93.6 m 0,-93.6 0,93.6 93.6,0 m -93.6,-93.6 0,93.6 m -93.604,-93.6 93.604,0 m -93.604,0 93.604,0 0,93.6 m -93.604,0 93.604,0 m -93.604,-93.6 0,93.6 m 0,-93.6 0,93.6 93.604,0 M 2484,1162 l 0,93.6 m -93.6,-93.6 93.6,0 m -93.6,0 93.6,0 0,93.6 m -93.6,0 93.6,0 m -93.6,-93.6 0,93.6 m 0,-93.6 0,93.6 93.6,0 m -93.6,-93.6 0,93.6 m -93.6,-93.6 93.6,0 m -93.6,0 93.6,0 0,93.6 m -93.6,0 93.6,0 m -93.6,-93.6 0,93.6 m 0,-93.6 0,93.6 93.6,0 m -93.6,-93.6 0,93.6 m -93.6,-93.6 93.6,0 m -93.6,0 93.6,0 0,93.6 m -93.6,0 93.6,0 m -93.6,-93.6 0,93.6 m 0,-93.6 0,93.6 93.6,0 m -93.6,-93.6 0,93.6 m -93.6,-93.6 93.6,0 m -93.6,0 93.6,0 0,93.6 m -93.6,0 93.6,0 m -93.6,-93.6 0,93.6 m 0,-93.6 0,93.6 93.6,0 m -93.6,-93.6 0,93.6 m -100.8,-93.6 100.8,0 m -100.8,0 100.8,0 0,93.6 m -100.8,0 100.8,0 m -100.8,-93.6 0,93.6 m 0,-93.6 0,93.6 100.8,0 m -100.8,-93.6 0,93.6 m -93.6,-93.6 93.6,0 m -93.6,0 93.6,0 0,93.6 m -93.6,0 93.6,0 m -93.6,-93.6 0,93.6 m 0,-93.6 0,93.6 93.6,0 m -93.6,-93.6 0,93.6 m -93.6,-93.6 93.6,0 m -93.6,0 93.6,0 0,93.6 m -93.6,0 93.6,0 m -93.6,-93.6 0,93.6 m 0,-93.6 0,93.6 93.6,0 m -93.6,-93.6 0,93.6 m -93.6,-93.6 93.6,0 m -93.6,0 93.6,0 0,93.6 m -93.6,0 93.6,0 m -93.6,-93.6 0,93.6 m 0,-93.6 0,93.6 93.6,0 m -93.6,-93.6 0,93.6 m -93.6,-93.6 93.6,0 m -93.6,0 93.6,0 0,93.6 m -93.6,0 93.6,0 m -93.6,-93.6 0,93.6 m 0,-93.6 0,93.6 93.6,0 m -93.6,-93.6 0,93.6 m -93.6,-93.6 93.6,0 m -93.6,0 93.6,0 0,93.6 m -93.6,0 93.6,0 m -93.6,-93.6 0,93.6 m 0,-93.6 0,93.6 93.6,0 m -93.6,-93.6 0,93.6 m -93.6,-93.6 93.6,0 m -93.6,0 93.6,0 0,93.6 m -93.6,0 93.6,0 m -93.6,-93.6 0,93.6 m 0,-93.6 0,93.6 93.6,0 m -93.6,-93.6 0,93.6 m -93.6,-93.6 93.6,0 m -93.6,0 93.6,0 0,93.6 m -93.6,0 93.6,0 m -93.6,-93.6 0,93.6 m 0,-93.6 0,93.6 93.6,0 m -93.6,-93.6 0,93.6 m -100.8,-93.6 100.8,0 m -100.8,0 100.8,0 0,93.6 m -100.8,0 100.8,0 m -100.8,-93.6 0,93.6 m 0,-93.6 0,93.6 100.8,0 m -100.8,-93.6 0,93.6 m -93.6,-93.6 93.6,0 m -93.6,0 93.6,0 0,93.6 m -93.6,0 93.6,0 m -93.6,-93.6 0,93.6 m 0,-93.6 0,93.6 93.6,0 m -93.6,-93.6 0,93.6 m -93.6,-93.6 93.6,0 m -93.6,0 93.6,0 0,93.6 m -93.6,0 93.6,0 m -93.6,-93.6 0,93.6 m 0,-93.6 0,93.6 93.6,0 m -93.6,-93.6 0,93.6 m -93.604,-93.6 93.604,0 m -93.604,0 93.604,0 0,93.6 m -93.604,0 93.604,0 m -93.604,-93.6 0,93.6 m 0,-93.6 0,93.6 93.604,0 m 1418.4,-187.2 0,93.6 m -93.6,-93.6 93.6,0 m -93.6,0 93.6,0 0,93.6 m -93.6,0 93.6,0 m -93.6,-93.6 0,93.6 m 0,-93.6 0,93.6 93.6,0 m -93.6,-93.6 0,93.6 m -93.6,-93.6 93.6,0 m -93.6,0 93.6,0 0,93.6 m -93.6,0 93.6,0 m -93.6,-93.6 0,93.6 m 0,-93.6 0,93.6 93.6,0 m -93.6,-93.6 0,93.6 m -93.6,-93.6 93.6,0 m -93.6,0 93.6,0 0,93.6 m -93.6,0 93.6,0 m -93.6,-93.6 0,93.6 m 0,-93.6 0,93.6 93.6,0 m -93.6,-93.6 0,93.6 m -93.6,-93.6 93.6,0 m -93.6,0 93.6,0 0,93.6 m -93.6,0 93.6,0 m -93.6,-93.6 0,93.6 m 0,-93.6 0,93.6 93.6,0 m -93.6,-93.6 0,93.6 m -100.8,-93.6 100.8,0 m -100.8,0 100.8,0 0,93.6 m -100.8,0 100.8,0 m -100.8,-93.6 0,93.6 m 0,-93.6 0,93.6 100.8,0 m -100.8,-93.6 0,93.6 m -93.6,-93.6 93.6,0 m -93.6,0 93.6,0 0,93.6 m -93.6,0 93.6,0 m -93.6,-93.6 0,93.6 m 0,-93.6 0,93.6 93.6,0 m -93.6,-93.6 0,93.6 m -93.6,-93.6 93.6,0 m -93.6,0 93.6,0 0,93.6 m -93.6,0 93.6,0 m -93.6,-93.6 0,93.6 m 0,-93.6 0,93.6 93.6,0 m -93.6,-93.6 0,93.6 m -93.6,-93.6 93.6,0 m -93.6,0 93.6,0 0,93.6 m -93.6,0 93.6,0 m -93.6,-93.6 0,93.6 m 0,-93.6 0,93.6 93.6,0 m -93.6,-93.6 0,93.6 m -93.6,-93.6 93.6,0 m -93.6,0 93.6,0 0,93.6 m -93.6,0 93.6,0 m -93.6,-93.6 0,93.6 m 0,-93.6 0,93.6 93.6,0 m -93.6,-93.6 0,93.6 m -93.6,-93.6 93.6,0 m -93.6,0 93.6,0 0,93.6 m -93.6,0 93.6,0 m -93.6,-93.6 0,93.6 m 0,-93.6 0,93.6 93.6,0 m -93.6,-93.6 0,93.6 m -93.6,-93.6 93.6,0 m -93.6,0 93.6,0 0,93.6 m -93.6,0 93.6,0 m -93.6,-93.6 0,93.6 m 0,-93.6 0,93.6 93.6,0 m -93.6,-93.6 0,93.6 m -93.6,-93.6 93.6,0 m -93.6,0 93.6,0 0,93.6 m -93.6,0 93.6,0 m -93.6,-93.6 0,93.6 m 0,-93.6 0,93.6 93.6,0 m -93.6,-93.6 0,93.6 m -100.8,-93.6 100.8,0 m -100.8,0 100.8,0 0,93.6 m -100.8,0 100.8,0 m -100.8,-93.6 0,93.6 m 0,-93.6 0,93.6 100.8,0 m -100.8,-93.6 0,93.6 m -93.6,-93.6 93.6,0 m -93.6,0 93.6,0 0,93.6 m -93.6,0 93.6,0 m -93.6,-93.6 0,93.6 m 0,-93.6 0,93.6 93.6,0 m -93.6,-93.6 0,93.6 m -93.6,-93.6 93.6,0 m -93.6,0 93.6,0 0,93.6 m -93.6,0 93.6,0 m -93.6,-93.6 0,93.6 m 0,-93.6 0,93.6 93.6,0 m 1231.2,-187.203 0,93.603 m -93.6,-93.603 93.6,0 m -93.6,0 93.6,0 0,93.603 m -93.6,0 93.6,0 m -93.6,-93.603 0,93.603 m 0,-93.603 0,93.603 93.6,0 m -93.6,-93.603 0,93.603 m -93.6,-93.603 93.6,0 m -93.6,0 93.6,0 0,93.603 m -93.6,0 93.6,0 m -93.6,-93.603 0,93.603 m 0,-93.603 0,93.603 93.6,0 m -93.6,-93.603 0,93.603 m -93.6,-93.603 93.6,0 m -93.6,0 93.6,0 0,93.603 m -93.6,0 93.6,0 m -93.6,-93.603 0,93.603 m 0,-93.603 0,93.603 93.6,0 m -93.6,-93.603 0,93.603 m -100.8,-93.603 100.8,0 m -100.8,0 100.8,0 0,93.603 m -100.8,0 100.8,0 m -100.8,-93.603 0,93.603 m 0,-93.603 0,93.603 100.8,0 m -100.8,-93.603 0,93.603 m -93.6,-93.603 93.6,0 m -93.6,0 93.6,0 0,93.603 m -93.6,0 93.6,0 m -93.6,-93.603 0,93.603 m 0,-93.603 0,93.603 93.6,0 m -93.6,-93.603 0,93.603 m -93.6,-93.603 93.6,0 m -93.6,0 93.6,0 0,93.603 m -93.6,0 93.6,0 m -93.6,-93.603 0,93.603 m 0,-93.603 0,93.603 93.6,0 m -93.6,-93.603 0,93.603 m -93.6,-93.603 93.6,0 m -93.6,0 93.6,0 0,93.603 m -93.6,0 93.6,0 m -93.6,-93.603 0,93.603 m 0,-93.603 0,93.603 93.6,0 m -93.6,-93.603 0,93.603 m -93.6,-93.603 93.6,0 m -93.6,0 93.6,0 0,93.603 m -93.6,0 93.6,0 m -93.6,-93.603 0,93.603 m 0,-93.603 0,93.603 93.6,0 m -93.6,-93.603 0,93.603 m -93.6,-93.603 93.6,0 m -93.6,0 93.6,0 0,93.603 m -93.6,0 93.6,0 m -93.6,-93.603 0,93.603 m 0,-93.603 0,93.603 93.6,0 m -93.6,-93.603 0,93.603 m -93.6,-93.603 93.6,0 m -93.6,0 93.6,0 0,93.603 m -93.6,0 93.6,0 m -93.6,-93.603 0,93.603 m 0,-93.603 0,93.603 93.6,0 m -93.6,-93.603 0,93.603 m -93.6,-93.603 93.6,0 m -93.6,0 93.6,0 0,93.603 m -93.6,0 93.6,0 m -93.6,-93.603 0,93.603 m 0,-93.603 0,93.603 93.6,0 m -93.6,-93.603 0,93.603 m -100.8,-93.603 100.8,0 m -100.8,0 100.8,0 0,93.603 m -100.8,0 100.8,0 m -100.8,-93.603 0,93.603 m 0,-93.603 0,93.603 100.8,0 m -100.8,-93.603 0,93.603 m -93.6,-93.603 93.6,0 m -93.6,0 93.6,0 0,93.603 m -93.6,0 93.6,0 m -93.6,-93.603 0,93.603 m 0,-93.603 0,93.603 93.6,0 m 950.4,-187.201 0,93.598 m -93.6,-93.598 93.6,0 m -93.6,0 93.6,0 0,93.598 m -93.6,0 93.6,0 m -93.6,-93.598 0,93.598 m 0,-93.598 0,93.598 93.6,0 m -93.6,-93.598 0,93.598 m -100.8,-93.598 100.8,0 m -100.8,0 100.8,0 0,93.598 m -100.8,0 100.8,0 m -100.8,-93.598 0,93.598 m 0,-93.598 0,93.598 100.8,0 m -100.8,-93.598 0,93.598 m -93.6,-93.598 93.6,0 m -93.6,0 93.6,0 0,93.598 m -93.6,0 93.6,0 m -93.6,-93.598 0,93.598 m 0,-93.598 0,93.598 93.6,0 m -93.6,-93.598 0,93.598 m -93.6,-93.598 93.6,0 m -93.6,0 93.6,0 0,93.598 m -93.6,0 93.6,0 m -93.6,-93.598 0,93.598 m 0,-93.598 0,93.598 93.6,0 m -93.6,-93.598 0,93.598 m -93.6,-93.598 93.6,0 m -93.6,0 93.6,0 0,93.598 m -93.6,0 93.6,0 m -93.6,-93.598 0,93.598 m 0,-93.598 0,93.598 93.6,0 m -93.6,-93.598 0,93.598 m -93.6,-93.598 93.6,0 m -93.6,0 93.6,0 0,93.598 m -93.6,0 93.6,0 m -93.6,-93.598 0,93.598 m 0,-93.598 0,93.598 93.6,0 m -93.6,-93.598 0,93.598 m -93.6,-93.598 93.6,0 m -93.6,0 93.6,0 0,93.598 m -93.6,0 93.6,0 m -93.6,-93.598 0,93.598 m 0,-93.598 0,93.598 93.6,0 m -93.6,-93.598 0,93.598 m -93.6,-93.598 93.6,0 m -93.6,0 93.6,0 0,93.598 m -93.6,0 93.6,0 m -93.6,-93.598 0,93.598 m 0,-93.598 0,93.598 93.6,0 m -93.6,-93.598 0,93.598 m -93.6,-93.598 93.6,0 m -93.6,0 93.6,0 0,93.598 m -93.6,0 93.6,0 m -93.6,-93.598 0,93.598 m 0,-93.598 0,93.598 93.6,0 m -93.6,-93.598 0,93.598 m -100.8,-93.598 100.8,0 m -100.8,0 100.8,0 0,93.598 m -100.8,0 100.8,0 m -100.8,-93.598 0,93.598 m 0,-93.598 0,93.598 100.8,0 m 655.2,-194.399 0,100.801 m -93.6,-100.801 93.6,0 m -93.6,0 93.6,0 0,100.797 m -93.6,0.004 93.6,0 m -93.6,-100.801 0,100.801 m 0,-100.801 0,100.797 93.6,0 m -93.6,-100.797 0,100.801 m -93.6,-100.801 93.6,0 m -93.6,0 93.6,0 0,100.797 m -93.6,0.004 93.6,0 m -93.6,-100.801 0,100.801 m 0,-100.801 0,100.797 93.6,0 m -93.6,-100.797 0,100.801 m -93.6,-100.801 93.6,0 m -93.6,0 93.6,0 0,100.797 m -93.6,0.004 93.6,0 m -93.6,-100.801 0,100.801 m 0,-100.801 0,100.797 93.6,0 m -93.6,-100.797 0,100.801 m -93.6,-100.801 93.6,0 m -93.6,0 93.6,0 0,100.797 m -93.6,0.004 93.6,0 m -93.6,-100.801 0,100.801 m 0,-100.801 0,100.797 93.6,0 m -93.6,-100.797 0,100.801 m -93.6,-100.801 93.6,0 m -93.6,0 93.6,0 0,100.797 m -93.6,0.004 93.6,0 m -93.6,-100.801 0,100.801 m 0,-100.801 0,100.797 93.6,0 m -93.6,-100.797 0,100.801 m -93.6,-100.801 93.6,0 m -93.6,0 93.6,0 0,100.797 m -93.6,0.004 93.6,0 m -93.6,-100.801 0,100.801 m 0,-100.801 0,100.797 93.6,0"
           inkscape:connector-curvature="0" />
      </g>
    </g>
    <path
       style="opacity:0.81818183;fill:none;stroke:#000000;stroke-width:2;stroke-miterlimit:4;stroke-opacity:1;stroke-dasharray:none;stroke-dashoffset:0"
       d="m -209.54675,28.611199 c -30.72191,0 -58.53539,-12.45252 -78.66838,-32.5855096 -20.13299,-20.1330044 -32.58551,-47.9464844 -32.58551,-78.6683944 0,-30.721915 9.0726,-70.605135 38.85624,-82.227095 39.07522,-15.24765 46.78466,6.66484 68.57383,6.82888 26.13083,0.19674 16.89261,-15.34077 55.94183,-11.92794 30.36855,2.65415 58.728155,25.43411 59.134675,86.957505 0.001,61.812484 -49.808845,111.622554 -111.252685,111.622554 z"
       id="path21542"
       inkscape:connector-curvature="0"
       sodipodi:nodetypes="sssssscs" />
    <rect
       style="opacity:0.81818183;fill:none;stroke:#000000;stroke-width:2;stroke-miterlimit:4;stroke-opacity:1;stroke-dasharray:4, 2;stroke-dashoffset:0"
       id="rect3022"
       width="25.75889"
       height="25.75889"
       x="107.1853"
       y="-82.1987" />
    <rect
       style="opacity:0.81818183;fill:none;stroke:#000000;stroke-width:2;stroke-miterlimit:4;stroke-opacity:1;stroke-dasharray:4, 2;stroke-dashoffset:0"
       id="rect3022-1"
       width="251.19687"
       height="251.19687"
       x="-179.78502"
       y="57.115376" />
    <path
       style="fill:none;stroke:#000000;stroke-width:2;stroke-linecap:butt;stroke-linejoin:miter;stroke-miterlimit:4;stroke-opacity:1;stroke-dasharray:4, 2;stroke-dashoffset:0"
       d="M 93.944186,-67.309727 33.335034,295.84011"
       id="path4254"
       inkscape:connector-curvature="0"
       transform="translate(39,11.375)"
       sodipodi:nodetypes="cc" />
    <path
       style="fill:none;stroke:#000000;stroke-width:2;stroke-linecap:butt;stroke-linejoin:miter;stroke-miterlimit:4;stroke-opacity:1;stroke-dasharray:4, 2;stroke-dashoffset:0"
       d="M 68.185296,-94.07877 -217.68787,45.827357"
       id="path4256"
       inkscape:connector-curvature="0"
       transform="translate(39,11.375)" />
    <path
       style="fill:none;stroke:#000000;stroke-width:3;stroke-linecap:butt;stroke-linejoin:miter;stroke-miterlimit:4;stroke-opacity:1;stroke-dasharray:none;marker-end:url(#Arrow2Lend)"
       d="m -78.643993,-80.998186 62.574325,0"
       id="path4266"
       inkscape:connector-curvature="0" />
    <text
       xml:space="preserve"
       style="font-size:25.23857498px;font-style:normal;font-weight:normal;line-height:125%;letter-spacing:0px;word-spacing:0px;fill:#000000;fill-opacity:1;stroke:none;font-family:Sans"
       x="-222.21666"
       y="-176.84914"
       id="text4454"
       sodipodi:linespacing="125%"><tspan
         sodipodi:role="line"
         id="tspan4456"
         x="-222.21666"
         y="-176.84914">$\Omega$</tspan></text>
    <text
       xml:space="preserve"
       style="font-size:25.23857498px;font-style:normal;font-weight:normal;line-height:125%;letter-spacing:0px;word-spacing:0px;fill:#000000;fill-opacity:1;stroke:none;font-family:Sans"
       x="103.77117"
       y="-177.24257"
       id="text4454-5"
       sodipodi:linespacing="125%"><tspan
         sodipodi:role="line"
         id="tspan4456-7"
         x="103.77117"
         y="-177.24257">$\Omega_h$</tspan></text>
    <text
       xml:space="preserve"
       style="font-size:7.53243876px;font-style:normal;font-weight:normal;line-height:125%;letter-spacing:0px;word-spacing:0px;fill:#000000;fill-opacity:1;stroke:none;font-family:Sans"
       x="-60.56992"
       y="197.39352"
       id="text3025"
       sodipodi:linespacing="125%"><tspan
         sodipodi:role="line"
         id="tspan3027"
         x="-60.56992"
         y="197.39352">$p_{ij}$</tspan></text>
    <rect
       style="fill:#cccccc;fill-opacity:1;stroke:none"
       id="rect3877"
       width="110"
       height="47.67857"
       x="-147.5491"
       y="181.6875" />
    <flowRoot
       xml:space="preserve"
       style="font-size:40px;font-style:normal;font-weight:normal;line-height:125%;letter-spacing:0px;word-spacing:0px;fill:#000000;fill-opacity:1;stroke:none;font-family:Sans"
       id="flowRoot3879"
       transform="translate(10.535714,-1.4285714)"><flowRegion
         id="flowRegion3881"><use
           x="0"
           y="0"
           xlink:href="#rect3877"
           id="use3883"
           width="590"
           height="530" /></flowRegion><flowPara
         id="flowPara3885">dfdssdasda</flowPara></flowRoot>  </g>
</svg>
