<?xml version="1.0" encoding="UTF-8" standalone="no"?>
<!-- Created with Inkscape (http://www.inkscape.org/) -->

<svg
   xmlns:dc="http://purl.org/dc/elements/1.1/"
   xmlns:cc="http://creativecommons.org/ns#"
   xmlns:rdf="http://www.w3.org/1999/02/22-rdf-syntax-ns#"
   xmlns:svg="http://www.w3.org/2000/svg"
   xmlns="http://www.w3.org/2000/svg"
   xmlns:sodipodi="http://sodipodi.sourceforge.net/DTD/sodipodi-0.dtd"
   xmlns:inkscape="http://www.inkscape.org/namespaces/inkscape"
   width="489.375"
   height="236.53125"
   id="svg3773"
   version="1.1"
   inkscape:version="0.48.5 r10040"
   sodipodi:docname="superficies_sigmas.pdf">
  <defs
     id="defs3775" />
  <sodipodi:namedview
     id="base"
     pagecolor="#ffffff"
     bordercolor="#666666"
     borderopacity="1.0"
     inkscape:pageopacity="0.0"
     inkscape:pageshadow="2"
     inkscape:zoom="1.979899"
     inkscape:cx="240.07851"
     inkscape:cy="126.85254"
     inkscape:document-units="px"
     inkscape:current-layer="layer1"
     showgrid="false"
     inkscape:window-width="1920"
     inkscape:window-height="1060"
     inkscape:window-x="-2"
     inkscape:window-y="-3"
     inkscape:window-maximized="1"
     fit-margin-top="0"
     fit-margin-left="0"
     fit-margin-right="0"
     fit-margin-bottom="0" />
  <metadata
     id="metadata3778">
    <rdf:RDF>
      <cc:Work
         rdf:about="">
        <dc:format>image/svg+xml</dc:format>
        <dc:type
           rdf:resource="http://purl.org/dc/dcmitype/StillImage" />
        <dc:title></dc:title>
      </cc:Work>
    </rdf:RDF>
  </metadata>
  <g
     inkscape:label="Layer 1"
     inkscape:groupmode="layer"
     id="layer1"
     transform="translate(-147.43712,-66.120887)">
    <path
       style="fill:#000000"
       d="m 205.31872,282.72221 c 0,-0.80084 0.78184,-1.7794 1.78792,-2.23781 4.6199,-2.10496 6.20414,-8.80351 6.2563,-26.45308 0.0435,-14.7334 0.83387,-22.13288 2.85104,-26.69305 1.69956,-3.84212 5.11989,-6.17852 9.05058,-6.18239 8.88749,-0.009 11.42387,6.94269 11.46213,31.41419 0.0286,18.31488 1.31248,24.72933 5.49852,27.47213 3.6027,2.36058 8.5742,-0.86871 12.10482,-7.86284 3.12001,-6.18071 5.90364,-14.9128 10.4759,-32.86229 6.6098,-25.94836 10.44309,-34.39555 16.90584,-37.25433 2.81717,-1.24616 3.6126,-1.3157 6.19622,-0.54162 6.69194,2.00495 11.33206,11.13312 16.85044,33.14861 6.74115,26.89376 10.70103,38.0283 15.21007,42.76828 3.34401,3.5153 5.76465,4.15705 9.82746,2.60545 5.74732,-2.19492 9.21453,-6.55025 16.59467,-20.8454 2.99889,-5.80876 6.07001,-10.58237 8.52376,-13.24893 l 3.83578,-4.16844 0,-56.70853 c 0,-56.22143 -0.0126,-56.70851 -1.46125,-56.70851 -1.76932,0 -1.84766,-0.92292 -0.28128,-3.31353 0.72467,-1.10598 0.86563,-1.80086 0.36531,-1.80086 -0.44806,0 -0.81466,-0.84278 -0.81466,-1.87285 0,-1.67285 0.25359,-1.84841 2.37454,-1.64391 2.08938,0.20145 2.37944,0.49216 2.41543,2.42083 0.0225,1.20553 0.43346,2.91002 0.91328,3.78775 1.20853,2.2108 1.12513,2.42257 -0.95418,2.42257 l -1.82656,0 0,56.65662 0,56.65662 2.73985,-0.5602 c 6.09491,-1.24617 9.51638,-0.36112 13.77338,3.56285 3.63679,3.35227 9.26943,12.16586 14.10038,22.06334 4.96782,10.17788 11.39888,15.35763 17.24573,13.89017 6.16482,-1.54728 12.17567,-14.57327 17.95866,-38.91781 7.75614,-32.65093 13.80052,-42.92463 23.65348,-40.20409 7.19195,1.98579 11.14113,10.35786 18.57063,39.3689 4.37184,17.07137 4.27631,16.8044 6.01371,16.8044 0.89599,0 1.38308,0.51462 1.38308,1.46125 0,0.80369 -0.32878,1.46125 -0.73063,1.46125 -1.18171,0 -0.87415,1.48932 1.554,7.52501 2.72122,6.76418 7.13433,12.00166 10.67292,12.66662 1.99794,0.37544 2.68993,0.0947 4.4743,-1.81553 3.25077,-3.47996 3.89229,-7.50203 4.50418,-28.23955 0.30829,-10.44795 0.918,-20.15261 1.35492,-21.5659 0.43692,-1.4133 1.71646,-3.67411 2.84342,-5.02403 1.70756,-2.04538 2.66359,-2.51346 5.73668,-2.80875 6.54391,-0.62878 10.03676,2.64327 12.0123,11.25296 0.44589,1.94326 1.05414,11.75274 1.35165,21.79885 0.47609,16.07563 0.71956,18.66625 2.03064,21.60677 1.04769,2.34977 2.16921,3.62257 3.77988,4.28974 2.3889,0.98951 3.03122,2.72471 1.26019,3.40433 -1.62437,0.62332 -5.26612,-1.63884 -6.85664,-4.25919 -2.41702,-3.98197 -3.15156,-9.5959 -3.75447,-28.69478 -0.61031,-19.33291 -1.08851,-22.01222 -4.5949,-25.74459 -1.82804,-1.94586 -5.32679,-2.18724 -7.69188,-0.53067 -3.08711,2.1623 -3.93805,7.31501 -4.58048,27.73651 -0.64534,20.5139 -1.34151,24.69342 -4.79718,28.80024 -3.54491,4.21288 -10.13154,3.62319 -14.21672,-1.27283 -1.23271,-1.47737 -3.34942,-4.98759 -4.70381,-7.8005 -2.88013,-5.98174 -9.22181,-26.19899 -11.34274,-36.16068 -4.35346,-20.44755 -10.53753,-32.88348 -16.3521,-32.88348 -6.26858,0 -11.63625,9.88811 -17.64932,32.51286 -6.33659,23.842 -7.46003,27.70979 -9.84482,33.89376 -5.20868,13.50658 -11.49103,17.37462 -20.54077,12.64698 -4.88042,-2.54956 -7.8083,-6.34241 -13.21247,-17.11574 -8.39448,-16.73461 -12.31313,-21.02281 -19.21114,-21.02281 -5.17928,0 -6.93391,1.39712 -6.93391,5.52113 0,2.97573 0.15228,3.24639 1.82656,3.24639 2.21598,0 2.2457,0.28175 0.31557,2.99237 -0.83106,1.1671 -1.15984,2.12201 -0.73063,2.12201 0.42921,0 0.78038,0.65756 0.78038,1.46125 0,1.18292 -0.48709,1.46125 -2.55719,1.46125 -2.07011,0 -2.5572,-0.27833 -2.5572,-1.46125 0,-0.84001 0.48709,-1.46125 1.14569,-1.46125 0.95665,0 0.89638,-0.35014 -0.36531,-2.12201 -1.87577,-2.63429 -1.88173,-2.99237 -0.0497,-2.99237 1.21771,0 1.46125,-0.48709 1.46125,-2.92251 0,-1.60737 -0.31813,-2.9225 -0.70696,-2.9225 -1.37091,0 -6.48582,7.78784 -11.75658,17.90034 -2.93226,5.62582 -6.27087,11.40768 -7.41913,12.84859 -4.16666,5.22853 -11.98242,7.83004 -16.50212,5.49281 -6.68358,-3.45621 -10.88224,-13.05243 -17.94807,-41.02122 -7.26654,-28.76325 -12.38573,-39.05808 -19.42197,-39.05808 -2.51778,0 -6.9538,4.73573 -9.39299,10.02764 -2.23403,4.84678 -5.06975,14.71608 -9.50456,33.07929 -1.21311,5.02306 -2.43296,9.7082 -2.71079,10.41142 -0.41554,1.05175 -0.10242,1.2786 1.76488,1.2786 1.75941,0 2.27005,0.31878 2.27005,1.41714 0,1.10671 -0.59311,1.46683 -2.7075,1.64391 -2.61312,0.21886 -2.76562,0.38954 -4.37469,4.89622 -2.49383,6.98471 -6.17232,13.22297 -9.28057,15.73869 -2.23797,1.81134 -3.44769,2.24126 -6.30649,2.24126 -2.92416,0 -3.92858,-0.37483 -5.79437,-2.16237 -3.79368,-3.63458 -4.46113,-7.37879 -5.14982,-28.88923 -0.34094,-10.64888 -0.98518,-20.58432 -1.43164,-22.07875 -2.04933,-6.85973 -7.27585,-9.20657 -11.25462,-5.05362 -3.48704,3.63967 -4.15417,7.5381 -4.83066,28.22831 -0.67603,20.67631 -1.29385,24.10252 -4.978,27.60642 -1.08702,1.03384 -2.88055,2.10319 -3.98563,2.37633 -1.67419,0.41382 -2.00922,0.25932 -2.00922,-0.92655 z m 366.90593,-9.14665 -0.1317,-3.47047 -22.6494,0 c -19.64572,0 -22.64941,-0.14534 -22.64941,-1.09594 0,-0.85602 0.98913,-1.09594 4.5184,-1.09594 8.51187,0 12.50704,-3.32948 21.05646,-17.54797 6.60046,-10.9772 10.88811,-16.12358 15.38981,-18.47206 l 3.96883,-2.0705 0.40495,-7.43992 0.40495,-7.43993 0.14302,7.46076 0.14302,7.46075 2.93209,0.78953 c 5.20967,1.40282 6.78368,3.22444 18.62135,21.55088 8.40361,13.01001 11.76924,15.70846 19.59228,15.70846 3.20455,0 4.15309,0.25031 4.15309,1.09594 0,0.95056 -2.99924,1.09594 -22.60938,1.09594 l -22.60937,0 -0.27365,3.47047 -0.27365,3.47048 z m -0.1317,-23.928 c 0,-10.0461 -0.17495,-18.26565 -0.38878,-18.26565 -0.21382,0 -1.45599,0.44591 -2.76037,0.99091 -3.59651,1.50273 -8.29586,7.25053 -14.65714,17.92728 -3.16302,5.30881 -7.38799,11.44354 -9.38879,13.63274 l -3.63784,3.98037 15.41647,0 15.41645,0 z m 15.43933,15.52581 0.0962,-2.73985 0.45179,2.55719 0.45179,2.55719 8.03238,0.20919 8.03239,0.20917 -3.01711,-3.13168 c -2.79776,-2.90401 -5.46614,-6.78001 -14.47927,-21.03203 -3.92899,-6.21272 -7.16178,-9.87945 -10.03947,-11.38704 -4.34768,-2.2777 -4.23738,-2.71355 -4.23738,16.74497 0,9.77821 0.21919,17.99776 0.48708,18.26565 0.2679,0.2679 3.55571,0.48708 7.30626,0.48708 l 6.81918,0 0.0962,-2.73984 z m 0.11278,-15.16049 c 0.006,-2.00923 0.14738,-2.74446 0.31532,-1.63387 0.16794,1.1106 0.16345,2.75451 -0.01,3.65313 -0.17342,0.89863 -0.31082,-0.01 -0.30534,-2.01926 z m -382.32634,9.13282 c 0,-1.18292 0.48709,-1.46125 2.55719,-1.46125 2.07011,0 2.55719,0.27833 2.55719,1.46125 0,1.18292 -0.48708,1.46125 -2.55719,1.46125 -2.0701,0 -2.55719,-0.27833 -2.55719,-1.46125 z m 18.26565,0 c 0,-1.21771 0.48709,-1.46125 2.9225,-1.46125 2.43542,0 2.92251,0.24354 2.92251,1.46125 0,1.21771 -0.48709,1.46125 -2.92251,1.46125 -2.43541,0 -2.9225,-0.24354 -2.9225,-1.46125 z m 18.99628,0 c 0,-1.18292 0.48708,-1.46125 2.55719,-1.46125 2.0701,0 2.55719,0.27833 2.55719,1.46125 0,1.18292 -0.48709,1.46125 -2.55719,1.46125 -2.07011,0 -2.55719,-0.27833 -2.55719,-1.46125 z m 37.99255,0 c 0,-1.21771 0.48708,-1.46125 2.9225,-1.46125 2.43542,0 2.9225,0.24354 2.9225,1.46125 0,1.21771 -0.48708,1.46125 -2.9225,1.46125 -2.43542,0 -2.9225,-0.24354 -2.9225,-1.46125 z m 18.99627,0 c 0,-1.18292 0.48709,-1.46125 2.55719,-1.46125 2.07011,0 2.55719,0.27833 2.55719,1.46125 0,1.18292 -0.48708,1.46125 -2.55719,1.46125 -2.0701,0 -2.55719,-0.27833 -2.55719,-1.46125 z m 18.99628,0 c 0,-1.18292 0.48708,-1.46125 2.55719,-1.46125 2.0701,0 2.55719,0.27833 2.55719,1.46125 0,1.18292 -0.48709,1.46125 -2.55719,1.46125 -2.07011,0 -2.55719,-0.27833 -2.55719,-1.46125 z m 18.26564,0 c 0,-1.24477 0.48709,-1.46125 3.28782,-1.46125 2.80073,0 3.28782,0.21648 3.28782,1.46125 0,1.24477 -0.48709,1.46125 -3.28782,1.46125 -2.80073,0 -3.28782,-0.21648 -3.28782,-1.46125 z m 38.72318,0 c 0,-1.18292 0.48709,-1.46125 2.55719,-1.46125 2.0701,0 2.55719,0.27833 2.55719,1.46125 0,1.18292 -0.48709,1.46125 -2.55719,1.46125 -2.0701,0 -2.55719,-0.27833 -2.55719,-1.46125 z m 18.26565,0 c 0,-1.21771 0.48708,-1.46125 2.9225,-1.46125 2.43542,0 2.92251,0.24354 2.92251,1.46125 0,1.21771 -0.48709,1.46125 -2.92251,1.46125 -2.43542,0 -2.9225,-0.24354 -2.9225,-1.46125 z m 18.99627,0 c 0,-1.18292 0.48709,-1.46125 2.55719,-1.46125 2.07011,0 2.55719,0.27833 2.55719,1.46125 0,1.18292 -0.48708,1.46125 -2.55719,1.46125 -2.0701,0 -2.55719,-0.27833 -2.55719,-1.46125 z m 19.7269,0 c 0,-1.18292 0.48709,-1.46125 2.55719,-1.46125 2.07011,0 2.5572,0.27833 2.5572,1.46125 0,1.18292 -0.48709,1.46125 -2.5572,1.46125 -2.0701,0 -2.55719,-0.27833 -2.55719,-1.46125 z m 18.26565,0 c 0,-1.21771 0.48709,-1.46125 2.92251,-1.46125 2.43541,0 2.9225,0.24354 2.9225,1.46125 0,1.21771 -0.48709,1.46125 -2.9225,1.46125 -2.43542,0 -2.92251,-0.24354 -2.92251,-1.46125 z m 37.99255,0 c 0,-1.18292 0.48709,-1.46125 2.55719,-1.46125 2.07011,0 2.55719,0.27833 2.55719,1.46125 0,1.18292 -0.48708,1.46125 -2.55719,1.46125 -2.0701,0 -2.55719,-0.27833 -2.55719,-1.46125 z m 18.26565,0 c 0,-1.24477 0.48709,-1.46125 3.28782,-1.46125 2.80073,0 3.28782,0.21648 3.28782,1.46125 0,1.24477 -0.48709,1.46125 -3.28782,1.46125 -2.80073,0 -3.28782,-0.21648 -3.28782,-1.46125 z m -299.81166,-6.02766 c -2.4678,-3.9799 -21.65731,-40.9824 -21.39139,-41.24832 0.16253,-0.16253 4.32073,7.36685 9.24044,16.73195 4.91972,9.3651 10.08075,19.08234 11.46896,21.59386 2.38042,4.3066 2.88743,6.47929 0.68199,2.92251 z m 380.39946,-19.54425 c 0,-2.21014 0.13697,-3.11429 0.30437,-2.00922 0.16741,1.10507 0.16741,2.91337 0,4.01844 -0.1674,1.10507 -0.30437,0.20092 -0.30437,-2.00922 z M 321.53526,198.38398 c -5.3575,-3.64279 -9.4368,-14.18365 -14.29669,-36.94238 -6.76916,-31.69981 -7.82041,-36.36005 -9.5566,-42.36464 -3.63468,-12.5705 -7.92689,-19.207707 -12.42141,-19.207707 -6.39303,0 -11.20857,6.898237 -16.47371,23.598487 -3.71219,11.77452 -9.13435,24.73545 -12.23073,29.23588 -4.12229,5.99155 -8.57211,8.43563 -13.63058,7.48665 -7.34088,-1.37716 -13.6794,-12.55091 -21.20652,-37.38359 -4.21341,-13.90042 -8.92977,-21.41273 -14.16524,-22.56263 -1.54675,-0.339723 -2.23506,-0.923031 -2.23506,-1.894101 0,-3.026517 5.53368,-1.057772 9.39817,3.343631 2.44535,2.7851 6.60907,10.58646 8.0926,15.16273 0.82647,2.54941 1.08739,2.73984 3.75404,2.73984 2.56982,0 2.86585,0.18868 2.86585,1.82657 0,1.55641 -0.33575,1.82656 -2.27005,1.82656 -1.86968,0 -2.17985,0.22551 -1.75865,1.2786 0.28127,0.70323 1.65201,4.56641 3.04609,8.58486 5.34628,15.41063 11.3198,24.47597 16.12824,24.47597 6.39157,0 11.4425,-7.12646 17.99481,-25.38926 l 3.21114,-8.95017 -1.73671,0 c -1.35336,0 -1.7367,-0.39296 -1.7367,-1.78027 0,-1.45769 0.41343,-1.82176 2.28165,-2.00922 2.10839,-0.21156 2.48455,-0.70058 4.95315,-6.43927 4.79407,-11.14465 8.50132,-15.237527 14.40456,-15.902908 6.08107,-0.685425 10.69918,4.691818 14.58381,16.981128 1.51369,4.78864 1.77387,5.14742 3.88769,5.36105 1.85104,0.18707 2.26544,0.5546 2.26544,2.00922 0,1.39606 -0.38149,1.78027 -1.76767,1.78027 -1.66741,0 -1.72764,0.14496 -1.06199,2.55575 0.38811,1.40566 2.16828,9.63754 3.95591,18.29306 6.16415,29.84614 8.27318,37.85856 12.11828,46.03868 3.52493,7.49894 8.39123,9.65816 12.31071,5.46234 5.11384,-5.47439 8.20057,-15.93104 14.23986,-48.23917 5.30814,-28.3967 11.76935,-46.13438 17.97389,-49.342868 4.40675,-2.278824 10.65014,-0.720994 12.65598,3.157888 1.36304,2.63582 2.63763,9.66057 2.63763,14.53694 0,3.39717 0.18324,3.88425 1.46125,3.88425 1.07159,0 1.46125,0.48709 1.46125,1.82657 0,1.33948 -0.38966,1.82656 -1.46125,1.82656 -1.16235,0 -1.46042,0.48573 -1.45718,2.37454 0.0156,9.09348 5.70447,13.88238 12.38648,10.42698 2.83189,-1.46443 4.73761,-6.50075 4.21484,-11.13873 -0.44254,-3.92619 1.11815,-19.31063 2.25059,-22.1851 1.34061,-3.402873 4.95444,-5.780551 8.78121,-5.77749 8.89412,0.0071 11.43752,5.76029 12.19141,27.57702 0.56949,16.48051 2.05946,22.04474 6.47422,24.17772 3.88786,1.87842 8.09437,-0.78513 9.8512,-6.23775 0.49231,-1.52796 1.0948,-6.47689 1.33885,-10.99764 0.43509,-8.05964 0.41319,-8.21955 -1.1261,-8.21955 -1.18739,0 -1.56983,-0.44497 -1.56983,-1.82656 0,-1.29064 0.39691,-1.82657 1.35274,-1.82657 1.17169,0 1.41159,-0.80665 1.79259,-6.02766 0.82496,-11.30496 3.54206,-15.835538 9.8611,-16.442719 8.68312,-0.834337 13.40632,5.475259 21.46446,28.673749 2.37424,6.83518 5.77085,15.43125 7.54803,19.10237 6.34335,13.10354 13.43351,16.06487 19.92072,8.32022 2.2033,-2.63036 6.0361,-11.3552 9.31544,-21.20531 4.10288,-12.32372 3.88318,-11.72635 7.19696,-19.56894 4.07043,-9.63331 8.25836,-14.468674 13.23016,-15.275486 2.26445,-0.367469 2.56855,-0.232497 2.56855,1.14003 0,0.918956 -0.46391,1.556849 -1.13222,1.556849 -4.01345,0 -8.71513,5.514337 -12.0837,14.172277 -1.78368,4.58445 -1.87299,5.21412 -0.84606,5.96503 1.47307,1.07714 0.68352,3.24272 -1.18226,3.24272 -1.14834,0 -1.90247,1.51678 -4.08674,8.21955 -5.6185,17.2413 -12.20746,27.58301 -18.30231,28.72641 -3.7685,0.70697 -7.92706,-0.73471 -10.87503,-3.77014 -4.46378,-4.59621 -10.7823,-18.47326 -15.76237,-34.61815 -4.1487,-13.44969 -8.85728,-20.60486 -14.22162,-21.61121 -3.90661,-0.732887 -6.39701,0.46601 -8.38365,4.03594 -1.70846,3.07006 -1.75997,3.63518 -1.82657,20.03855 -0.0669,16.48692 -0.11099,16.96345 -1.89509,20.49455 -1.00461,1.98833 -2.70413,4.25196 -3.77672,5.03028 -2.32634,1.68811 -8.3752,1.99977 -11.04816,0.56925 -3.99772,-2.13953 -6.31681,-10.10917 -6.3488,-21.81799 -0.0115,-4.21496 -0.23835,-5.29704 -1.11041,-5.29704 -1.48275,0 -1.39549,-2.68225 0.11477,-3.52743 1.03085,-0.5769 1.14075,-1.50505 0.73982,-6.24809 -0.25899,-3.0638 -0.92835,-6.66542 -1.48749,-8.0036 -3.08922,-7.393568 -12.25278,-7.332964 -14.31569,0.0947 -0.97283,3.50275 -0.99477,14.03131 -0.0292,14.03131 1.10471,0 0.87565,3.44115 -0.25803,3.87618 -0.60833,0.23344 -1.13966,2.04481 -1.38122,4.70877 -0.77999,8.60189 -4.40056,12.12574 -12.01863,11.6976 -3.20148,-0.17993 -4.98645,-0.67187 -6.10247,-1.68185 -3.33221,-3.01561 -3.86489,-5.22534 -4.39585,-18.23538 -0.54215,-13.28409 -1.35341,-16.75034 -4.4236,-18.90079 -4.17337,-2.923141 -8.54587,-0.40587 -12.15019,6.99492 -3.15116,6.47032 -6.22855,17.82376 -10.45557,38.57372 -4.66039,22.87738 -7.23516,33.22062 -10.12461,40.67205 -4.2633,10.99436 -10.20236,15.08533 -16.08917,11.08261 z M 188.89817,161.60715 c 7.85134,-14.74101 18.12975,-32.946 19.18155,-33.97411 0.61665,-0.60277 0.0241,0.87675 -1.31673,3.28782 -1.34085,2.41106 -6.33498,11.44699 -11.09807,20.07984 -4.76308,8.63284 -9.02215,16.03043 -9.4646,16.43908 -0.44245,0.40865 0.77158,-2.21603 2.69785,-5.83263 z m 383.32648,-24.65863 -0.1317,-3.47047 -22.6494,0 c -12.82436,0 -22.64941,-0.28338 -22.64941,-0.65326 0,-0.3593 2.60111,-0.77139 5.78025,-0.91576 5.14075,-0.23346 6.09054,-0.5092 8.58486,-2.49237 2.75417,-2.18976 6.50983,-7.48043 13.76399,-19.38958 4.57851,-7.51653 11.76193,-15.103936 14.89253,-15.730055 l 2.27718,-0.455437 0.1415,-7.397588 0.14149,-7.397588 0.40648,7.256142 c 0.40071,7.153361 0.43478,7.26368 2.40543,7.788299 1.09943,0.292685 3.15431,1.246203 4.56642,2.118928 l 2.56744,1.586773 0,-1.520842 c 0,-0.864775 0.47278,-1.520841 1.09594,-1.520841 0.80269,0 1.09594,0.832968 1.09594,3.112961 0,2.495448 0.67991,4.125938 3.42752,8.219538 1.88513,2.80862 5.36633,8.23001 7.736,12.04753 7.25883,11.69394 10.04226,13.8819 17.65992,13.8819 2.70315,0 4.78536,0.31791 4.78536,0.73062 0,0.68959 -25.65685,1.17928 -39.59346,0.75569 l -5.61934,-0.1708 -0.27663,3.54334 -0.27662,3.54335 z m -0.1317,-22.83206 c 0,-19.620408 0.12358,-19.135232 -4.29229,-16.851697 -3.92219,2.028246 -9.25803,9.064827 -16.92131,22.314827 -1.73781,3.00473 -4.72883,7.0323 -6.64669,8.95017 l -3.48704,3.48704 15.67367,0 15.67366,0 z m 10.22876,15.28226 c 0,-3.30119 1.72473,-3.04963 2.05552,0.29981 l 0.22895,2.31827 10.22292,0 10.22293,0 -3.51093,-3.5785 c -1.93101,-1.96817 -5.81089,-7.29819 -8.62196,-11.84449 -7.17007,-11.59602 -12.10726,-17.695656 -15.80354,-19.524431 -1.69016,-0.836223 -3.34729,-1.350893 -3.68252,-1.143711 -0.33523,0.207181 -0.6095,8.412442 -0.6095,18.233912 l 0,17.85722 4.74907,0 4.74906,0 z m 0,-6.88006 c 0,-0.40185 0.32879,-0.73063 0.73063,-0.73063 0.40184,0 0.73063,0.32878 0.73063,0.73063 0,0.40184 -0.32879,0.73062 -0.73063,0.73062 -0.40184,0 -0.73063,-0.32878 -0.73063,-0.73062 z m 0,-8.09777 c 0,-4.8279 1.73124,-4.5739 2.04926,0.30065 0.17588,2.69596 -0.0161,3.41336 -0.91329,3.41336 -0.87856,0 -1.13597,-0.84158 -1.13597,-3.71401 z m 0,-7.976 c 0,-0.40185 0.32879,-0.73063 0.73063,-0.73063 0.40184,0 0.73063,0.32878 0.73063,0.73063 0,0.40184 -0.32879,0.73062 -0.73063,0.73062 -0.40184,0 -0.73063,-0.32878 -0.73063,-0.73062 z m -376.87115,15.16049 c 0.17895,-1.25997 0.78806,-1.69738 2.60801,-1.87286 2.12095,-0.2045 2.37453,-0.0289 2.37453,1.64391 0,1.66027 -0.29602,1.87285 -2.608,1.87285 -2.2867,0 -2.57924,-0.20253 -2.37454,-1.6439 z m 37.26193,0 c 0.17894,-1.25997 0.78805,-1.69738 2.608,-1.87286 2.12095,-0.2045 2.37454,-0.0289 2.37454,1.64391 0,1.66027 -0.29603,1.87285 -2.60801,1.87285 -2.28669,0 -2.57924,-0.20253 -2.37453,-1.6439 z m 37.86071,-0.18266 c 0,-1.64391 0.29225,-1.82657 2.9225,-1.82657 2.63025,0 2.9225,0.18266 2.9225,1.82657 0,1.64391 -0.29225,1.82656 -2.9225,1.82656 -2.63025,0 -2.9225,-0.18265 -2.9225,-1.82656 z m 38.12439,0.18266 c 0.17894,-1.25997 0.78805,-1.69738 2.608,-1.87286 2.12095,-0.2045 2.37454,-0.0289 2.37454,1.64391 0,1.66027 -0.29603,1.87285 -2.60801,1.87285 -2.28669,0 -2.57924,-0.20253 -2.37453,-1.6439 z m 18.25978,0.0448 c 0.20454,-1.44317 0.66425,-1.68869 3.16184,-1.68869 2.43542,0 2.9225,0.24354 2.9225,1.46125 0,1.20111 -0.56289,1.50174 -3.16184,1.68869 -2.93832,0.21135 -3.14493,0.10805 -2.9225,-1.46125 z m 113.85167,-0.22744 c 0,-1.64391 0.29225,-1.82657 2.92251,-1.82657 2.63025,0 2.9225,0.18266 2.9225,1.82657 0,1.64391 -0.29225,1.82656 -2.9225,1.82656 -2.63026,0 -2.92251,-0.18265 -2.92251,-1.82656 z m 18.99628,0 c 0,-1.60042 0.3166,-1.82657 2.55719,-1.82657 2.24059,0 2.55719,0.22615 2.55719,1.82657 0,1.60042 -0.3166,1.82656 -2.55719,1.82656 -2.24059,0 -2.55719,-0.22614 -2.55719,-1.82656 z m 19.12811,0.18266 c 0.17895,-1.25997 0.78806,-1.69738 2.60801,-1.87286 2.12095,-0.2045 2.37453,-0.0289 2.37453,1.64391 0,1.66027 -0.29602,1.87285 -2.608,1.87285 -2.28669,0 -2.57924,-0.20253 -2.37454,-1.6439 z"
       id="path3820"
       inkscape:connector-curvature="0"
       sodipodi:nodetypes="cssscssssssssssscssssssssscccsssssssssssscsssssssscssssssssssssssssssssssssssssssssssssssssssssssssccccssssscccccsssssccccssssscccsccccccssssssccccscccssssssssssssssssssssssssssssssssssssssssssssssssssssssssssssssssssssssssssssssscsssssssssssssssssscsssssssssssssssssssssssssssssssssssssssssssssssssssssssssssssssssssssssccssssssccsssssscccssscssssssssccccsssscccssscccssssscccsssssssssssssssssssssssssssssssssssssssssssssssssssssss" />
    <text
       xml:space="preserve"
       style="font-size:10.3486414px;font-style:normal;font-weight:normal;line-height:125%;letter-spacing:0px;word-spacing:0px;fill:#000000;fill-opacity:1;stroke:none;font-family:Sans"
       x="157.69933"
       y="201.28036"
       id="text3833"
       sodipodi:linespacing="125%"><tspan
         sodipodi:role="line"
         x="157.69933"
         y="201.28036"
         id="tspan3853">planes</tspan></text>
    <text
       xml:space="preserve"
       style="font-size:13.45477486px;font-style:normal;font-weight:normal;line-height:125%;letter-spacing:0px;word-spacing:0px;fill:#000000;fill-opacity:1;stroke:none;font-family:Sans"
       x="586.13208"
       y="88.979744"
       id="text3841"
       sodipodi:linespacing="125%"><tspan
         sodipodi:role="line"
         id="tspan3843"
         x="586.13208"
         y="88.979744">$\sigma_A$</tspan></text>
    <text
       xml:space="preserve"
       style="font-size:16.32452965px;font-style:normal;font-weight:normal;line-height:125%;letter-spacing:0px;word-spacing:0px;fill:#000000;fill-opacity:1;stroke:none;font-family:Sans"
       x="588.67957"
       y="224.01723"
       id="text3845"
       sodipodi:linespacing="125%"><tspan
         sodipodi:role="line"
         id="tspan3847"
         x="588.67957"
         y="224.01723">$\sigma_B$</tspan></text>
    <text
       xml:space="preserve"
       style="font-size:16.36741257px;font-style:normal;font-weight:normal;line-height:125%;letter-spacing:0px;word-spacing:0px;fill:#000000;fill-opacity:1;stroke:none;font-family:Sans"
       x="362.31885"
       y="191.90695"
       id="text3849"
       sodipodi:linespacing="125%"><tspan
         sodipodi:role="line"
         id="tspan3851"
         x="362.31885"
         y="191.90695">$\bar{h}$</tspan></text>
    <text
       xml:space="preserve"
       style="font-size:11.8503828px;font-style:normal;font-weight:normal;line-height:125%;letter-spacing:0px;word-spacing:0px;fill:#000000;fill-opacity:1;stroke:none;font-family:Sans"
       x="157.40561"
       y="183.11792"
       id="text3893"
       sodipodi:linespacing="125%"><tspan
         sodipodi:role="line"
         id="tspan3895"
         x="157.40561"
         y="183.11792">Reference</tspan></text>
    <text
       xml:space="preserve"
       style="font-size:10.92565632px;font-style:normal;font-weight:normal;line-height:125%;letter-spacing:0px;word-spacing:0px;fill:#000000;fill-opacity:1;stroke:none;font-family:Sans"
       x="314.77365"
       y="85.192215"
       id="text3922"
       sodipodi:linespacing="125%"><tspan
         sodipodi:role="line"
         id="tspan3924"
         x="314.77365"
         y="85.192215">Surface A</tspan></text>
    <text
       xml:space="preserve"
       style="font-size:11.60835075px;font-style:normal;font-weight:normal;line-height:125%;letter-spacing:0px;word-spacing:0px;fill:#000000;fill-opacity:1;stroke:none;font-family:Sans"
       x="314.71078"
       y="299.0899"
       id="text3922-0"
       sodipodi:linespacing="125%"><tspan
         sodipodi:role="line"
         id="tspan3924-7"
         x="314.71078"
         y="299.0899">Surface B</tspan></text>
    <text
       sodipodi:linespacing="125%"
       id="text3037"
       y="182.97974"
       x="526.13208"
       style="font-size:13.45477486px;font-style:normal;font-weight:normal;line-height:125%;letter-spacing:0px;word-spacing:0px;fill:#000000;fill-opacity:1;stroke:none;font-family:Sans"
       xml:space="preserve"><tspan
         y="182.97974"
         x="526.13208"
         id="tspan3039"
         sodipodi:role="line">$\sigma=\sqrt{\sigma_1^2+\sigma_2^2}$</tspan></text>
  </g>
</svg>
