<?xml version="1.0" encoding="UTF-8" standalone="no"?>
<!-- Created with Inkscape (http://www.inkscape.org/) -->

<svg
   xmlns:dc="http://purl.org/dc/elements/1.1/"
   xmlns:cc="http://creativecommons.org/ns#"
   xmlns:rdf="http://www.w3.org/1999/02/22-rdf-syntax-ns#"
   xmlns:svg="http://www.w3.org/2000/svg"
   xmlns="http://www.w3.org/2000/svg"
   xmlns:sodipodi="http://sodipodi.sourceforge.net/DTD/sodipodi-0.dtd"
   xmlns:inkscape="http://www.inkscape.org/namespaces/inkscape"
   id="svg2"
   version="1.1"
   inkscape:version="0.48.5 r10040"
   width="713.90625"
   height="142.40625"
   xml:space="preserve"
   sodipodi:docname="theta_trup.pdf"><metadata
     id="metadata8"><rdf:RDF><cc:Work
         rdf:about=""><dc:format>image/svg+xml</dc:format><dc:type
           rdf:resource="http://purl.org/dc/dcmitype/StillImage" /><dc:title></dc:title></cc:Work></rdf:RDF></metadata><defs
     id="defs6"><clipPath
       clipPathUnits="userSpaceOnUse"
       id="clipPath18"><path
         d="m 0,1 4700,0 0,1049 L 0,1050 0,1 z"
         id="path20"
         inkscape:connector-curvature="0" /></clipPath><clipPath
       clipPathUnits="userSpaceOnUse"
       id="clipPath108"><path
         d="m 611.668,160 3646.66,0 0,811.668 -3646.66,0 0,-811.668 z"
         id="path110"
         inkscape:connector-curvature="0" /></clipPath></defs><sodipodi:namedview
     pagecolor="#ffffff"
     bordercolor="#666666"
     borderopacity="1"
     objecttolerance="10"
     gridtolerance="10"
     guidetolerance="10"
     inkscape:pageopacity="0"
     inkscape:pageshadow="2"
     inkscape:window-width="1920"
     inkscape:window-height="1025"
     id="namedview4"
     showgrid="false"
     fit-margin-top="0"
     fit-margin-left="0"
     fit-margin-right="0"
     fit-margin-bottom="0"
     inkscape:zoom="1.6578723"
     inkscape:cx="434.32277"
     inkscape:cy="102.15321"
     inkscape:window-x="-2"
     inkscape:window-y="-3"
     inkscape:window-maximized="1"
     inkscape:current-layer="g10" /><g
     id="g10"
     inkscape:groupmode="layer"
     inkscape:label="ink_ext_XXXXXX"
     transform="matrix(1.25,0,0,-1.25,56.6875,132.625)"><path
       id="path3269"
       style="fill:none;stroke:#0000ff;stroke-width:2;stroke-linecap:butt;stroke-linejoin:round;stroke-miterlimit:10;stroke-opacity:1;stroke-dasharray:none"
       d="m 247.29699,42.5832 -147.666,0 -0.334,0.0836 -3.75,0 m 0,0 -4.75,0 -0.166,0.0832 -3.334,0 -0.083,0.0832 -2,0 -0.083,0.0836 -1.334,0 -0.083,0.0832 -1,0 -0.083,0.0832 -0.834,0 -0.083,0.0836 -0.583,0 -0.084,0.0832 -0.5,0 -0.083,0.0832 -0.417,0 -0.083,0.0836 -0.417,0 -0.083,0.0832 -0.333,0 -0.084,0.0832 -0.25,0 -0.083,0.0836 -0.25,0 -0.083,0.0832 -0.167,0 -0.083,0.0832 -0.167,0 -0.083,0.0836 -0.25,0 -0.084,0.0832 -0.083,0 -0.083,0.0832 -0.167,0 -0.083,0.0836 -0.084,0 -0.083,0.0832 -0.083,0 -0.084,0.0832 -0.083,0 -0.083,0.0836 -0.084,0 -0.083,0.0832 -0.083,0 -0.084,0.0832 -0.083,0 -0.083,0.0836 -0.084,0 -0.083,0.0832 -0.083,0.0832 -0.084,0 -0.083,0.0836 -0.083,0 -0.084,0.0832 -0.083,0.0832 -0.083,0.0836 -0.084,0 -0.083,0.0832 -0.083,0.0832 -0.084,0.0836 -0.083,0.0832 -0.083,0.0832 -0.084,0.0836 -0.083,0.0832 -0.083,0.0832 -0.084,0.0836 -0.083,0.0832 -0.083,0.0832 -0.084,0.0836 -0.083,0.0832 -0.167,0.1668 0,0.0832 -0.083,0.0832 -0.167,0.1668 0,0.0832 -0.166,0.1668 0,0.0832 -0.167,0.1668 0,0.1668 -0.083,0.0832 -0.167,0.1668 0,0.1664 -0.167,0.1668 0,0.1668 -0.083,0.0832 0,0.0832 -0.083,0.0836 0,0.1664 -0.167,0.1668 0,0.25 -0.083,0.0832 0,0.0836 -0.084,0.0832 0,0.1668 -0.083,0.0832 0,0.1668 -0.083,0.0832 0,0.1668 -0.084,0.0832 0,0.1668 -0.083,0.0832 0,0.25 -0.083,0.0832 0,0.1668 -0.084,0.0832 0,0.25 -0.083,0.0836 0,0.1664 -0.083,0.0836 0,0.3332 -0.084,0.0832 0,0.25 -0.083,0.0836 0,0.3332 -0.083,0.0832 0,0.25 -0.084,0.0836 0,0.3332 -0.083,0.0832 0,0.4168 -0.083,0.0832 0,0.4168 -0.084,0.0832 0,0.4168 -0.083,0.0832 0,0.5 -0.083,0.0836 0,0.5 -0.084,0.0832 0,0.5 -0.083,0.0832 0,0.5836 -0.083,0.0832 0,0.6668 -0.084,0.0832 0,0.75 -0.083,0.0832 0,0.75 -0.083,0.0836 0,0.8332 -0.084,0.0832 0,0.9168 -0.083,0.0832 0,1.0836 -0.083,0.0832 0,1.1668 -0.084,0.0832 0,1.3332 -0.083,0.0836 0,1.5 -0.083,0.0832 0,1.75 -0.084,0.0832 0,2.0836 -0.083,0.0832 0,2.5 -0.083,0.0832 0,3.1668 -0.084,0.0832 0,4.25 -0.083,0.0836 0,7.5832 -0.083,0.0832 0,8.3336 -8.45371,0 M 239.667,42.5832 l 147.666,0 0.334,0.0836 3.75,0 m 0,0 4.75,0 0.166,0.0832 3.334,0 0.083,0.0832 2,0 0.083,0.0836 1.334,0 0.083,0.0832 1,0 0.083,0.0832 0.834,0 0.083,0.0836 0.583,0 0.084,0.0832 0.5,0 0.083,0.0832 0.417,0 0.083,0.0836 0.417,0 0.083,0.0832 0.333,0 0.084,0.0832 0.25,0 0.083,0.0836 0.25,0 0.083,0.0832 0.167,0 0.083,0.0832 0.167,0 0.083,0.0836 0.25,0 0.084,0.0832 0.083,0 0.083,0.0832 0.167,0 0.083,0.0836 0.084,0 0.083,0.0832 0.083,0 0.084,0.0832 0.083,0 0.083,0.0836 0.084,0 0.083,0.0832 0.083,0 0.084,0.0832 0.083,0 0.083,0.0836 0.084,0 0.083,0.0832 0.083,0.0832 0.084,0 0.083,0.0836 0.083,0 0.084,0.0832 0.083,0.0832 0.083,0.0836 0.084,0 0.083,0.0832 0.083,0.0832 0.084,0.0836 0.083,0.0832 0.083,0.0832 0.084,0.0836 0.083,0.0832 0.083,0.0832 0.084,0.0836 0.083,0.0832 0.083,0.0832 0.084,0.0836 0.083,0.0832 0.167,0.1668 0,0.0832 0.083,0.0832 0.167,0.1668 0,0.0832 0.166,0.1668 0,0.0832 0.167,0.1668 0,0.1668 0.083,0.0832 0.167,0.1668 0,0.1664 0.167,0.1668 0,0.1668 0.083,0.0832 0,0.0832 0.083,0.0836 0,0.1664 0.167,0.1668 0,0.25 0.083,0.0832 0,0.0836 0.084,0.0832 0,0.1668 0.083,0.0832 0,0.1668 0.083,0.0832 0,0.1668 0.084,0.0832 0,0.1668 0.083,0.0832 0,0.25 0.083,0.0832 0,0.1668 0.084,0.0832 0,0.25 0.083,0.0836 0,0.1664 0.083,0.0836 0,0.3332 0.084,0.0832 0,0.25 0.083,0.0836 0,0.3332 0.083,0.0832 0,0.25 0.084,0.0836 0,0.3332 0.083,0.0832 0,0.4168 0.083,0.0832 0,0.4168 0.084,0.0832 0,0.4168 0.083,0.0832 0,0.5 0.083,0.0836 0,0.5 0.084,0.0832 0,0.5 0.083,0.0832 0,0.5836 0.083,0.0832 0,0.6668 0.084,0.0832 0,0.75 0.083,0.0832 0,0.75 0.083,0.0836 0,0.8332 0.084,0.0832 0,0.9168 0.083,0.0832 0,1.0836 0.083,0.0832 0,1.1668 0.084,0.0832 0,1.3332 0.083,0.0836 0,1.5 0.083,0.0832 0,1.75 0.084,0.0832 0,2.0836 L 417,71 l 0,2.5 0.083,0.0832 0,3.1668 0.084,0.0832 0,4.25 0.083,0.0836 0,7.5832 0.083,0.0832 0,8.3336 8.45371,0"
       inkscape:connector-curvature="0" /><path
       id="path118"
       style="fill:none;stroke:#ff0000;stroke-width:2;stroke-linecap:butt;stroke-linejoin:round;stroke-miterlimit:10;stroke-opacity:1;stroke-dasharray:8, 8;stroke-dashoffset:0"
       d="m 61.1668,97.1668 7.25,0 0.8332,-1.0836 0.75,-27.4164 0.8332,-11.5836 0.8336,-5 0.8332,-2.9164 0.75,-1.75 0.8332,-1.25 0.8336,-0.8336 0.8332,-0.5832 0.75,-0.5 0.8332,-0.3332 0.8336,-0.25 0.75,-0.1668 0.8332,-0.1668 0.8332,-0.1664 0.8336,-0.0836 L 82.1668,43 83,42.9168 l 0.8332,0 0.75,-0.1668 1.6668,0 0.8332,-0.0832 4,0 0.8336,-0.0836 4.8332,0 0.8332,-0.0832 85.9168,0 m 0,0 205.75,0 0.833,0.0832 4.834,0 0.833,0.0836 4,0 0.833,0.0832 1.667,0 0.75,0.1668 0.833,0 0.834,0.0832 0.75,0.0832 0.833,0.0836 0.833,0.1664 0.834,0.1668 0.75,0.1668 0.833,0.25 0.833,0.3332 0.834,0.5 0.75,0.5832 0.833,0.8336 0.833,1.25 0.75,1.75 0.834,2.9164 0.833,5 0.833,11.5836 0.75,27.4164 0.834,1.0836 7.333,0"
       inkscape:connector-curvature="0" /><text
       transform="scale(1,-1)"
       id="text36"
       x="57.333199"
       y="-0.25"><tspan
         style="font-size:14px;font-variant:normal;font-weight:normal;writing-mode:lr-tb;fill:#000000;fill-opacity:1;fill-rule:nonzero;stroke:none;font-family:Helvetica;-inkscape-font-specification:Helvetica"
         x="57.333199"
         y="-0.25"
         id="tspan38">0</tspan></text>
<text
       transform="scale(1,-1)"
       id="text44"
       x="124.417"
       y="-0.25"><tspan
         style="font-size:14px;font-variant:normal;font-weight:normal;writing-mode:lr-tb;fill:#000000;fill-opacity:1;fill-rule:nonzero;stroke:none;font-family:Helvetica;-inkscape-font-specification:Helvetica"
         x="124.417 132.201 136.093"
         y="-0.25"
         sodipodi:role="line"
         id="tspan46">0.2</tspan></text>
<text
       transform="scale(1,-1)"
       id="text52"
       x="197.33299"
       y="-0.25"><tspan
         style="font-size:14px;font-variant:normal;font-weight:normal;writing-mode:lr-tb;fill:#000000;fill-opacity:1;fill-rule:nonzero;stroke:none;font-family:Helvetica;-inkscape-font-specification:Helvetica"
         x="197.33299 205.117 209.009"
         y="-0.25"
         sodipodi:role="line"
         id="tspan54">0.4</tspan></text>
<text
       transform="scale(1,-1)"
       id="text60"
       x="270.25"
       y="-0.25"><tspan
         style="font-size:14px;font-variant:normal;font-weight:normal;writing-mode:lr-tb;fill:#000000;fill-opacity:1;fill-rule:nonzero;stroke:none;font-family:Helvetica;-inkscape-font-specification:Helvetica"
         x="270.25 278.034 281.92599"
         y="-0.25"
         sodipodi:role="line"
         id="tspan62">0.6</tspan></text>
<text
       transform="scale(1,-1)"
       id="text68"
       x="343.16699"
       y="-0.25"><tspan
         style="font-size:14px;font-variant:normal;font-weight:normal;writing-mode:lr-tb;fill:#000000;fill-opacity:1;fill-rule:nonzero;stroke:none;font-family:Helvetica;-inkscape-font-specification:Helvetica"
         x="343.16699 350.95099 354.84299"
         y="-0.25"
         sodipodi:role="line"
         id="tspan70">0.8</tspan></text>
<text
       transform="scale(1,-1)"
       id="text76"
       x="421.91699"
       y="-0.25"><tspan
         style="font-size:14px;font-variant:normal;font-weight:normal;writing-mode:lr-tb;fill:#000000;fill-opacity:1;fill-rule:nonzero;stroke:none;font-family:Helvetica;-inkscape-font-specification:Helvetica"
         x="421.91699"
         y="-0.25"
         id="tspan78">1</tspan></text>
<text
       transform="scale(1,-1)"
       id="text84"
       x="38.833199"
       y="-10.9168"><tspan
         style="font-size:14px;font-variant:normal;font-weight:normal;writing-mode:lr-tb;fill:#000000;fill-opacity:1;fill-rule:nonzero;stroke:none;font-family:Helvetica;-inkscape-font-specification:Helvetica"
         x="38.833199 46.617199 50.509201"
         y="-10.9168"
         sodipodi:role="line"
         id="tspan86">0.8</tspan></text>
<text
       transform="scale(1,-1)"
       id="text92"
       x="38.833199"
       y="-51.5"><tspan
         style="font-size:14px;font-variant:normal;font-weight:normal;writing-mode:lr-tb;fill:#000000;fill-opacity:1;fill-rule:nonzero;stroke:none;font-family:Helvetica;-inkscape-font-specification:Helvetica"
         x="38.833199 46.617199 50.509201"
         y="-51.5"
         sodipodi:role="line"
         id="tspan94">0.9</tspan></text>
<g
       id="g3256"><path
         d="m 61.1668,16.0832 364.5832,0"
         style="fill:none;stroke:#000000;stroke-width:0.5;stroke-linecap:butt;stroke-linejoin:round;stroke-miterlimit:10;stroke-opacity:1;stroke-dasharray:none"
         id="path28"
         inkscape:connector-curvature="0" /><path
         d="m 61.1668,16.0832 0,81.0836"
         style="fill:none;stroke:#000000;stroke-width:0.5;stroke-linecap:butt;stroke-linejoin:round;stroke-miterlimit:10;stroke-opacity:1;stroke-dasharray:none"
         id="path30"
         inkscape:connector-curvature="0" /><path
         d="m 61.1668,16.0832 0,3.6668"
         style="fill:none;stroke:#000000;stroke-width:0.5;stroke-linecap:butt;stroke-linejoin:round;stroke-miterlimit:10;stroke-opacity:1;stroke-dasharray:none"
         id="path32"
         inkscape:connector-curvature="0" /><path
         d="m 134.083,16.0832 0,3.6668"
         style="fill:none;stroke:#000000;stroke-width:0.5;stroke-linecap:butt;stroke-linejoin:round;stroke-miterlimit:10;stroke-opacity:1;stroke-dasharray:none"
         id="path40"
         inkscape:connector-curvature="0" /><path
         d="m 207,16.0832 0,3.6668"
         style="fill:none;stroke:#000000;stroke-width:0.5;stroke-linecap:butt;stroke-linejoin:round;stroke-miterlimit:10;stroke-opacity:1;stroke-dasharray:none"
         id="path48"
         inkscape:connector-curvature="0" /><path
         d="m 279.917,16.0832 0,3.6668"
         style="fill:none;stroke:#000000;stroke-width:0.5;stroke-linecap:butt;stroke-linejoin:round;stroke-miterlimit:10;stroke-opacity:1;stroke-dasharray:none"
         id="path56"
         inkscape:connector-curvature="0" /><path
         d="m 352.833,16.0832 0,3.6668"
         style="fill:none;stroke:#000000;stroke-width:0.5;stroke-linecap:butt;stroke-linejoin:round;stroke-miterlimit:10;stroke-opacity:1;stroke-dasharray:none"
         id="path64"
         inkscape:connector-curvature="0" /><path
         d="m 425.75,16.0832 0,3.6668"
         style="fill:none;stroke:#000000;stroke-width:0.5;stroke-linecap:butt;stroke-linejoin:round;stroke-miterlimit:10;stroke-opacity:1;stroke-dasharray:none"
         id="path72"
         inkscape:connector-curvature="0" /><path
         d="m 61.1668,16.0832 3.5832,0"
         style="fill:none;stroke:#000000;stroke-width:0.5;stroke-linecap:butt;stroke-linejoin:round;stroke-miterlimit:10;stroke-opacity:1;stroke-dasharray:none"
         id="path80"
         inkscape:connector-curvature="0" /><path
         d="m 61.1668,56.6668 3.5832,0"
         style="fill:none;stroke:#000000;stroke-width:0.5;stroke-linecap:butt;stroke-linejoin:round;stroke-miterlimit:10;stroke-opacity:1;stroke-dasharray:none"
         id="path88"
         inkscape:connector-curvature="0" /><path
         d="m 61.1668,97.1668 3.5832,0"
         style="fill:none;stroke:#000000;stroke-width:0.5;stroke-linecap:butt;stroke-linejoin:round;stroke-miterlimit:10;stroke-opacity:1;stroke-dasharray:none"
         id="path96"
         inkscape:connector-curvature="0" /></g><text
       transform="scale(1,-1)"
       id="text100"
       x="50.5"
       y="-92"><tspan
         style="font-size:14px;font-variant:normal;font-weight:normal;writing-mode:lr-tb;fill:#000000;fill-opacity:1;fill-rule:nonzero;stroke:none;font-family:Helvetica;-inkscape-font-specification:Helvetica"
         x="50.5"
         y="-92"
         id="tspan102">1</tspan></text>
<path
       style="fill:none;stroke:#0000ff;stroke-width:2.5;stroke-linecap:butt;stroke-linejoin:miter;stroke-miterlimit:4;stroke-opacity:1;stroke-dasharray:none"
       d="m 602.23864,22.982158 30.31133,0"
       id="path4042"
       inkscape:connector-curvature="0"
       transform="matrix(0.8,0,0,-0.8,-45.35,106.1)"
       sodipodi:nodetypes="cc" /><path
       inkscape:connector-curvature="0"
       id="path4044"
       d="m 436.44091,73.314274 24.24907,0"
       style="fill:none;stroke:#ff0000;stroke-width:2;stroke-linecap:butt;stroke-linejoin:miter;stroke-miterlimit:4;stroke-opacity:1;stroke-dasharray:8, 8;stroke-dashoffset:0"
       sodipodi:nodetypes="cc" /><text
       xml:space="preserve"
       style="font-size:8.56510162px;font-style:normal;font-weight:normal;line-height:125%;letter-spacing:0px;word-spacing:0px;fill:#000000;fill-opacity:1;stroke:none;font-family:Sans"
       x="466.28659"
       y="-86.04451"
       id="text3020"
       sodipodi:linespacing="125%"
       transform="scale(1,-1)"><tspan
         sodipodi:role="line"
         id="tspan3022"
         x="466.28659"
         y="-86.04451">analytic sol.</tspan></text>
<text
       transform="scale(1,-1)"
       sodipodi:linespacing="125%"
       id="text3024"
       y="-71.16198"
       x="466.28659"
       style="font-size:8.56510162px;font-style:normal;font-weight:normal;line-height:125%;letter-spacing:0px;word-spacing:0px;fill:#000000;fill-opacity:1;stroke:none;font-family:Sans"
       xml:space="preserve"><tspan
         y="-71.16198"
         x="466.28659"
         id="tspan3026"
         sodipodi:role="line">numerical sol.</tspan></text>
<text
       xml:space="preserve"
       style="font-size:8.58416557px;font-style:normal;font-weight:normal;line-height:125%;letter-spacing:0px;word-spacing:0px;fill:#000000;fill-opacity:1;stroke:none;font-family:Sans"
       x="50.924805"
       y="30.407286"
       id="text3488"
       sodipodi:linespacing="125%"
       transform="matrix(0,1,1,0,0,0)"><tspan
         sodipodi:role="line"
         id="tspan3490"
         x="50.924805"
         y="30.407286">$\theta$</tspan></text>
<text
       transform="scale(1,-1)"
       sodipodi:linespacing="125%"
       id="text3492"
       y="6.9235682"
       x="237.23233"
       style="font-size:8.58416557px;font-style:normal;font-weight:normal;line-height:125%;letter-spacing:0px;word-spacing:0px;fill:#000000;fill-opacity:1;stroke:none;font-family:Sans"
       xml:space="preserve"><tspan
         y="6.9235682"
         x="237.23233"
         id="tspan3494"
         sodipodi:role="line">$x$</tspan></text>
</g></svg>