<?xml version="1.0" encoding="UTF-8" standalone="no"?>
<!-- Created with Inkscape (http://www.inkscape.org/) -->

<svg
   xmlns:dc="http://purl.org/dc/elements/1.1/"
   xmlns:cc="http://creativecommons.org/ns#"
   xmlns:rdf="http://www.w3.org/1999/02/22-rdf-syntax-ns#"
   xmlns:svg="http://www.w3.org/2000/svg"
   xmlns="http://www.w3.org/2000/svg"
   xmlns:sodipodi="http://sodipodi.sourceforge.net/DTD/sodipodi-0.dtd"
   xmlns:inkscape="http://www.inkscape.org/namespaces/inkscape"
   width="509.1875"
   height="257.78125"
   id="svg2"
   version="1.1"
   inkscape:version="0.48.5 r10040"
   sodipodi:docname="tubo_example2.pdf">
  <defs
     id="defs4">
    <marker
       inkscape:stockid="StopL"
       orient="auto"
       refY="0"
       refX="0"
       id="StopL"
       style="overflow:visible">
      <path
         id="path3980"
         d="M 0,5.65 0,-5.65"
         style="fill:none;stroke:#000000;stroke-width:1pt"
         transform="scale(0.8,0.8)"
         inkscape:connector-curvature="0" />
    </marker>
    <marker
       style="overflow:visible"
       id="DistanceStart"
       refX="0"
       refY="0"
       orient="auto"
       inkscape:stockid="DistanceStart">
      <g
         id="g2300">
        <path
           style="fill:none;stroke:#ffffff;stroke-width:1.14999998;stroke-linecap:square"
           d="M 0,0 2,0"
           id="path2306"
           inkscape:connector-curvature="0" />
        <path
           style="fill:#000000;fill-rule:evenodd;stroke:none"
           d="M 0,0 13,4 9,0 13,-4 0,0 z"
           id="path2302"
           inkscape:connector-curvature="0" />
        <path
           style="fill:none;stroke:#000000;stroke-width:1;stroke-linecap:square"
           d="M 0,-4 0,40"
           id="path2304"
           inkscape:connector-curvature="0" />
      </g>
    </marker>
    <marker
       inkscape:stockid="Arrow1Lend"
       orient="auto"
       refY="0"
       refX="0"
       id="Arrow1Lend"
       style="overflow:visible">
      <path
         id="path4967"
         d="M 0,0 5,-5 -12.5,0 5,5 0,0 z"
         style="fill-rule:evenodd;stroke:#000000;stroke-width:1pt"
         transform="matrix(-0.8,0,0,-0.8,-10,0)"
         inkscape:connector-curvature="0" />
    </marker>
    <clipPath
       id="clipPath3264"
       clipPathUnits="userSpaceOnUse">
      <path
         id="path3266"
         d="m 282.5,128.332 3472.5,0 0,2740 -3472.5,0 0,-2740 z"
         inkscape:connector-curvature="0" />
    </clipPath>
    <clipPath
       id="clipPath3020"
       clipPathUnits="userSpaceOnUse">
      <path
         id="path3022"
         d="m 3,7 3817,0 0,2953 L 3,2960 3,7 z"
         inkscape:connector-curvature="0" />
    </clipPath>
    <clipPath
       id="clipPath3259"
       clipPathUnits="userSpaceOnUse">
      <path
         id="path3261"
         d="m 172.5,128.332 3472.5,0 0,2740 -3472.5,0 0,-2740 z"
         inkscape:connector-curvature="0" />
    </clipPath>
    <clipPath
       id="clipPath3075"
       clipPathUnits="userSpaceOnUse">
      <path
         id="path3077"
         d="m 5,7 3705,0 0,2953 L 5,2960 5,7 z"
         inkscape:connector-curvature="0" />
    </clipPath>
    <marker
       inkscape:stockid="Arrow1Lend"
       orient="auto"
       refY="0"
       refX="0"
       id="Arrow1Lend-9"
       style="overflow:visible">
      <path
         id="path4967-2"
         d="M 0,0 5,-5 -12.5,0 5,5 0,0 z"
         style="fill-rule:evenodd;stroke:#000000;stroke-width:1pt"
         transform="matrix(-0.8,0,0,-0.8,-10,0)"
         inkscape:connector-curvature="0" />
    </marker>
    <marker
       inkscape:stockid="Arrow1Lend"
       orient="auto"
       refY="0"
       refX="0"
       id="Arrow1Lend-5"
       style="overflow:visible">
      <path
         id="path4967-7"
         d="M 0,0 5,-5 -12.5,0 5,5 0,0 z"
         style="fill-rule:evenodd;stroke:#000000;stroke-width:1pt"
         transform="matrix(-0.8,0,0,-0.8,-10,0)"
         inkscape:connector-curvature="0" />
    </marker>
    <marker
       inkscape:stockid="Arrow1Lend"
       orient="auto"
       refY="0"
       refX="0"
       id="Arrow1Lend-7"
       style="overflow:visible">
      <path
         id="path4967-6"
         d="M 0,0 5,-5 -12.5,0 5,5 0,0 z"
         style="fill-rule:evenodd;stroke:#000000;stroke-width:1pt"
         transform="matrix(-0.8,0,0,-0.8,-10,0)"
         inkscape:connector-curvature="0" />
    </marker>
    <marker
       inkscape:stockid="Arrow1Lend"
       orient="auto"
       refY="0"
       refX="0"
       id="Arrow1Lend-74"
       style="overflow:visible">
      <path
         id="path4967-20"
         d="M 0,0 5,-5 -12.5,0 5,5 0,0 z"
         style="fill-rule:evenodd;stroke:#000000;stroke-width:1pt"
         transform="matrix(-0.8,0,0,-0.8,-10,0)"
         inkscape:connector-curvature="0" />
    </marker>
    <marker
       inkscape:stockid="Arrow1Lend"
       orient="auto"
       refY="0"
       refX="0"
       id="Arrow1Lend-2"
       style="overflow:visible">
      <path
         id="path4967-75"
         d="M 0,0 5,-5 -12.5,0 5,5 0,0 z"
         style="fill-rule:evenodd;stroke:#000000;stroke-width:1pt"
         transform="matrix(-0.8,0,0,-0.8,-10,0)"
         inkscape:connector-curvature="0" />
    </marker>
    <clipPath
       id="clipPath5126"
       clipPathUnits="userSpaceOnUse">
      <path
         id="path5128"
         d="m 172.5,128.332 3472.5,0 0,2740 -3472.5,0 0,-2740 z" />
    </clipPath>
    <clipPath
       id="clipPath4942"
       clipPathUnits="userSpaceOnUse">
      <path
         id="path4944"
         d="m 5,7 3705,0 0,2953 L 5,2960 5,7 z" />
    </clipPath>
  </defs>
  <sodipodi:namedview
     id="base"
     pagecolor="#ffffff"
     bordercolor="#666666"
     borderopacity="1.0"
     inkscape:pageopacity="0.0"
     inkscape:pageshadow="2"
     inkscape:zoom="2.8"
     inkscape:cx="229.29838"
     inkscape:cy="130.23161"
     inkscape:document-units="px"
     inkscape:current-layer="layer1"
     showgrid="true"
     showguides="true"
     inkscape:guide-bbox="true"
     fit-margin-top="0"
     fit-margin-left="0"
     fit-margin-right="0"
     fit-margin-bottom="0"
     inkscape:window-width="1920"
     inkscape:window-height="1060"
     inkscape:window-x="-2"
     inkscape:window-y="-3"
     inkscape:window-maximized="1"
     inkscape:snap-grids="false">
    <inkscape:grid
       type="xygrid"
       id="grid3027"
       empspacing="5"
       visible="true"
       enabled="true"
       snapvisiblegridlinesonly="true"
       originx="-562.96875px"
       originy="-152.21875px" />
  </sodipodi:namedview>
  <metadata
     id="metadata7">
    <rdf:RDF>
      <cc:Work
         rdf:about="">
        <dc:format>image/svg+xml</dc:format>
        <dc:type
           rdf:resource="http://purl.org/dc/dcmitype/StillImage" />
        <dc:title></dc:title>
      </cc:Work>
    </rdf:RDF>
  </metadata>
  <g
     inkscape:label="Layer 1"
     inkscape:groupmode="layer"
     id="layer1"
     transform="translate(-690.53125,28.0625)">
    <path
       style="opacity:0.31818182;fill:none;stroke:#000000;stroke-width:0.62500000000000000;stroke-linecap:butt;stroke-linejoin:miter;stroke-miterlimit:4;stroke-opacity:1;stroke-dasharray:none;marker-mid:url(#Arrow1Lend)"
       d="m 727.49093,43.17392 c 0,0 29.81859,23.735568 34.52073,27.057402 10.07905,7.12035 34.88376,33.988758 50.89918,39.162018 15.02284,4.85263 37.52548,0.75995 59.48664,-9.25647"
       id="path4954"
       inkscape:connector-curvature="0"
       sodipodi:nodetypes="cssc" />
    <path
       style="opacity:0.31818183;fill:none;stroke:#000000;stroke-width:0.625;stroke-linecap:butt;stroke-linejoin:miter;stroke-miterlimit:4;stroke-opacity:1;stroke-dasharray:none;marker-mid:url(#Arrow1Lend)"
       d="m 728.63072,176.35993 c 0,0 31.94435,-0.25054 45.69295,-0.0313 13.74859,0.21923 38.36452,-0.094 44.7534,-0.21923 12.77773,-0.25054 52.9741,-1.25271 52.9741,-1.25271"
       id="path4956"
       inkscape:connector-curvature="0"
       sodipodi:nodetypes="cssc" />
    <text
       xml:space="preserve"
       style="font-size:13.42943668px;font-style:normal;font-weight:normal;line-height:125%;letter-spacing:0px;word-spacing:0px;fill:#000000;fill-opacity:1;stroke:none;font-family:Sans"
       x="689.34845"
       y="190.7462"
       id="text6326"
       sodipodi:linespacing="125%"><tspan
         sodipodi:role="line"
         id="tspan6328"
         x="689.34845"
         y="190.7462">$p=0$</tspan></text>
    <text
       sodipodi:linespacing="125%"
       id="text6374"
       y="215.61601"
       x="977.70514"
       style="font-size:11.21522236px;font-style:normal;font-weight:normal;line-height:125%;letter-spacing:0px;word-spacing:0px;fill:#000000;fill-opacity:1;stroke:none;font-family:Sans"
       xml:space="preserve"><tspan
         y="215.61601"
         x="977.70514"
         id="tspan6376"
         sodipodi:role="line">reformation</tspan></text>
    <path
       id="path3083"
       style="fill:none;stroke:#ffffff;stroke-width:0.625;stroke-linecap:butt;stroke-linejoin:round;stroke-miterlimit:10;stroke-opacity:1;stroke-dasharray:none"
       d="m 727.65178,332.65758 433.95872,0 0,-342.395 -433.95872,0 0,342.395 z"
       inkscape:connector-curvature="0" />
    <path
       style="fill:none;stroke:#008000;stroke-width:2;stroke-linecap:butt;stroke-linejoin:round;stroke-miterlimit:10;stroke-opacity:1;stroke-dasharray:none"
       d="m 727.65178,-9.73767 c 15.59986,0.7470053 25.89102,14.6054808 34.7915,25.8325 17.57888,22.991591 29.9651,50.250685 51.771,69.7925 8.83334,8.058975 22.66283,11.39436 33.125,4.375 17.39093,-10.837896 27.9721,-29.295651 39.55856,-45.639973 12.87406,-18.056056 24.28077,-38.6882424 43.67019,-50.610027 11.41878,-6.971309 25.95851,-3.4288194 35.625,4.895 24.63963,19.633032 38.70237,49.834102 64.58377,68.125 10.5827,7.752996 25.3864,8.914319 36.5625,1.6675 21.5516,-13.29286 35.0996,-35.551438 52.3648,-53.480965 11.1723,-11.7610486 24.5604,-24.8999867 41.9064,-24.956535"
       id="path3269"
       inkscape:connector-curvature="0" />
    <path
       sodipodi:nodetypes="cc"
       inkscape:connector-curvature="0"
       id="path3971-4"
       d="m 728.44023,203.32519 c 170.5007,0 292.10147,0.18397 433.95867,0"
       style="fill:none;stroke:#008000;stroke-width:2;stroke-linecap:butt;stroke-linejoin:round;stroke-miterlimit:10;stroke-opacity:1;stroke-dasharray:none" />
    <path
       style="fill:none;stroke:#ff0000;stroke-width:0.50000000000000000;stroke-linecap:butt;stroke-linejoin:round;stroke-miterlimit:10;stroke-opacity:1;stroke-dasharray:4, 4;stroke-dashoffset:0"
       d="m 726.26423,187.139 c 170.5007,0 292.10147,0.18397 433.95867,0"
       id="path3984-8"
       inkscape:connector-curvature="0"
       sodipodi:nodetypes="cc" />
    <path
       style="fill:none;stroke:#000000;stroke-width:0.50000000000000000;stroke-linecap:butt;stroke-linejoin:miter;stroke-miterlimit:4;stroke-opacity:1;stroke-dasharray:0.50000000000000000, 2;stroke-dashoffset:0;opacity:0.61983471"
       d="m 872.06249,202.29464 0,-135.53571"
       id="path3805"
       inkscape:connector-curvature="0"
       sodipodi:nodetypes="cc" />
    <path
       style="fill:none;stroke:#000000;stroke-width:0.50000000000000000;stroke-linecap:butt;stroke-linejoin:miter;stroke-miterlimit:4;stroke-opacity:1;stroke-dasharray:0.50000000000000000, 2;stroke-dashoffset:0;opacity:0.61983471"
       d="m 1005.7573,202.30918 0,-159.10865"
       id="path3807"
       inkscape:connector-curvature="0" />
    <path
       style="fill:none;stroke:#000000;stroke-width:0.50000000000000000;stroke-linecap:butt;stroke-linejoin:miter;stroke-miterlimit:4;stroke-opacity:1;stroke-dasharray:0.50000000000000000, 2;stroke-dashoffset:0;opacity:0.61983471"
       d="m 1071.7396,201.67727 0,-135.448112"
       id="path3809"
       inkscape:connector-curvature="0"
       sodipodi:nodetypes="cc" />
    <path
       style="opacity:0.31818182;fill:none;stroke:#000000;stroke-width:0.62500000000000000;stroke-linecap:butt;stroke-linejoin:miter;stroke-miterlimit:4;stroke-opacity:1;stroke-dasharray:none;marker-mid:url(#Arrow1Lend)"
       d="m 729.03338,128.30648 c 0,0 25.04522,4.40558 39.08803,7.66188 15.04343,3.48833 54.47406,4.54729 64.31615,4.79645 19.68417,0.49834 39.36832,-1.24583 39.36832,-1.24583"
       id="path4958-2"
       inkscape:connector-curvature="0"
       sodipodi:nodetypes="cssc" />
    <text
       xml:space="preserve"
       style="font-size:9.86758232px;font-style:normal;font-weight:normal;line-height:125%;letter-spacing:0px;word-spacing:0px;fill:#000000;fill-opacity:1;stroke:none;font-family:Sans"
       x="932.01447"
       y="127.02244"
       id="text6322-6"
       sodipodi:linespacing="125%"><tspan
         sodipodi:role="line"
         id="tspan6324-1"
         x="932.01447"
         y="127.02244">$\Omega\setminus\omega$</tspan></text>
    <text
       xml:space="preserve"
       style="font-size:9.86758232px;font-style:normal;font-weight:normal;line-height:125%;letter-spacing:0px;word-spacing:0px;fill:#000000;fill-opacity:1;stroke:none;font-family:Sans"
       x="1111.4788"
       y="127.02243"
       id="text6322-6-5"
       sodipodi:linespacing="125%"><tspan
         sodipodi:role="line"
         id="tspan6324-1-7"
         x="1111.4788"
         y="127.02243">$\Omega\setminus\omega$</tspan></text>
    <text
       xml:space="preserve"
       style="font-size:11.21522236px;font-style:normal;font-weight:normal;line-height:125%;letter-spacing:0px;word-spacing:0px;fill:#000000;fill-opacity:1;stroke:none;font-family:Sans"
       x="854.43542"
       y="215.59624"
       id="text6370-4"
       sodipodi:linespacing="125%"><tspan
         sodipodi:role="line"
         id="tspan6372-9"
         x="854.43542"
         y="215.59624">rupture</tspan></text>
    <text
       xml:space="preserve"
       style="font-size:11.21522236px;font-style:normal;font-weight:normal;line-height:125%;letter-spacing:0px;word-spacing:0px;fill:#000000;fill-opacity:1;stroke:none;font-family:Sans"
       x="1058.2458"
       y="215.59624"
       id="text6370-4-9"
       sodipodi:linespacing="125%"><tspan
         sodipodi:role="line"
         id="tspan6372-9-2"
         x="1058.2458"
         y="215.59624">rupture</tspan></text>
    <text
       xml:space="preserve"
       style="font-size:9.86758232px;font-style:normal;font-weight:normal;line-height:125%;letter-spacing:0px;word-spacing:0px;fill:#000000;fill-opacity:1;stroke:none;font-family:Sans"
       x="1026.2333"
       y="156.5894"
       id="text6322-6-2"
       sodipodi:linespacing="125%"><tspan
         sodipodi:role="line"
         id="tspan6324-1-6"
         x="1026.2333"
         y="156.5894">$\omega$</tspan></text>
    <text
       xml:space="preserve"
       style="font-size:9.86758232px;font-style:normal;font-weight:normal;line-height:125%;letter-spacing:0px;word-spacing:0px;fill:#000000;fill-opacity:1;stroke:none;font-family:Sans"
       x="791.66931"
       y="157.66084"
       id="text6322-6-2-8"
       sodipodi:linespacing="125%"><tspan
         sodipodi:role="line"
         x="791.66931"
         y="157.66084"
         id="tspan4011">$\omega$</tspan></text>
    <path
       id="path4946"
       style="fill:#ffffff;fill-opacity:1;fill-rule:nonzero;stroke:none"
       d="m 1321.639,348.62134 463.125,0 0,-369.125 -463.125,0 0,369.125 z"
       inkscape:connector-curvature="0" />
    <path
       id="path4950"
       style="fill:none;stroke:#ffffff;stroke-width:0.625;stroke-linecap:butt;stroke-linejoin:round;stroke-miterlimit:10;stroke-opacity:1;stroke-dasharray:none"
       d="m 1342.5765,333.35034 433.9588,0 0,-342.395 -433.9588,0 0,342.395 z"
       inkscape:connector-curvature="0" />
    <path
       style="fill:none;stroke:#ff0000;stroke-width:1;stroke-linecap:butt;stroke-linejoin:round;stroke-miterlimit:10;stroke-opacity:1;stroke-dasharray:none"
       d="m 727.63779,187.03086 c 2.1755,-3.37379 4.2554,-6.75512 6.602,-10.11545 2.0707,-3.2465 4.1861,-6.48944 6.4047,-9.72457 2.1904,-3.41678 4.6186,-6.81437 6.8664,-10.22675 1.8694,-2.89314 4.061,-5.76022 5.9934,-8.64861 2.1925,-3.05652 4.4404,-6.10883 6.6648,-9.163 2.4396,-2.97452 4.5049,-5.98406 7.1585,-8.9382 2.0837,-2.5629 4.3696,-5.10518 6.8621,-7.62571 2.2731,-2.36411 4.9413,-4.68424 7.8863,-6.96143 2.8536,-1.91574 5.6384,-3.98384 10.8743,-5.29815 2.0225,-0.4744 4.7741,-0.57417 6.9427,-0.14381 3.2178,0.62597 5.2344,1.75165 7.073,2.80579 3.8121,2.524 6.5969,5.20789 8.9008,7.92839 2.8686,3.03886 4.7714,6.16962 7.1308,9.25519 1.9031,2.8606 3.7004,5.72903 5.5591,8.59248 1.94,3.20724 3.7671,6.42235 5.7912,9.62332 2.0567,3.5637 4.1746,7.12318 6.4491,10.67161 1.4806,2.48356 3.1097,4.95595 4.8386,7.42069 2.5921,3.949 5.6779,7.86095 9.2935,11.71703 2.8053,2.60135 5.4079,5.31133 10.6004,7.50221 1.9644,0.81925 4.9241,1.44744 8.1479,1.32897 43.85465,0 87.70935,0 131.56401,0 2.4816,-1.63758 4.3567,-3.38767 7.3627,-4.9324 2.5986,-1.53649 5.7451,-3.0284 10.1079,-4.04452 3.7255,-0.94496 8.9703,-0.99976 13.0249,-0.26324 3.1864,0.52117 5.9462,1.27634 8.4737,2.10535 4.0028,1.2393 7.5087,2.64766 11.4296,3.91572 3.7409,1.242 7.8105,2.4878 12.9,3.04024 3.7324,0.31294 7.6352,0.12782 11.4478,0.17885 27.2029,0 54.4057,0 81.6085,0"
       id="path5132"
       inkscape:connector-curvature="0" />
    <path
       style="fill:none;stroke:#000000;stroke-width:1;stroke-linecap:butt;stroke-linejoin:round;stroke-miterlimit:10;stroke-opacity:1;stroke-dasharray:11.2, 4.2;stroke-dashoffset:0;display:none"
       d="m 727.57651,-9.7591957 c 4.6762,-0.1070284 9.2113,1.6460586 13.1636,4.0341226 4.452,2.720485 8.298,6.2891951 11.8951,10.0419134 2.4556,2.7073247 4.9341,5.3897018 7.0771,8.3592917 3.5468,4.433055 6.8404,9.069701 10.022,13.769982 4.4316,6.573316 8.814,13.178815 13.0535,19.875269 2.6164,3.683236 4.904,7.597809 7.5615,11.254834 3.0477,4.473934 6.243,8.853718 9.5372,13.148969 5.3381,6.654309 11.0361,13.215849 18.1449,18.028859 3.3487,2.194552 6.9889,4.085041 10.9415,4.863966 3.384,0.808513 6.9011,0.602279 10.2832,-0.103724 3.943,-0.935607 7.6511,-2.798167 10.9768,-5.096711 2.2508,-1.495217 4.3324,-3.267467 6.3312,-5.081834 2.2708,-2.073355 4.3977,-4.298901 6.4878,-6.546997 3.0096,-3.541475 6.0054,-7.098778 8.7959,-10.819191 20.03856,0 40.24603,0 60.46915,0 24.35038,0 48.72345,0 72.85164,0 0.1504,-10.150893 0.209,-12.159438 0.6093,-23.007151 4.0041,4.907153 9.367,10.649727 13.8825,15.090901 4.5747,4.352336 9.5077,8.412101 15.1188,11.360784 2.8375,1.529455 5.8356,2.792411 8.9862,3.474707 2.6572,0.535463 5.3587,0.87698 8.0678,0.684509 3.3446,-0.08136 6.6307,-0.953902 9.729,-2.195614 2.9251,-1.091514 5.7106,-2.594365 8.345,-4.265407 0.8319,-0.762831 1.8036,-1.263103 2.9539,-1.038979 29.6027,0 59.2055,0 88.8082,0"
       id="path5140"
       inkscape:connector-curvature="0"
       sodipodi:nodetypes="cccccccccccccccscccccccccc" />
    <path
       style="opacity:0.33800001;fill:none;stroke:#000000;stroke-width:1px;stroke-linecap:butt;stroke-linejoin:miter;stroke-opacity:1;marker-mid:url(#Arrow1Lend-2)"
       d="m 1005.5312,90.57589 c 0,0 25.0001,7.857147 36.4286,8.214287 11.4286,0.35715 22.8572,3e-6 29.6429,-1.071427"
       id="path7527"
       inkscape:connector-curvature="0"
       sodipodi:nodetypes="csc" />
    <path
       style="opacity:0.33800001;fill:none;stroke:#000000;stroke-width:1px;stroke-linecap:butt;stroke-linejoin:miter;stroke-opacity:1;marker-mid:url(#Arrow1Lend-2)"
       d="m 1005.8884,131.29018 c 0,0 22.8571,2.85714 34.6429,2.85714 11.7857,0 26.0714,-0.71428 31.0714,-1.07143"
       id="path7529"
       inkscape:connector-curvature="0"
       sodipodi:nodetypes="csc" />
    <path
       style="opacity:0.33800001;fill:none;stroke:#000000;stroke-width:1px;stroke-linecap:butt;stroke-linejoin:miter;stroke-opacity:1;marker-mid:url(#Arrow1Lend-2)"
       d="m 315.35714,197.06696 c 0,0 27.85715,1.78572 37.5,1.42857 9.64286,-0.35714 28.57143,-1.07142 28.57143,-1.07142"
       id="path7531"
       inkscape:connector-curvature="0"
       transform="translate(690.53125,-28.0625)"
       sodipodi:nodetypes="csc" />
    <path
       style="fill:none;stroke:#008000;stroke-width:0.50000000000000000;stroke-linecap:butt;stroke-linejoin:round;stroke-miterlimit:10;stroke-opacity:1;stroke-dasharray:0.50000000000000000, 2;stroke-dashoffset:0;opacity:0.61983471"
       d="m 727.83755,-9.761933 c 170.5007,0 292.10095,0.18397 433.95815,0"
       id="path3055"
       inkscape:connector-curvature="0"
       sodipodi:nodetypes="cc" />
    <path
       sodipodi:nodetypes="cc"
       inkscape:connector-curvature="0"
       id="path3900"
       d="m 727.83755,73.925566 c 125.38943,0 214.81696,0.18397 319.14085,0"
       style="fill:none;stroke:#008000;stroke-width:0.50000000000000000;stroke-linecap:butt;stroke-linejoin:round;stroke-miterlimit:10;stroke-opacity:1;stroke-dasharray:0.50000000000000000, 2;stroke-dashoffset:0;opacity:0.61983471" />
    <path
       style="fill:none;stroke:#008000;stroke-width:0.50000000000000000;stroke-linecap:butt;stroke-linejoin:round;stroke-miterlimit:10;stroke-opacity:1;stroke-dasharray:0.50000000000000000, 2;stroke-dashoffset:0;opacity:0.61983471"
       d="m 727.83755,94.457906 c 41.77039,0 71.56096,0.0613 106.31406,0"
       id="path4022"
       inkscape:connector-curvature="0"
       sodipodi:nodetypes="cc" />
    <path
       style="fill:none;stroke:#0000ff;stroke-width:1;stroke-linecap:butt;stroke-linejoin:round;stroke-miterlimit:10;stroke-opacity:1;stroke-dasharray:4,8;opacity:1;stroke-dashoffset:0"
       d="m 727.65178,187.22325 c 2.17554,-3.38731 4.25535,-6.78218 6.60203,-10.15597 2.14459,-3.43596 4.44901,-6.85958 6.74557,-10.28389 2.05371,-3.31596 4.50083,-6.60095 6.61306,-9.91253 2.17969,-3.25691 4.55433,-6.4979 6.75234,-9.75355 2.73776,-3.59656 5.10223,-7.22567 8.03056,-10.80562 2.19931,-2.99099 4.76683,-5.9475 7.26557,-8.91062 2.18782,-2.51192 4.59747,-5.00166 7.15737,-7.47273 2.38637,-2.03896 4.54851,-4.11979 7.7085,-6.04064 2.31684,-1.48008 4.9985,-3.04078 9.4574,-3.87139 1.88401,-0.30724 4.14971,-0.31582 5.93059,0.0833 2.69986,0.46242 4.31636,1.40464 6.05696,2.20813 2.77905,1.62164 4.75532,3.38341 6.70027,5.13318 2.77319,2.85087 5.33607,5.72621 7.36114,8.64983 1.81744,2.5435 3.71954,5.07934 5.26418,7.64437 1.59956,2.57808 3.35288,5.14413 4.82181,7.73162 1.38031,2.38091 2.80449,4.7586 4.28032,7.13255 1.96947,3.37763 3.89579,6.75843 6.08552,10.1203 2.48785,4.19656 5.35457,8.36575 8.35456,12.52319 1.42915,1.92528 3.08511,3.83087 4.72633,5.73666 1.93604,2.09707 4.12157,4.17552 6.8334,6.17261 2.25504,1.39573 4.42421,2.97599 8.71733,3.77202 2.50721,0.51023 5.54581,0.22456 8.30796,0.29913 5.50745,-0.0219 11.031,0.0439 16.52835,-0.033 3.52084,-0.10402 6.37514,-0.95497 8.72559,-1.78294 3.45099,-1.25864 6.14849,-2.72169 8.61031,-4.21938 2.65168,-1.5675 4.94949,-3.20233 7.20959,-4.83749 2.79148,-2.19206 5.69863,-4.36662 8.16424,-6.60464 3.01822,-2.42546 5.49211,-4.92368 8.31101,-7.37544 2.89955,-2.78062 5.97784,-5.53865 8.75524,-8.33419 2.82841,-2.59269 5.31066,-5.22748 8.15131,-7.81814 2.91642,-2.96472 6.22339,-5.88196 9.20909,-8.83878 2.40836,-2.03348 4.40538,-4.12075 6.875,-6.14661 1.84614,-1.65657 3.7248,-3.30923 5.83404,-4.92842 2.23349,-1.87877 4.76935,-3.71179 7.3138,-5.54332 2.24298,-1.56469 4.70475,-3.09817 7.40044,-4.5775 2.42594,-1.17105 4.69062,-2.39995 7.88946,-3.35529 2.43236,-0.79054 5.60228,-1.44796 9.04878,-1.47638 4.6173,0.0514 8.2592,1.19708 10.8472,2.39485 3.0687,1.29123 5.101,2.82231 7.256,4.299 2.1141,1.65246 4.0431,3.33374 5.8048,5.03263 3.3428,3.37787 6.3782,6.79011 9.0217,10.23876 2.718,3.19386 4.815,6.4442 7.3253,9.65656 2.7959,4.03838 5.8122,8.0578 8.5893,12.09773 2.3999,3.19695 4.6829,6.40469 7.1673,9.59457 2.2043,2.60262 4.1407,5.23195 6.6863,7.79999 2.5222,2.85695 5.5507,5.66326 9.1306,8.38685 2.7224,1.8414 5.431,3.747 9.9557,5.16965 1.7401,0.5699 3.9785,0.99527 6.3543,1.1657 8.4388,0.0788 16.9009,0.0143 25.3492,0.0353 14.224,0 28.448,0 42.672,0"
       id="path3265"
       inkscape:connector-curvature="0" />
  </g>
</svg>
