<?xml version="1.0" encoding="UTF-8" standalone="no"?>
<!-- Created with Inkscape (http://www.inkscape.org/) -->

<svg
   xmlns:dc="http://purl.org/dc/elements/1.1/"
   xmlns:cc="http://creativecommons.org/ns#"
   xmlns:rdf="http://www.w3.org/1999/02/22-rdf-syntax-ns#"
   xmlns:svg="http://www.w3.org/2000/svg"
   xmlns="http://www.w3.org/2000/svg"
   xmlns:sodipodi="http://sodipodi.sourceforge.net/DTD/sodipodi-0.dtd"
   xmlns:inkscape="http://www.inkscape.org/namespaces/inkscape"
   width="498.34375"
   height="241.21875"
   id="svg2"
   version="1.1"
   inkscape:version="0.48.5 r10040"
   sodipodi:docname="tubo_example1.pdf">
  <defs
     id="defs4">
    <marker
       inkscape:stockid="StopL"
       orient="auto"
       refY="0"
       refX="0"
       id="StopL"
       style="overflow:visible">
      <path
         id="path3980"
         d="M 0,5.65 0,-5.65"
         style="fill:none;stroke:#000000;stroke-width:1pt"
         transform="scale(0.8,0.8)"
         inkscape:connector-curvature="0" />
    </marker>
    <marker
       style="overflow:visible"
       id="DistanceStart"
       refX="0"
       refY="0"
       orient="auto"
       inkscape:stockid="DistanceStart">
      <g
         id="g2300">
        <path
           style="fill:none;stroke:#ffffff;stroke-width:1.14999998;stroke-linecap:square"
           d="M 0,0 2,0"
           id="path2306"
           inkscape:connector-curvature="0" />
        <path
           style="fill:#000000;fill-rule:evenodd;stroke:none"
           d="M 0,0 13,4 9,0 13,-4 0,0 z"
           id="path2302"
           inkscape:connector-curvature="0" />
        <path
           style="fill:none;stroke:#000000;stroke-width:1;stroke-linecap:square"
           d="M 0,-4 0,40"
           id="path2304"
           inkscape:connector-curvature="0" />
      </g>
    </marker>
    <marker
       inkscape:stockid="Arrow1Lend"
       orient="auto"
       refY="0"
       refX="0"
       id="Arrow1Lend"
       style="overflow:visible">
      <path
         id="path4967"
         d="M 0,0 5,-5 -12.5,0 5,5 0,0 z"
         style="fill-rule:evenodd;stroke:#000000;stroke-width:1pt"
         transform="matrix(-0.8,0,0,-0.8,-10,0)"
         inkscape:connector-curvature="0" />
    </marker>
    <clipPath
       id="clipPath3264"
       clipPathUnits="userSpaceOnUse">
      <path
         id="path3266"
         d="m 282.5,128.332 3472.5,0 0,2740 -3472.5,0 0,-2740 z"
         inkscape:connector-curvature="0" />
    </clipPath>
    <clipPath
       id="clipPath3020"
       clipPathUnits="userSpaceOnUse">
      <path
         id="path3022"
         d="m 3,7 3817,0 0,2953 L 3,2960 3,7 z"
         inkscape:connector-curvature="0" />
    </clipPath>
    <clipPath
       id="clipPath3259"
       clipPathUnits="userSpaceOnUse">
      <path
         id="path3261"
         d="m 172.5,128.332 3472.5,0 0,2740 -3472.5,0 0,-2740 z"
         inkscape:connector-curvature="0" />
    </clipPath>
    <clipPath
       id="clipPath3075"
       clipPathUnits="userSpaceOnUse">
      <path
         id="path3077"
         d="m 5,7 3705,0 0,2953 L 5,2960 5,7 z"
         inkscape:connector-curvature="0" />
    </clipPath>
    <marker
       inkscape:stockid="Arrow1Lend"
       orient="auto"
       refY="0"
       refX="0"
       id="Arrow1Lend-9"
       style="overflow:visible">
      <path
         id="path4967-2"
         d="M 0,0 5,-5 -12.5,0 5,5 0,0 z"
         style="fill-rule:evenodd;stroke:#000000;stroke-width:1pt"
         transform="matrix(-0.8,0,0,-0.8,-10,0)"
         inkscape:connector-curvature="0" />
    </marker>
    <marker
       inkscape:stockid="Arrow1Lend"
       orient="auto"
       refY="0"
       refX="0"
       id="Arrow1Lend-5"
       style="overflow:visible">
      <path
         id="path4967-7"
         d="M 0,0 5,-5 -12.5,0 5,5 0,0 z"
         style="fill-rule:evenodd;stroke:#000000;stroke-width:1pt"
         transform="matrix(-0.8,0,0,-0.8,-10,0)"
         inkscape:connector-curvature="0" />
    </marker>
    <marker
       inkscape:stockid="Arrow1Lend"
       orient="auto"
       refY="0"
       refX="0"
       id="Arrow1Lend-7"
       style="overflow:visible">
      <path
         id="path4967-6"
         d="M 0,0 5,-5 -12.5,0 5,5 0,0 z"
         style="fill-rule:evenodd;stroke:#000000;stroke-width:1pt"
         transform="matrix(-0.8,0,0,-0.8,-10,0)"
         inkscape:connector-curvature="0" />
    </marker>
    <marker
       inkscape:stockid="Arrow1Lend"
       orient="auto"
       refY="0"
       refX="0"
       id="Arrow1Lend-74"
       style="overflow:visible">
      <path
         id="path4967-20"
         d="M 0,0 5,-5 -12.5,0 5,5 0,0 z"
         style="fill-rule:evenodd;stroke:#000000;stroke-width:1pt"
         transform="matrix(-0.8,0,0,-0.8,-10,0)"
         inkscape:connector-curvature="0" />
    </marker>
    <marker
       inkscape:stockid="Arrow1Lend"
       orient="auto"
       refY="0"
       refX="0"
       id="Arrow1Lend-2"
       style="overflow:visible">
      <path
         id="path4967-75"
         d="M 0,0 5,-5 -12.5,0 5,5 0,0 z"
         style="fill-rule:evenodd;stroke:#000000;stroke-width:1pt"
         transform="matrix(-0.8,0,0,-0.8,-10,0)"
         inkscape:connector-curvature="0" />
    </marker>
  </defs>
  <sodipodi:namedview
     id="base"
     pagecolor="#ffffff"
     bordercolor="#666666"
     borderopacity="1.0"
     inkscape:pageopacity="0.0"
     inkscape:pageshadow="2"
     inkscape:zoom="1.979899"
     inkscape:cx="161.99858"
     inkscape:cy="107.52777"
     inkscape:document-units="px"
     inkscape:current-layer="layer1"
     showgrid="true"
     showguides="true"
     inkscape:guide-bbox="true"
     fit-margin-top="0"
     fit-margin-left="0"
     fit-margin-right="0"
     fit-margin-bottom="0"
     inkscape:window-width="1920"
     inkscape:window-height="1060"
     inkscape:window-x="-2"
     inkscape:window-y="-3"
     inkscape:window-maximized="1"
     inkscape:snap-grids="false">
    <inkscape:grid
       type="xygrid"
       id="grid3027"
       empspacing="5"
       visible="true"
       enabled="true"
       snapvisiblegridlinesonly="true"
       originx="-559.80695px"
       originy="-156.58143px" />
  </sodipodi:namedview>
  <metadata
     id="metadata7">
    <rdf:RDF>
      <cc:Work
         rdf:about="">
        <dc:format>image/svg+xml</dc:format>
        <dc:type
           rdf:resource="http://purl.org/dc/dcmitype/StillImage" />
        <dc:title></dc:title>
      </cc:Work>
    </rdf:RDF>
  </metadata>
  <g
     inkscape:label="Layer 1"
     inkscape:groupmode="layer"
     id="layer1"
     transform="translate(-687.36945,15.86267)">
    <path
       style="opacity:0.58264465;fill:none;stroke:#000000;stroke-width:0.625;stroke-linecap:butt;stroke-linejoin:miter;stroke-miterlimit:4;stroke-opacity:1;stroke-dasharray:none;marker-mid:url(#Arrow1Lend)"
       d="m 727.49093,43.17392 c 0,0 29.81859,23.735568 34.52073,27.057402 10.07905,7.12035 34.88376,33.988758 50.89918,39.162018 15.02284,4.85263 37.52548,0.75995 59.48664,-9.25647"
       id="path4954"
       inkscape:connector-curvature="0"
       sodipodi:nodetypes="cssc" />
    <path
       style="opacity:0.58264465;fill:none;stroke:#000000;stroke-width:0.625;stroke-linecap:butt;stroke-linejoin:miter;stroke-miterlimit:4;stroke-opacity:1;stroke-dasharray:none;marker-mid:url(#Arrow1Lend)"
       d="m 728.63072,176.35993 c 0,0 31.94435,-0.25054 45.69295,-0.0313 13.74859,0.21923 38.36452,-0.094 44.7534,-0.21923 12.77773,-0.25054 53.86696,-1.25271 53.86696,-1.25271"
       id="path4956"
       inkscape:connector-curvature="0"
       sodipodi:nodetypes="cssc" />
    <text
       xml:space="preserve"
       style="font-size:13.42943668px;font-style:normal;font-weight:normal;line-height:125%;letter-spacing:0px;word-spacing:0px;fill:#000000;fill-opacity:1;stroke:none;font-family:Sans"
       x="689.34845"
       y="190.7462"
       id="text6326"
       sodipodi:linespacing="125%"><tspan
         sodipodi:role="line"
         id="tspan6328"
         x="689.34845"
         y="190.7462">$p=0$</tspan></text>
    <text
       sodipodi:linespacing="125%"
       id="text6374"
       y="218.63251"
       x="892.09473"
       style="font-size:11.21522236px;font-style:normal;font-weight:normal;line-height:125%;letter-spacing:0px;word-spacing:0px;fill:#000000;fill-opacity:1;stroke:none;font-family:Sans"
       xml:space="preserve"><tspan
         y="218.63251"
         x="892.09473"
         id="tspan6376"
         sodipodi:role="line">reformation</tspan></text>
    <path
       id="path3083"
       style="fill:none;stroke:#ffffff;stroke-width:0.625;stroke-linecap:butt;stroke-linejoin:round;stroke-miterlimit:10;stroke-opacity:1;stroke-dasharray:none"
       d="m 727.65178,332.65758 433.95872,0 0,-342.395 -433.95872,0 0,342.395 z"
       inkscape:connector-curvature="0" />
    <path
       style="fill:none;stroke:#0000ff;stroke-width:1;stroke-linecap:butt;stroke-linejoin:round;stroke-miterlimit:10;stroke-opacity:1;stroke-dasharray:none"
       d="m 727.65178,187.22325 c 2.17554,-3.38731 4.25535,-6.78218 6.60203,-10.15597 2.14459,-3.43596 4.44901,-6.85958 6.74557,-10.28389 2.05371,-3.31596 4.50083,-6.60095 6.61306,-9.91253 2.17969,-3.25691 4.55433,-6.4979 6.75234,-9.75355 2.73776,-3.59656 5.10223,-7.22567 8.03056,-10.80562 2.19931,-2.99099 4.76683,-5.9475 7.26557,-8.91062 2.18782,-2.51192 4.59747,-5.00166 7.15737,-7.47273 2.38637,-2.03896 4.54851,-4.11979 7.7085,-6.04064 2.31684,-1.48008 4.9985,-3.04078 9.4574,-3.87139 1.88401,-0.30724 4.14971,-0.31582 5.93059,0.0833 2.69986,0.46242 4.31636,1.40464 6.05696,2.20813 2.77905,1.62164 4.75532,3.38341 6.70027,5.13318 2.77319,2.85087 5.33607,5.72621 7.36114,8.64983 1.81744,2.5435 3.71954,5.07934 5.26418,7.64437 1.59956,2.57808 3.35288,5.14413 4.82181,7.73162 1.38031,2.38091 2.80449,4.7586 4.28032,7.13255 1.96947,3.37763 3.89579,6.75843 6.08552,10.1203 2.48785,4.19656 5.35457,8.36575 8.35456,12.52319 1.42915,1.92528 3.08511,3.83087 4.72633,5.73666 1.93604,2.09707 4.12157,4.17552 6.8334,6.17261 2.25504,1.39573 4.42421,2.97599 8.71733,3.77202 2.50721,0.51023 5.54581,0.22456 8.30796,0.29913 5.50745,-0.0219 11.031,0.0439 16.52835,-0.033 3.52084,-0.10402 6.37514,-0.95497 8.72559,-1.78294 3.45099,-1.25864 6.14849,-2.72169 8.61031,-4.21938 2.65168,-1.5675 4.94949,-3.20233 7.20959,-4.83749 2.79148,-2.19206 5.69863,-4.36662 8.16424,-6.60464 3.01822,-2.42546 5.49211,-4.92368 8.31101,-7.37544 2.89955,-2.78062 5.97784,-5.53865 8.75524,-8.33419 2.82841,-2.59269 5.31066,-5.22748 8.15131,-7.81814 2.91642,-2.96472 6.22339,-5.88196 9.20909,-8.83878 2.40836,-2.03348 4.40538,-4.12075 6.875,-6.14661 1.84614,-1.65657 3.7248,-3.30923 5.83404,-4.92842 2.23349,-1.87877 4.76935,-3.71179 7.3138,-5.54332 2.24298,-1.56469 4.70475,-3.09817 7.40044,-4.5775 2.42594,-1.17105 4.69062,-2.39995 7.88946,-3.35529 2.43236,-0.79054 5.60228,-1.44796 9.04878,-1.47638 4.6173,0.0514 8.2592,1.19708 10.8472,2.39485 3.0687,1.29123 5.101,2.82231 7.256,4.299 2.1141,1.65246 4.0431,3.33374 5.8048,5.03263 3.3428,3.37787 6.3782,6.79011 9.0217,10.23876 2.718,3.19386 4.815,6.4442 7.3253,9.65656 2.7959,4.03838 5.8122,8.0578 8.5893,12.09773 2.3999,3.19695 4.6829,6.40469 7.1673,9.59457 2.2043,2.60262 4.1407,5.23195 6.6863,7.79999 2.5222,2.85695 5.5507,5.66326 9.1306,8.38685 2.7224,1.8414 5.431,3.747 9.9557,5.16965 1.7401,0.5699 3.9785,0.99527 6.3543,1.1657 8.4388,0.0788 16.9009,0.0143 25.3492,0.0353 14.224,0 28.448,0 42.672,0"
       id="path3265"
       inkscape:connector-curvature="0" />
    <path
       style="fill:none;stroke:#008000;stroke-width:2;stroke-linecap:butt;stroke-linejoin:round;stroke-miterlimit:10;stroke-opacity:1;stroke-dasharray:none"
       d="m 727.65178,-9.73767 c 15.59986,0.7470053 25.89102,14.6054808 34.7915,25.8325 17.57888,22.991591 29.9651,50.250685 51.771,69.7925 8.83334,8.058975 22.66283,11.39436 33.125,4.375 17.39093,-10.837896 27.9721,-29.295651 39.55856,-45.639973 12.87406,-18.056056 24.28077,-38.6882424 43.67019,-50.610027 11.41878,-6.971309 25.95851,-3.4288194 35.625,4.895 24.63963,19.633032 38.70237,49.834102 64.58377,68.125 10.5827,7.752996 25.3864,8.914319 36.5625,1.6675 21.5516,-13.29286 35.0996,-35.551438 52.3648,-53.480965 11.1723,-11.7610486 24.5604,-24.8999867 41.9064,-24.956535"
       id="path3269"
       inkscape:connector-curvature="0" />
    <path
       sodipodi:nodetypes="cc"
       inkscape:connector-curvature="0"
       id="path3971-4"
       d="m 728.44023,203.32519 c 170.5007,0 292.10147,0.18397 433.95867,0"
       style="fill:none;stroke:#008000;stroke-width:2;stroke-linecap:butt;stroke-linejoin:round;stroke-miterlimit:10;stroke-opacity:1;stroke-dasharray:none" />
    <path
       style="fill:none;stroke:#0000ff;stroke-width:0.5;stroke-linecap:butt;stroke-linejoin:round;stroke-miterlimit:10;stroke-opacity:1;stroke-dasharray:4, 4;stroke-dashoffset:0"
       d="m 726.26423,187.139 c 170.5007,0 292.10147,0.18397 433.95867,0"
       id="path3984-8"
       inkscape:connector-curvature="0"
       sodipodi:nodetypes="cc" />
    <path
       style="fill:none;stroke:#000000;stroke-width:0.50000000000000000;stroke-linecap:butt;stroke-linejoin:miter;stroke-miterlimit:4;stroke-opacity:1;stroke-dasharray:0.50000000000000000, 2;stroke-dashoffset:0;opacity:0.62"
       d="m 872.06249,202.29464 0,-130.714281"
       id="path3805"
       inkscape:connector-curvature="0" />
    <path
       style="fill:none;stroke:#000000;stroke-width:0.50000000000000000;stroke-linecap:butt;stroke-linejoin:miter;stroke-miterlimit:4;stroke-opacity:1;stroke-dasharray:0.50000000000000000, 2;stroke-dashoffset:0;opacity:0.62"
       d="m 894.1354,202.29465 0,-168.928575"
       id="path3807"
       inkscape:connector-curvature="0" />
    <path
       style="fill:none;stroke:#000000;stroke-width:0.50000000000000000;stroke-linecap:butt;stroke-linejoin:miter;stroke-miterlimit:4;stroke-opacity:1;stroke-dasharray:0.50000000000000000, 2;stroke-dashoffset:0;opacity:0.62"
       d="m 1093.5113,202.65179 0,-155.714288"
       id="path3809"
       inkscape:connector-curvature="0" />
    <path
       style="opacity:0.58264465;fill:none;stroke:#000000;stroke-width:0.625;stroke-linecap:butt;stroke-linejoin:miter;stroke-miterlimit:4;stroke-opacity:1;stroke-dasharray:none;marker-mid:url(#Arrow1Lend)"
       d="m 729.03338,128.30648 c 0,0 25.04522,4.40558 39.08803,7.66188 15.04343,3.48833 54.47406,4.54729 64.31615,4.79645 19.68417,0.49834 39.36832,-1.24583 39.36832,-1.24583"
       id="path4958-2"
       inkscape:connector-curvature="0"
       sodipodi:nodetypes="cssc" />
    <path
       style="opacity:0.58264465;fill:none;stroke:#000000;stroke-width:0.625;stroke-linecap:butt;stroke-linejoin:miter;stroke-miterlimit:4;stroke-opacity:1;stroke-dasharray:none;marker-mid:url(#Arrow1Lend)"
       d="m 894.79856,87.693916 c 0,0 41.95727,-32.71114 47.65268,-33.551748 32.88584,-4.853754 46.54824,27.883315 70.84976,39.667096 21.7037,10.524156 57.4759,7.831016 79.437,-2.185402"
       id="path4954-7"
       inkscape:connector-curvature="0"
       sodipodi:nodetypes="cssc" />
    <path
       style="opacity:0.58264465;fill:none;stroke:#000000;stroke-width:0.625;stroke-linecap:butt;stroke-linejoin:miter;stroke-miterlimit:4;stroke-opacity:1;stroke-dasharray:none;marker-mid:url(#Arrow1Lend)"
       d="m 894.60286,135.78568 c 0,0 21.53635,-8.55955 47.39858,-15.36242 31.17159,-8.19946 51.86722,12.35646 74.18836,13.56132 27.9227,1.50723 75.7338,-2.25598 75.7338,-2.25598"
       id="path4958-2-6"
       inkscape:connector-curvature="0"
       sodipodi:nodetypes="cssc" />
    <path
       style="opacity:0.58264465;fill:none;stroke:#000000;stroke-width:0.625;stroke-linecap:butt;stroke-linejoin:miter;stroke-miterlimit:4;stroke-opacity:1;stroke-dasharray:none;marker-mid:url(#Arrow1Lend)"
       d="m 893.97727,172.77679 c 0,0 41.60314,-2.15692 55.33581,-1.45987 18.39144,0.93351 66.93522,6.13093 73.32482,6.20934 12.9957,0.15948 70.2956,-4.10985 70.2956,-4.10985"
       id="path4956-9"
       inkscape:connector-curvature="0"
       sodipodi:nodetypes="cssc" />
    <text
       xml:space="preserve"
       style="font-size:9.86758232px;font-style:normal;font-weight:normal;line-height:125%;letter-spacing:0px;word-spacing:0px;fill:#000000;fill-opacity:1;stroke:none;font-family:Sans"
       x="874.51453"
       y="124.1653"
       id="text6322-6"
       sodipodi:linespacing="125%"><tspan
         sodipodi:role="line"
         id="tspan6324-1"
         x="874.51453"
         y="124.1653">$\omega_0$</tspan></text>
    <text
       xml:space="preserve"
       style="font-size:9.86758232px;font-style:normal;font-weight:normal;line-height:125%;letter-spacing:0px;word-spacing:0px;fill:#000000;fill-opacity:1;stroke:none;font-family:Sans"
       x="1113.9788"
       y="124.1653"
       id="text6322-6-5"
       sodipodi:linespacing="125%"><tspan
         sodipodi:role="line"
         id="tspan6324-1-7"
         x="1113.9788"
         y="124.1653">$\omega_0$</tspan></text>
    <text
       xml:space="preserve"
       style="font-size:11.21522236px;font-style:normal;font-weight:normal;line-height:125%;letter-spacing:0px;word-spacing:0px;fill:#000000;fill-opacity:1;stroke:none;font-family:Sans"
       x="831.93542"
       y="216.45847"
       id="text6370-4"
       sodipodi:linespacing="125%"><tspan
         sodipodi:role="line"
         id="tspan6372-9"
         x="831.93542"
         y="216.45847">rupture</tspan></text>
    <text
       xml:space="preserve"
       style="font-size:11.21522236px;font-style:normal;font-weight:normal;line-height:125%;letter-spacing:0px;word-spacing:0px;fill:#000000;fill-opacity:1;stroke:none;font-family:Sans"
       x="1057.6498"
       y="216.45847"
       id="text6370-4-9"
       sodipodi:linespacing="125%"><tspan
         sodipodi:role="line"
         id="tspan6372-9-2"
         x="1057.6498"
         y="216.45847">rupture</tspan></text>
    <path
       style="fill:none;stroke:#008000;stroke-width:0.50000000000000000;stroke-linecap:butt;stroke-linejoin:round;stroke-miterlimit:10;stroke-opacity:1;stroke-dasharray:0.50000000000000000, 2;stroke-dashoffset:0;opacity:0.62"
       d="m 728.08309,-9.6480238 c 170.5007,0 292.10151,0.18397 433.95871,0"
       id="path3055"
       inkscape:connector-curvature="0"
       sodipodi:nodetypes="cc" />
    <path
       sodipodi:nodetypes="cc"
       inkscape:connector-curvature="0"
       id="path3900"
       d="m 728.08309,73.32519 c 125.38943,0 214.81696,0.18397 319.14141,0"
       style="fill:none;stroke:#008000;stroke-width:0.50000000000000000;stroke-linecap:butt;stroke-linejoin:round;stroke-miterlimit:10;stroke-opacity:1;stroke-dasharray:0.50000000000000000, 2;stroke-dashoffset:0;opacity:0.62" />
    <path
       style="fill:none;stroke:#008000;stroke-width:0.50000000000000000;stroke-linecap:butt;stroke-linejoin:round;stroke-miterlimit:10;stroke-opacity:1;stroke-dasharray:0.50000000000000000, 2;stroke-dashoffset:0;opacity:0.62"
       d="m 728.08309,93.857529 c 41.77039,0 71.56096,0.06128 106.31406,0"
       id="path4022"
       inkscape:connector-curvature="0"
       sodipodi:nodetypes="cc" />
  </g>
</svg>
